<svg width="54.99999922mm" height="64.50000308mm" viewBox="0 0 21653543 25393702"  version="1.1" xmlns="http://www.w3.org/2000/svg" xmlns:xlink="http://www.w3.org/1999/xlink">
<desc>
Origin 0 0 Bound 0 0 21653543 25393702
</desc>
<g fill-rule="evenodd" fill="rgb(128, 0, 128)" stroke="black" stroke-width="1" transform="translate(0, 25393702) scale(1, -1) translate(0, 0)">
<path id="N" d="M 21643702.00 24400000.00 L 21653543.00 24400000.00 L 21653543.00 1000000.00 L 20650000.00 0.00 L 1000000.00 0.00 L 0.00 1000000.00 L 0.00 25393702.00 L 20650000.00 25393702.00 L 21643702.00 24400000.00  zM 984247.86 1082741.14 m -482982.86 0 a 482982.86 482982.86 0 1 1 965965.71 0a 482982.86 482982.86 0 1 1 -965965.71 0M 1387795.00 3641732.00 L 777559.00 3641732.00 L 777559.00 3031496.00 L 1387795.00 3031496.00 L 1387795.00 3641732.00  zM 452754.02 4124033.20 m -217187.80 0 a 217187.80 217187.80 0 1 1 434375.61 0a 217187.80 217187.80 0 1 1 -434375.61 0M 2066927.49 3336629.82 m -306045.18 0 a 306045.18 306045.18 0 1 1 612090.36 0a 306045.18 306045.18 0 1 1 -612090.36 0M 2509838.86 1082735.14 m -482982.86 0 a 482982.86 482982.86 0 1 1 965965.71 0a 482982.86 482982.86 0 1 1 -965965.71 0M 3641733.88 492119.97 m -304100.03 0 a 304100.03 304100.03 0 1 1 608200.06 0a 304100.03 304100.03 0 1 1 -608200.06 0M 3641733.88 2263759.97 m -304100.03 0 a 304100.03 304100.03 0 1 1 608200.06 0a 304100.03 304100.03 0 1 1 -608200.06 0M 4750001.87 2854326.14 m -158880.86 0 a 158880.86 158880.86 0 1 1 317761.71 0a 158880.86 158880.86 0 1 1 -317761.71 0M 6503941.00 795283.00 L 5897643.00 795283.00 L 5897643.00 188985.00 L 6503941.00 188985.00 L 6503941.00 795283.00  zM 6200793.88 2263759.97 m -304100.03 0 a 304100.03 304100.03 0 1 1 608200.06 0a 304100.03 304100.03 0 1 1 -608200.06 0M 9547245.88 492111.97 m -304100.03 0 a 304100.03 304100.03 0 1 1 608200.06 0a 304100.03 304100.03 0 1 1 -608200.06 0M 9547245.88 2263771.97 m -304100.03 0 a 304100.03 304100.03 0 1 1 608200.06 0a 304100.03 304100.03 0 1 1 -608200.06 0M 6750001.87 3641728.14 m -158880.86 0 a 158880.86 158880.86 0 1 1 317761.71 0a 158880.86 158880.86 0 1 1 -317761.71 0M 8562993.87 5118104.14 m -158880.86 0 a 158880.86 158880.86 0 1 1 317761.71 0a 158880.86 158880.86 0 1 1 -317761.71 0M 9350395.87 3543301.14 m -158880.86 0 a 158880.86 158880.86 0 1 1 317761.71 0a 158880.86 158880.86 0 1 1 -317761.71 0M 8956694.87 4330703.14 m -158880.86 0 a 158880.86 158880.86 0 1 1 317761.71 0a 158880.86 158880.86 0 1 1 -317761.71 0M 4696844.00 5590556.00 L 4145664.00 5590556.00 L 4145664.00 5039376.00 L 4696844.00 5039376.00 L 4696844.00 5590556.00  zM 2950001.87 7084641.14 m -158880.86 0 a 158880.86 158880.86 0 1 1 317761.71 0a 158880.86 158880.86 0 1 1 -317761.71 0M 1337028.00 11279528.00 L 1337028.00 10807088.00 A 434575.12 434575.12 0 1 1 2206292.00 10807088.00 L 2206292.00 11279528.00 A 434575.12 434575.12 0 0 1 1337028.00 11279528.00  zM 3699228.00 11279528.00 L 3699228.00 10807088.00 A 434575.12 434575.12 0 1 1 4568492.00 10807088.00 L 4568492.00 11279528.00 A 434575.12 434575.12 0 0 1 3699228.00 11279528.00  zM 5421248.18 5315003.85 m -276404.15 0 a 276404.15 276404.15 0 1 1 552808.31 0a 276404.15 276404.15 0 1 1 -552808.31 0M 7480316.87 5807082.14 m -158880.86 0 a 158880.86 158880.86 0 1 1 317761.71 0a 158880.86 158880.86 0 1 1 -317761.71 0M 6450001.87 6534641.14 m -158880.86 0 a 158880.86 158880.86 0 1 1 317761.71 0a 158880.86 158880.86 0 1 1 -317761.71 0M 7738652.86 7834707.14 m -482982.86 0 a 482982.86 482982.86 0 1 1 965965.71 0a 482982.86 482982.86 0 1 1 -965965.71 0M 3188980.00 13328340.00 L 2716540.00 13328340.00 A 434575.12 434575.12 0 0 1 2716540.00 12459076.00 L 3188980.00 12459076.00 A 434575.12 434575.12 0 0 1 3188980.00 13328340.00  zM 4736209.31 14468512.08 m -339924.92 0 a 339924.92 339924.92 0 1 1 679849.84 0a 339924.92 339924.92 0 1 1 -679849.84 0M 6750001.87 12949994.14 m -158880.86 0 a 158880.86 158880.86 0 1 1 317761.71 0a 158880.86 158880.86 0 1 1 -317761.71 0M 5736209.31 14468512.08 m -339924.92 0 a 339924.92 339924.92 0 1 1 679849.84 0a 339924.92 339924.92 0 1 1 -679849.84 0M 7125217.87 11088537.14 m -158880.86 0 a 158880.86 158880.86 0 1 1 317761.71 0a 158880.86 158880.86 0 1 1 -317761.71 0M 7550001.87 11584641.14 m -158880.86 0 a 158880.86 158880.86 0 1 1 317761.71 0a 158880.86 158880.86 0 1 1 -317761.71 0M 7350001.87 13549994.14 m -158880.86 0 a 158880.86 158880.86 0 1 1 317761.71 0a 158880.86 158880.86 0 1 1 -317761.71 0M 7736209.31 14468512.08 m -339924.92 0 a 339924.92 339924.92 0 1 1 679849.84 0a 339924.92 339924.92 0 1 1 -679849.84 0M 12409453.00 795275.00 L 11803155.00 795275.00 L 11803155.00 188977.00 L 12409453.00 188977.00 L 12409453.00 795275.00  zM 10630316.87 2854326.14 m -158880.86 0 a 158880.86 158880.86 0 1 1 317761.71 0a 158880.86 158880.86 0 1 1 -317761.71 0M 12106305.88 2263771.97 m -304100.03 0 a 304100.03 304100.03 0 1 1 608200.06 0a 304100.03 304100.03 0 1 1 -608200.06 0M 15452756.88 2263762.97 m -304100.03 0 a 304100.03 304100.03 0 1 1 608200.06 0a 304100.03 304100.03 0 1 1 -608200.06 0M 10602364.00 5590556.00 L 10051184.00 5590556.00 L 10051184.00 5039376.00 L 10602364.00 5039376.00 L 10602364.00 5590556.00  zM 11326768.18 5315003.85 m -276404.15 0 a 276404.15 276404.15 0 1 1 552808.31 0a 276404.15 276404.15 0 1 1 -552808.31 0M 12650001.87 3641728.14 m -158880.86 0 a 158880.86 158880.86 0 1 1 317761.71 0a 158880.86 158880.86 0 1 1 -317761.71 0M 13385828.87 5807082.14 m -158880.86 0 a 158880.86 158880.86 0 1 1 317761.71 0a 158880.86 158880.86 0 1 1 -317761.71 0M 15452756.88 492102.97 m -304100.03 0 a 304100.03 304100.03 0 1 1 608200.06 0a 304100.03 304100.03 0 1 1 -608200.06 0M 16530316.87 2854326.14 m -158880.86 0 a 158880.86 158880.86 0 1 1 317761.71 0a 158880.86 158880.86 0 1 1 -317761.71 0M 16507864.00 5590556.00 L 15956684.00 5590556.00 L 15956684.00 5039376.00 L 16507864.00 5039376.00 L 16507864.00 5590556.00  zM 17232268.18 5315003.85 m -276404.15 0 a 276404.15 276404.15 0 1 1 552808.31 0a 276404.15 276404.15 0 1 1 -552808.31 0M 18314964.00 795266.00 L 17708666.00 795266.00 L 17708666.00 188968.00 L 18314964.00 188968.00 L 18314964.00 795266.00  zM 18011816.88 2263762.97 m -304100.03 0 a 304100.03 304100.03 0 1 1 608200.06 0a 304100.03 304100.03 0 1 1 -608200.06 0M 18580316.87 3641728.14 m -158880.86 0 a 158880.86 158880.86 0 1 1 317761.71 0a 158880.86 158880.86 0 1 1 -317761.71 0M 20472432.66 2559153.66 m -749465.34 0 a 749465.34 749465.34 0 1 1 1498930.68 0a 749465.34 749465.34 0 1 1 -1498930.68 0M 11300001.87 6978342.14 m -158880.86 0 a 158880.86 158880.86 0 1 1 317761.71 0a 158880.86 158880.86 0 1 1 -317761.71 0M 12795277.87 6496057.14 m -158880.86 0 a 158880.86 158880.86 0 1 1 317761.71 0a 158880.86 158880.86 0 1 1 -317761.71 0M 13385828.87 6791334.14 m -158880.86 0 a 158880.86 158880.86 0 1 1 317761.71 0a 158880.86 158880.86 0 1 1 -317761.71 0M 13976379.87 7086610.14 m -158880.86 0 a 158880.86 158880.86 0 1 1 317761.71 0a 158880.86 158880.86 0 1 1 -317761.71 0M 10099992.86 7834711.14 m -482982.86 0 a 482982.86 482982.86 0 1 1 965965.71 0a 482982.86 482982.86 0 1 1 -965965.71 0M 9736209.31 14468512.08 m -339924.92 0 a 339924.92 339924.92 0 1 1 679849.84 0a 339924.92 339924.92 0 1 1 -679849.84 0M 10736209.31 14468512.08 m -339924.92 0 a 339924.92 339924.92 0 1 1 679849.84 0a 339924.92 339924.92 0 1 1 -679849.84 0M 11736209.31 14468512.08 m -339924.92 0 a 339924.92 339924.92 0 1 1 679849.84 0a 339924.92 339924.92 0 1 1 -679849.84 0M 16850001.87 7384641.14 m -158880.86 0 a 158880.86 158880.86 0 1 1 317761.71 0a 158880.86 158880.86 0 1 1 -317761.71 0M 19291340.87 5807082.14 m -158880.86 0 a 158880.86 158880.86 0 1 1 317761.71 0a 158880.86 158880.86 0 1 1 -317761.71 0M 17692904.00 11779540.00 L 16968496.00 11779540.00 L 16968496.00 11055132.00 L 17692904.00 11055132.00 L 17692904.00 11779540.00  zM 20330691.97 9917411.24 m -538172.76 0 a 538172.76 538172.76 0 1 1 1076345.52 0a 538172.76 538172.76 0 1 1 -1076345.52 0M 16049993.86 11534711.14 m -482982.86 0 a 482982.86 482982.86 0 1 1 965965.71 0a 482982.86 482982.86 0 1 1 -965965.71 0M 14851174.86 12784707.14 m -482982.86 0 a 482982.86 482982.86 0 1 1 965965.71 0a 482982.86 482982.86 0 1 1 -965965.71 0M 20330691.97 12917411.24 m -538172.76 0 a 538172.76 538172.76 0 1 1 1076345.52 0a 538172.76 538172.76 0 1 1 -1076345.52 0M 736209.31 14468512.08 m -339924.92 0 a 339924.92 339924.92 0 1 1 679849.84 0a 339924.92 339924.92 0 1 1 -679849.84 0M 1736209.31 14468512.08 m -339924.92 0 a 339924.92 339924.92 0 1 1 679849.84 0a 339924.92 339924.92 0 1 1 -679849.84 0M 1149993.86 16750060.14 m -482982.86 0 a 482982.86 482982.86 0 1 1 965965.71 0a 482982.86 482982.86 0 1 1 -965965.71 0M 1181093.66 18897736.66 m -749465.34 0 a 749465.34 749465.34 0 1 1 1498930.68 0a 749465.34 749465.34 0 1 1 -1498930.68 0M 2736209.31 14468512.08 m -339924.92 0 a 339924.92 339924.92 0 1 1 679849.84 0a 339924.92 339924.92 0 1 1 -679849.84 0M 3736209.31 14468512.08 m -339924.92 0 a 339924.92 339924.92 0 1 1 679849.84 0a 339924.92 339924.92 0 1 1 -679849.84 0M 6736209.31 14468512.08 m -339924.92 0 a 339924.92 339924.92 0 1 1 679849.84 0a 339924.92 339924.92 0 1 1 -679849.84 0M 7750001.87 15999994.14 m -158880.86 0 a 158880.86 158880.86 0 1 1 317761.71 0a 158880.86 158880.86 0 1 1 -317761.71 0M 8736209.31 14468512.08 m -339924.92 0 a 339924.92 339924.92 0 1 1 679849.84 0a 339924.92 339924.92 0 1 1 -679849.84 0M 10326776.40 17322866.41 m -355695.59 0 a 355695.59 355695.59 0 1 1 711391.18 0a 355695.59 355695.59 0 1 1 -711391.18 0M 9484260.00 17678756.00 L 9169300.00 17678756.00 A 198440.13 198440.13 0 0 1 8970864.00 17480320.00 L 8970864.00 17165360.00 A 198440.13 198440.13 0 0 1 9169300.00 16966924.00 L 9484260.00 16966924.00 A 198440.13 198440.13 0 0 1 9682696.00 17165360.00 L 9682696.00 17480320.00 A 198440.13 198440.13 0 0 1 9484260.00 17678756.00  zM 10834647.87 19084641.14 m -158880.86 0 a 158880.86 158880.86 0 1 1 317761.71 0a 158880.86 158880.86 0 1 1 -317761.71 0M 8956694.87 19488184.14 m -158880.86 0 a 158880.86 158880.86 0 1 1 317761.71 0a 158880.86 158880.86 0 1 1 -317761.71 0M 8564964.87 21062987.14 m -158880.86 0 a 158880.86 158880.86 0 1 1 317761.71 0a 158880.86 158880.86 0 1 1 -317761.71 0M 10516386.00 20807727.00 L 10137174.00 20807727.00 L 10137174.00 19782845.00 L 10516386.00 19782845.00 L 10516386.00 20807727.00  zM 11016386.00 20807727.00 L 10637174.00 20807727.00 L 10637174.00 19782845.00 L 11016386.00 19782845.00 L 11016386.00 20807727.00  zM 1250001.87 22734641.14 m -158880.86 0 a 158880.86 158880.86 0 1 1 317761.71 0a 158880.86 158880.86 0 1 1 -317761.71 0M 885834.00 25143277.00 L 586622.00 25143277.00 A 190525.46 190525.46 0 0 1 396099.00 24952754.00 L 396099.00 24653542.00 A 190525.46 190525.46 0 0 1 586622.00 24463019.00 L 885834.00 24463019.00 A 190525.46 190525.46 0 0 1 1076357.00 24653542.00 L 1076357.00 24952754.00 A 190525.46 190525.46 0 0 1 885834.00 25143277.00  zM 1736225.31 24803163.08 m -339924.92 0 a 339924.92 339924.92 0 1 1 679849.84 0a 339924.92 339924.92 0 1 1 -679849.84 0M 2736225.31 24803163.08 m -339924.92 0 a 339924.92 339924.92 0 1 1 679849.84 0a 339924.92 339924.92 0 1 1 -679849.84 0M 3736225.31 24803163.08 m -339924.92 0 a 339924.92 339924.92 0 1 1 679849.84 0a 339924.92 339924.92 0 1 1 -679849.84 0M 4736225.31 24803163.08 m -339924.92 0 a 339924.92 339924.92 0 1 1 679849.84 0a 339924.92 339924.92 0 1 1 -679849.84 0M 5736225.31 24803163.08 m -339924.92 0 a 339924.92 339924.92 0 1 1 679849.84 0a 339924.92 339924.92 0 1 1 -679849.84 0M 6736225.31 24803163.08 m -339924.92 0 a 339924.92 339924.92 0 1 1 679849.84 0a 339924.92 339924.92 0 1 1 -679849.84 0M 10516386.00 22343147.00 L 10137174.00 22343147.00 L 10137174.00 21318265.00 L 10516386.00 21318265.00 L 10516386.00 22343147.00  zM 11016386.00 22343147.00 L 10637174.00 22343147.00 L 10637174.00 21318265.00 L 11016386.00 21318265.00 L 11016386.00 22343147.00  zM 8956694.87 22637791.14 m -158880.86 0 a 158880.86 158880.86 0 1 1 317761.71 0a 158880.86 158880.86 0 1 1 -317761.71 0M 9736225.31 24803163.08 m -339924.92 0 a 339924.92 339924.92 0 1 1 679849.84 0a 339924.92 339924.92 0 1 1 -679849.84 0M 7736225.31 24803163.08 m -339924.92 0 a 339924.92 339924.92 0 1 1 679849.84 0a 339924.92 339924.92 0 1 1 -679849.84 0M 8736225.31 24803163.08 m -339924.92 0 a 339924.92 339924.92 0 1 1 679849.84 0a 339924.92 339924.92 0 1 1 -679849.84 0M 10736217.31 24803163.08 m -339924.92 0 a 339924.92 339924.92 0 1 1 679849.84 0a 339924.92 339924.92 0 1 1 -679849.84 0M 12736209.31 14468512.08 m -339924.92 0 a 339924.92 339924.92 0 1 1 679849.84 0a 339924.92 339924.92 0 1 1 -679849.84 0M 13736209.31 14468512.08 m -339924.92 0 a 339924.92 339924.92 0 1 1 679849.84 0a 339924.92 339924.92 0 1 1 -679849.84 0M 14736209.31 14468512.08 m -339924.92 0 a 339924.92 339924.92 0 1 1 679849.84 0a 339924.92 339924.92 0 1 1 -679849.84 0M 15736209.31 14468512.08 m -339924.92 0 a 339924.92 339924.92 0 1 1 679849.84 0a 339924.92 339924.92 0 1 1 -679849.84 0M 11326776.40 17322866.41 m -355695.59 0 a 355695.59 355695.59 0 1 1 711391.18 0a 355695.59 355695.59 0 1 1 -711391.18 0M 12326776.40 17322866.41 m -355695.59 0 a 355695.59 355695.59 0 1 1 711391.18 0a 355695.59 355695.59 0 1 1 -711391.18 0M 13933065.86 16929196.14 m -482982.86 0 a 482982.86 482982.86 0 1 1 965965.71 0a 482982.86 482982.86 0 1 1 -965965.71 0M 12893702.87 19488184.14 m -158880.86 0 a 158880.86 158880.86 0 1 1 317761.71 0a 158880.86 158880.86 0 1 1 -317761.71 0M 16736209.31 14468512.08 m -339924.92 0 a 339924.92 339924.92 0 1 1 679849.84 0a 339924.92 339924.92 0 1 1 -679849.84 0M 17736209.31 14468512.08 m -339924.92 0 a 339924.92 339924.92 0 1 1 679849.84 0a 339924.92 339924.92 0 1 1 -679849.84 0M 18736209.31 14468512.08 m -339924.92 0 a 339924.92 339924.92 0 1 1 679849.84 0a 339924.92 339924.92 0 1 1 -679849.84 0M 19885818.00 14808626.00 L 19586606.00 14808626.00 A 190525.46 190525.46 0 0 1 19396083.00 14618103.00 L 19396083.00 14318891.00 A 190525.46 190525.46 0 0 1 19586606.00 14128368.00 L 19885818.00 14128368.00 A 190525.46 190525.46 0 0 1 20076341.00 14318891.00 L 20076341.00 14618103.00 A 190525.46 190525.46 0 0 1 19885818.00 14808626.00  zM 16550001.87 17784641.14 m -158880.86 0 a 158880.86 158880.86 0 1 1 317761.71 0a 158880.86 158880.86 0 1 1 -317761.71 0M 17850001.87 17934641.14 m -158880.86 0 a 158880.86 158880.86 0 1 1 317761.71 0a 158880.86 158880.86 0 1 1 -317761.71 0M 19550001.87 17934641.14 m -158880.86 0 a 158880.86 158880.86 0 1 1 317761.71 0a 158880.86 158880.86 0 1 1 -317761.71 0M 17950001.87 19834641.14 m -158880.86 0 a 158880.86 158880.86 0 1 1 317761.71 0a 158880.86 158880.86 0 1 1 -317761.71 0M 11516386.00 20807727.00 L 11137174.00 20807727.00 L 11137174.00 19782845.00 L 11516386.00 19782845.00 L 11516386.00 20807727.00  zM 11516386.00 22343147.00 L 11137174.00 22343147.00 L 11137174.00 21318265.00 L 11516386.00 21318265.00 L 11516386.00 22343147.00  zM 12893702.87 22637791.14 m -158880.86 0 a 158880.86 158880.86 0 1 1 317761.71 0a 158880.86 158880.86 0 1 1 -317761.71 0M 14736225.31 24803163.08 m -339924.92 0 a 339924.92 339924.92 0 1 1 679849.84 0a 339924.92 339924.92 0 1 1 -679849.84 0M 11736225.31 24803163.08 m -339924.92 0 a 339924.92 339924.92 0 1 1 679849.84 0a 339924.92 339924.92 0 1 1 -679849.84 0M 12736225.31 24803163.08 m -339924.92 0 a 339924.92 339924.92 0 1 1 679849.84 0a 339924.92 339924.92 0 1 1 -679849.84 0M 13736225.31 24803163.08 m -339924.92 0 a 339924.92 339924.92 0 1 1 679849.84 0a 339924.92 339924.92 0 1 1 -679849.84 0M 15736225.31 24803163.08 m -339924.92 0 a 339924.92 339924.92 0 1 1 679849.84 0a 339924.92 339924.92 0 1 1 -679849.84 0M 15900001.87 22299994.14 m -158880.86 0 a 158880.86 158880.86 0 1 1 317761.71 0a 158880.86 158880.86 0 1 1 -317761.71 0M 17250001.87 21099994.14 m -158880.86 0 a 158880.86 158880.86 0 1 1 317761.71 0a 158880.86 158880.86 0 1 1 -317761.71 0M 16736225.31 24803163.08 m -339924.92 0 a 339924.92 339924.92 0 1 1 679849.84 0a 339924.92 339924.92 0 1 1 -679849.84 0M 17736225.31 24803163.08 m -339924.92 0 a 339924.92 339924.92 0 1 1 679849.84 0a 339924.92 339924.92 0 1 1 -679849.84 0M 20472432.66 22637893.66 m -749465.34 0 a 749465.34 749465.34 0 1 1 1498930.68 0a 749465.34 749465.34 0 1 1 -1498930.68 0M 19736225.31 24803163.08 m -339924.92 0 a 339924.92 339924.92 0 1 1 679849.84 0a 339924.92 339924.92 0 1 1 -679849.84 0M 18736225.31 24803163.08 m -339924.92 0 a 339924.92 339924.92 0 1 1 679849.84 0a 339924.92 339924.92 0 1 1 -679849.84 0"/>
</g>
</svg>
