<svg width="54.99999922mm" height="64.50000308mm" viewBox="0 0 21653543 25393702"  version="1.1" xmlns="http://www.w3.org/2000/svg" xmlns:xlink="http://www.w3.org/1999/xlink">
<desc>
Origin 0 0 Bound 0 0 21653543 25393702
</desc>
<g fill-rule="evenodd" fill="rgb(255, 0, 255)" stroke="black" stroke-width="1" transform="translate(0, 25393702) scale(1, -1) translate(0, 0)">
<path id="N" d="M 21643702.00 24400000.00 L 21653543.00 24400000.00 L 21653543.00 1000000.00 L 20650000.00 0.00 L 1000000.00 0.00 L 0.00 1000000.00 L 0.00 25393702.00 L 20650000.00 25393702.00 L 21643702.00 24400000.00  zM 984247.86 1082741.14 m -482982.86 0 a 482982.86 482982.86 0 1 1 965965.71 0a 482982.86 482982.86 0 1 1 -965965.71 0M 2509838.86 1082735.14 m -482982.86 0 a 482982.86 482982.86 0 1 1 965965.71 0a 482982.86 482982.86 0 1 1 -965965.71 0M 3641733.88 492119.97 m -304100.03 0 a 304100.03 304100.03 0 1 1 608200.06 0a 304100.03 304100.03 0 1 1 -608200.06 0M 1387795.00 3641732.00 L 777559.00 3641732.00 L 777559.00 3031496.00 L 1387795.00 3031496.00 L 1387795.00 3641732.00  zM 3641733.88 2263759.97 m -304100.03 0 a 304100.03 304100.03 0 1 1 608200.06 0a 304100.03 304100.03 0 1 1 -608200.06 0M 5177165.00 846450.00 L 4665355.00 846450.00 L 4665355.00 492120.00 L 5177165.00 492120.00 L 5177165.00 846450.00  zM 5177165.00 1673230.00 L 4665355.00 1673230.00 L 4665355.00 1318900.00 L 5177165.00 1318900.00 L 5177165.00 1673230.00  zM 4750001.87 2854326.14 m -158880.86 0 a 158880.86 158880.86 0 1 1 317761.71 0a 158880.86 158880.86 0 1 1 -317761.71 0M 5393685.00 3228341.00 L 5039355.00 3228341.00 L 5039355.00 2913381.00 L 5393685.00 2913381.00 L 5393685.00 3228341.00  zM 452754.02 4124033.20 m -217187.80 0 a 217187.80 217187.80 0 1 1 434375.61 0a 217187.80 217187.80 0 1 1 -434375.61 0M 2066927.49 3336629.82 m -306045.18 0 a 306045.18 306045.18 0 1 1 612090.36 0a 306045.18 306045.18 0 1 1 -612090.36 0M 1437010.00 6338580.00 L 807090.00 6338580.00 L 807090.00 5866140.00 L 1437010.00 5866140.00 L 1437010.00 6338580.00  zM 2539370.00 6338580.00 L 1909450.00 6338580.00 L 1909450.00 5866140.00 L 2539370.00 5866140.00 L 2539370.00 6338580.00  zM 4402003.00 3721071.00 L 3865731.00 3721071.00 L 3865731.00 3266491.00 L 4402003.00 3266491.00 L 4402003.00 3721071.00  zM 5393685.00 3976381.00 L 5039355.00 3976381.00 L 5039355.00 3661421.00 L 5393685.00 3661421.00 L 5393685.00 3976381.00  zM 4402003.00 4410671.00 L 3865731.00 4410671.00 L 3865731.00 3956091.00 L 4402003.00 3956091.00 L 4402003.00 4410671.00  zM 4696844.00 5590556.00 L 4145664.00 5590556.00 L 4145664.00 5039376.00 L 4696844.00 5039376.00 L 4696844.00 5590556.00  zM 6503941.00 795283.00 L 5897643.00 795283.00 L 5897643.00 188985.00 L 6503941.00 188985.00 L 6503941.00 795283.00  zM 6200793.88 2263759.97 m -304100.03 0 a 304100.03 304100.03 0 1 1 608200.06 0a 304100.03 304100.03 0 1 1 -608200.06 0M 6181085.00 3602361.00 L 5826755.00 3602361.00 L 5826755.00 3287401.00 L 6181085.00 3287401.00 L 6181085.00 3602361.00  zM 6750001.87 3641728.14 m -158880.86 0 a 158880.86 158880.86 0 1 1 317761.71 0a 158880.86 158880.86 0 1 1 -317761.71 0M 8161833.00 4036425.00 L 7586191.00 4036425.00 L 7586191.00 3503105.00 L 8161833.00 3503105.00 L 8161833.00 4036425.00  zM 9547245.88 492111.97 m -304100.03 0 a 304100.03 304100.03 0 1 1 608200.06 0a 304100.03 304100.03 0 1 1 -608200.06 0M 9547245.88 2263771.97 m -304100.03 0 a 304100.03 304100.03 0 1 1 608200.06 0a 304100.03 304100.03 0 1 1 -608200.06 0M 9350395.87 3543301.14 m -158880.86 0 a 158880.86 158880.86 0 1 1 317761.71 0a 158880.86 158880.86 0 1 1 -317761.71 0M 10307503.00 4410671.00 L 9771231.00 4410671.00 L 9771231.00 3956091.00 L 10307503.00 3956091.00 L 10307503.00 4410671.00  zM 5421248.18 5315003.85 m -276404.15 0 a 276404.15 276404.15 0 1 1 552808.31 0a 276404.15 276404.15 0 1 1 -552808.31 0M 6948819.00 4783459.00 L 6437009.00 4783459.00 L 6437009.00 4429129.00 L 6948819.00 4429129.00 L 6948819.00 4783459.00  zM 6948819.00 5610239.00 L 6437009.00 5610239.00 L 6437009.00 5255909.00 L 6948819.00 5255909.00 L 6948819.00 5610239.00  zM 6450001.87 6534641.14 m -158880.86 0 a 158880.86 158880.86 0 1 1 317761.71 0a 158880.86 158880.86 0 1 1 -317761.71 0M 8161833.00 4804765.00 L 7586191.00 4804765.00 L 7586191.00 4271445.00 L 8161833.00 4271445.00 L 8161833.00 4804765.00  zM 8956694.87 4330703.14 m -158880.86 0 a 158880.86 158880.86 0 1 1 317761.71 0a 158880.86 158880.86 0 1 1 -317761.71 0M 7480316.87 5807082.14 m -158880.86 0 a 158880.86 158880.86 0 1 1 317761.71 0a 158880.86 158880.86 0 1 1 -317761.71 0M 8562993.87 5118104.14 m -158880.86 0 a 158880.86 158880.86 0 1 1 317761.71 0a 158880.86 158880.86 0 1 1 -317761.71 0M 1437010.00 7322840.00 L 807090.00 7322840.00 L 807090.00 6850400.00 L 1437010.00 6850400.00 L 1437010.00 7322840.00  zM 1437010.00 8307080.00 L 807090.00 8307080.00 L 807090.00 7834640.00 L 1437010.00 7834640.00 L 1437010.00 8307080.00  zM 2539370.00 8307080.00 L 1909450.00 8307080.00 L 1909450.00 7834640.00 L 2539370.00 7834640.00 L 2539370.00 8307080.00  zM 2539370.00 7322840.00 L 1909450.00 7322840.00 L 1909450.00 6850400.00 L 2539370.00 6850400.00 L 2539370.00 7322840.00  zM 2950001.87 7084641.14 m -158880.86 0 a 158880.86 158880.86 0 1 1 317761.71 0a 158880.86 158880.86 0 1 1 -317761.71 0M 6547480.00 8126984.00 L 6152520.00 8126984.00 L 6152520.00 7692654.00 L 6547480.00 7692654.00 L 6547480.00 8126984.00  zM 6173460.00 8953744.00 L 5778500.00 8953744.00 L 5778500.00 8519414.00 L 6173460.00 8519414.00 L 6173460.00 8953744.00  zM 6921500.00 8953744.00 L 6526540.00 8953744.00 L 6526540.00 8519414.00 L 6921500.00 8519414.00 L 6921500.00 8953744.00  zM 6698451.00 9917127.00 L 6201549.00 9917127.00 L 6201549.00 9541287.00 L 6698451.00 9541287.00 L 6698451.00 9917127.00  zM 1337028.00 11279528.00 L 1337028.00 10807088.00 A 434575.12 434575.12 0 1 1 2206292.00 10807088.00 L 2206292.00 11279528.00 A 434575.12 434575.12 0 0 1 1337028.00 11279528.00  zM 3188980.00 13328340.00 L 2716540.00 13328340.00 A 434575.12 434575.12 0 0 1 2716540.00 12459076.00 L 3188980.00 12459076.00 A 434575.12 434575.12 0 0 1 3188980.00 13328340.00  zM 5698461.00 9917147.00 L 5201559.00 9917147.00 L 5201559.00 9541307.00 L 5698461.00 9541307.00 L 5698461.00 9917147.00  zM 3699228.00 11279528.00 L 3699228.00 10807088.00 A 434575.12 434575.12 0 1 1 4568492.00 10807088.00 L 4568492.00 11279528.00 A 434575.12 434575.12 0 0 1 3699228.00 11279528.00  zM 5698461.00 10527987.00 L 5201559.00 10527987.00 L 5201559.00 10152147.00 L 5698461.00 10152147.00 L 5698461.00 10527987.00  zM 6698451.00 10527987.00 L 6201549.00 10527987.00 L 6201549.00 10152147.00 L 6698451.00 10152147.00 L 6698451.00 10527987.00  zM 6930568.00 12005630.00 L 6535608.00 12005630.00 L 6535608.00 11571300.00 L 6930568.00 11571300.00 L 6930568.00 12005630.00  zM 6556548.00 12793030.00 L 6161588.00 12793030.00 L 6161588.00 12358700.00 L 6556548.00 12358700.00 L 6556548.00 12793030.00  zM 7738652.86 7834707.14 m -482982.86 0 a 482982.86 482982.86 0 1 1 965965.71 0a 482982.86 482982.86 0 1 1 -965965.71 0M 7605909.00 9898426.00 L 7094099.00 9898426.00 L 7094099.00 9544096.00 L 7605909.00 9544096.00 L 7605909.00 9898426.00  zM 8377161.00 9154720.00 L 8022831.00 9154720.00 L 8022831.00 8839760.00 L 8377161.00 8839760.00 L 8377161.00 9154720.00  zM 9877165.00 9136607.00 L 9522835.00 9136607.00 L 9522835.00 8821647.00 L 9877165.00 8821647.00 L 9877165.00 9136607.00  zM 7605909.00 10725186.00 L 7094099.00 10725186.00 L 7094099.00 10370856.00 L 7605909.00 10370856.00 L 7605909.00 10725186.00  zM 8377161.00 10060240.00 L 8022831.00 10060240.00 L 8022831.00 9745280.00 L 8377161.00 9745280.00 L 8377161.00 10060240.00  zM 8470096.00 11293693.00 L 8096080.00 11293693.00 L 8096080.00 10762197.00 L 8470096.00 10762197.00 L 8470096.00 11293693.00  zM 9877165.00 10042127.00 L 9522835.00 10042127.00 L 9522835.00 9727167.00 L 9877165.00 9727167.00 L 9877165.00 10042127.00  zM 7125217.87 11088537.14 m -158880.86 0 a 158880.86 158880.86 0 1 1 317761.71 0a 158880.86 158880.86 0 1 1 -317761.71 0M 7550001.87 11584641.14 m -158880.86 0 a 158880.86 158880.86 0 1 1 317761.71 0a 158880.86 158880.86 0 1 1 -317761.71 0M 7304588.00 12793030.00 L 6909628.00 12793030.00 L 6909628.00 12358700.00 L 7304588.00 12358700.00 L 7304588.00 12793030.00  zM 8388028.00 12579765.00 L 7776532.00 12579765.00 L 7776532.00 11889529.00 L 8388028.00 11889529.00 L 8388028.00 12579765.00  zM 9060656.00 11293693.00 L 8686640.00 11293693.00 L 8686640.00 10762197.00 L 9060656.00 10762197.00 L 9060656.00 11293693.00  zM 9155748.00 12579765.00 L 8544252.00 12579765.00 L 8544252.00 11889529.00 L 9155748.00 11889529.00 L 9155748.00 12579765.00  zM 10100011.00 11452748.00 L 9607885.00 11452748.00 L 9607885.00 10803142.00 L 10100011.00 10803142.00 L 10100011.00 11452748.00  zM 10415611.00 12518058.00 L 9528525.00 12518058.00 L 9528525.00 11867192.00 L 10415611.00 11867192.00 L 10415611.00 12518058.00  zM 11082685.00 824810.00 L 10570875.00 824810.00 L 10570875.00 470480.00 L 11082685.00 470480.00 L 11082685.00 824810.00  zM 11082685.00 1651570.00 L 10570875.00 1651570.00 L 10570875.00 1297240.00 L 11082685.00 1297240.00 L 11082685.00 1651570.00  zM 12409453.00 795275.00 L 11803155.00 795275.00 L 11803155.00 188977.00 L 12409453.00 188977.00 L 12409453.00 795275.00  zM 10630316.87 2854326.14 m -158880.86 0 a 158880.86 158880.86 0 1 1 317761.71 0a 158880.86 158880.86 0 1 1 -317761.71 0M 11299214.00 3228341.00 L 10944884.00 3228341.00 L 10944884.00 2913381.00 L 11299214.00 2913381.00 L 11299214.00 3228341.00  zM 10307503.00 3721071.00 L 9771231.00 3721071.00 L 9771231.00 3266491.00 L 10307503.00 3266491.00 L 10307503.00 3721071.00  zM 12086614.00 3602361.00 L 11732284.00 3602361.00 L 11732284.00 3287401.00 L 12086614.00 3287401.00 L 12086614.00 3602361.00  zM 11299214.00 3976381.00 L 10944884.00 3976381.00 L 10944884.00 3661421.00 L 11299214.00 3661421.00 L 11299214.00 3976381.00  zM 11326768.18 5315003.85 m -276404.15 0 a 276404.15 276404.15 0 1 1 552808.31 0a 276404.15 276404.15 0 1 1 -552808.31 0M 12106305.88 2263771.97 m -304100.03 0 a 304100.03 304100.03 0 1 1 608200.06 0a 304100.03 304100.03 0 1 1 -608200.06 0M 15452756.88 492102.97 m -304100.03 0 a 304100.03 304100.03 0 1 1 608200.06 0a 304100.03 304100.03 0 1 1 -608200.06 0M 15452756.88 2263762.97 m -304100.03 0 a 304100.03 304100.03 0 1 1 608200.06 0a 304100.03 304100.03 0 1 1 -608200.06 0M 16213023.00 3721071.00 L 15676751.00 3721071.00 L 15676751.00 3266491.00 L 16213023.00 3266491.00 L 16213023.00 3721071.00  zM 12650001.87 3641728.14 m -158880.86 0 a 158880.86 158880.86 0 1 1 317761.71 0a 158880.86 158880.86 0 1 1 -317761.71 0M 12854326.00 4783462.00 L 12342516.00 4783462.00 L 12342516.00 4429132.00 L 12854326.00 4429132.00 L 12854326.00 4783462.00  zM 14067343.00 4036425.00 L 13491701.00 4036425.00 L 13491701.00 3503105.00 L 14067343.00 3503105.00 L 14067343.00 4036425.00  zM 14067343.00 4804765.00 L 13491701.00 4804765.00 L 13491701.00 4271445.00 L 14067343.00 4271445.00 L 14067343.00 4804765.00  zM 16988185.00 846450.00 L 16476375.00 846450.00 L 16476375.00 492120.00 L 16988185.00 492120.00 L 16988185.00 846450.00  zM 16988185.00 1673230.00 L 16476375.00 1673230.00 L 16476375.00 1318900.00 L 16988185.00 1318900.00 L 16988185.00 1673230.00  zM 16530316.87 2854326.14 m -158880.86 0 a 158880.86 158880.86 0 1 1 317761.71 0a 158880.86 158880.86 0 1 1 -317761.71 0M 17204730.00 3228341.00 L 16850400.00 3228341.00 L 16850400.00 2913381.00 L 17204730.00 2913381.00 L 17204730.00 3228341.00  zM 16213023.00 4410671.00 L 15676751.00 4410671.00 L 15676751.00 3956091.00 L 16213023.00 3956091.00 L 16213023.00 4410671.00  zM 17204730.00 3976381.00 L 16850400.00 3976381.00 L 16850400.00 3661421.00 L 17204730.00 3661421.00 L 17204730.00 3976381.00  zM 16507864.00 5590556.00 L 15956684.00 5590556.00 L 15956684.00 5039376.00 L 16507864.00 5039376.00 L 16507864.00 5590556.00  zM 17232268.18 5315003.85 m -276404.15 0 a 276404.15 276404.15 0 1 1 552808.31 0a 276404.15 276404.15 0 1 1 -552808.31 0M 18011816.88 2263762.97 m -304100.03 0 a 304100.03 304100.03 0 1 1 608200.06 0a 304100.03 304100.03 0 1 1 -608200.06 0M 17992130.00 3602361.00 L 17637800.00 3602361.00 L 17637800.00 3287401.00 L 17992130.00 3287401.00 L 17992130.00 3602361.00  zM 18314964.00 795266.00 L 17708666.00 795266.00 L 17708666.00 188968.00 L 18314964.00 188968.00 L 18314964.00 795266.00  zM 20472432.66 2559153.66 m -749465.34 0 a 749465.34 749465.34 0 1 1 1498930.68 0a 749465.34 749465.34 0 1 1 -1498930.68 0M 18580316.87 3641728.14 m -158880.86 0 a 158880.86 158880.86 0 1 1 317761.71 0a 158880.86 158880.86 0 1 1 -317761.71 0M 18759839.00 4783456.00 L 18248029.00 4783456.00 L 18248029.00 4429126.00 L 18759839.00 4429126.00 L 18759839.00 4783456.00  zM 19972855.00 4036425.00 L 19397213.00 4036425.00 L 19397213.00 3503105.00 L 19972855.00 3503105.00 L 19972855.00 4036425.00  zM 19972855.00 4804765.00 L 19397213.00 4804765.00 L 19397213.00 4271445.00 L 19972855.00 4271445.00 L 19972855.00 4804765.00  zM 10602364.00 5590556.00 L 10051184.00 5590556.00 L 10051184.00 5039376.00 L 10602364.00 5039376.00 L 10602364.00 5590556.00  zM 12854326.00 5610242.00 L 12342516.00 5610242.00 L 12342516.00 5255912.00 L 12854326.00 5255912.00 L 12854326.00 5610242.00  zM 12795277.87 6496057.14 m -158880.86 0 a 158880.86 158880.86 0 1 1 317761.71 0a 158880.86 158880.86 0 1 1 -317761.71 0M 13385828.87 5807082.14 m -158880.86 0 a 158880.86 158880.86 0 1 1 317761.71 0a 158880.86 158880.86 0 1 1 -317761.71 0M 13385828.87 6791334.14 m -158880.86 0 a 158880.86 158880.86 0 1 1 317761.71 0a 158880.86 158880.86 0 1 1 -317761.71 0M 10099992.86 7834711.14 m -482982.86 0 a 482982.86 482982.86 0 1 1 965965.71 0a 482982.86 482982.86 0 1 1 -965965.71 0M 11511575.00 9658713.00 L 10921025.00 9658713.00 L 10921025.00 8359501.00 L 11511575.00 8359501.00 L 11511575.00 9658713.00  zM 11300001.87 6978342.14 m -158880.86 0 a 158880.86 158880.86 0 1 1 317761.71 0a 158880.86 158880.86 0 1 1 -317761.71 0M 14031255.00 10150827.00 L 13440705.00 10150827.00 L 13440705.00 9678387.00 L 14031255.00 9678387.00 L 14031255.00 10150827.00  zM 11458291.00 11452748.00 L 10966165.00 11452748.00 L 10966165.00 10803142.00 L 11458291.00 10803142.00 L 11458291.00 11452748.00  zM 12378363.00 11384240.00 L 11787813.00 11384240.00 L 11787813.00 10793690.00 L 12378363.00 10793690.00 L 12378363.00 11384240.00  zM 11537651.00 12518058.00 L 10650565.00 12518058.00 L 10650565.00 11867192.00 L 11537651.00 11867192.00 L 11537651.00 12518058.00  zM 12378363.00 12762200.00 L 11787813.00 12762200.00 L 11787813.00 12171650.00 L 12378363.00 12171650.00 L 12378363.00 12762200.00  zM 13083456.00 11443293.00 L 12709440.00 11443293.00 L 12709440.00 10911797.00 L 13083456.00 10911797.00 L 13083456.00 11443293.00  zM 13674016.00 11443293.00 L 13300000.00 11443293.00 L 13300000.00 10911797.00 L 13674016.00 10911797.00 L 13674016.00 11443293.00  zM 13051168.00 12626396.00 L 12675328.00 12626396.00 L 12675328.00 12129494.00 L 13051168.00 12129494.00 L 13051168.00 12626396.00  zM 13662028.00 12626396.00 L 13286188.00 12626396.00 L 13286188.00 12129494.00 L 13662028.00 12129494.00 L 13662028.00 12626396.00  zM 13976379.87 7086610.14 m -158880.86 0 a 158880.86 158880.86 0 1 1 317761.71 0a 158880.86 158880.86 0 1 1 -317761.71 0M 14031255.00 8339807.00 L 13440705.00 8339807.00 L 13440705.00 7867367.00 L 14031255.00 7867367.00 L 14031255.00 8339807.00  zM 15291338.00 8690942.00 L 14700788.00 8690942.00 L 14700788.00 8100392.00 L 15291338.00 8100392.00 L 15291338.00 8690942.00  zM 16418135.00 8856737.00 L 15881863.00 8856737.00 L 15881863.00 8402157.00 L 16418135.00 8402157.00 L 16418135.00 8856737.00  zM 16418135.00 8167137.00 L 15881863.00 8167137.00 L 15881863.00 7712557.00 L 16418135.00 7712557.00 L 16418135.00 8167137.00  zM 16850001.87 7384641.14 m -158880.86 0 a 158880.86 158880.86 0 1 1 317761.71 0a 158880.86 158880.86 0 1 1 -317761.71 0M 18759839.00 5610236.00 L 18248029.00 5610236.00 L 18248029.00 5255906.00 L 18759839.00 5255906.00 L 18759839.00 5610236.00  zM 19291340.87 5807082.14 m -158880.86 0 a 158880.86 158880.86 0 1 1 317761.71 0a 158880.86 158880.86 0 1 1 -317761.71 0M 14031255.00 9245327.00 L 13440705.00 9245327.00 L 13440705.00 8772887.00 L 14031255.00 8772887.00 L 14031255.00 9245327.00  zM 15291338.00 10068902.00 L 14700788.00 10068902.00 L 14700788.00 9478352.00 L 15291338.00 9478352.00 L 15291338.00 10068902.00  zM 16049993.86 11534711.14 m -482982.86 0 a 482982.86 482982.86 0 1 1 965965.71 0a 482982.86 482982.86 0 1 1 -965965.71 0M 14851174.86 12784707.14 m -482982.86 0 a 482982.86 482982.86 0 1 1 965965.71 0a 482982.86 482982.86 0 1 1 -965965.71 0M 16442921.00 9621655.00 L 15911425.00 9621655.00 L 15911425.00 9247639.00 L 16442921.00 9247639.00 L 16442921.00 9621655.00  zM 16442921.00 10212215.00 L 15911425.00 10212215.00 L 15911425.00 9838199.00 L 16442921.00 9838199.00 L 16442921.00 10212215.00  zM 17692904.00 11779540.00 L 16968496.00 11779540.00 L 16968496.00 11055132.00 L 17692904.00 11055132.00 L 17692904.00 11779540.00  zM 20330691.97 9917411.24 m -538172.76 0 a 538172.76 538172.76 0 1 1 1076345.52 0a 538172.76 538172.76 0 1 1 -1076345.52 0M 736209.31 14468512.08 m -339924.92 0 a 339924.92 339924.92 0 1 1 679849.84 0a 339924.92 339924.92 0 1 1 -679849.84 0M 1736209.31 14468512.08 m -339924.92 0 a 339924.92 339924.92 0 1 1 679849.84 0a 339924.92 339924.92 0 1 1 -679849.84 0M 2736209.31 14468512.08 m -339924.92 0 a 339924.92 339924.92 0 1 1 679849.84 0a 339924.92 339924.92 0 1 1 -679849.84 0M 1149993.86 16750060.14 m -482982.86 0 a 482982.86 482982.86 0 1 1 965965.71 0a 482982.86 482982.86 0 1 1 -965965.71 0M 2712603.00 16775995.00 L 2161423.00 16775995.00 L 2161423.00 16401979.00 L 2712603.00 16401979.00 L 2712603.00 16775995.00  zM 3736209.31 14468512.08 m -339924.92 0 a 339924.92 339924.92 0 1 1 679849.84 0a 339924.92 339924.92 0 1 1 -679849.84 0M 4736209.31 14468512.08 m -339924.92 0 a 339924.92 339924.92 0 1 1 679849.84 0a 339924.92 339924.92 0 1 1 -679849.84 0M 3661425.00 17401577.00 L 3287409.00 17401577.00 L 3287409.00 16850397.00 L 3661425.00 16850397.00 L 3661425.00 17401577.00  zM 4389765.00 17401577.00 L 4015749.00 17401577.00 L 4015749.00 16850397.00 L 4389765.00 16850397.00 L 4389765.00 17401577.00  zM 1181093.66 18897736.66 m -749465.34 0 a 749465.34 749465.34 0 1 1 1498930.68 0a 749465.34 749465.34 0 1 1 -1498930.68 0M 2591177.00 18713227.00 L 2282831.00 18713227.00 L 2282831.00 18168661.00 L 2591177.00 18168661.00 L 2591177.00 18713227.00  zM 2712603.00 17504335.00 L 2161423.00 17504335.00 L 2161423.00 17130319.00 L 2712603.00 17130319.00 L 2712603.00 17504335.00  zM 3091177.00 18713227.00 L 2782831.00 18713227.00 L 2782831.00 18168661.00 L 3091177.00 18168661.00 L 3091177.00 18713227.00  zM 3591177.00 18713227.00 L 3282831.00 18713227.00 L 3282831.00 18168661.00 L 3591177.00 18168661.00 L 3591177.00 18713227.00  zM 4091177.00 18713227.00 L 3782831.00 18713227.00 L 3782831.00 18168661.00 L 4091177.00 18168661.00 L 4091177.00 18713227.00  zM 4591177.00 18713227.00 L 4282831.00 18713227.00 L 4282831.00 18168661.00 L 4591177.00 18168661.00 L 4591177.00 18713227.00  zM 5091177.00 18713227.00 L 4782831.00 18713227.00 L 4782831.00 18168661.00 L 5091177.00 18168661.00 L 5091177.00 18713227.00  zM 6750001.87 12949994.14 m -158880.86 0 a 158880.86 158880.86 0 1 1 317761.71 0a 158880.86 158880.86 0 1 1 -317761.71 0M 5736209.31 14468512.08 m -339924.92 0 a 339924.92 339924.92 0 1 1 679849.84 0a 339924.92 339924.92 0 1 1 -679849.84 0M 6736209.31 14468512.08 m -339924.92 0 a 339924.92 339924.92 0 1 1 679849.84 0a 339924.92 339924.92 0 1 1 -679849.84 0M 5591155.00 16193334.00 L 5215315.00 16193334.00 L 5215315.00 15696432.00 L 5591155.00 15696432.00 L 5591155.00 16193334.00  zM 6202015.00 16193334.00 L 5826175.00 16193334.00 L 5826175.00 15696432.00 L 6202015.00 15696432.00 L 6202015.00 16193334.00  zM 7350001.87 13549994.14 m -158880.86 0 a 158880.86 158880.86 0 1 1 317761.71 0a 158880.86 158880.86 0 1 1 -317761.71 0M 7736209.31 14468512.08 m -339924.92 0 a 339924.92 339924.92 0 1 1 679849.84 0a 339924.92 339924.92 0 1 1 -679849.84 0M 8736209.31 14468512.08 m -339924.92 0 a 339924.92 339924.92 0 1 1 679849.84 0a 339924.92 339924.92 0 1 1 -679849.84 0M 9736209.31 14468512.08 m -339924.92 0 a 339924.92 339924.92 0 1 1 679849.84 0a 339924.92 339924.92 0 1 1 -679849.84 0M 5591150.00 17374438.00 L 5215310.00 17374438.00 L 5215310.00 16877536.00 L 5591150.00 16877536.00 L 5591150.00 17374438.00  zM 6202010.00 17374438.00 L 5826170.00 17374438.00 L 5826170.00 16877536.00 L 6202010.00 16877536.00 L 6202010.00 17374438.00  zM 5591177.00 18713227.00 L 5282831.00 18713227.00 L 5282831.00 18168661.00 L 5591177.00 18168661.00 L 5591177.00 18713227.00  zM 5591177.00 20807727.00 L 5282831.00 20807727.00 L 5282831.00 20263161.00 L 5591177.00 20263161.00 L 5591177.00 20807727.00  zM 7750001.87 15999994.14 m -158880.86 0 a 158880.86 158880.86 0 1 1 317761.71 0a 158880.86 158880.86 0 1 1 -317761.71 0M 9484260.00 17678756.00 L 9169300.00 17678756.00 A 198440.13 198440.13 0 0 1 8970864.00 17480320.00 L 8970864.00 17165360.00 A 198440.13 198440.13 0 0 1 9169300.00 16966924.00 L 9484260.00 16966924.00 A 198440.13 198440.13 0 0 1 9682696.00 17165360.00 L 9682696.00 17480320.00 A 198440.13 198440.13 0 0 1 9484260.00 17678756.00  zM 10326776.40 17322866.41 m -355695.59 0 a 355695.59 355695.59 0 1 1 711391.18 0a 355695.59 355695.59 0 1 1 -711391.18 0M 8956694.87 19488184.14 m -158880.86 0 a 158880.86 158880.86 0 1 1 317761.71 0a 158880.86 158880.86 0 1 1 -317761.71 0M 1491732.00 21600395.00 L 1117716.00 21600395.00 L 1117716.00 21068899.00 L 1491732.00 21068899.00 L 1491732.00 21600395.00  zM 2591177.00 20807727.00 L 2282831.00 20807727.00 L 2282831.00 20263161.00 L 2591177.00 20263161.00 L 2591177.00 20807727.00  zM 3091177.00 20807727.00 L 2782831.00 20807727.00 L 2782831.00 20263161.00 L 3091177.00 20263161.00 L 3091177.00 20807727.00  zM 2082284.00 21600395.00 L 1708268.00 21600395.00 L 1708268.00 21068899.00 L 2082284.00 21068899.00 L 2082284.00 21600395.00  zM 2685460.00 22323438.00 L 2188558.00 22323438.00 L 2188558.00 21947598.00 L 2685460.00 21947598.00 L 2685460.00 22323438.00  zM 3591177.00 20807727.00 L 3282831.00 20807727.00 L 3282831.00 20263161.00 L 3591177.00 20263161.00 L 3591177.00 20807727.00  zM 4591177.00 20807727.00 L 4282831.00 20807727.00 L 4282831.00 20263161.00 L 4591177.00 20263161.00 L 4591177.00 20807727.00  zM 4091177.00 20807727.00 L 3782831.00 20807727.00 L 3782831.00 20263161.00 L 4091177.00 20263161.00 L 4091177.00 20807727.00  zM 3685466.00 22323438.00 L 3188564.00 22323438.00 L 3188564.00 21947598.00 L 3685466.00 21947598.00 L 3685466.00 22323438.00  zM 1250001.87 22734641.14 m -158880.86 0 a 158880.86 158880.86 0 1 1 317761.71 0a 158880.86 158880.86 0 1 1 -317761.71 0M 2685460.00 22934298.00 L 2188558.00 22934298.00 L 2188558.00 22558458.00 L 2685460.00 22558458.00 L 2685460.00 22934298.00  zM 885834.00 25143277.00 L 586622.00 25143277.00 A 190525.46 190525.46 0 0 1 396099.00 24952754.00 L 396099.00 24653542.00 A 190525.46 190525.46 0 0 1 586622.00 24463019.00 L 885834.00 24463019.00 A 190525.46 190525.46 0 0 1 1076357.00 24653542.00 L 1076357.00 24952754.00 A 190525.46 190525.46 0 0 1 885834.00 25143277.00  zM 1736225.31 24803163.08 m -339924.92 0 a 339924.92 339924.92 0 1 1 679849.84 0a 339924.92 339924.92 0 1 1 -679849.84 0M 3685466.00 22934298.00 L 3188564.00 22934298.00 L 3188564.00 22558458.00 L 3685466.00 22558458.00 L 3685466.00 22934298.00  zM 4685460.00 22934298.00 L 4188558.00 22934298.00 L 4188558.00 22558458.00 L 4685460.00 22558458.00 L 4685460.00 22934298.00  zM 2736225.31 24803163.08 m -339924.92 0 a 339924.92 339924.92 0 1 1 679849.84 0a 339924.92 339924.92 0 1 1 -679849.84 0M 3736225.31 24803163.08 m -339924.92 0 a 339924.92 339924.92 0 1 1 679849.84 0a 339924.92 339924.92 0 1 1 -679849.84 0M 5091177.00 20807727.00 L 4782831.00 20807727.00 L 4782831.00 20263161.00 L 5091177.00 20263161.00 L 5091177.00 20807727.00  zM 4685460.00 22323438.00 L 4188558.00 22323438.00 L 4188558.00 21947598.00 L 4685460.00 21947598.00 L 4685460.00 22323438.00  zM 5698459.00 22317139.00 L 5201557.00 22317139.00 L 5201557.00 21941299.00 L 5698459.00 21941299.00 L 5698459.00 22317139.00  zM 7445275.00 22218902.00 L 6854725.00 22218902.00 L 6854725.00 21628352.00 L 7445275.00 21628352.00 L 7445275.00 22218902.00  zM 5698459.00 22927999.00 L 5201557.00 22927999.00 L 5201557.00 22552159.00 L 5698459.00 22552159.00 L 5698459.00 22927999.00  zM 4736225.31 24803163.08 m -339924.92 0 a 339924.92 339924.92 0 1 1 679849.84 0a 339924.92 339924.92 0 1 1 -679849.84 0M 5736225.31 24803163.08 m -339924.92 0 a 339924.92 339924.92 0 1 1 679849.84 0a 339924.92 339924.92 0 1 1 -679849.84 0M 6736225.31 24803163.08 m -339924.92 0 a 339924.92 339924.92 0 1 1 679849.84 0a 339924.92 339924.92 0 1 1 -679849.84 0M 7445275.00 20840942.00 L 6854725.00 20840942.00 L 6854725.00 20250392.00 L 7445275.00 20250392.00 L 7445275.00 20840942.00  zM 8482490.00 22152783.00 L 8027910.00 22152783.00 L 8027910.00 21616511.00 L 8482490.00 21616511.00 L 8482490.00 22152783.00  zM 8564964.87 21062987.14 m -158880.86 0 a 158880.86 158880.86 0 1 1 317761.71 0a 158880.86 158880.86 0 1 1 -317761.71 0M 9172090.00 22152783.00 L 8717510.00 22152783.00 L 8717510.00 21616511.00 L 9172090.00 21616511.00 L 9172090.00 22152783.00  zM 7736225.31 24803163.08 m -339924.92 0 a 339924.92 339924.92 0 1 1 679849.84 0a 339924.92 339924.92 0 1 1 -679849.84 0M 8736225.31 24803163.08 m -339924.92 0 a 339924.92 339924.92 0 1 1 679849.84 0a 339924.92 339924.92 0 1 1 -679849.84 0M 8956694.87 22637791.14 m -158880.86 0 a 158880.86 158880.86 0 1 1 317761.71 0a 158880.86 158880.86 0 1 1 -317761.71 0M 9736225.31 24803163.08 m -339924.92 0 a 339924.92 339924.92 0 1 1 679849.84 0a 339924.92 339924.92 0 1 1 -679849.84 0M 10736209.31 14468512.08 m -339924.92 0 a 339924.92 339924.92 0 1 1 679849.84 0a 339924.92 339924.92 0 1 1 -679849.84 0M 11736209.31 14468512.08 m -339924.92 0 a 339924.92 339924.92 0 1 1 679849.84 0a 339924.92 339924.92 0 1 1 -679849.84 0M 12736209.31 14468512.08 m -339924.92 0 a 339924.92 339924.92 0 1 1 679849.84 0a 339924.92 339924.92 0 1 1 -679849.84 0M 11326776.40 17322866.41 m -355695.59 0 a 355695.59 355695.59 0 1 1 711391.18 0a 355695.59 355695.59 0 1 1 -711391.18 0M 12326776.40 17322866.41 m -355695.59 0 a 355695.59 355695.59 0 1 1 711391.18 0a 355695.59 355695.59 0 1 1 -711391.18 0M 13736209.31 14468512.08 m -339924.92 0 a 339924.92 339924.92 0 1 1 679849.84 0a 339924.92 339924.92 0 1 1 -679849.84 0M 14736209.31 14468512.08 m -339924.92 0 a 339924.92 339924.92 0 1 1 679849.84 0a 339924.92 339924.92 0 1 1 -679849.84 0M 13933065.86 16929196.14 m -482982.86 0 a 482982.86 482982.86 0 1 1 965965.71 0a 482982.86 482982.86 0 1 1 -965965.71 0M 15672827.00 17210237.00 L 15298811.00 17210237.00 L 15298811.00 16659057.00 L 15672827.00 16659057.00 L 15672827.00 17210237.00  zM 15736209.31 14468512.08 m -339924.92 0 a 339924.92 339924.92 0 1 1 679849.84 0a 339924.92 339924.92 0 1 1 -679849.84 0M 16736209.31 14468512.08 m -339924.92 0 a 339924.92 339924.92 0 1 1 679849.84 0a 339924.92 339924.92 0 1 1 -679849.84 0M 16401187.00 17210237.00 L 16027171.00 17210237.00 L 16027171.00 16659057.00 L 16401187.00 16659057.00 L 16401187.00 17210237.00  zM 16550001.87 17784641.14 m -158880.86 0 a 158880.86 158880.86 0 1 1 317761.71 0a 158880.86 158880.86 0 1 1 -317761.71 0M 15681732.00 18713233.00 L 15373386.00 18713233.00 L 15373386.00 18168667.00 L 15681732.00 18168667.00 L 15681732.00 18713233.00  zM 16181732.00 18713233.00 L 15873386.00 18713233.00 L 15873386.00 18168667.00 L 16181732.00 18168667.00 L 16181732.00 18713233.00  zM 16681732.00 18713233.00 L 16373386.00 18713233.00 L 16373386.00 18168667.00 L 16681732.00 18168667.00 L 16681732.00 18713233.00  zM 17181732.00 18713233.00 L 16873386.00 18713233.00 L 16873386.00 18168667.00 L 17181732.00 18168667.00 L 17181732.00 18713233.00  zM 17736209.31 14468512.08 m -339924.92 0 a 339924.92 339924.92 0 1 1 679849.84 0a 339924.92 339924.92 0 1 1 -679849.84 0M 18736209.31 14468512.08 m -339924.92 0 a 339924.92 339924.92 0 1 1 679849.84 0a 339924.92 339924.92 0 1 1 -679849.84 0M 20330691.97 12917411.24 m -538172.76 0 a 538172.76 538172.76 0 1 1 1076345.52 0a 538172.76 538172.76 0 1 1 -1076345.52 0M 19885818.00 14808626.00 L 19586606.00 14808626.00 A 190525.46 190525.46 0 0 1 19396083.00 14618103.00 L 19396083.00 14318891.00 A 190525.46 190525.46 0 0 1 19586606.00 14128368.00 L 19885818.00 14128368.00 A 190525.46 190525.46 0 0 1 20076341.00 14318891.00 L 20076341.00 14618103.00 A 190525.46 190525.46 0 0 1 19885818.00 14808626.00  zM 17425589.00 16907486.00 L 16874409.00 16907486.00 L 16874409.00 16533470.00 L 17425589.00 16533470.00 L 17425589.00 16907486.00  zM 18232500.00 16193334.00 L 17856660.00 16193334.00 L 17856660.00 15696432.00 L 18232500.00 15696432.00 L 18232500.00 16193334.00  zM 18843340.00 16193334.00 L 18467500.00 16193334.00 L 18467500.00 15696432.00 L 18843340.00 15696432.00 L 18843340.00 16193334.00  zM 18776010.00 17008486.00 L 18279108.00 17008486.00 L 18279108.00 16632646.00 L 18776010.00 16632646.00 L 18776010.00 17008486.00  zM 17425589.00 17635826.00 L 16874409.00 17635826.00 L 16874409.00 17261810.00 L 17425589.00 17261810.00 L 17425589.00 17635826.00  zM 17850001.87 17934641.14 m -158880.86 0 a 158880.86 158880.86 0 1 1 317761.71 0a 158880.86 158880.86 0 1 1 -317761.71 0M 17681732.00 18713233.00 L 17373386.00 18713233.00 L 17373386.00 18168667.00 L 17681732.00 18168667.00 L 17681732.00 18713233.00  zM 18181732.00 18713233.00 L 17873386.00 18713233.00 L 17873386.00 18168667.00 L 18181732.00 18168667.00 L 18181732.00 18713233.00  zM 18776010.00 17619326.00 L 18279108.00 17619326.00 L 18279108.00 17243486.00 L 18776010.00 17243486.00 L 18776010.00 17619326.00  zM 18681732.00 18713233.00 L 18373386.00 18713233.00 L 18373386.00 18168667.00 L 18681732.00 18168667.00 L 18681732.00 18713233.00  zM 19550001.87 17934641.14 m -158880.86 0 a 158880.86 158880.86 0 1 1 317761.71 0a 158880.86 158880.86 0 1 1 -317761.71 0M 20165748.00 18871655.00 L 19634252.00 18871655.00 L 19634252.00 18497639.00 L 20165748.00 18497639.00 L 20165748.00 18871655.00  zM 10834647.87 19084641.14 m -158880.86 0 a 158880.86 158880.86 0 1 1 317761.71 0a 158880.86 158880.86 0 1 1 -317761.71 0M 12893702.87 19488184.14 m -158880.86 0 a 158880.86 158880.86 0 1 1 317761.71 0a 158880.86 158880.86 0 1 1 -317761.71 0M 12893702.87 22637791.14 m -158880.86 0 a 158880.86 158880.86 0 1 1 317761.71 0a 158880.86 158880.86 0 1 1 -317761.71 0M 15127080.00 23181523.00 L 14751240.00 23181523.00 L 14751240.00 22684621.00 L 15127080.00 22684621.00 L 15127080.00 23181523.00  zM 14736225.31 24803163.08 m -339924.92 0 a 339924.92 339924.92 0 1 1 679849.84 0a 339924.92 339924.92 0 1 1 -679849.84 0M 10736217.31 24803163.08 m -339924.92 0 a 339924.92 339924.92 0 1 1 679849.84 0a 339924.92 339924.92 0 1 1 -679849.84 0M 11736225.31 24803163.08 m -339924.92 0 a 339924.92 339924.92 0 1 1 679849.84 0a 339924.92 339924.92 0 1 1 -679849.84 0M 12736225.31 24803163.08 m -339924.92 0 a 339924.92 339924.92 0 1 1 679849.84 0a 339924.92 339924.92 0 1 1 -679849.84 0M 13736225.31 24803163.08 m -339924.92 0 a 339924.92 339924.92 0 1 1 679849.84 0a 339924.92 339924.92 0 1 1 -679849.84 0M 15681732.00 20807713.00 L 15373386.00 20807713.00 L 15373386.00 20263147.00 L 15681732.00 20263147.00 L 15681732.00 20807713.00  zM 15132489.00 21901992.00 L 14756649.00 21901992.00 L 14756649.00 21405090.00 L 15132489.00 21405090.00 L 15132489.00 21901992.00  zM 16181732.00 20807713.00 L 15873386.00 20807713.00 L 15873386.00 20263147.00 L 16181732.00 20263147.00 L 16181732.00 20807713.00  zM 16681732.00 20807713.00 L 16373386.00 20807713.00 L 16373386.00 20263147.00 L 16681732.00 20263147.00 L 16681732.00 20807713.00  zM 15743349.00 21901992.00 L 15367509.00 21901992.00 L 15367509.00 21405090.00 L 15743349.00 21405090.00 L 15743349.00 21901992.00  zM 15900001.87 22299994.14 m -158880.86 0 a 158880.86 158880.86 0 1 1 317761.71 0a 158880.86 158880.86 0 1 1 -317761.71 0M 15737920.00 23181523.00 L 15362080.00 23181523.00 L 15362080.00 22684621.00 L 15737920.00 22684621.00 L 15737920.00 23181523.00  zM 15736225.31 24803163.08 m -339924.92 0 a 339924.92 339924.92 0 1 1 679849.84 0a 339924.92 339924.92 0 1 1 -679849.84 0M 17181732.00 20807713.00 L 16873386.00 20807713.00 L 16873386.00 20263147.00 L 17181732.00 20263147.00 L 17181732.00 20807713.00  zM 17681732.00 20807713.00 L 17373386.00 20807713.00 L 17373386.00 20263147.00 L 17681732.00 20263147.00 L 17681732.00 20807713.00  zM 17250001.87 21099994.14 m -158880.86 0 a 158880.86 158880.86 0 1 1 317761.71 0a 158880.86 158880.86 0 1 1 -317761.71 0M 17803148.00 22263780.00 L 17251968.00 22263780.00 L 17251968.00 21889764.00 L 17803148.00 21889764.00 L 17803148.00 22263780.00  zM 17950001.87 19834641.14 m -158880.86 0 a 158880.86 158880.86 0 1 1 317761.71 0a 158880.86 158880.86 0 1 1 -317761.71 0M 18181732.00 20807713.00 L 17873386.00 20807713.00 L 17873386.00 20263147.00 L 18181732.00 20263147.00 L 18181732.00 20807713.00  zM 18681732.00 20807713.00 L 18373386.00 20807713.00 L 18373386.00 20263147.00 L 18681732.00 20263147.00 L 18681732.00 20807713.00  zM 20165748.00 19462207.00 L 19634252.00 19462207.00 L 19634252.00 19088191.00 L 20165748.00 19088191.00 L 20165748.00 19462207.00  zM 17803148.00 22992120.00 L 17251968.00 22992120.00 L 17251968.00 22618104.00 L 17803148.00 22618104.00 L 17803148.00 22992120.00  zM 18803149.00 22992126.00 L 18251969.00 22992126.00 L 18251969.00 22618110.00 L 18803149.00 22618110.00 L 18803149.00 22992126.00  zM 16736225.31 24803163.08 m -339924.92 0 a 339924.92 339924.92 0 1 1 679849.84 0a 339924.92 339924.92 0 1 1 -679849.84 0M 17736225.31 24803163.08 m -339924.92 0 a 339924.92 339924.92 0 1 1 679849.84 0a 339924.92 339924.92 0 1 1 -679849.84 0M 18803149.00 22263786.00 L 18251969.00 22263786.00 L 18251969.00 21889770.00 L 18803149.00 21889770.00 L 18803149.00 22263786.00  zM 20472432.66 22637893.66 m -749465.34 0 a 749465.34 749465.34 0 1 1 1498930.68 0a 749465.34 749465.34 0 1 1 -1498930.68 0M 18736225.31 24803163.08 m -339924.92 0 a 339924.92 339924.92 0 1 1 679849.84 0a 339924.92 339924.92 0 1 1 -679849.84 0M 19736225.31 24803163.08 m -339924.92 0 a 339924.92 339924.92 0 1 1 679849.84 0a 339924.92 339924.92 0 1 1 -679849.84 0"/>
</g>
</svg>
