<svg width="54.99999922mm" height="64.50000308mm" viewBox="0 0 21653543 25393702"  version="1.1" xmlns="http://www.w3.org/2000/svg" xmlns:xlink="http://www.w3.org/1999/xlink">
<desc>
Origin 0 0 Bound 0 0 21653543 25393702
</desc>
<g fill-rule="evenodd" fill="rgb(255, 0, 0)" stroke="black" stroke-width="1" transform="translate(0, 25393702) scale(1, -1) translate(0, 0)">
<path id="N" d="M 15022693.96 24714645.04 L 15040900.00 24697035.00 L 15054131.00 24688194.00 L 16178839.00 23563486.00 L 16187680.00 23550254.00 L 16190784.00 23534647.00 L 16190784.00 22146060.00 L 16187680.00 22130452.00 L 16178839.00 22117221.00 L 11576748.26 17515130.26 L 11582376.00 17508541.00 A 315942.92 315942.92 0 1 0 11512481.00 17578436.00 L 11519070.26 17572808.26 L 16109216.00 22162954.00 L 16109216.00 23517753.99 L 15004698.00 24621675.00 L 14991467.00 24630516.00 L 14985201.98 24636781.02 L 14979044.00 24626732.00 A 300126.04 300126.04 0 1 0 15022693.96 24714645.04  zM 11326778.02 17322857.20 m -217187.80 0 a 217187.80 217187.80 0 1 1 434375.61 0a 217187.80 217187.80 0 1 1 -434375.61 0M 14736231.16 24803131.37 m -201775.63 0 a 201775.63 201775.63 0 1 1 403551.26 0a 201775.63 201775.63 0 1 1 -403551.26 0"/>
<path id="N" d="M 11533351.00 20905250.00 L 11546582.00 20896409.00 L 11605069.00 20837922.00 L 11611960.56 20827608.43 L 12844013.54 19595554.52 L 12870547.00 19604591.00 A 118707.48 118707.48 0 1 0 12786336.48 19537877.46 L 11547391.00 20776822.00 L 11540499.45 20787135.55 L 11500849.00 20826786.00 L 10593123.04 20826786.00 L 10517765.80 20751428.49 L 10502797.00 20732586.00 L 10483805.00 20698645.00 L 10476681.00 20676017.00 L 10476386.00 19822845.00 L 10177174.00 19822845.00 L 10177174.00 20767727.00 L 10382920.43 20767727.00 L 10395990.00 20771030.00 L 10418617.00 20780369.00 L 10452559.00 20802683.00 L 10547391.00 20896409.00 L 10560623.00 20905250.00 L 10576230.00 20908354.00 L 11517743.00 20908355.00 L 11533351.00 20905250.00  z"/>
<path id="N" d="M 4696844.00 5039376.00 L 4145664.00 5039376.00 L 4145664.00 5590556.00 L 4696844.00 5590556.00 L 4696844.00 5039376.00  zM 4421258.50 5314942.30 m -178045.70 0 a 178045.70 178045.70 0 1 1 356091.40 0a 178045.70 178045.70 0 1 1 -356091.40 0"/>
<path id="N" d="M 17900313.15 19727282.15 L 17340784.00 19167753.00 L 17340784.00 11838764.48 L 17343600.00 11817432.00 L 17350000.00 11798040.00 L 17359600.00 11784952.00 L 17368817.20 11779540.00 L 17692904.00 11779540.00 L 17692904.00 11055132.00 L 16968496.00 11055132.00 L 16968496.00 11779540.00 L 17231182.80 11779540.00 L 17234400.00 11780772.00 L 17245600.00 11790708.00 L 17253600.00 11806948.00 L 17258400.00 11829492.00 L 17259216.00 15209216.00 L 15166893.03 15209216.00 L 14781631.00 14823953.03 L 14781631.00 14765059.64 A 295713.42 295713.42 0 0 0 14948441.00 14680726.00 A 300135.50 300135.50 0 1 0 14689260.00 14764939.00 L 14700063.00 14765789.17 L 14700062.00 14840847.00 L 14703167.00 14856455.00 L 14712008.00 14869686.00 L 15121161.00 15278839.00 L 15134392.00 15287680.00 L 15150005.03 15290784.00 L 17259216.00 15290784.00 L 17259215.00 19184647.00 L 17262320.00 19200255.00 L 17271161.00 19213486.00 L 17842635.15 19784960.15 L 17833599.00 19811493.00 A 118707.48 118707.48 0 1 0 17900313.15 19727282.15  zM 17330700.41 11417339.58 m -234972.42 0 a 234972.42 234972.42 0 1 1 469944.84 0a 234972.42 234972.42 0 1 1 -469944.84 0M 14736215.16 14468480.37 m -201775.63 0 a 201775.63 201775.63 0 1 1 403551.26 0a 201775.63 201775.63 0 1 1 -403551.26 0"/>
<path id="N" d="M 5948441.00 14256268.00 L 5941761.09 14250562.85 L 8591831.00 11600493.00 L 8600672.00 11587261.00 L 8603776.00 11571654.00 L 8603776.00 5229162.53 L 8628928.00 5216790.00 A 118717.14 118717.14 0 1 0 8522208.00 5229162.53 L 8522208.00 11554761.00 L 5874594.06 14202374.00 L 5828959.00 14183050.00 L 5783164.00 14172055.00 A 300154.71 300154.71 0 1 0 5948441.00 14256268.00  zM 5736215.16 14468480.37 m -201775.63 0 a 201775.63 201775.63 0 1 1 403551.26 0a 201775.63 201775.63 0 1 1 -403551.26 0"/>
<path id="N" d="M 3641733.93 492135.81 m -304083.79 0 a 304083.79 304083.79 0 1 1 608167.59 0a 304083.79 304083.79 0 1 1 -608167.59 0M 3641734.60 492117.31 m -195841.69 0 a 195841.69 195841.69 0 1 1 391683.38 0a 195841.69 195841.69 0 1 1 -391683.38 0"/>
<path id="N" d="M 10736208.99 24803118.22 m -300168.36 0 a 300168.36 300168.36 0 1 1 600336.71 0a 300168.36 300168.36 0 1 1 -600336.71 0M 10736223.16 24803131.37 m -201775.63 0 a 201775.63 201775.63 0 1 1 403551.26 0a 201775.63 201775.63 0 1 1 -403551.26 0"/>
<path id="N" d="M 16736200.99 14468467.22 m -300168.36 0 a 300168.36 300168.36 0 1 1 600336.71 0a 300168.36 300168.36 0 1 1 -600336.71 0M 16736215.16 14468480.37 m -201775.63 0 a 201775.63 201775.63 0 1 1 403551.26 0a 201775.63 201775.63 0 1 1 -403551.26 0"/>
<path id="N" d="M 16736216.99 24803118.22 m -300168.36 0 a 300168.36 300168.36 0 1 1 600336.71 0a 300168.36 300168.36 0 1 1 -600336.71 0M 16736231.16 24803131.37 m -201775.63 0 a 201775.63 201775.63 0 1 1 403551.26 0a 201775.63 201775.63 0 1 1 -403551.26 0"/>
<path id="N" d="M 5736216.99 24803118.22 m -300168.36 0 a 300168.36 300168.36 0 1 1 600336.71 0a 300168.36 300168.36 0 1 1 -600336.71 0M 5736231.16 24803131.37 m -201775.63 0 a 201775.63 201775.63 0 1 1 403551.26 0a 201775.63 201775.63 0 1 1 -403551.26 0"/>
<path id="N" d="M 17736200.99 14468467.22 m -300168.36 0 a 300168.36 300168.36 0 1 1 600336.71 0a 300168.36 300168.36 0 1 1 -600336.71 0M 17736215.16 14468480.37 m -201775.63 0 a 201775.63 201775.63 0 1 1 403551.26 0a 201775.63 201775.63 0 1 1 -403551.26 0"/>
<path id="N" d="M 21653402.65 24390297.46 L 21650140.00 1000000.00 L 20650000.00 0.00 L 18521322.21 0.00 L 18374807.91 129125.44 L 18374807.00 855109.00 L 17648823.00 855109.00 L 17648822.09 129125.44 L 17502307.79 0.00 L 15726367.40 0.00 L 15672777.90 200000.32 A 360396.10 360396.10 0 0 1 15815747.00 444328.00 A 366116.25 366116.25 0 1 1 15232732.10 200000.32 L 15179142.60 0.00 L 12615807.48 0.00 L 12469296.91 129134.44 L 12469296.00 855118.00 L 11743312.00 855118.00 L 11743311.09 129134.44 L 11596800.52 0.00 L 9820840.81 0.00 L 9767251.32 200000.32 A 360367.99 360367.99 0 0 1 9910236.00 444337.00 A 366116.25 366116.25 0 1 1 9327236.68 200000.32 L 9273647.19 0.00 L 6710292.17 0.00 L 6563784.91 129142.44 L 6563784.00 855126.00 L 5837800.00 855126.00 L 5837799.09 129142.44 L 5691291.83 0.00 L 3915314.96 0.00 L 3861725.46 200000.32 A 360343.03 360343.03 0 0 1 4004724.00 444345.00 A 366116.25 366116.25 0 1 1 3421738.54 200000.32 L 3368149.04 0.00 L 1000000.00 0.00 L -13.00 1000000.00 L -11.54 3973184.46 L 195213.36 4017337.37 A 278752.43 278752.43 0 1 1 195213.36 4230694.63 L -11.39 4274848.09 L -1.00 25393701.00 L 20650000.00 25393702.00 L 21653402.65 24390297.46  zM 984254.00 1082679.67 m -546805.27 0 a 546805.27 546805.27 0 1 1 1093610.55 0a 546805.27 546805.27 0 1 1 -1093610.55 0M 1447638.00 3701575.00 L 717716.00 3701575.00 L 717716.00 2971653.00 L 1447638.00 2971653.00 L 1447638.00 3701575.00  zM 2066932.32 3336597.70 m -197818.30 0 a 197818.30 197818.30 0 1 1 395636.59 0a 197818.30 197818.30 0 1 1 -395636.59 0M 2509848.80 1082652.56 m -315956.44 0 a 315956.44 315956.44 0 1 1 631912.88 0a 315956.44 315956.44 0 1 1 -631912.88 0M 3641732.00 2263782.08 m -366116.25 0 a 366116.25 366116.25 0 1 1 732232.51 0a 366116.25 366116.25 0 1 1 -732232.51 0M 6200792.00 2263782.08 m -366116.25 0 a 366116.25 366116.25 0 1 1 732232.51 0a 366116.25 366116.25 0 1 1 -732232.51 0M 4756687.00 5650399.00 L 4085821.00 5650399.00 L 4085821.00 4979533.00 L 4756687.00 4979533.00 L 4756687.00 5650399.00  zM 9547244.00 2263794.08 m -366116.25 0 a 366116.25 366116.25 0 1 1 732232.51 0a 366116.25 366116.25 0 1 1 -732232.51 0M 10662207.00 5650399.00 L 9991341.00 5650399.00 L 9991341.00 4979533.00 L 10662207.00 4979533.00 L 10662207.00 5650399.00  zM 6299139.00 6635449.00 L 6284160.76 6599288.81 L 5319960.84 5635089.82 L 5291782.00 5627539.00 A 338322.93 338322.93 0 1 1 5689667.00 5520926.00 L 5678213.93 5532379.07 L 6514641.81 6368807.76 L 6550802.00 6383786.00 A 181441.34 181441.34 0 1 1 6299139.00 6635449.00  zM 3676402.00 11279528.00 L 3676402.00 10807088.00 A 457467.28 457467.28 0 0 1 3905131.00 10410918.00 L 3987025.00 10376996.53 L 3987025.00 8352154.00 L 2885356.57 7250485.57 L 2849198.00 7235508.00 A 181441.34 181441.34 0 1 1 3100861.00 6983845.00 L 3115838.57 7020003.57 L 4265241.00 8169406.00 L 4300569.00 8222279.00 L 4312975.00 8284652.03 L 4312975.00 10390367.29 L 4362589.00 10410918.00 A 457437.79 457437.79 0 0 1 4591318.00 10807088.00 L 4591318.00 11279528.00 A 457467.28 457467.28 0 0 1 3676402.00 11279528.00  zM 1573858.00 11161418.00 L 1573858.00 10925198.00 A 197818.30 197818.30 0 1 1 1969462.00 10925198.00 L 1969462.00 11161418.00 A 197818.30 197818.30 0 0 1 1573858.00 11161418.00  zM 3070870.00 13091510.00 L 2834650.00 13091510.00 A 197818.30 197818.30 0 1 1 2834650.00 12695906.00 L 3070870.00 12695906.00 A 197818.30 197818.30 0 1 1 3070870.00 13091510.00  zM 7480315.00 5807090.46 m -181436.88 0 a 181436.88 181436.88 0 1 1 362873.76 0a 181436.88 181436.88 0 1 1 -362873.76 0M 17772047.00 19800660.00 L 17228017.00 19256630.00 L 17205950.00 19223604.00 L 17198201.00 19184647.00 L 17198201.00 15351799.00 L 15150000.00 15351800.00 L 15111043.00 15344050.00 L 15078017.00 15321983.00 L 14668864.00 14912830.00 L 14646797.00 14879804.00 L 14639048.00 14840847.00 L 14639048.00 14814183.01 L 14597622.00 14803083.00 A 362158.05 362158.05 0 0 1 14377157.00 14421227.00 L 14385823.97 14388881.26 L 14236212.00 14274492.36 L 14086600.03 14388881.26 L 14095267.00 14421227.00 A 362153.89 362153.89 0 0 1 13874802.00 14803083.00 L 13838011.00 14812941.07 L 13838011.00 15844045.00 L 14005055.00 16011089.00 L 14027122.00 16044115.00 L 14034871.00 16083072.00 L 14034871.00 16395162.87 L 14142325.00 16423955.00 A 546803.77 546803.77 0 1 1 13723819.00 16423955.00 L 13831273.00 16395162.87 L 13831273.00 16125239.00 L 13664229.00 15958195.00 L 13642162.00 15925169.00 L 13634413.00 15886212.00 L 13634413.00 14812941.07 L 13597622.00 14803083.00 A 362158.05 362158.05 0 0 1 13377157.00 14421227.00 L 13385823.97 14388881.26 L 13236212.00 14274492.36 L 13086600.03 14388881.26 L 13095267.00 14421227.00 A 362153.89 362153.89 0 0 1 12874802.00 14803083.00 L 12838011.00 14812941.07 L 12838011.00 14848436.00 L 12830262.00 14887393.00 L 12808195.00 14920419.00 L 12421984.00 15306630.00 L 12388958.00 15328697.00 L 12350001.00 15336446.00 L 2557520.00 15336446.00 L 1530324.00 16363642.00 L 1583809.00 16417127.00 A 546803.01 546803.01 0 1 1 1360496.86 16245537.14 L 2443370.00 15162664.00 L 2476396.00 15140597.00 L 2515358.03 15132848.00 L 5317279.05 15132848.00 L 5373311.25 15030524.95 L 5389816.60 14932847.60 L 5214740.61 14757771.61 L 5114419.54 14721670.70 L 4976911.41 14740767.67 L 4968634.30 14743854.70 L 4956677.00 14755812.00 A 362147.43 362147.43 0 0 1 4448897.00 14688962.00 L 4415704.82 14631472.00 L 4056719.18 14631472.00 L 4023527.00 14688962.00 A 362158.05 362158.05 0 0 1 3448897.00 14688962.00 L 3415704.82 14631472.00 L 3056719.18 14631472.00 L 3023527.00 14688962.00 A 362158.05 362158.05 0 1 1 3023527.00 14248032.00 L 3056719.18 14305522.00 L 3415704.82 14305522.00 L 3448897.00 14248032.00 A 362158.05 362158.05 0 0 1 4023527.00 14248032.00 L 4056719.18 14305522.00 L 4415704.82 14305522.00 L 4448897.00 14248032.00 A 362158.05 362158.05 0 0 1 4874802.00 14133911.00 L 4938004.53 14170401.34 L 5014477.61 14148822.24 L 5138005.00 14079666.71 L 5138005.00 12934647.00 L 5146530.00 12891788.00 L 5170808.00 12855455.00 L 6947263.00 11079000.00 L 6947263.00 11053146.00 A 181441.34 181441.34 0 1 1 7089819.00 11266496.00 L 7080425.83 11262605.17 L 5361995.00 12981036.00 L 5361995.00 14052090.74 L 5418707.14 14099706.32 L 5561995.48 14154480.18 L 5597622.00 14133911.00 L 5688942.00 14109442.00 L 5783482.00 14109442.00 L 5860579.86 14130100.21 L 8461193.00 11529487.99 L 8461193.00 8005468.64 L 8261192.83 7979138.18 L 8243840.00 8043900.00 A 546803.77 546803.77 0 1 1 8243840.00 7625394.00 L 8261192.83 7690155.82 L 8461193.00 7663825.36 L 8461193.00 5267974.00 A 179634.86 179634.86 0 0 1 8663793.28 4967248.70 L 8854894.00 4875505.70 L 8854894.00 4480573.00 A 179634.86 179634.86 0 0 1 9057494.28 4179847.70 L 9248201.00 4087710.70 L 9248201.00 3692777.00 A 178921.17 178921.17 0 1 1 9451799.00 3693565.00 L 9451799.00 7473113.51 L 9651799.32 7526703.41 L 9666190.00 7501778.00 A 546803.77 546803.77 0 1 1 9666190.00 8167524.00 L 9651799.32 8142598.59 L 9451799.00 8196188.49 L 9451799.00 10241061.83 L 9637289.38 10362172.50 L 9651799.31 10360408.58 L 9664229.00 10341806.00 L 12698201.00 7307834.99 L 12698201.00 6648467.79 L 12694474.00 6646924.00 A 181441.34 181441.34 0 1 1 12946137.00 6596865.00 L 12901799.00 6641203.00 L 12901800.00 7350001.00 L 12894050.00 7388958.00 L 12871979.99 7421986.01 L 9838011.00 10455955.99 L 9838011.00 14124052.93 L 9874802.00 14133911.00 A 362158.05 362158.05 0 0 1 10095267.00 14515767.00 L 10086600.03 14548112.74 L 10236212.00 14662501.64 L 10385823.97 14548112.74 L 10377157.00 14515767.00 A 362153.89 362153.89 0 0 1 10597622.00 14133911.00 L 10641307.00 14122205.70 L 10641307.00 10041541.00 L 10649056.00 10002584.00 L 10671123.00 9969558.00 L 13284028.00 7356653.00 L 13284028.00 6982199.32 L 13281102.00 6975843.00 L 13279061.87 6956714.85 L 13270524.14 6937312.90 L 13256264.00 6920379.00 L 13251894.05 6909070.05 L 13234966.00 6892142.00 A 181436.88 181436.88 0 1 1 13536688.00 6892142.00 L 13519759.95 6909070.05 L 13515390.00 6920379.00 L 13501130.91 6937312.18 L 13492592.63 6956713.15 L 13490552.00 6975843.00 L 13487626.00 6982199.46 L 13487626.00 7398820.00 L 13479877.00 7437777.00 L 13457810.00 7470803.00 L 10844905.00 10083708.00 L 10844905.00 14125900.16 L 10874802.00 14133911.00 A 362158.05 362158.05 0 0 1 11095267.00 14515767.00 L 11086600.03 14548112.74 L 11236212.00 14662501.64 L 11385823.97 14548112.74 L 11377157.00 14515767.00 A 362153.89 362153.89 0 0 1 11597622.00 14133911.00 L 11634413.00 14124052.93 L 11634413.00 9692312.00 L 11642162.00 9653355.00 L 11664229.00 9620329.00 L 13855682.00 7428876.00 L 13855682.00 7217583.00 L 13825517.00 7187418.00 A 181436.88 181436.88 0 1 1 14077180.00 7237477.00 L 14059280.00 7244891.52 L 14059281.00 7471043.00 L 14051531.00 7510000.00 L 14029464.00 7543026.00 L 11838011.00 9734479.00 L 11838011.00 14053006.91 L 12015807.53 14177658.10 L 12029857.01 14176820.92 L 12177062.31 14146107.31 L 12186264.14 14139998.71 L 12346013.00 13980249.00 L 12382347.00 13955971.00 L 12425206.00 13947446.00 L 15327156.00 13947446.00 L 15370015.00 13955971.00 L 15406348.00 13980249.00 L 15573777.29 14147677.88 L 15597622.00 14133911.00 A 362153.89 362153.89 0 1 1 15377157.00 14421227.71 L 15231954.57 14256355.77 L 15225317.39 14253478.57 L 15126636.09 14282175.19 L 15081925.75 14371436.52 L 15095267.00 14421227.00 A 362153.89 362153.89 0 0 1 14956677.50 14755811.50 L 15003617.73 14959651.73 L 15192167.00 15148201.00 L 17198201.00 15148201.00 L 17198201.00 14786418.36 L 17102348.36 14732939.47 L 16998200.60 14714288.40 L 16956677.00 14755812.00 A 362147.43 362147.43 0 1 1 16956677.00 14181182.00 L 16998200.60 14222705.60 L 17102348.36 14204054.53 L 17198201.00 14150575.64 L 17198201.00 11839383.00 L 16908653.00 11839383.00 L 16908653.00 10995289.00 L 17752747.00 10995289.00 L 17752747.00 11839383.00 L 17401799.00 11839383.00 L 17401799.00 14026153.37 L 17597622.69 14133910.82 A 362152.53 362152.53 0 1 1 17597622.69 14803083.18 L 17401799.00 14910840.63 L 17401799.00 19142480.00 L 17916013.00 19656694.00 A 179630.41 179630.41 0 1 1 17772047.00 19800660.00  zM 11122047.00 6942951.00 L 11137025.00 6906791.39 L 11137025.00 5592738.35 L 11120814.00 5583379.00 A 338322.93 338322.93 0 1 1 11532734.00 5583379.00 L 11462975.00 5623654.04 L 11462975.00 6906791.39 L 11477953.00 6942951.00 A 181436.88 181436.88 0 1 1 11122047.00 6942951.00  zM 12106304.00 2263794.08 m -366116.25 0 a 366116.25 366116.25 0 1 1 732232.51 0a 366116.25 366116.25 0 1 1 -732232.51 0M 13385827.00 5807090.46 m -181436.88 0 a 181436.88 181436.88 0 1 1 362873.76 0a 181436.88 181436.88 0 1 1 -362873.76 0M 15452755.00 2263785.08 m -366116.25 0 a 366116.25 366116.25 0 1 1 732232.51 0a 366116.25 366116.25 0 1 1 -732232.51 0M 16567707.00 5650399.00 L 15896841.00 5650399.00 L 15896841.00 4979533.00 L 16567707.00 4979533.00 L 16567707.00 5650399.00  zM 18011815.00 2263785.08 m -366116.25 0 a 366116.25 366116.25 0 1 1 732232.51 0a 366116.25 366116.25 0 1 1 -732232.51 0M 20472441.00 2559078.12 m -772199.45 0 a 772199.45 772199.45 0 1 1 1544398.90 0a 772199.45 772199.45 0 1 1 -1544398.90 0M 16749198.00 7233786.00 L 16785356.57 7218808.43 L 17069299.00 6934866.00 L 17069299.00 5608196.19 L 17026314.00 5583379.00 A 338322.93 338322.93 0 1 1 17438234.00 5583379.00 L 17395249.00 5608196.19 L 17395249.00 6984647.00 L 17393485.99 6993510.07 L 17395249.00 7002373.00 L 17382843.00 7064741.00 L 17347515.00 7117614.00 L 17015838.57 7449290.43 L 17000861.00 7485449.00 A 181441.34 181441.34 0 1 1 16749198.00 7233786.00  zM 19291339.00 5807090.46 m -181436.88 0 a 181436.88 181436.88 0 1 1 362873.76 0a 181436.88 181436.88 0 1 1 -362873.76 0M 16050000.00 11534649.67 m -546805.27 0 a 546805.27 546805.27 0 1 1 1093610.55 0a 546805.27 546805.27 0 1 1 -1093610.55 0M 14851184.80 12784624.56 m -315956.44 0 a 315956.44 315956.44 0 1 1 631912.88 0a 315956.44 315956.44 0 1 1 -631912.88 0M 14688206.00 12225360.88 L 14688206.00 11198820.00 L 14700612.00 11136452.00 L 14735940.00 11083579.00 L 15950113.00 9869406.00 L 16002986.00 9834078.00 L 16065354.00 9821672.00 L 19667408.16 9821672.00 L 19640997.00 9837853.00 L 19598305.00 9858326.00 L 19555884.00 9872949.00 L 19513733.00 9881722.00 L 19484209.39 9883784.00 L 16065354.00 9883784.00 A 100867.13 100867.13 0 0 0 15994033.00 9913326.00 L 14779860.00 11127499.00 A 100856.08 100856.08 0 0 0 14750318.00 11198820.00 L 14750318.00 12037009.14 L 14748805.00 12060737.00 L 14741677.00 12098980.00 L 14729797.00 12138204.00 L 14713165.00 12178408.00 L 14691781.00 12219593.00 L 14688206.00 12225360.88  zM 15014156.00 12225360.88 L 14989197.00 12178408.00 L 14972565.00 12138204.00 L 14960685.00 12098980.00 L 14953557.00 12060737.00 L 14952044.00 12037009.14 L 14952044.00 11240599.00 L 16107133.00 10085510.00 L 19510197.74 10085510.00 L 19534744.00 10087187.00 L 19574760.00 10094806.00 L 19617615.00 10107505.00 L 19663307.00 10125283.00 L 19710735.11 10147622.00 L 16132861.00 10147622.00 L 15014156.00 11266327.00 L 15014156.00 12225360.88  zM 20330697.72 9917354.14 m -351126.86 0 a 351126.86 351126.86 0 1 1 702253.71 0a 351126.86 351126.86 0 1 1 -702253.71 0M 19910046.54 12580652.29 L 19889769.00 12535411.09 L 19907420.20 12489082.91 L 20005316.97 12385410.42 L 20044197.50 12338104.90 L 20077840.31 12292276.46 L 20105828.83 12248593.93 L 20128226.76 12207215.07 L 20145168.79 12168282.22 L 20156858.96 12131939.34 L 20163604.98 12098201.07 L 20166080.00 12062411.00 L 20167725.00 12059105.36 L 20167725.00 10775565.64 L 20166080.00 10772260.00 L 20163604.99 10736470.99 L 20156859.98 10702737.77 L 20145168.79 10666389.93 L 20128224.05 10627452.88 L 20105828.67 10586077.83 L 20077844.95 10542402.77 L 20044680.50 10497223.78 L 19959335.74 10398431.41 L 19908319.08 10346519.05 L 19889744.15 10301116.63 L 19819530.07 10212082.67 L 19874456.00 10247192.00 L 19973772.02 10320707.94 L 20006993.00 10354512.00 L 20095371.00 10456817.00 L 20131275.00 10505727.00 L 20161655.00 10553142.00 L 20186511.00 10599062.00 L 20205844.00 10643487.00 L 20219653.00 10686417.00 L 20227938.00 10727852.00 L 20229837.00 10755312.56 L 20229837.00 12079359.44 L 20227938.00 12106820.00 L 20219653.00 12148255.00 L 20205844.00 12191185.00 L 20186511.00 12235610.00 L 20161655.00 12281530.00 L 20131275.00 12328945.00 L 20095371.00 12377855.00 L 20053944.00 12428260.00 L 19950101.00 12536737.00 L 19910046.54 12580652.29  zM 20750417.06 12580510.91 L 20711299.00 12536737.00 L 20654407.00 12480160.00 L 20566029.00 12377855.00 L 20530125.00 12328945.00 L 20499745.00 12281530.00 L 20474889.00 12235610.00 L 20455556.00 12191185.00 L 20441747.00 12148255.00 L 20433462.00 12106820.00 L 20431563.00 12079359.44 L 20431563.00 10755312.56 L 20433462.00 10727852.00 L 20441747.00 10686417.00 L 20455556.00 10643487.00 L 20474889.00 10599062.00 L 20499745.00 10553142.00 L 20530125.00 10505727.00 L 20566029.00 10456817.00 L 20607456.00 10406412.00 L 20711299.00 10297935.00 L 20751353.46 10254019.71 L 20771631.00 10299260.91 L 20753979.80 10345589.09 L 20656083.03 10449261.58 L 20617202.50 10496567.10 L 20583559.69 10542395.54 L 20555571.17 10586078.07 L 20533173.24 10627456.93 L 20516231.21 10666389.78 L 20504541.04 10702732.66 L 20497795.02 10736470.93 L 20495320.00 10772261.00 L 20493675.00 10775566.64 L 20493675.00 12059106.36 L 20495320.00 12062412.00 L 20497795.01 12098201.01 L 20504540.02 12131934.23 L 20516231.21 12168282.07 L 20533175.95 12207219.12 L 20555571.33 12248594.17 L 20583555.05 12292269.23 L 20616719.50 12337448.22 L 20702066.12 12436239.98 L 20753082.77 12488152.84 L 20771654.73 12534118.82 L 20752285.10 12579756.14 L 20750417.06 12580510.91  zM 20330697.72 12917354.14 m -351126.86 0 a 351126.86 351126.86 0 1 1 702253.71 0a 351126.86 351126.86 0 1 1 -702253.71 0M 1448897.00 14688962.00 L 1415704.82 14631472.00 L 1056719.18 14631472.00 L 1023527.00 14688962.00 A 362158.05 362158.05 0 1 1 1023527.00 14248032.00 L 1056719.18 14305522.00 L 1415704.82 14305522.00 L 1448897.00 14248032.00 A 362158.05 362158.05 0 1 1 1448897.00 14688962.00  zM 1181102.00 18897661.12 m -772199.45 0 a 772199.45 772199.45 0 1 1 1544398.90 0a 772199.45 772199.45 0 1 1 -1544398.90 0M 7515763.00 24515833.00 L 7573253.00 24482640.82 L 7573253.00 16038308.50 L 7572047.00 16035397.00 A 181436.88 181436.88 0 1 1 7899203.00 16102460.00 L 7899203.00 24482640.82 L 7956693.00 24515833.00 A 362158.05 362158.05 0 1 1 7515763.00 24515833.00  zM 809570.67 24499323.33 L 1088253.00 24220641.00 L 1088253.00 22735875.00 A 162979.74 162979.74 0 0 1 1414203.00 22735875.00 L 1414203.00 24250641.00 L 1662046.19 24498484.19 L 1619251.00 24489027.00 L 1593447.00 24480250.00 L 1568721.00 24469454.00 L 1545071.00 24456639.00 L 1522498.00 24441806.00 L 1501003.00 24424954.00 L 1352091.00 24276369.00 L 1352091.00 22794201.10 L 1359647.00 22780064.00 A 118653.80 118653.80 0 1 0 1150365.00 22798796.22 L 1150365.00 24246369.00 L 1009768.67 24386965.33 L 977948.00 24414398.00 L 949767.00 24435568.00 L 921572.00 24453947.00 L 893364.00 24469535.00 L 865142.00 24482333.00 L 836906.00 24492340.00 L 809570.67 24499323.33  zM 1040052.67 24729805.33 L 1047036.00 24702470.00 L 1057043.00 24674234.00 L 1069841.00 24646012.00 L 1085429.00 24617804.00 L 1103808.00 24589609.00 L 1124978.00 24561428.00 L 1148938.00 24533262.00 L 1236228.00 24445790.00 L 1354047.68 24563609.68 L 1374886.00 24589418.00 A 318006.88 318006.88 0 0 1 1431564.19 24728966.19 L 1236228.00 24533630.00 L 1040052.67 24729805.33  zM 2175847.22 24702285.00 L 2142865.00 24698770.00 A 317774.76 317774.76 0 0 1 2041060.00 24663746.00 L 2017273.00 24649518.00 L 1994153.00 24633101.00 L 1971698.00 24614495.00 L 1948457.00 24590919.00 L 1912644.00 24560332.00 L 1893085.24 24548346.50 L 1904108.07 24547896.14 L 1948396.98 24528942.00 L 1994629.37 24546840.07 L 2033621.41 24581682.57 L 2072039.54 24606798.54 L 2111723.35 24624330.80 L 2153342.81 24634791.76 L 2200312.00 24638424.00 L 2204104.87 24640173.00 L 2268351.13 24640173.00 L 2272144.00 24638424.00 L 2319113.19 24634791.76 L 2360745.81 24624326.00 L 2400421.81 24606794.65 L 2438833.88 24581680.98 L 2477829.23 24546838.25 L 2522548.86 24528922.36 L 2568352.12 24547894.88 L 2571121.52 24553401.59 L 2559812.00 24560332.00 L 2523999.00 24590919.00 L 2517553.93 24598465.25 L 2478303.00 24633101.00 L 2455183.00 24649518.00 L 2431396.00 24663746.00 L 2406943.00 24675786.00 L 2381825.00 24685636.00 L 2356041.00 24693298.00 L 2329591.00 24698770.00 L 2302475.00 24702054.00 L 2175847.22 24702285.00  zM 3175847.22 24702285.00 L 3142865.00 24698770.00 A 317774.76 317774.76 0 0 1 3041060.00 24663746.00 L 3017273.00 24649518.00 L 2994153.00 24633101.00 L 2971698.00 24614495.00 L 2948457.00 24590919.00 L 2912644.00 24560332.00 L 2901335.33 24553402.10 L 2903049.05 24548975.39 L 2948396.93 24528940.00 L 2994630.10 24546838.21 L 3033620.16 24581680.21 L 3072034.29 24606794.58 L 3111723.35 24624330.80 L 3153342.81 24634791.76 L 3200312.00 24638424.00 L 3204104.87 24640173.00 L 3268351.13 24640173.00 L 3272144.00 24638424.00 L 3319113.19 24634791.76 L 3360745.81 24624326.00 L 3400421.81 24606794.65 L 3438833.88 24581680.98 L 3477829.23 24546838.25 L 3522548.86 24528922.36 L 3568352.12 24547894.88 L 3571121.52 24553401.59 L 3559812.00 24560332.00 L 3523999.00 24590919.00 L 3517553.93 24598465.25 L 3478303.00 24633101.00 L 3455183.00 24649518.00 L 3431396.00 24663746.00 L 3406943.00 24675786.00 L 3381825.00 24685636.00 L 3356041.00 24693298.00 L 3329591.00 24698770.00 L 3302475.00 24702054.00 L 3175847.22 24702285.00  zM 4736228.00 24803147.31 m -362153.89 0 a 362153.89 362153.89 0 1 1 724307.78 0a 362153.89 362153.89 0 1 1 -724307.78 0M 6736228.00 24803147.31 m -362153.89 0 a 362153.89 362153.89 0 1 1 724307.78 0a 362153.89 362153.89 0 1 1 -724307.78 0M 736231.16 24803131.37 m -201775.63 0 a 201775.63 201775.63 0 1 1 403551.26 0a 201775.63 201775.63 0 1 1 -403551.26 0M 1736231.16 24803131.37 m -201775.63 0 a 201775.63 201775.63 0 1 1 403551.26 0a 201775.63 201775.63 0 1 1 -403551.26 0M 2477825.90 25059457.79 L 2438835.84 25024615.79 L 2400421.71 24999501.42 L 2360732.65 24981965.20 L 2319113.19 24971504.24 L 2272144.00 24967872.00 L 2268351.13 24966123.00 L 2204104.87 24966123.00 L 2200312.00 24967872.00 L 2153342.81 24971504.24 L 2111710.19 24981970.00 L 2072033.63 24999501.54 L 2033620.97 25024615.32 L 1994626.01 25059457.74 L 1949907.26 25077373.69 L 1904104.03 25058401.24 L 1901334.51 25052894.40 L 1912644.00 25045964.00 L 1948457.00 25015377.00 L 1954902.07 25007830.75 L 1994153.00 24973195.00 L 2017273.00 24956778.00 L 2041060.00 24942550.00 L 2065513.00 24930510.00 L 2090631.00 24920660.00 L 2116415.00 24912998.00 L 2142865.00 24907526.00 L 2169981.00 24904242.00 L 2296608.78 24904011.00 L 2329591.00 24907526.00 A 317774.76 317774.76 0 0 1 2431396.00 24942550.00 L 2455183.00 24956778.00 L 2478303.00 24973195.00 L 2500758.00 24991801.00 L 2523999.00 25015377.00 L 2559812.00 25045964.00 L 2571120.67 25052893.90 L 2569406.95 25057320.61 L 2524059.07 25077356.00 L 2477825.90 25059457.79  zM 2736231.16 24803131.37 m -201775.63 0 a 201775.63 201775.63 0 1 1 403551.26 0a 201775.63 201775.63 0 1 1 -403551.26 0M 3477825.90 25059457.79 L 3438835.84 25024615.79 L 3400421.71 24999501.42 L 3360732.65 24981965.20 L 3319113.19 24971504.24 L 3272144.00 24967872.00 L 3268351.13 24966123.00 L 3204104.87 24966123.00 L 3200312.00 24967872.00 L 3153342.81 24971504.24 L 3111710.19 24981970.00 L 3072034.19 24999501.35 L 3033622.12 25024615.02 L 2994627.57 25059457.76 L 2949907.22 25077373.68 L 2904103.88 25058401.12 L 2901334.52 25052894.39 L 2912644.00 25045964.00 L 2948457.00 25015377.00 L 2954902.07 25007830.75 L 2994153.00 24973195.00 L 3017273.00 24956778.00 L 3041060.00 24942550.00 L 3065513.00 24930510.00 L 3090631.00 24920660.00 L 3116415.00 24912998.00 L 3142865.00 24907526.00 L 3169981.00 24904242.00 L 3296608.78 24904011.00 L 3329591.00 24907526.00 A 317774.76 317774.76 0 0 1 3431396.00 24942550.00 L 3455183.00 24956778.00 L 3478303.00 24973195.00 L 3500758.00 24991801.00 L 3523999.00 25015377.00 L 3559812.00 25045964.00 L 3571120.67 25052893.90 L 3569406.95 25057320.61 L 3524059.07 25077356.00 L 3477825.90 25059457.79  zM 3736231.16 24803131.37 m -201775.63 0 a 201775.63 201775.63 0 1 1 403551.26 0a 201775.63 201775.63 0 1 1 -403551.26 0M 5736228.00 24803147.31 m -362153.89 0 a 362153.89 362153.89 0 1 1 724307.78 0a 362153.89 362153.89 0 1 1 -724307.78 0M 8736228.00 24803147.31 m -362153.89 0 a 362153.89 362153.89 0 1 1 724307.78 0a 362153.89 362153.89 0 1 1 -724307.78 0M 9484260.00 17701901.00 L 9169300.00 17701901.00 A 221580.47 221580.47 0 0 1 8947719.00 17480320.00 L 8947719.00 17165360.00 A 221580.47 221580.47 0 0 1 9169300.00 16943779.00 L 9484260.00 16943779.00 A 221580.47 221580.47 0 0 1 9705841.00 17165360.00 L 9705841.00 17480320.00 A 221580.47 221580.47 0 0 1 9484260.00 17701901.00  zM 10326778.02 17322857.20 m -217187.80 0 a 217187.80 217187.80 0 1 1 434375.61 0a 217187.80 217187.80 0 1 1 -434375.61 0M 15377173.00 24850418.00 L 15377173.00 24807499.03 L 15261284.21 24726012.36 L 15184256.75 24706161.16 L 15095283.00 24782400.68 L 15095283.00 24850418.00 A 362147.43 362147.43 0 1 1 14956693.00 24515833.00 L 14990770.50 24549910.50 L 16048201.00 23492480.00 L 16048201.00 22647706.81 L 15935396.24 22477953.00 L 15864603.00 22477953.00 L 15828443.39 22462975.00 L 14700000.00 22462976.00 L 14637632.00 22450569.00 L 14584759.00 22415241.00 L 13482111.00 21312593.00 L 11536229.00 21312593.00 L 11536229.00 22090394.00 L 11920657.00 22474822.00 L 12822144.39 22474822.00 L 12858304.00 22459844.00 A 181436.88 181436.88 0 1 1 12858304.00 22815750.00 L 12822144.39 22800772.00 L 11853150.00 22800772.00 L 11790782.00 22788366.00 L 11737909.00 22753038.00 L 11347861.00 22362990.00 L 11129357.38 22362990.62 L 11046612.04 22384100.22 L 10939338.08 22416120.85 L 10927742.00 22469843.00 L 10892414.00 22522716.00 L 10665242.00 22749888.00 L 10612369.00 22785216.00 L 10550001.00 22797622.00 L 8973424.00 22797622.00 A 162979.74 162979.74 0 1 1 8973424.00 22471672.00 L 9962348.03 22471672.00 L 10117330.11 22362989.46 L 10117331.00 21432460.00 L 9982493.00 21297622.00 L 8646418.00 21297622.00 L 8584050.00 21285216.00 L 8531177.00 21249888.00 L 8517051.08 21235762.08 L 8464161.00 21213854.00 A 181441.34 181441.34 0 1 1 8715824.00 20962191.00 L 8719751.21 20971672.00 L 9982380.03 20971672.00 L 10090981.34 20855704.10 L 10117330.02 20781146.54 L 10117331.00 19763002.00 L 10536228.64 19763001.29 L 10732847.00 19754836.44 L 10732847.00 19234511.00 A 179634.86 179634.86 0 0 1 10656693.00 19049250.81 L 10519870.54 18886446.00 L 9702403.00 18886446.00 L 9134646.00 19454203.00 A 179630.41 179630.41 0 1 1 8990680.00 19310237.00 L 9588253.00 18712664.00 L 9621279.00 18690597.00 L 9660236.00 18682848.00 L 11050000.00 18682848.00 L 11088957.00 18690597.00 L 11121983.00 18712664.00 L 11521983.00 19112664.00 L 11544050.00 19145690.00 L 11551799.00 19184647.00 L 11551800.00 19815982.00 L 11544050.00 19854939.00 L 11538186.00 19863715.20 L 11538187.00 20185679.00 L 11536229.00 20195521.04 L 11536229.00 20440382.81 L 11721005.33 20516919.67 L 12715748.00 19522177.00 A 179630.41 179630.41 0 0 1 12858304.00 19310237.00 L 12887367.72 19310237.00 L 12965465.65 19190956.10 L 12985434.95 19125460.95 L 11509883.93 17649909.93 L 11471448.00 17672101.00 A 378036.36 378036.36 0 1 1 11676041.00 17467508.00 L 11653849.93 17505943.93 L 16221983.00 22074077.00 L 16244050.00 22107103.00 L 16251799.00 22146060.00 L 16251799.00 23534647.00 L 16244050.00 23573604.00 L 16221983.00 23606630.00 L 15555931.26 24272681.74 L 15659458.95 24451997.21 L 15688958.00 24444093.00 A 362153.89 362153.89 0 1 1 15377173.00 24850418.00  zM 10736220.00 24803147.31 m -362153.89 0 a 362153.89 362153.89 0 1 1 724307.78 0a 362153.89 362153.89 0 1 1 -724307.78 0M 9736228.00 24803147.31 m -362153.89 0 a 362153.89 362153.89 0 1 1 724307.78 0a 362153.89 362153.89 0 1 1 -724307.78 0M 11736228.00 24803147.31 m -362153.89 0 a 362153.89 362153.89 0 1 1 724307.78 0a 362153.89 362153.89 0 1 1 -724307.78 0M 12736228.00 24803147.31 m -362153.89 0 a 362153.89 362153.89 0 1 1 724307.78 0a 362153.89 362153.89 0 1 1 -724307.78 0M 13736231.16 24803131.37 m -201775.63 0 a 201775.63 201775.63 0 1 1 403551.26 0a 201775.63 201775.63 0 1 1 -403551.26 0M 18736212.00 14468496.31 m -362153.89 0 a 362153.89 362153.89 0 1 1 724307.78 0a 362153.89 362153.89 0 1 1 -724307.78 0M 19885818.00 14831655.00 L 19586606.00 14831655.00 A 213554.11 213554.11 0 0 1 19373054.00 14618103.00 L 19373054.00 14318891.00 A 213554.11 213554.11 0 0 1 19586606.00 14105339.00 L 19885818.00 14105339.00 A 213554.11 213554.11 0 0 1 20099370.00 14318891.00 L 20099370.00 14618103.00 A 213554.11 213554.11 0 0 1 19885818.00 14831655.00  zM 19550000.00 18097622.00 L 17850000.00 18097622.00 A 162979.74 162979.74 0 0 1 17850000.00 17771672.00 L 19550000.00 17771672.00 A 162979.74 162979.74 0 1 1 19550000.00 18097622.00  zM 17597638.00 24468562.00 L 17634429.00 24458703.93 L 17634429.00 22774455.00 L 12509883.93 17649909.93 L 12471448.00 17672101.00 A 378036.36 378036.36 0 1 1 12676041.00 17467508.00 L 12653849.93 17505943.93 L 17808211.00 22660305.00 L 17830278.00 22693331.00 L 17838027.00 22732293.03 L 17838027.00 24458703.93 L 17874818.00 24468562.00 A 362158.05 362158.05 0 1 1 17597638.00 24468562.00  zM 16736228.00 24803147.31 m -362153.89 0 a 362153.89 362153.89 0 1 1 724307.78 0a 362153.89 362153.89 0 1 1 -724307.78 0M 18736228.00 24803147.31 m -362153.89 0 a 362153.89 362153.89 0 1 1 724307.78 0a 362153.89 362153.89 0 1 1 -724307.78 0M 20472441.00 22637818.12 m -772199.45 0 a 772199.45 772199.45 0 1 1 1544398.90 0a 772199.45 772199.45 0 1 1 -1544398.90 0M 19736228.00 24803147.31 m -362153.89 0 a 362153.89 362153.89 0 1 1 724307.78 0a 362153.89 362153.89 0 1 1 -724307.78 0"/>
<path id="N" d="M 6775298.43 14765558.00 L 7262178.94 14765558.00 L 7327504.99 14691319.49 L 7390498.25 14565557.48 L 7377157.00 14515767.00 A 362153.89 362153.89 0 0 1 7597622.00 14133911.00 L 7634413.00 14124052.93 L 7634413.00 13863789.00 L 7642162.00 13824832.00 L 7664229.00 13791806.00 L 8854894.00 12601141.00 L 8854894.00 11641108.63 L 8657041.58 11610611.63 L 8634971.99 11643639.01 L 6026108.57 14252503.36 L 6070798.00 14329907.00 L 6095267.00 14421227.00 L 6095267.00 14515767.00 L 6081925.75 14565557.48 L 6144919.01 14691319.49 L 6210245.06 14765558.00 L 6697125.57 14765558.00 L 6736212.00 14768634.00 L 6775298.43 14765558.00  zM 6736215.16 14468480.37 m -201775.63 0 a 201775.63 201775.63 0 1 1 403551.26 0a 201775.63 201775.63 0 1 1 -403551.26 0"/>
<path id="N" d="M 19488148.34 17833784.00 L 17911851.66 17833784.00 L 17895417.00 17825000.00 A 118653.80 118653.80 0 1 0 17911851.66 18035510.00 L 19488148.34 18035510.00 L 19504583.00 18044294.00 A 118653.80 118653.80 0 1 0 19488148.34 17833784.00  z"/>
<path id="N" d="M 9022629.00 22736477.00 L 10550001.00 22735510.00 A 100867.13 100867.13 0 0 0 10621322.00 22705968.00 L 10848494.00 22478796.00 A 100852.29 100852.29 0 0 0 10878036.00 22407475.00 L 10882576.69 22303147.00 L 10976386.00 22303147.00 L 10976386.00 21358265.00 L 10677174.00 21358265.00 L 10676310.00 22365696.00 L 10508222.00 22533784.00 L 9012651.08 22533784.00 L 9002110.00 22528150.00 A 118653.80 118653.80 0 1 0 9022629.00 22736477.00  z"/>
<path id="N" d="M 8385823.97 14548112.74 L 8377157.00 14515767.00 A 362153.89 362153.89 0 0 1 8874802.00 14133911.00 L 8895068.83 14145612.17 L 9248201.00 13792480.00 L 9248201.00 12714743.41 L 9050742.58 12682265.63 L 9028676.00 12715291.00 L 7838011.00 13905956.00 L 7838011.00 14124052.93 L 7874802.00 14133911.00 A 362158.05 362158.05 0 0 1 8095267.00 14515767.00 L 8086600.03 14548112.74 L 8236212.00 14662501.64 L 8385823.97 14548112.74  z"/>
<path id="N" d="M 15796998.57 21937024.57 L 13256430.05 19396456.05 L 13190934.90 19416425.35 L 13071654.00 19494523.28 L 13071654.00 19523587.00 A 181441.34 181441.34 0 0 1 12859714.00 19666143.00 L 11739214.43 20786642.57 L 11822057.31 20986643.00 L 13549618.00 20986643.00 L 13611986.00 20999049.00 L 13664859.00 21034377.00 L 14767507.00 22137025.00 L 15714155.69 22137025.00 L 15796998.57 21937024.57  z"/>
<path id="N" d="M 11348201.00 19226813.07 L 11212599.40 19091211.81 L 11131855.56 19102852.16 L 10996779.39 19158235.41 L 10985507.00 19185449.00 L 10936445.00 19234511.00 L 10936445.00 19716856.09 L 11117331.79 19763002.00 L 11348201.00 19763002.00 L 11348201.00 19226813.07  z"/>
<path id="N" d="M 11776996.00 14171569.59 L 11776996.00 9709205.99 L 13986320.00 7499882.00 L 13995161.00 7486651.00 L 13998265.00 7471037.97 L 13998265.00 7203141.76 A 115934.53 115934.53 0 1 0 13910442.00 7185296.00 L 13916697.00 7188639.17 L 13916697.00 7454149.99 L 11707373.00 9663473.00 L 11698532.00 9676704.00 L 11695428.00 9692317.03 L 11695428.00 14171569.59 L 11643465.00 14183050.00 A 300136.08 300136.08 0 1 0 11776996.00 14171569.59  zM 11736215.16 14468480.37 m -201775.63 0 a 201775.63 201775.63 0 1 1 403551.26 0a 201775.63 201775.63 0 1 1 -403551.26 0"/>
<path id="N" d="M 19291327.98 5807061.46 m -118709.68 0 a 118709.68 118709.68 0 1 1 237419.37 0a 118709.68 118709.68 0 1 1 -237419.37 0"/>
<path id="N" d="M 10602364.00 5039376.00 L 10051184.00 5039376.00 L 10051184.00 5590556.00 L 10602364.00 5590556.00 L 10602364.00 5039376.00  zM 10326778.50 5314942.30 m -178045.70 0 a 178045.70 178045.70 0 1 1 356091.40 0a 178045.70 178045.70 0 1 1 -356091.40 0"/>
<path id="N" d="M 8979028.00 14292081.00 L 8965768.72 14276556.28 L 9378839.00 13863486.00 L 9387680.00 13850255.00 L 9390784.00 13834641.97 L 9390784.00 3654479.06 L 9416330.00 3641987.00 A 118717.14 118717.14 0 1 0 9309216.00 3654240.00 L 9309216.00 13817753.00 L 8905596.73 14221372.27 L 8872471.00 14201073.00 A 300168.36 300168.36 0 1 0 8979028.00 14292081.00  zM 8736215.16 14468480.37 m -201775.63 0 a 201775.63 201775.63 0 1 1 403551.26 0a 201775.63 201775.63 0 1 1 -403551.26 0"/>
<path id="N" d="M 15452756.93 492118.81 m -304083.79 0 a 304083.79 304083.79 0 1 1 608167.59 0a 304083.79 304083.79 0 1 1 -608167.59 0M 15452757.60 492100.31 m -195841.69 0 a 195841.69 195841.69 0 1 1 391683.38 0a 195841.69 195841.69 0 1 1 -391683.38 0"/>
<path id="N" d="M 7872487.00 24535724.00 L 7837091.00 24521062.71 L 7837091.00 16080056.36 L 7848680.00 16065936.00 A 118709.68 118709.68 0 1 0 7635365.00 16028975.21 L 7635365.00 24521062.71 L 7599969.00 24535724.00 A 300135.50 300135.50 0 1 0 7872487.00 24535724.00  zM 7736231.16 24803131.37 m -201775.63 0 a 201775.63 201775.63 0 1 1 403551.26 0a 201775.63 201775.63 0 1 1 -403551.26 0"/>
<path id="N" d="M 9736216.99 24803118.22 m -300168.36 0 a 300168.36 300168.36 0 1 1 600336.71 0a 300168.36 300168.36 0 1 1 -600336.71 0M 9736231.16 24803131.37 m -201775.63 0 a 201775.63 201775.63 0 1 1 403551.26 0a 201775.63 201775.63 0 1 1 -403551.26 0"/>
<path id="N" d="M 16507864.00 5039376.00 L 15956684.00 5039376.00 L 15956684.00 5590556.00 L 16507864.00 5590556.00 L 16507864.00 5039376.00  zM 16232278.50 5314942.30 m -178045.70 0 a 178045.70 178045.70 0 1 1 356091.40 0a 178045.70 178045.70 0 1 1 -356091.40 0"/>
<path id="N" d="M 8736216.99 24803118.22 m -300168.36 0 a 300168.36 300168.36 0 1 1 600336.71 0a 300168.36 300168.36 0 1 1 -600336.71 0M 8736231.16 24803131.37 m -201775.63 0 a 201775.63 201775.63 0 1 1 403551.26 0a 201775.63 201775.63 0 1 1 -403551.26 0"/>
<path id="N" d="M 12736216.99 24803118.22 m -300168.36 0 a 300168.36 300168.36 0 1 1 600336.71 0a 300168.36 300168.36 0 1 1 -600336.71 0M 12736231.16 24803131.37 m -201775.63 0 a 201775.63 201775.63 0 1 1 403551.26 0a 201775.63 201775.63 0 1 1 -403551.26 0"/>
<path id="N" d="M 10783890.00 14172229.31 L 10783890.00 10058435.00 L 13414666.00 7427659.00 L 13423507.00 7414428.00 L 13426611.00 7398814.97 L 13426611.00 6959316.43 L 13432655.00 6930920.00 L 13446739.00 6902045.00 L 13465906.40 6878412.10 L 13484507.00 6857276.00 A 118709.68 118709.68 0 1 0 13287147.00 6857276.00 L 13318514.00 6892980.00 L 13335158.00 6921016.00 L 13344120.00 6951569.00 L 13345043.00 7381926.00 L 10714267.00 10012702.00 L 10705426.00 10025933.00 L 10702322.00 10041546.03 L 10702322.00 14171027.05 L 10689260.00 14172055.00 A 300168.36 300168.36 0 1 0 10783890.00 14172229.31  zM 10736215.16 14468480.37 m -201775.63 0 a 201775.63 201775.63 0 1 1 403551.26 0a 201775.63 201775.63 0 1 1 -403551.26 0"/>
<path id="N" d="M 13385815.98 5807061.46 m -118709.68 0 a 118709.68 118709.68 0 1 1 237419.37 0a 118709.68 118709.68 0 1 1 -237419.37 0"/>
<path id="N" d="M 15736216.99 24803118.22 m -300168.36 0 a 300168.36 300168.36 0 1 1 600336.71 0a 300168.36 300168.36 0 1 1 -600336.71 0M 15736231.16 24803131.37 m -201775.63 0 a 201775.63 201775.63 0 1 1 403551.26 0a 201775.63 201775.63 0 1 1 -403551.26 0"/>
<path id="N" d="M 4736216.99 24803118.22 m -300168.36 0 a 300168.36 300168.36 0 1 1 600336.71 0a 300168.36 300168.36 0 1 1 -600336.71 0M 4736231.16 24803131.37 m -201775.63 0 a 201775.63 201775.63 0 1 1 403551.26 0a 201775.63 201775.63 0 1 1 -403551.26 0"/>
<path id="N" d="M 10099990.10 7834622.62 m -483072.50 0 a 483072.50 483072.50 0 1 1 966145.01 0a 483072.50 483072.50 0 1 1 -966145.01 0M 10100002.80 7834628.56 m -315956.44 0 a 315956.44 315956.44 0 1 1 631912.88 0a 315956.44 315956.44 0 1 1 -631912.88 0"/>
<path id="N" d="M 12093142.00 14913601.00 L 12272260.00 14734484.00 L 12283310.00 14717945.00 L 12287191.00 14698436.00 L 12287191.00 14269552.08 L 12446322.92 14110421.00 L 15306039.96 14110421.00 L 15491231.57 14295613.06 L 15468788.00 14332238.00 A 300168.36 300168.36 0 1 0 15599953.00 14201073.00 L 15563328.06 14223516.57 L 15363204.00 14023393.00 L 15346665.00 14012342.00 L 15327156.00 14008461.00 L 12425206.00 14008461.00 L 12405697.00 14012342.00 L 12389157.00 14023393.00 L 12200163.00 14212388.00 L 12189112.00 14228927.00 L 12185231.00 14248436.00 L 12185231.00 14677319.08 L 12035977.92 14826573.00 L 5514022.00 14826573.00 L 5300980.00 14613531.00 L 5300980.00 12955763.00 L 7065953.27 11190789.73 L 7079799.00 11198190.00 A 118653.80 118653.80 0 1 0 7006535.00 11088543.00 L 7008101.35 11104449.65 L 5213952.00 12898599.00 L 5202901.00 12915138.00 L 5199020.00 12934647.00 L 5199020.00 14634647.00 L 5202901.00 14654156.00 L 5213952.00 14670695.00 L 5456858.00 14913601.00 L 5473397.00 14924652.00 L 5492906.00 14928533.00 L 12057094.00 14928533.00 L 12076603.00 14924652.00 L 12093142.00 14913601.00  zM 15736215.16 14468480.37 m -201775.63 0 a 201775.63 201775.63 0 1 1 403551.26 0a 201775.63 201775.63 0 1 1 -403551.26 0"/>
<path id="N" d="M 1468788.00 14332238.00 L 1454126.71 14367634.00 L 1018297.29 14367634.00 L 1003636.00 14332238.00 A 300135.50 300135.50 0 1 0 1003636.00 14604756.00 L 1018297.29 14569360.00 L 1454126.71 14569360.00 L 1468788.00 14604756.00 A 300135.50 300135.50 0 1 0 1468788.00 14332238.00  zM 736215.16 14468480.37 m -201775.63 0 a 201775.63 201775.63 0 1 1 403551.26 0a 201775.63 201775.63 0 1 1 -403551.26 0M 1736215.16 14468480.37 m -201775.63 0 a 201775.63 201775.63 0 1 1 403551.26 0a 201775.63 201775.63 0 1 1 -403551.26 0"/>
<path id="N" d="M 4528406.00 11279528.00 L 4528406.00 10807088.00 A 394484.35 394484.35 0 0 0 4284846.00 10442575.00 L 4250863.00 10431039.42 L 4250863.00 8284647.00 A 100847.09 100847.09 0 0 0 4221321.00 8213326.00 L 3065056.65 7057061.65 L 3059647.00 7039230.00 A 118649.09 118649.09 0 1 0 2922414.65 7199703.65 L 4049137.00 8326426.00 L 4049137.00 10422526.09 L 4031744.00 10425986.00 A 394550.06 394550.06 0 0 0 3739314.00 10807088.00 L 3739314.00 11279528.00 A 394484.35 394484.35 0 0 0 4528406.00 11279528.00  zM 3936058.00 11161418.00 L 3936058.00 10925198.00 A 197818.30 197818.30 0 1 1 4331662.00 10925198.00 L 4331662.00 11161418.00 A 197818.30 197818.30 0 0 1 3936058.00 11161418.00  z"/>
<path id="N" d="M 1451172.00 16372342.00 L 1441908.54 16365769.22 L 2532246.01 15275431.00 L 12350001.00 15275432.00 L 12365609.00 15272327.00 L 12378840.00 15263486.00 L 12765051.00 14877275.00 L 12773892.00 14864044.00 L 12776996.00 14848430.97 L 12776996.00 14765424.41 L 12828959.00 14753944.00 A 300136.08 300136.08 0 1 0 12643465.00 14753944.00 L 12695428.00 14765424.41 L 12695428.00 14831542.00 L 12333107.00 15193863.00 L 2515353.00 15193862.00 L 2499745.00 15196967.00 L 2486511.99 15205811.01 L 1371141.78 16321180.44 L 1359585.00 16314793.00 A 483104.66 483104.66 0 1 0 1451172.00 16372342.00  zM 1150003.80 16749977.56 m -315956.44 0 a 315956.44 315956.44 0 1 1 631912.88 0a 315956.44 315956.44 0 1 1 -631912.88 0M 12736215.16 14468480.37 m -201775.63 0 a 201775.63 201775.63 0 1 1 403551.26 0a 201775.63 201775.63 0 1 1 -403551.26 0"/>
<path id="N" d="M 7776996.00 14171569.59 L 7776996.00 13880682.99 L 8985532.00 12672147.00 L 8994373.00 12658916.00 L 8997477.00 12643302.97 L 8997477.00 4441761.53 L 9022629.00 4429389.00 A 118717.14 118717.14 0 1 0 8915909.00 4441761.53 L 8915909.00 12626414.99 L 7707373.00 13834950.00 L 7698532.00 13848181.00 L 7695428.00 13863794.03 L 7695428.00 14171569.59 L 7643465.00 14183050.00 A 300136.08 300136.08 0 1 0 7776996.00 14171569.59  zM 7736215.16 14468480.37 m -201775.63 0 a 201775.63 201775.63 0 1 1 403551.26 0a 201775.63 201775.63 0 1 1 -403551.26 0"/>
<path id="N" d="M 9547245.93 492127.81 m -304083.79 0 a 304083.79 304083.79 0 1 1 608167.59 0a 304083.79 304083.79 0 1 1 -608167.59 0M 9547246.60 492109.31 m -195841.69 0 a 195841.69 195841.69 0 1 1 391683.38 0a 195841.69 195841.69 0 1 1 -391683.38 0"/>
<path id="N" d="M 7738650.10 7834618.62 m -483072.50 0 a 483072.50 483072.50 0 1 1 966145.01 0a 483072.50 483072.50 0 1 1 -966145.01 0M 7738662.80 7834624.56 m -315956.44 0 a 315956.44 315956.44 0 1 1 631912.88 0a 315956.44 315956.44 0 1 1 -631912.88 0"/>
<path id="N" d="M 11736216.99 24803118.22 m -300168.36 0 a 300168.36 300168.36 0 1 1 600336.71 0a 300168.36 300168.36 0 1 1 -600336.71 0M 11736231.16 24803131.37 m -201775.63 0 a 201775.63 201775.63 0 1 1 403551.26 0a 201775.63 201775.63 0 1 1 -403551.26 0"/>
<path id="N" d="M 18736216.99 24803118.22 m -300168.36 0 a 300168.36 300168.36 0 1 1 600336.71 0a 300168.36 300168.36 0 1 1 -600336.71 0M 18736231.16 24803131.37 m -201775.63 0 a 201775.63 201775.63 0 1 1 403551.26 0a 201775.63 201775.63 0 1 1 -403551.26 0"/>
<path id="N" d="M 12831849.34 22536934.00 L 11894929.00 22536934.00 L 11489821.00 22131826.00 L 11476386.00 22121516.76 L 11476386.00 21358265.00 L 11177174.00 21358265.00 L 11177174.00 22303147.00 L 11376721.00 22304010.00 L 11781829.00 22709118.00 A 100866.46 100866.46 0 0 0 11853150.00 22738660.00 L 12831849.34 22738660.00 L 12848284.00 22747444.00 A 118653.80 118653.80 0 1 0 12831849.34 22536934.00  z"/>
<path id="N" d="M 18736200.99 14468467.22 m -300168.36 0 a 300168.36 300168.36 0 1 1 600336.71 0a 300168.36 300168.36 0 1 1 -600336.71 0M 18736215.16 14468480.37 m -201775.63 0 a 201775.63 201775.63 0 1 1 403551.26 0a 201775.63 201775.63 0 1 1 -403551.26 0"/>
<path id="N" d="M 10976386.00 19822845.00 L 10875430.00 19822845.00 L 10875430.00 19195699.53 L 10900582.00 19183327.00 A 118717.14 118717.14 0 1 0 10793862.00 19195699.53 L 10793862.00 19822845.00 L 10677174.00 19822845.00 L 10677174.00 20767727.00 L 10976386.00 20767727.00 L 10976386.00 19822845.00  z"/>
<path id="N" d="M 9776996.00 14171569.59 L 9776996.00 10430683.00 L 12828839.00 7378840.00 L 12837680.00 7365609.00 L 12840784.00 7349995.97 L 12840784.00 6605661.36 A 118385.99 118385.99 0 1 0 12749859.00 6605710.00 L 12759216.00 6608548.66 L 12759216.00 7333108.00 L 9707373.00 10384950.00 L 9698532.00 10398181.00 L 9695428.00 10413794.03 L 9695428.00 14171569.59 L 9643465.00 14183050.00 A 300136.08 300136.08 0 1 0 9776996.00 14171569.59  zM 9736215.16 14468480.37 m -201775.63 0 a 201775.63 201775.63 0 1 1 403551.26 0a 201775.63 201775.63 0 1 1 -403551.26 0"/>
<path id="N" d="M 7480303.98 5807061.46 m -118709.68 0 a 118709.68 118709.68 0 1 1 237419.37 0a 118709.68 118709.68 0 1 1 -237419.37 0"/>
<path id="N" d="M 984245.10 1082652.62 m -483072.50 0 a 483072.50 483072.50 0 1 1 966145.01 0a 483072.50 483072.50 0 1 1 -966145.01 0M 984257.80 1082658.56 m -315956.44 0 a 315956.44 315956.44 0 1 1 631912.88 0a 315956.44 315956.44 0 1 1 -631912.88 0"/>
<path id="N" d="M 1387795.00 3031496.00 L 777559.00 3031496.00 L 777559.00 3641732.00 L 1387795.00 3641732.00 L 1387795.00 3031496.00  zM 1082680.32 3336597.70 m -197818.30 0 a 197818.30 197818.30 0 1 1 395636.59 0a 197818.30 197818.30 0 1 1 -395636.59 0"/>
<path id="N" d="M 9547245.93 2263787.81 m -304083.79 0 a 304083.79 304083.79 0 1 1 608167.59 0a 304083.79 304083.79 0 1 1 -608167.59 0M 9547246.60 2263769.31 m -195841.69 0 a 195841.69 195841.69 0 1 1 391683.38 0a 195841.69 195841.69 0 1 1 -391683.38 0"/>
<path id="N" d="M 15452756.93 2263778.81 m -304083.79 0 a 304083.79 304083.79 0 1 1 608167.59 0a 304083.79 304083.79 0 1 1 -608167.59 0M 15452757.60 2263760.31 m -195841.69 0 a 195841.69 195841.69 0 1 1 391683.38 0a 195841.69 195841.69 0 1 1 -391683.38 0"/>
<path id="N" d="M 3641733.93 2263775.81 m -304083.79 0 a 304083.79 304083.79 0 1 1 608167.59 0a 304083.79 304083.79 0 1 1 -608167.59 0M 3641734.60 2263757.31 m -195841.69 0 a 195841.69 195841.69 0 1 1 391683.38 0a 195841.69 195841.69 0 1 1 -391683.38 0"/>
<path id="N" d="M 19736216.99 24803118.22 m -300168.36 0 a 300168.36 300168.36 0 1 1 600336.71 0a 300168.36 300168.36 0 1 1 -600336.71 0M 19736231.16 24803131.37 m -201775.63 0 a 201775.63 201775.63 0 1 1 403551.26 0a 201775.63 201775.63 0 1 1 -403551.26 0"/>
<path id="N" d="M 20036148.00 14618103.00 L 20036148.00 14318891.00 A 150358.43 150358.43 0 0 0 19885818.00 14168561.00 L 19586606.00 14168561.00 A 150358.43 150358.43 0 0 0 19436276.00 14318891.00 L 19436276.00 14618103.00 A 150358.43 150358.43 0 0 0 19586606.00 14768433.00 L 19885818.00 14768433.00 A 150311.58 150311.58 0 0 0 20036148.00 14618103.00  zM 19736215.16 14468480.37 m -201775.63 0 a 201775.63 201775.63 0 1 1 403551.26 0a 201775.63 201775.63 0 1 1 -403551.26 0"/>
<path id="N" d="M 1181127.22 18897761.93 m -709389.74 0 a 709389.74 709389.74 0 1 1 1418779.48 0a 709389.74 709389.74 0 1 1 -1418779.48 0"/>
<path id="N" d="M 20472466.22 22637918.93 m -709389.74 0 a 709389.74 709389.74 0 1 1 1418779.48 0a 709389.74 709389.74 0 1 1 -1418779.48 0"/>
<path id="N" d="M 20472466.22 2559178.93 m -709389.74 0 a 709389.74 709389.74 0 1 1 1418779.48 0a 709389.74 709389.74 0 1 1 -1418779.48 0"/>
<path id="N" d="M 6503941.00 188985.00 L 5897643.00 188985.00 L 5897643.00 795283.00 L 6503941.00 795283.00 L 6503941.00 188985.00  zM 6200794.60 492117.31 m -195841.69 0 a 195841.69 195841.69 0 1 1 391683.38 0a 195841.69 195841.69 0 1 1 -391683.38 0"/>
<path id="N" d="M 18314964.00 188968.00 L 17708666.00 188968.00 L 17708666.00 795266.00 L 18314964.00 795266.00 L 18314964.00 188968.00  zM 18011817.60 492100.31 m -195841.69 0 a 195841.69 195841.69 0 1 1 391683.38 0a 195841.69 195841.69 0 1 1 -391683.38 0"/>
<path id="N" d="M 12409453.00 188977.00 L 11803155.00 188977.00 L 11803155.00 795275.00 L 12409453.00 795275.00 L 12409453.00 188977.00  zM 12106306.60 492109.31 m -195841.69 0 a 195841.69 195841.69 0 1 1 391683.38 0a 195841.69 195841.69 0 1 1 -391683.38 0"/>
<path id="N" d="M 6736216.99 24803118.22 m -300168.36 0 a 300168.36 300168.36 0 1 1 600336.71 0a 300168.36 300168.36 0 1 1 -600336.71 0M 6736231.16 24803131.37 m -201775.63 0 a 201775.63 201775.63 0 1 1 403551.26 0a 201775.63 201775.63 0 1 1 -403551.26 0"/>
<path id="N" d="M 17777012.00 24506220.59 L 17777013.00 22732288.00 L 17773908.00 22716680.00 L 17765063.99 22703446.99 L 12576748.24 17515130.28 L 12582376.00 17508541.00 A 315942.92 315942.92 0 1 0 12512481.00 17578436.00 L 12519070.28 17572808.24 L 17695444.00 22749181.00 L 17695444.00 24506220.59 L 17643481.00 24517701.00 A 300136.08 300136.08 0 1 0 17777012.00 24506220.59  zM 12326778.02 17322857.20 m -217187.80 0 a 217187.80 217187.80 0 1 1 434375.61 0a 217187.80 217187.80 0 1 1 -434375.61 0M 17736231.16 24803131.37 m -201775.63 0 a 201775.63 201775.63 0 1 1 403551.26 0a 201775.63 201775.63 0 1 1 -403551.26 0"/>
<path id="N" d="M 13987156.00 16449130.00 L 13973856.00 16448383.16 L 13973856.00 16083072.00 L 13970752.00 16067464.00 L 13961911.00 16054233.00 L 13776996.00 15869318.00 L 13776996.00 14765424.41 L 13828959.00 14753944.00 A 300136.08 300136.08 0 1 0 13643465.00 14753944.00 L 13695428.00 14765424.41 L 13695427.00 15886212.00 L 13698532.00 15901820.00 L 13707373.00 15915051.00 L 13892288.00 16099966.00 L 13892288.00 16448383.16 L 13878988.00 16449130.00 A 483072.50 483072.50 0 1 0 13987156.00 16449130.00  zM 13736215.16 14468480.37 m -201775.63 0 a 201775.63 201775.63 0 1 1 403551.26 0a 201775.63 201775.63 0 1 1 -403551.26 0M 13933075.80 16929113.56 m -315956.44 0 a 315956.44 315956.44 0 1 1 631912.88 0a 315956.44 315956.44 0 1 1 -631912.88 0"/>
<path id="N" d="M 11477171.00 19846488.12 L 11487680.00 19831590.00 L 11490784.00 19815976.97 L 11490784.00 19184647.00 L 11487680.00 19169040.00 L 11478835.99 19155805.99 L 11078839.00 18755808.00 L 11065608.00 18746967.00 L 11049994.97 18743863.00 L 9660236.00 18743863.00 L 9644628.00 18746967.00 L 9631397.00 18755808.00 L 9006379.85 19380825.15 L 8979847.00 19371789.00 A 118707.48 118707.48 0 1 0 9064057.85 19438503.15 L 9677130.00 18825431.00 L 11033106.03 18825431.00 L 11409216.00 19201540.03 L 11409216.00 19799088.12 L 11398707.00 19813987.00 L 11396944.82 19822845.00 L 11177174.00 19822845.00 L 11177174.00 20767727.00 L 11476386.00 20767727.00 L 11477171.00 19846488.12  z"/>
<path id="N" d="M 4468788.00 14332238.00 L 4454126.71 14367634.00 L 4018297.29 14367634.00 L 4003636.00 14332238.00 A 300135.50 300135.50 0 0 0 3468788.00 14332238.00 L 3454126.71 14367634.00 L 3018297.29 14367634.00 L 3003636.00 14332238.00 A 300135.50 300135.50 0 1 0 3003636.00 14604756.00 L 3018297.29 14569360.00 L 3454126.71 14569360.00 L 3468788.00 14604756.00 A 300135.50 300135.50 0 0 0 4003636.00 14604756.00 L 4018297.29 14569360.00 L 4454126.71 14569360.00 L 4468788.00 14604756.00 A 300135.50 300135.50 0 1 0 4468788.00 14332238.00  zM 3736215.16 14468480.37 m -201775.63 0 a 201775.63 201775.63 0 1 1 403551.26 0a 201775.63 201775.63 0 1 1 -403551.26 0M 2736215.16 14468480.37 m -201775.63 0 a 201775.63 201775.63 0 1 1 403551.26 0a 201775.63 201775.63 0 1 1 -403551.26 0M 4736215.16 14468480.37 m -201775.63 0 a 201775.63 201775.63 0 1 1 403551.26 0a 201775.63 201775.63 0 1 1 -403551.26 0"/>
<path id="N" d="M 16965056.65 7412232.35 L 17303595.00 7073694.00 A 100856.08 100856.08 0 0 0 17333137.00 7002373.00 L 17331970.11 6993509.83 L 17333137.00 6984647.00 L 17333137.00 5571483.54 L 17357776.00 5561278.00 A 276449.83 276449.83 0 1 0 17106772.00 5561278.00 L 17131411.00 5571483.54 L 17131411.00 6960594.00 L 16822414.65 7269590.35 L 16804583.00 7275000.00 A 118649.09 118649.09 0 1 0 16965056.65 7412232.35  zM 17232278.50 5314942.30 m -178045.70 0 a 178045.70 178045.70 0 1 1 356091.40 0a 178045.70 178045.70 0 1 1 -356091.40 0"/>
<path id="N" d="M 16049991.10 11534622.62 m -483072.50 0 a 483072.50 483072.50 0 1 1 966145.01 0a 483072.50 483072.50 0 1 1 -966145.01 0M 16050003.80 11534628.56 m -315956.44 0 a 315956.44 315956.44 0 1 1 631912.88 0a 315956.44 315956.44 0 1 1 -631912.88 0"/>
<path id="N" d="M 11400863.00 6916496.34 L 11400863.00 5580599.66 L 11412199.00 5577878.00 A 276416.76 276416.76 0 1 0 11199137.00 5559969.65 L 11199137.00 6916496.34 L 11190353.00 6932931.00 A 118653.80 118653.80 0 1 0 11400863.00 6916496.34  zM 11326778.50 5314942.30 m -178045.70 0 a 178045.70 178045.70 0 1 1 356091.40 0a 178045.70 178045.70 0 1 1 -356091.40 0"/>
<path id="N" d="M 6477585.35 6419590.35 L 5590681.19 5532686.19 L 5616728.00 5510440.00 A 276449.83 276449.83 0 1 0 5335829.00 5577878.00 L 5355252.36 5582541.36 L 6334943.35 6562232.35 L 6340353.00 6580064.00 A 118649.09 118649.09 0 1 0 6477585.35 6419590.35  zM 5421258.50 5314942.30 m -178045.70 0 a 178045.70 178045.70 0 1 1 356091.40 0a 178045.70 178045.70 0 1 1 -356091.40 0"/>
<path id="N" d="M 15838148.34 22199137.00 L 14741779.00 22199137.00 L 13620939.00 21078297.00 A 100866.46 100866.46 0 0 0 13549618.00 21048755.00 L 10635029.00 21048755.00 A 100839.75 100839.75 0 0 0 10563708.00 21078297.00 L 10396194.60 21245810.40 L 10346063.65 21288068.65 L 10121321.00 21063326.00 A 100866.46 100866.46 0 0 0 10050000.00 21033784.00 L 8688197.00 21033784.00 L 8675751.42 21021338.42 A 112401.31 112401.31 0 0 0 8630899.00 20964313.00 A 118709.68 118709.68 0 1 0 8541809.00 21179394.00 L 8549256.35 21180127.35 L 8575097.00 21205968.00 A 100866.46 100866.46 0 0 0 8646418.00 21235510.00 L 10008221.00 21235510.00 L 10177174.00 21404463.00 L 10177174.00 22303147.00 L 10476386.00 22303147.00 L 10476386.00 21568299.76 L 10480843.00 21535735.00 L 10487914.00 21507451.00 L 10497813.00 21479167.00 L 10510541.00 21450882.00 L 10526098.00 21422598.00 L 10544482.00 21394314.00 L 10565696.00 21366030.00 L 10589737.00 21337745.00 L 10676808.00 21250481.00 L 13507839.00 21250481.00 L 14628679.00 22371321.00 A 100866.46 100866.46 0 0 0 14700000.00 22400863.00 L 15838148.34 22400863.00 L 15854583.00 22409647.00 A 118653.80 118653.80 0 1 0 15838148.34 22199137.00  z"/>
<path id="N" d="M 9642502.00 17480320.00 L 9642502.00 17165360.00 A 158283.07 158283.07 0 0 0 9484260.00 17007118.00 L 9169300.00 17007118.00 A 158283.07 158283.07 0 0 0 9011058.00 17165360.00 L 9011058.00 17480320.00 A 158283.07 158283.07 0 0 0 9169300.00 17638562.00 L 9484260.00 17638562.00 A 158196.92 158196.92 0 0 0 9642502.00 17480320.00  zM 9326778.02 17322857.20 m -217187.80 0 a 217187.80 217187.80 0 1 1 434375.61 0a 217187.80 217187.80 0 1 1 -434375.61 0"/>
<path id="N" d="M 6200793.93 2263775.81 m -304083.79 0 a 304083.79 304083.79 0 1 1 608167.59 0a 304083.79 304083.79 0 1 1 -608167.59 0M 6200794.60 2263757.31 m -195841.69 0 a 195841.69 195841.69 0 1 1 391683.38 0a 195841.69 195841.69 0 1 1 -391683.38 0"/>
<path id="N" d="M 12106305.93 2263787.81 m -304083.79 0 a 304083.79 304083.79 0 1 1 608167.59 0a 304083.79 304083.79 0 1 1 -608167.59 0M 12106306.60 2263769.31 m -195841.69 0 a 195841.69 195841.69 0 1 1 391683.38 0a 195841.69 195841.69 0 1 1 -391683.38 0"/>
<path id="N" d="M 18011816.93 2263778.81 m -304083.79 0 a 304083.79 304083.79 0 1 1 608167.59 0a 304083.79 304083.79 0 1 1 -608167.59 0M 18011817.60 2263760.31 m -195841.69 0 a 195841.69 195841.69 0 1 1 391683.38 0a 195841.69 195841.69 0 1 1 -391683.38 0"/>
</g>
</svg>
