  0
SECTION
  2
HEADER
  9
$ACADVER
  1
AC1006
  9
$EXTMIN
 10
0.000000
 20
0.000000
 30
0.000000
  9
$EXTMAX
 10
1024.000000
 20
1024.000000
 30
0.000000
  0
ENDSEC
  0
SECTION
  2
ENTITIES
  0
POLYLINE
  8
0
 66
1
 70
1
  0
VERTEX
  8
0
 10
897.500000
 20
913.502935
 42
-0.004128
  0
VERTEX
  8
0
 10
891.471146
 20
912.617330
 42
-0.000259
  0
VERTEX
  8
0
 10
873.665625
 20
910.161202
 42
-0.000382
  0
VERTEX
  8
0
 10
852.446417
 20
907.261894
 42
-0.000284
  0
VERTEX
  8
0
 10
829.000000
 20
904.090054
 42
0.000133
  0
VERTEX
  8
0
 10
803.545496
 20
900.654389
 42
0.000108
  0
VERTEX
  8
0
 10
776.256250
 20
896.957742
 42
0.000109
  0
VERTEX
  8
0
 10
751.104210
 20
893.539528
 42
0.000283
  0
VERTEX
  8
0
 10
733.000000
 20
891.064701
 42
-0.000012
  0
VERTEX
  8
0
 10
717.377110
 20
888.920442
 42
-0.000009
  0
VERTEX
  8
0
 10
700.612500
 20
886.620201
 42
-0.000010
  0
VERTEX
  8
0
 10
685.149261
 20
884.499116
 42
-0.000025
  0
VERTEX
  8
0
 10
674.000000
 20
882.970554
 42
0.001271
  0
VERTEX
  8
0
 10
664.287573
 20
881.614314
 42
0.000981
  0
VERTEX
  8
0
 10
653.703125
 20
880.087690
 42
0.000991
  0
VERTEX
  8
0
 10
643.820927
 20
878.622551
 42
0.002375
  0
VERTEX
  8
0
 10
636.500000
 20
877.486734
 42
-0.004547
  0
VERTEX
  8
0
 10
620.604944
 20
875.091353
 42
-0.000683
  0
VERTEX
  8
0
 10
588.651903
 20
870.617308
 42
-0.000568
  0
VERTEX
  8
0
 10
542.735906
 20
864.305217
 42
-0.000182
  0
VERTEX
  8
0
 10
474.500000
 20
855.029030
 42
0.000370
  0
VERTEX
  8
0
 10
408.044066
 20
845.969336
 42
0.000189
  0
VERTEX
  8
0
 10
324.639989
 20
834.504123
 42
0.000163
  0
VERTEX
  8
0
 10
245.361794
 20
823.549119
 42
0.000907
  0
VERTEX
  8
0
 10
202.778405
 20
817.571836
 42
0.005576
  0
VERTEX
  8
0
 10
185.444560
 20
814.909132
 42
0.046187
  0
VERTEX
  8
0
 10
177.748144
 20
812.895615
 42
0.104348
  0
VERTEX
  8
0
 10
173.331182
 20
810.150126
 42
0.089347
  0
VERTEX
  8
0
 10
170.105694
 20
805.712291
 42
0.062931
  0
VERTEX
  8
0
 10
168.208774
 20
800.074774
 42
0.003889
  0
VERTEX
  8
0
 10
164.847081
 20
782.698706
 42
0.003660
  0
VERTEX
  8
0
 10
160.080233
 20
755.895702
 42
0.000751
  0
VERTEX
  8
0
 10
152.081685
 20
708.500000
 42
-0.000228
  0
VERTEX
  8
0
 10
149.059764
 20
690.478726
 42
-0.000182
  0
VERTEX
  8
0
 10
145.785955
 20
671.053125
 42
-0.000184
  0
VERTEX
  8
0
 10
142.741948
 20
653.071518
 42
-0.000466
  0
VERTEX
  8
0
 10
140.511652
 20
640.000000
 42
0.000368
  0
VERTEX
  8
0
 10
134.337544
 20
603.856897
 42
0.000118
  0
VERTEX
  8
0
 10
125.204384
 20
550.076832
 42
0.000122
  0
VERTEX
  8
0
 10
115.695970
 20
493.924429
 42
0.000221
  0
VERTEX
  8
0
 10
107.951820
 20
448.000000
 42
-0.000182
  0
VERTEX
  8
0
 10
102.053034
 20
413.002274
 42
-0.000328
  0
VERTEX
  8
0
 10
97.194216
 20
384.353028
 42
-0.000232
  0
VERTEX
  8
0
 10
91.292119
 20
349.787175
 42
-0.000050
  0
VERTEX
  8
0
 10
81.038803
 20
289.941437
 42
0.001328
  0
VERTEX
  8
0
 10
77.192902
 20
267.144141
 42
0.001965
  0
VERTEX
  8
0
 10
73.952385
 20
247.132904
 42
0.000873
  0
VERTEX
  8
0
 10
71.283226
 20
230.035509
 42
0.038900
  0
VERTEX
  8
0
 10
71.011869
 20
226.441437
 42
0.021378
  0
VERTEX
  8
0
 10
71.113683
 20
224.187967
 42
0.012245
  0
VERTEX
  8
0
 10
71.418997
 20
221.482797
 42
0.012216
  0
VERTEX
  8
0
 10
71.859933
 20
218.773018
 42
0.019842
  0
VERTEX
  8
0
 10
72.381169
 20
216.500000
 42
0.031503
  0
VERTEX
  8
0
 10
74.887000
 20
209.138201
 42
0.001318
  0
VERTEX
  8
0
 10
85.517716
 20
183.546079
 42
0.002028
  0
VERTEX
  8
0
 10
95.989557
 20
158.805036
 42
0.015570
  0
VERTEX
  8
0
 10
101.306955
 20
147.379634
 42
0.041429
  0
VERTEX
  8
0
 10
105.864746
 20
139.937951
 42
0.065947
  0
VERTEX
  8
0
 10
111.021675
 20
134.556008
 42
0.073454
  0
VERTEX
  8
0
 10
116.956404
 20
131.091515
 42
0.067345
  0
VERTEX
  8
0
 10
123.818392
 20
129.359346
 42
0.051694
  0
VERTEX
  8
0
 10
127.534706
 20
129.324112
 42
0.001120
  0
VERTEX
  8
0
 10
145.617546
 20
131.066404
 42
0.002398
  0
VERTEX
  8
0
 10
167.740145
 20
133.355109
 42
0.001290
  0
VERTEX
  8
0
 10
195.000000
 20
136.378633
 42
-0.000355
  0
VERTEX
  8
0
 10
222.953382
 20
139.531967
 42
-0.000318
  0
VERTEX
  8
0
 10
251.953125
 20
142.763778
 42
-0.000319
  0
VERTEX
  8
0
 10
277.992872
 20
145.632119
 42
-0.001000
  0
VERTEX
  8
0
 10
295.500000
 20
147.513854
 42
0.000802
  0
VERTEX
  8
0
 10
311.317343
 20
149.207650
 42
0.000422
  0
VERTEX
  8
0
 10
330.968750
 20
151.360695
 42
0.000420
  0
VERTEX
  8
0
 10
351.094031
 20
153.599954
 42
0.000646
  0
VERTEX
  8
0
 10
368.500000
 20
155.574231
 42
-0.000069
  0
VERTEX
  8
0
 10
385.044316
 20
157.470132
 42
-0.000059
  0
VERTEX
  8
0
 10
402.506250
 20
159.466672
 42
-0.000059
  0
VERTEX
  8
0
 10
418.401745
 20
161.280317
 42
-0.000167
  0
VERTEX
  8
0
 10
429.500000
 20
162.541518
 42
0.000241
  0
VERTEX
  8
0
 10
439.752530
 20
163.708149
 42
0.000126
  0
VERTEX
  8
0
 10
452.528125
 20
165.171379
 42
0.000125
  0
VERTEX
  8
0
 10
465.635451
 20
166.679271
 42
0.000191
  0
VERTEX
  8
0
 10
477.000000
 20
167.993962
 42
-0.000110
  0
VERTEX
  8
0
 10
489.239709
 20
169.411911
 42
-0.000050
  0
VERTEX
  8
0
 10
505.290625
 20
171.266179
 42
-0.000049
  0
VERTEX
  8
0
 10
522.235646
 20
173.220340
 42
-0.000067
  0
VERTEX
  8
0
 10
537.500000
 20
174.977076
 42
0.000135
  0
VERTEX
  8
0
 10
553.084552
 20
176.772795
 42
0.000089
  0
VERTEX
  8
0
 10
571.031250
 20
178.848814
 42
0.000089
  0
VERTEX
  8
0
 10
588.504021
 20
180.876298
 42
0.000171
  0
VERTEX
  8
0
 10
602.500000
 20
182.507736
 42
-0.000401
  0
VERTEX
  8
0
 10
616.225598
 20
184.101278
 42
-0.000229
  0
VERTEX
  8
0
 10
632.793750
 20
186.003684
 42
-0.000229
  0
VERTEX
  8
0
 10
649.456975
 20
187.901528
 42
-0.000381
  0
VERTEX
  8
0
 10
663.500000
 20
189.483591
 42
0.000928
  0
VERTEX
  8
0
 10
688.405517
 20
192.316988
 42
0.000325
  0
VERTEX
  8
0
 10
724.173338
 20
196.476981
 42
0.000316
  0
VERTEX
  8
0
 10
764.423843
 20
201.210705
 42
0.000320
  0
VERTEX
  8
0
 10
804.500000
 20
205.975676
 42
-0.000028
  0
VERTEX
  8
0
 10
812.381178
 20
206.917404
 42
-0.000015
  0
VERTEX
  8
0
 10
822.113768
 20
208.079507
 42
-0.000015
  0
VERTEX
  8
0
 10
832.044576
 20
209.264674
 42
-0.000023
  0
VERTEX
  8
0
 10
840.589422
 20
210.283770
 42
0.006253
  0
VERTEX
  8
0
 10
853.799698
 20
212.026461
 42
0.043856
  0
VERTEX
  8
0
 10
860.116713
 20
213.514365
 42
0.094812
  0
VERTEX
  8
0
 10
863.804510
 20
215.567672
 42
0.099439
  0
VERTEX
  8
0
 10
866.400779
 20
218.808128
 42
0.073011
  0
VERTEX
  8
0
 10
867.168819
 20
221.039588
 42
0.000811
  0
VERTEX
  8
0
 10
870.098562
 20
236.773132
 42
0.002504
  0
VERTEX
  8
0
 10
873.363660
 20
254.977589
 42
0.001627
  0
VERTEX
  8
0
 10
876.963479
 20
276.048710
 42
-0.000117
  0
VERTEX
  8
0
 10
880.669313
 20
298.142098
 42
-0.000129
  0
VERTEX
  8
0
 10
884.262371
 20
319.498684
 42
-0.000120
  0
VERTEX
  8
0
 10
887.338556
 20
337.727529
 42
-0.000668
  0
VERTEX
  8
0
 10
889.003540
 20
347.500000
 42
0.000007
  0
VERTEX
  8
0
 10
890.525058
 20
356.359630
 42
0.000002
  0
VERTEX
  8
0
 10
892.839386
 20
369.837181
 42
0.000002
  0
VERTEX
  8
0
 10
895.435694
 20
384.957624
 42
0.000002
  0
VERTEX
  8
0
 10
897.961650
 20
399.669128
 42
0.001550
  0
VERTEX
  8
0
 10
900.275245
 20
413.399211
 42
0.002246
  0
VERTEX
  8
0
 10
902.226235
 20
425.539155
 42
0.001138
  0
VERTEX
  8
0
 10
903.811634
 20
435.849117
 42
0.037594
  0
VERTEX
  8
0
 10
904.000000
 20
438.350871
 42
0.080314
  0
VERTEX
  8
0
 10
903.245560
 20
443.017395
 42
0.002656
  0
VERTEX
  8
0
 10
897.199859
 20
460.907865
 42
0.005700
  0
VERTEX
  8
0
 10
890.707893
 20
479.110092
 42
0.009988
  0
VERTEX
  8
0
 10
884.864558
 20
494.000000
 42
0.000000
  0
VERTEX
  8
0
 10
880.500000
 20
504.500000
 42
0.000000
  0
VERTEX
  8
0
 10
880.544132
 20
520.500000
 42
-0.007524
  0
VERTEX
  8
0
 10
880.708675
 20
529.739402
 42
-0.016071
  0
VERTEX
  8
0
 10
881.172280
 20
536.862204
 42
-0.014949
  0
VERTEX
  8
0
 10
882.116145
 20
544.252312
 42
-0.005680
  0
VERTEX
  8
0
 10
883.857182
 20
554.500000
 42
0.001604
  0
VERTEX
  8
0
 10
887.654502
 20
575.798105
 42
0.001328
  0
VERTEX
  8
0
 10
891.565669
 20
598.504711
 42
0.000334
  0
VERTEX
  8
0
 10
898.369593
 20
638.805767
 42
0.000011
  0
VERTEX
  8
0
 10
925.048986
 20
797.500000
 42
0.001070
  0
VERTEX
  8
0
 10
930.458224
 20
830.106198
 42
0.001619
  0
VERTEX
  8
0
 10
935.013101
 20
858.507392
 42
0.000604
  0
VERTEX
  8
0
 10
938.824251
 20
882.966047
 42
0.039570
  0
VERTEX
  8
0
 10
939.141322
 20
887.227291
 42
0.070620
  0
VERTEX
  8
0
 10
938.046741
 20
894.679784
 42
0.071373
  0
VERTEX
  8
0
 10
934.922451
 20
901.504010
 42
0.070399
  0
VERTEX
  8
0
 10
929.959122
 20
907.250413
 42
0.065796
  0
VERTEX
  8
0
 10
923.488111
 20
911.549618
 42
0.050175
  0
VERTEX
  8
0
 10
918.230821
 20
913.497018
 42
0.044896
  0
VERTEX
  8
0
 10
912.489853
 20
914.451504
 42
0.037423
  0
VERTEX
  8
0
 10
905.771168
 20
914.452920
 42
0.019880
  0
SEQEND
  0
POLYLINE
  8
0
 66
1
 70
1
  0
VERTEX
  8
0
 10
923.070685
 20
910.250000
 42
-0.019608
  0
VERTEX
  8
0
 10
925.154712
 20
909.089605
 42
-0.030414
  0
VERTEX
  8
0
 10
926.843715
 20
907.913969
 42
-0.031203
  0
VERTEX
  8
0
 10
928.025693
 20
906.853497
 42
-0.250481
  0
VERTEX
  8
0
 10
928.225223
 20
906.175670
 42
0.056175
  0
VERTEX
  8
0
 10
928.181671
 20
905.705405
 42
0.161131
  0
VERTEX
  8
0
 10
928.289491
 20
905.400018
 42
0.247850
  0
VERTEX
  8
0
 10
928.518343
 20
905.296175
 42
0.124040
  0
VERTEX
  8
0
 10
928.829864
 20
905.394850
 42
-0.328751
  0
VERTEX
  8
0
 10
930.189260
 20
905.283583
 42
-0.048140
  0
VERTEX
  8
0
 10
932.209465
 20
903.148162
 42
-0.041956
  0
VERTEX
  8
0
 10
934.307095
 20
899.929738
 42
-0.032668
  0
VERTEX
  8
0
 10
936.042937
 20
896.129118
 42
-0.041928
  0
VERTEX
  8
0
 10
937.324991
 20
891.659092
 42
-0.037635
  0
VERTEX
  8
0
 10
937.903519
 20
886.872171
 42
-0.034384
  0
VERTEX
  8
0
 10
937.779807
 20
881.653676
 42
-0.024789
  0
VERTEX
  8
0
 10
936.955259
 20
875.886490
 42
0.006025
  0
VERTEX
  8
0
 10
936.208819
 20
871.773425
 42
0.000063
  0
VERTEX
  8
0
 10
931.373144
 20
843.147906
 42
0.000203
  0
VERTEX
  8
0
 10
925.815439
 20
810.141258
 42
0.000132
  0
VERTEX
  8
0
 10
919.419397
 20
772.000000
 42
-0.000071
  0
VERTEX
  8
0
 10
905.527097
 20
689.094659
 42
-0.000198
  0
VERTEX
  8
0
 10
895.756572
 20
630.978750
 42
-0.000265
  0
VERTEX
  8
0
 10
888.685483
 20
589.156426
 42
-0.000910
  0
VERTEX
  8
0
 10
884.028338
 20
562.000000
 42
0.001579
  0
VERTEX
  8
0
 10
880.887546
 20
543.537455
 42
0.011194
  0
VERTEX
  8
0
 10
879.592776
 20
534.542290
 42
0.018978
  0
VERTEX
  8
0
 10
879.012704
 20
527.537209
 42
0.010174
  0
VERTEX
  8
0
 10
878.801660
 20
518.860814
 42
0.016292
  0
VERTEX
  8
0
 10
879.022758
 20
511.134865
 42
0.036631
  0
VERTEX
  8
0
 10
879.808055
 20
505.327971
 42
0.033963
  0
VERTEX
  8
0
 10
881.473563
 20
499.437383
 42
0.012257
  0
VERTEX
  8
0
 10
884.605474
 20
491.313516
 42
-0.010395
  0
VERTEX
  8
0
 10
888.774824
 20
480.617477
 42
-0.002739
  0
VERTEX
  8
0
 10
894.994382
 20
463.333388
 42
-0.001438
  0
VERTEX
  8
0
 10
901.242189
 20
445.504692
 42
-0.037636
  0
VERTEX
  8
0
 10
902.542237
 20
440.596969
 42
-0.077191
  0
VERTEX
  8
0
 10
902.609827
 20
438.317069
 42
-0.003037
  0
VERTEX
  8
0
 10
901.518167
 20
430.000304
 42
-0.005135
  0
VERTEX
  8
0
 10
900.022268
 20
419.887733
 42
-0.003150
  0
VERTEX
  8
0
 10
898.061960
 20
408.000000
 42
0.000230
  0
VERTEX
  8
0
 10
891.305182
 20
368.464967
 42
0.000161
  0
VERTEX
  8
0
 10
883.723508
 20
323.893170
 42
0.000161
  0
VERTEX
  8
0
 10
876.610614
 20
281.913905
 42
0.000415
  0
VERTEX
  8
0
 10
871.510998
 20
251.605083
 42
-0.001280
  0
VERTEX
  8
0
 10
868.099084
 20
231.539133
 42
-0.015195
  0
VERTEX
  8
0
 10
866.521333
 20
223.810294
 42
-0.041365
  0
VERTEX
  8
0
 10
865.147619
 20
219.586508
 42
-0.097374
  0
VERTEX
  8
0
 10
863.307974
 20
216.846436
 42
0.000000
  0
VERTEX
  8
0
 10
860.444244
 20
213.982706
 42
0.000000
  0
VERTEX
  8
0
 10
802.472122
 20
207.062022
 42
-0.000454
  0
VERTEX
  8
0
 10
757.899112
 20
201.782003
 42
-0.000329
  0
VERTEX
  8
0
 10
708.227023
 20
195.976864
 42
-0.000311
  0
VERTEX
  8
0
 10
662.627138
 20
190.706753
 42
-0.001220
  0
VERTEX
  8
0
 10
634.500000
 20
187.543261
 42
0.001259
  0
VERTEX
  8
0
 10
626.750648
 20
186.671070
 42
0.000277
  0
VERTEX
  8
0
 10
613.450000
 20
185.132670
 42
0.000288
  0
VERTEX
  8
0
 10
598.075013
 20
183.336722
 42
0.000277
  0
VERTEX
  8
0
 10
582.500000
 20
181.499549
 42
-0.000217
  0
VERTEX
  8
0
 10
566.668014
 20
179.630116
 42
-0.000204
  0
VERTEX
  8
0
 10
550.521875
 20
177.737364
 42
-0.000203
  0
VERTEX
  8
0
 10
536.216360
 20
176.072187
 42
-0.000711
  0
VERTEX
  8
0
 10
527.000000
 20
175.016471
 42
0.000242
  0
VERTEX
  8
0
 10
517.266879
 20
173.910823
 42
0.000052
  0
VERTEX
  8
0
 10
500.393750
 20
171.984056
 42
0.000054
  0
VERTEX
  8
0
 10
480.851591
 20
169.748306
 42
0.000052
  0
VERTEX
  8
0
 10
461.000000
 20
167.472894
 42
-0.000055
  0
VERTEX
  8
0
 10
440.854707
 20
165.163955
 42
-0.000053
  0
VERTEX
  8
0
 10
420.431250
 20
162.827603
 42
-0.000052
  0
VERTEX
  8
0
 10
402.418343
 20
160.770847
 42
-0.000191
  0
VERTEX
  8
0
 10
391.000000
 20
159.472710
 42
0.000144
  0
VERTEX
  8
0
 10
382.473944
 20
158.504205
 42
0.000186
  0
VERTEX
  8
0
 10
374.640625
 20
157.609150
 42
0.000141
  0
VERTEX
  8
0
 10
368.074106
 20
156.854492
 42
0.001632
  0
VERTEX
  8
0
 10
365.500000
 20
156.549408
 42
-0.001520
  0
VERTEX
  8
0
 10
351.248357
 20
154.857067
 42
-0.001247
  0
VERTEX
  8
0
 10
336.013076
 20
153.133391
 42
-0.000966
  0
VERTEX
  8
0
 10
317.453143
 20
151.116750
 42
-0.000407
  0
VERTEX
  8
0
 10
292.500000
 20
148.474777
 42
0.000566
  0
VERTEX
  8
0
 10
273.770271
 20
146.485708
 42
0.000417
  0
VERTEX
  8
0
 10
253.025000
 20
144.241365
 42
0.000421
  0
VERTEX
  8
0
 10
233.408679
 20
142.085915
 42
0.000940
  0
VERTEX
  8
0
 10
218.500000
 20
140.406653
 42
-0.000155
  0
VERTEX
  8
0
 10
206.044557
 20
138.983903
 42
-0.000183
  0
VERTEX
  8
0
 10
194.256250
 20
137.645440
 42
-0.000160
  0
VERTEX
  8
0
 10
184.299990
 20
136.521908
 42
-0.001152
  0
VERTEX
  8
0
 10
179.500000
 20
135.992997
 42
0.000910
  0
VERTEX
  8
0
 10
175.023089
 20
135.501883
 42
0.000189
  0
VERTEX
  8
0
 10
167.157135
 20
134.621495
 42
0.000198
  0
VERTEX
  8
0
 10
158.025389
 20
133.592274
 42
0.000187
  0
VERTEX
  8
0
 10
148.715780
 20
132.535737
 42
-0.004692
  0
VERTEX
  8
0
 10
132.899035
 20
130.884895
 42
-0.034257
  0
VERTEX
  8
0
 10
125.283953
 20
130.685904
 42
-0.064532
  0
VERTEX
  8
0
 10
119.846135
 20
131.626327
 42
-0.043490
  0
VERTEX
  8
0
 10
114.005623
 20
134.007030
 42
-0.048498
  0
VERTEX
  8
0
 10
110.550973
 20
136.225752
 42
-0.057995
  0
VERTEX
  8
0
 10
107.812823
 20
138.954527
 42
-0.040913
  0
VERTEX
  8
0
 10
105.136029
 20
142.956963
 42
-0.012046
  0
VERTEX
  8
0
 10
101.699644
 20
149.500000
 42
-0.013697
  0
VERTEX
  8
0
 10
96.995900
 20
159.699201
 42
-0.001567
  0
VERTEX
  8
0
 10
87.100698
 20
183.000114
 42
-0.001363
  0
VERTEX
  8
0
 10
77.252336
 20
206.573817
 42
-0.017622
  0
VERTEX
  8
0
 10
73.915282
 20
215.500000
 42
-0.072183
  0
VERTEX
  8
0
 10
72.773970
 20
221.829321
 42
-0.027579
  0
VERTEX
  8
0
 10
72.961160
 20
230.803430
 42
-0.019027
  0
VERTEX
  8
0
 10
74.392747
 20
243.301274
 42
-0.006314
  0
VERTEX
  8
0
 10
77.418000
 20
261.500000
 42
0.001566
  0
VERTEX
  8
0
 10
81.631195
 20
285.437507
 42
0.000556
  0
VERTEX
  8
0
 10
87.513240
 20
319.707946
 42
0.000375
  0
VERTEX
  8
0
 10
95.835791
 20
368.744920
 42
0.000110
  0
VERTEX
  8
0
 10
108.532871
 20
444.000000
 42
-0.000129
  0
VERTEX
  8
0
 10
117.943599
 20
499.764648
 42
-0.000183
  0
VERTEX
  8
0
 10
126.339935
 20
549.330307
 42
-0.000201
  0
VERTEX
  8
0
 10
134.051135
 20
594.640012
 42
-0.000238
  0
VERTEX
  8
0
 10
141.384175
 20
637.500000
 42
0.000290
  0
VERTEX
  8
0
 10
144.849968
 20
657.769480
 42
0.000160
  0
VERTEX
  8
0
 10
149.060400
 20
682.528125
 42
0.000160
  0
VERTEX
  8
0
 10
153.310832
 20
707.619188
 42
0.000257
  0
VERTEX
  8
0
 10
156.914392
 20
729.000000
 42
-0.000902
  0
VERTEX
  8
0
 10
165.826721
 20
781.466558
 42
-0.016170
  0
VERTEX
  8
0
 10
169.261652
 20
798.205117
 42
-0.055664
  0
VERTEX
  8
0
 10
172.277204
 20
806.571278
 42
-0.147311
  0
VERTEX
  8
0
 10
176.567268
 20
811.179279
 42
-0.086983
  0
VERTEX
  8
0
 10
180.440306
 20
812.615326
 42
-0.005804
  0
VERTEX
  8
0
 10
192.157744
 20
814.625853
 42
-0.004785
  0
VERTEX
  8
0
 10
211.031194
 20
817.454202
 42
-0.000790
  0
VERTEX
  8
0
 10
247.500000
 20
822.504275
 42
0.000189
  0
VERTEX
  8
0
 10
259.999661
 20
824.219873
 42
0.000085
  0
VERTEX
  8
0
 10
276.437500
 20
826.485152
 42
0.000084
  0
VERTEX
  8
0
 10
293.815923
 20
828.886012
 42
0.000114
  0
VERTEX
  8
0
 10
309.500000
 20
831.059107
 42
-0.000125
  0
VERTEX
  8
0
 10
324.858575
 20
833.186759
 42
-0.000103
  0
VERTEX
  8
0
 10
341.240625
 20
835.448601
 42
-0.000104
  0
VERTEX
  8
0
 10
356.278882
 20
837.518576
 42
-0.000277
  0
VERTEX
  8
0
 10
367.000000
 20
838.985986
 42
0.000108
  0
VERTEX
  8
0
 10
378.546239
 20
840.562345
 42
0.000028
  0
VERTEX
  8
0
 10
397.165625
 20
843.109521
 42
0.000028
  0
VERTEX
  8
0
 10
418.397658
 20
846.016544
 42
0.000029
  0
VERTEX
  8
0
 10
439.500000
 20
848.908269
 42
-0.000129
  0
VERTEX
  8
0
 10
462.299428
 20
852.027890
 42
-0.000083
  0
VERTEX
  8
0
 10
488.737500
 20
855.633944
 42
-0.000084
  0
VERTEX
  8
0
 10
514.606565
 20
859.153603
 42
-0.000157
  0
VERTEX
  8
0
 10
535.500000
 20
861.986048
 42
0.000553
  0
VERTEX
  8
0
 10
554.997092
 20
864.644918
 42
0.000419
  0
VERTEX
  8
0
 10
576.387500
 20
867.604345
 42
0.000423
  0
VERTEX
  8
0
 10
596.464579
 20
870.416537
 42
0.000986
  0
VERTEX
  8
0
 10
611.500000
 20
872.565759
 42
-0.000448
  0
VERTEX
  8
0
 10
639.246672
 20
876.562419
 42
-0.000309
  0
VERTEX
  8
0
 10
670.671905
 20
881.040369
 42
-0.000283
  0
VERTEX
  8
0
 10
699.604419
 20
885.128169
 42
-0.001278
  0
VERTEX
  8
0
 10
716.500000
 20
887.461523
 42
0.000578
  0
VERTEX
  8
0
 10
722.351448
 20
888.261288
 42
0.000157
  0
VERTEX
  8
0
 10
731.612500
 20
889.540944
 42
0.000159
  0
VERTEX
  8
0
 10
742.121883
 20
890.999843
 42
0.000165
  0
VERTEX
  8
0
 10
752.500000
 20
892.447359
 42
-0.000429
  0
VERTEX
  8
0
 10
762.914815
 20
893.894377
 42
-0.000405
  0
VERTEX
  8
0
 10
773.534375
 20
895.351783
 42
-0.000402
  0
VERTEX
  8
0
 10
782.942250
 20
896.627427
 42
-0.001414
  0
VERTEX
  8
0
 10
789.000000
 20
897.426418
 42
0.001264
  0
VERTEX
  8
0
 10
812.591521
 20
900.530846
 42
0.000436
  0
VERTEX
  8
0
 10
846.690152
 20
905.135897
 42
0.000247
  0
VERTEX
  8
0
 10
881.000001
 20
909.817181
 42
0.004900
  0
VERTEX
  8
0
 10
891.500000
 20
911.360067
 42
-0.010679
  0
VERTEX
  8
0
 10
895.567854
 20
911.909848
 42
-0.006583
  0
VERTEX
  8
0
 10
900.373889
 20
912.391163
 42
-0.006600
  0
VERTEX
  8
0
 10
905.139709
 20
912.741844
 42
-0.011749
  0
VERTEX
  8
0
 10
909.070685
 20
912.886385
 42
-0.010814
  0
VERTEX
  8
0
 10
913.988890
 20
912.845215
 42
-0.039054
  0
VERTEX
  8
0
 10
917.101176
 20
912.507569
 42
-0.047941
  0
VERTEX
  8
0
 10
919.785784
 20
911.729951
 42
-0.022777
  0
SEQEND
  0
POLYLINE
  8
0
 66
1
 70
1
  0
VERTEX
  8
0
 10
858.500000
 20
869.419687
 42
-0.003393
  0
VERTEX
  8
0
 10
849.939326
 20
868.169293
 42
-0.000636
  0
VERTEX
  8
0
 10
834.246875
 20
866.006201
 42
-0.000681
  0
VERTEX
  8
0
 10
815.902527
 20
863.526775
 42
-0.000623
  0
VERTEX
  8
0
 10
797.000000
 20
861.022067
 42
0.000432
  0
VERTEX
  8
0
 10
777.145183
 20
858.398876
 42
0.000354
  0
VERTEX
  8
0
 10
755.934375
 20
855.562575
 42
0.000358
  0
VERTEX
  8
0
 10
736.439975
 20
852.927524
 42
0.000947
  0
VERTEX
  8
0
 10
722.500000
 20
851.006207
 42
-0.000544
  0
VERTEX
  8
0
 10
688.968156
 20
846.357058
 42
-0.000982
  0
VERTEX
  8
0
 10
661.483499
 20
842.631830
 42
-0.001179
  0
VERTEX
  8
0
 10
638.158841
 20
839.573055
 42
-0.001698
  0
VERTEX
  8
0
 10
617.500000
 20
836.984677
 42
0.001750
  0
VERTEX
  8
0
 10
592.217307
 20
833.814298
 42
0.000722
  0
VERTEX
  8
0
 10
558.007160
 20
829.352566
 42
0.000727
  0
VERTEX
  8
0
 10
523.391840
 20
824.735917
 42
0.001526
  0
VERTEX
  8
0
 10
496.500000
 20
821.025951
 42
-0.000751
  0
VERTEX
  8
0
 10
486.097803
 20
819.574451
 42
-0.000291
  0
VERTEX
  8
0
 10
471.681250
 20
817.593414
 42
-0.000288
  0
VERTEX
  8
0
 10
456.055805
 20
815.464683
 42
-0.000356
  0
VERTEX
  8
0
 10
441.500000
 20
813.500772
 42
0.000350
  0
VERTEX
  8
0
 10
424.452420
 20
811.200881
 42
0.000127
  0
VERTEX
  8
0
 10
400.303125
 20
807.919413
 42
0.000126
  0
VERTEX
  8
0
 10
373.889405
 20
804.316590
 42
0.000151
  0
VERTEX
  8
0
 10
349.000000
 20
800.907618
 42
-0.000373
  0
VERTEX
  8
0
 10
306.372114
 20
795.088362
 42
-0.000922
  0
VERTEX
  8
0
 10
275.114228
 20
790.903710
 42
-0.001237
  0
VERTEX
  8
0
 10
251.220842
 20
787.809987
 42
-0.002546
  0
VERTEX
  8
0
 10
232.500000
 20
785.529899
 42
0.006509
  0
VERTEX
  8
0
 10
216.210202
 20
783.414728
 42
0.039906
  0
VERTEX
  8
0
 10
207.951941
 20
781.551440
 42
0.085990
  0
VERTEX
  8
0
 10
203.245335
 20
779.141441
 42
0.133337
  0
VERTEX
  8
0
 10
200.460592
 20
775.559927
 42
0.045682
  0
VERTEX
  8
0
 10
199.744650
 20
773.281666
 42
0.002843
  0
VERTEX
  8
0
 10
198.286952
 20
766.357389
 42
0.004187
  0
VERTEX
  8
0
 10
196.663908
 20
758.071387
 42
0.003093
  0
VERTEX
  8
0
 10
195.001438
 20
748.876344
 42
-0.000256
  0
VERTEX
  8
0
 10
193.085032
 20
737.922194
 42
-0.000130
  0
VERTEX
  8
0
 10
190.663210
 20
724.141801
 42
-0.000129
  0
VERTEX
  8
0
 10
188.156852
 20
709.923630
 42
-0.000193
  0
VERTEX
  8
0
 10
185.958576
 20
697.500000
 42
0.000702
  0
VERTEX
  8
0
 10
183.765591
 20
685.032268
 42
0.000462
  0
VERTEX
  8
0
 10
181.274700
 20
670.675000
 42
0.000465
  0
VERTEX
  8
0
 10
178.876201
 20
656.696561
 42
0.000896
  0
VERTEX
  8
0
 10
176.986383
 20
645.500000
 42
-0.000509
  0
VERTEX
  8
0
 10
168.420951
 20
594.511818
 42
-0.000419
  0
VERTEX
  8
0
 10
159.183360
 20
540.140022
 42
-0.000281
  0
VERTEX
  8
0
 10
150.736663
 20
490.841646
 42
-0.003673
  0
VERTEX
  8
0
 10
147.455361
 20
472.560463
 42
0.025825
  0
VERTEX
  8
0
 10
146.607530
 20
466.238185
 42
0.071976
  0
VERTEX
  8
0
 10
146.884444
 20
461.780105
 42
0.118256
  0
VERTEX
  8
0
 10
148.241190
 20
458.906830
 42
0.163513
  0
VERTEX
  8
0
 10
150.623466
 20
457.379656
 42
0.076324
  0
VERTEX
  8
0
 10
152.277105
 20
457.224500
 42
0.005241
  0
VERTEX
  8
0
 10
156.979656
 20
457.550816
 42
0.007381
  0
VERTEX
  8
0
 10
162.600674
 20
458.083723
 42
0.005474
  0
VERTEX
  8
0
 10
168.795765
 20
458.832186
 42
-0.000055
  0
VERTEX
  8
0
 10
176.200351
 20
459.808300
 42
-0.000027
  0
VERTEX
  8
0
 10
185.615006
 20
461.047821
 42
-0.000027
  0
VERTEX
  8
0
 10
195.388658
 20
462.333534
 42
-0.000039
  0
VERTEX
  8
0
 10
204.000000
 20
463.465190
 42
-0.001762
  0
VERTEX
  8
0
 10
226.002443
 20
466.276034
 42
-0.000113
  0
VERTEX
  8
0
 10
290.195700
 20
474.232231
 42
-0.000176
  0
VERTEX
  8
0
 10
362.695856
 20
483.175402
 42
-0.000178
  0
VERTEX
  8
0
 10
435.000000
 20
492.042494
 42
0.000065
  0
VERTEX
  8
0
 10
452.318672
 20
494.162441
 42
0.000061
  0
VERTEX
  8
0
 10
470.037500
 20
496.335913
 42
0.000061
  0
VERTEX
  8
0
 10
485.774858
 20
498.270215
 42
0.000208
  0
VERTEX
  8
0
 10
496.000000
 20
499.532581
 42
-0.000552
  0
VERTEX
  8
0
 10
505.563088
 20
500.706537
 42
-0.000224
  0
VERTEX
  8
0
 10
518.584375
 20
502.284507
 42
-0.000222
  0
VERTEX
  8
0
 10
532.586239
 20
503.968629
 42
-0.000283
  0
VERTEX
  8
0
 10
545.500000
 20
505.508652
 42
0.000932
  0
VERTEX
  8
0
 10
584.490269
 20
510.209744
 42
0.000528
  0
VERTEX
  8
0
 10
631.697367
 20
516.041408
 42
0.000361
  0
VERTEX
  8
0
 10
676.501480
 20
521.657078
 42
0.004199
  0
VERTEX
  8
0
 10
694.000000
 20
524.012591
 42
-0.003054
  0
VERTEX
  8
0
 10
708.632116
 20
526.016391
 42
-0.000790
  0
VERTEX
  8
0
 10
732.236854
 20
529.064284
 42
-0.000817
  0
VERTEX
  8
0
 10
758.680245
 20
532.392343
 42
-0.000932
  0
VERTEX
  8
0
 10
784.000000
 20
535.489059
 42
0.001531
  0
VERTEX
  8
0
 10
808.045033
 20
538.459133
 42
0.005249
  0
VERTEX
  8
0
 10
823.641745
 20
540.600748
 42
0.004816
  0
VERTEX
  8
0
 10
834.452497
 20
542.307549
 42
0.079011
  0
VERTEX
  8
0
 10
837.913223
 20
543.469449
 42
0.053960
  0
VERTEX
  8
0
 10
840.691654
 20
545.327449
 42
0.037013
  0
VERTEX
  8
0
 10
843.413362
 20
547.973123
 42
0.036447
  0
VERTEX
  8
0
 10
845.767805
 20
551.052895
 42
0.046071
  0
VERTEX
  8
0
 10
847.447107
 20
554.218252
 42
0.041811
  0
VERTEX
  8
0
 10
848.189510
 20
556.519108
 42
0.005642
  0
VERTEX
  8
0
 10
849.284631
 20
561.480156
 42
0.006476
  0
VERTEX
  8
0
 10
850.442339
 20
567.403249
 42
0.005415
  0
VERTEX
  8
0
 10
851.521414
 20
573.718252
 42
-0.000886
  0
VERTEX
  8
0
 10
853.774699
 20
587.664753
 42
-0.001051
  0
VERTEX
  8
0
 10
855.954410
 20
600.831670
 42
-0.000990
  0
VERTEX
  8
0
 10
858.295412
 20
614.623202
 42
-0.000650
  0
VERTEX
  8
0
 10
861.043986
 20
630.500000
 42
0.001904
  0
VERTEX
  8
0
 10
862.696946
 20
640.192744
 42
0.000358
  0
VERTEX
  8
0
 10
865.638935
 20
657.928125
 42
0.000383
  0
VERTEX
  8
0
 10
869.045374
 20
678.653707
 42
0.000351
  0
VERTEX
  8
0
 10
872.521651
 20
700.000000
 42
-0.000277
  0
VERTEX
  8
0
 10
876.214715
 20
722.698514
 42
-0.000213
  0
VERTEX
  8
0
 10
880.275915
 20
747.506250
 42
-0.000215
  0
VERTEX
  8
0
 10
884.096805
 20
770.721536
 42
-0.000509
  0
VERTEX
  8
0
 10
886.966293
 20
788.000000
 42
0.001482
  0
VERTEX
  8
0
 10
892.196191
 20
819.874923
 42
0.004446
  0
VERTEX
  8
0
 10
895.510254
 20
841.688686
 42
0.002640
  0
VERTEX
  8
0
 10
897.722702
 20
857.784319
 42
0.106487
  0
VERTEX
  8
0
 10
897.437357
 20
861.305726
 42
0.081291
  0
VERTEX
  8
0
 10
896.308970
 20
863.610658
 42
0.032985
  0
VERTEX
  8
0
 10
894.094697
 20
866.329735
 42
0.032835
  0
VERTEX
  8
0
 10
891.418880
 20
868.851536
 42
0.052223
  0
VERTEX
  8
0
 10
888.799660
 20
870.589276
 42
0.101850
  0
VERTEX
  8
0
 10
885.093169
 20
871.648783
 42
0.028510
  0
VERTEX
  8
0
 10
879.035995
 20
871.760387
 42
0.020826
  0
VERTEX
  8
0
 10
870.532878
 20
871.076729
 42
0.007487
  0
SEQEND
  0
POLYLINE
  8
0
 66
1
 70
1
  0
VERTEX
  8
0
 10
819.722373
 20
816.569430
 42
-0.051297
  0
VERTEX
  8
0
 10
825.206157
 20
813.373153
 42
-0.038006
  0
VERTEX
  8
0
 10
830.548415
 20
808.816508
 42
-0.038334
  0
VERTEX
  8
0
 10
835.079293
 20
803.566338
 42
-0.056360
  0
VERTEX
  8
0
 10
838.119254
 20
798.290758
 42
-0.059073
  0
VERTEX
  8
0
 10
839.794368
 20
792.721096
 42
-0.028188
  0
VERTEX
  8
0
 10
840.674478
 20
785.283311
 42
-0.024559
  0
VERTEX
  8
0
 10
840.783366
 20
776.439398
 42
-0.017211
  0
VERTEX
  8
0
 10
840.074326
 20
766.500000
 42
-0.024524
  0
VERTEX
  8
0
 10
837.393128
 20
749.303805
 42
-0.042984
  0
VERTEX
  8
0
 10
833.282213
 20
735.509028
 42
-0.050139
  0
VERTEX
  8
0
 10
827.443631
 20
724.176385
 42
-0.053161
  0
VERTEX
  8
0
 10
819.562994
 20
714.473822
 42
-0.012096
  0
VERTEX
  8
0
 10
816.618760
 20
711.685344
 42
-0.013080
  0
VERTEX
  8
0
 10
813.617228
 20
709.116449
 42
-0.012660
  0
VERTEX
  8
0
 10
810.937388
 20
707.051985
 42
-0.059668
  0
VERTEX
  8
0
 10
809.247462
 20
706.102502
 42
0.015630
  0
VERTEX
  8
0
 10
808.003210
 20
705.540937
 42
0.023144
  0
VERTEX
  8
0
 10
806.953942
 20
704.965681
 42
0.019904
  0
VERTEX
  8
0
 10
806.161407
 20
704.437811
 42
0.240327
  0
VERTEX
  8
0
 10
806.000000
 20
704.121398
 42
0.225882
  0
VERTEX
  8
0
 10
806.168660
 20
703.767110
 42
0.009747
  0
VERTEX
  8
0
 10
807.283926
 20
702.896730
 42
0.015000
  0
VERTEX
  8
0
 10
808.695894
 20
701.903142
 42
0.009958
  0
VERTEX
  8
0
 10
810.370814
 20
700.845368
 42
-0.048497
  0
VERTEX
  8
0
 10
814.438276
 20
697.815138
 42
-0.054277
  0
VERTEX
  8
0
 10
817.677255
 20
694.160260
 42
-0.051000
  0
VERTEX
  8
0
 10
820.203035
 20
689.695027
 42
-0.035609
  0
VERTEX
  8
0
 10
822.143189
 20
684.239520
 42
-0.038781
  0
VERTEX
  8
0
 10
823.491140
 20
677.341217
 42
-0.030651
  0
VERTEX
  8
0
 10
823.902905
 20
669.746584
 42
-0.025529
  0
VERTEX
  8
0
 10
823.387378
 20
660.893354
 42
-0.013937
  0
VERTEX
  8
0
 10
821.900271
 20
650.113264
 42
-0.018545
  0
VERTEX
  8
0
 10
817.271314
 20
627.515182
 42
-0.048188
  0
VERTEX
  8
0
 10
811.808918
 20
611.845891
 42
-0.062328
  0
VERTEX
  8
0
 10
804.441899
 20
599.996221
 42
-0.054308
  0
VERTEX
  8
0
 10
794.066797
 20
589.700364
 42
-0.043903
  0
VERTEX
  8
0
 10
783.640392
 20
582.789981
 42
-0.041416
  0
VERTEX
  8
0
 10
771.966402
 20
577.649754
 42
-0.032325
  0
VERTEX
  8
0
 10
757.219663
 20
573.610387
 42
-0.013664
  0
VERTEX
  8
0
 10
737.000000
 20
570.026917
 42
-0.008604
  0
VERTEX
  8
0
 10
726.194959
 20
568.604708
 42
-0.024367
  0
VERTEX
  8
0
 10
718.607957
 20
568.111319
 42
-0.033109
  0
VERTEX
  8
0
 10
712.476407
 20
568.418023
 42
-0.034672
  0
VERTEX
  8
0
 10
706.534962
 20
569.532909
 42
-0.048677
  0
VERTEX
  8
0
 10
697.924799
 20
572.696202
 42
-0.057688
  0
VERTEX
  8
0
 10
690.606467
 20
577.331544
 42
-0.059140
  0
VERTEX
  8
0
 10
684.683202
 20
583.405984
 42
-0.055468
  0
VERTEX
  8
0
 10
680.197353
 20
590.824854
 42
-0.064339
  0
VERTEX
  8
0
 10
678.122783
 20
597.425767
 42
-0.033207
  0
VERTEX
  8
0
 10
677.174253
 20
606.044043
 42
-0.031223
  0
VERTEX
  8
0
 10
677.356699
 20
615.547378
 42
-0.031677
  0
VERTEX
  8
0
 10
678.723063
 20
624.907416
 42
0.000000
  0
VERTEX
  8
0
 10
680.500000
 20
633.314833
 42
0.000000
  0
VERTEX
  8
0
 10
698.433523
 20
637.161086
 42
0.001035
  0
VERTEX
  8
0
 10
705.551489
 20
638.703115
 42
0.001322
  0
VERTEX
  8
0
 10
712.104663
 20
640.155158
 42
0.001023
  0
VERTEX
  8
0
 10
717.593346
 20
641.398362
 42
0.011153
  0
VERTEX
  8
0
 10
719.790328
 20
641.952552
 42
-0.009310
  0
VERTEX
  8
0
 10
722.024080
 20
642.524781
 42
-0.199720
  0
VERTEX
  8
0
 10
722.682506
 20
642.417110
 42
-0.297627
  0
VERTEX
  8
0
 10
722.922483
 20
641.901886
 42
-0.019317
  0
VERTEX
  8
0
 10
722.610316
 20
640.198883
 42
0.033056
  0
VERTEX
  8
0
 10
721.744637
 20
634.615873
 42
0.017237
  0
VERTEX
  8
0
 10
721.369494
 20
627.580417
 42
0.013394
  0
VERTEX
  8
0
 10
721.422727
 20
620.914903
 42
0.114805
  0
VERTEX
  8
0
 10
722.193956
 20
618.054742
 42
0.092776
  0
VERTEX
  8
0
 10
724.549126
 20
615.124444
 42
0.084449
  0
VERTEX
  8
0
 10
727.878610
 20
613.127458
 42
0.065155
  0
VERTEX
  8
0
 10
732.428485
 20
612.006123
 42
0.030617
  0
VERTEX
  8
0
 10
738.490024
 20
611.700983
 42
0.039961
  0
VERTEX
  8
0
 10
749.586016
 20
612.711222
 42
0.052359
  0
VERTEX
  8
0
 10
759.376118
 20
615.476622
 42
0.060226
  0
VERTEX
  8
0
 10
767.166355
 20
619.734735
 42
0.098533
  0
VERTEX
  8
0
 10
772.298183
 20
625.201229
 42
0.077951
  0
VERTEX
  8
0
 10
775.961709
 20
633.822707
 42
0.029111
  0
VERTEX
  8
0
 10
778.426860
 20
646.779023
 42
0.027157
  0
VERTEX
  8
0
 10
779.393428
 20
659.554471
 42
0.127527
  0
VERTEX
  8
0
 10
777.710788
 20
666.661704
 42
0.117399
  0
VERTEX
  8
0
 10
772.856527
 20
672.197674
 42
0.112510
  0
VERTEX
  8
0
 10
765.953760
 20
675.060217
 42
0.077338
  0
VERTEX
  8
0
 10
756.345889
 20
675.201111
 42
0.029562
  0
VERTEX
  8
0
 10
743.196730
 20
672.551897
 42
-0.008260
  0
VERTEX
  8
0
 10
740.441729
 20
671.873612
 42
-0.052749
  0
VERTEX
  8
0
 10
739.015236
 20
671.702359
 42
-0.155250
  0
VERTEX
  8
0
 10
738.293572
 20
671.920831
 42
-0.247047
  0
VERTEX
  8
0
 10
738.000000
 20
672.478728
 42
-0.034634
  0
VERTEX
  8
0
 10
738.151778
 20
674.667256
 42
-0.000292
  0
VERTEX
  8
0
 10
740.510755
 20
691.520906
 42
-0.000521
  0
VERTEX
  8
0
 10
742.809285
 20
707.750455
 42
-0.018042
  0
VERTEX
  8
0
 10
743.491567
 20
711.547010
 42
-0.185168
  0
VERTEX
  8
0
 10
744.250658
 20
712.705424
 42
-0.095045
  0
VERTEX
  8
0
 10
745.848128
 20
713.447758
 42
-0.034402
  0
VERTEX
  8
0
 10
748.980426
 20
714.007090
 42
-0.003814
  0
VERTEX
  8
0
 10
756.218105
 20
714.735478
 42
0.008647
  0
VERTEX
  8
0
 10
761.264517
 20
715.292658
 42
0.008737
  0
VERTEX
  8
0
 10
766.271211
 20
716.022394
 42
0.008579
  0
VERTEX
  8
0
 10
770.605904
 20
716.808324
 42
0.034747
  0
VERTEX
  8
0
 10
773.194530
 20
717.513570
 42
0.057803
  0
VERTEX
  8
0
 10
777.606804
 20
719.649992
 42
0.035192
  0
VERTEX
  8
0
 10
782.269682
 20
723.098287
 42
0.035328
  0
VERTEX
  8
0
 10
786.361683
 20
727.128108
 42
0.062753
  0
VERTEX
  8
0
 10
789.017870
 20
731.035029
 42
0.061876
  0
VERTEX
  8
0
 10
791.010003
 20
736.524012
 42
0.012716
  0
VERTEX
  8
0
 10
793.052032
 20
746.643152
 42
0.012051
  0
VERTEX
  8
0
 10
794.587245
 20
756.829016
 42
0.073347
  0
VERTEX
  8
0
 10
794.475986
 20
762.142137
 42
0.101878
  0
VERTEX
  8
0
 10
792.315118
 20
767.706339
 42
0.123058
  0
VERTEX
  8
0
 10
788.234945
 20
771.525986
 42
0.101337
  0
VERTEX
  8
0
 10
782.162937
 20
773.441350
 42
0.052614
  0
VERTEX
  8
0
 10
774.181173
 20
773.428953
 42
0.025860
  0
VERTEX
  8
0
 10
763.588077
 20
771.736906
 42
0.052110
  0
VERTEX
  8
0
 10
755.552859
 20
769.125495
 42
0.067144
  0
VERTEX
  8
0
 10
749.662251
 20
765.494115
 42
0.089919
  0
VERTEX
  8
0
 10
745.603724
 20
760.723422
 42
0.049451
  0
VERTEX
  8
0
 10
743.867665
 20
756.905176
 42
0.023754
  0
VERTEX
  8
0
 10
742.376999
 20
751.729277
 42
0.023516
  0
VERTEX
  8
0
 10
741.341089
 20
746.220913
 42
0.034731
  0
VERTEX
  8
0
 10
741.000000
 20
741.316341
 42
0.000000
  0
VERTEX
  8
0
 10
741.000000
 20
738.000000
 42
0.000000
  0
VERTEX
  8
0
 10
719.500000
 20
738.000000
 42
0.000000
  0
VERTEX
  8
0
 10
698.000000
 20
738.000000
 42
0.000000
  0
VERTEX
  8
0
 10
698.018320
 20
740.250000
 42
-0.032680
  0
VERTEX
  8
0
 10
698.371869
 20
745.052895
 42
-0.005956
  0
VERTEX
  8
0
 10
699.712051
 20
753.876842
 42
-0.006359
  0
VERTEX
  8
0
 10
701.277035
 20
762.709663
 42
-0.025979
  0
VERTEX
  8
0
 10
702.571799
 20
768.000000
 42
-0.047391
  0
VERTEX
  8
0
 10
706.674771
 20
778.076581
 42
-0.044999
  0
VERTEX
  8
0
 10
712.661255
 20
787.389089
 42
-0.043514
  0
VERTEX
  8
0
 10
720.428214
 20
795.755864
 42
-0.038685
  0
VERTEX
  8
0
 10
729.822492
 20
803.020579
 42
-0.028552
  0
VERTEX
  8
0
 10
736.978252
 20
807.154214
 42
-0.043294
  0
VERTEX
  8
0
 10
743.647951
 20
809.819813
 42
-0.025031
  0
VERTEX
  8
0
 10
752.923238
 20
812.125296
 42
-0.003938
  0
VERTEX
  8
0
 10
771.416039
 20
815.599366
 42
-0.008124
  0
VERTEX
  8
0
 10
790.759040
 20
818.752161
 42
-0.031322
  0
VERTEX
  8
0
 10
802.885150
 20
819.757314
 42
-0.049941
  0
VERTEX
  8
0
 10
811.780929
 20
819.046629
 42
-0.061501
  0
SEQEND
  0
POLYLINE
  8
0
 66
1
 70
1
  0
VERTEX
  8
0
 10
631.218065
 20
790.796374
 42
-0.026536
  0
VERTEX
  8
0
 10
633.770336
 20
789.441670
 42
-0.014827
  0
VERTEX
  8
0
 10
636.730425
 20
787.541498
 42
-0.014759
  0
VERTEX
  8
0
 10
639.617280
 20
785.437315
 42
-0.023168
  0
VERTEX
  8
0
 10
641.953922
 20
783.446331
 42
-0.070324
  0
VERTEX
  8
0
 10
648.202425
 20
775.693332
 42
-0.073121
  0
VERTEX
  8
0
 10
651.956200
 20
766.611867
 42
-0.060850
  0
VERTEX
  8
0
 10
653.350667
 20
755.462492
 42
-0.031390
  0
VERTEX
  8
0
 10
652.508019
 20
741.407939
 42
-0.020275
  0
VERTEX
  8
0
 10
649.224350
 20
721.464751
 42
-0.056958
  0
VERTEX
  8
0
 10
644.814476
 20
708.046294
 42
-0.075285
  0
VERTEX
  8
0
 10
638.337324
 20
698.194526
 42
-0.060663
  0
VERTEX
  8
0
 10
628.780921
 20
689.851226
 42
0.000000
  0
VERTEX
  8
0
 10
622.781694
 20
685.777229
 42
0.000000
  0
VERTEX
  8
0
 10
626.640847
 20
684.043236
 42
-0.091718
  0
VERTEX
  8
0
 10
634.554540
 20
678.568418
 42
-0.086772
  0
VERTEX
  8
0
 10
640.169192
 20
670.527362
 42
-0.076214
  0
VERTEX
  8
0
 10
643.209532
 20
660.123092
 42
-0.051478
  0
VERTEX
  8
0
 10
643.572433
 20
647.743367
 42
-0.016253
  0
VERTEX
  8
0
 10
642.377232
 20
636.516861
 42
-0.008548
  0
VERTEX
  8
0
 10
640.201698
 20
622.653934
 42
-0.007911
  0
VERTEX
  8
0
 10
637.697791
 20
609.533915
 42
-0.032582
  0
VERTEX
  8
0
 10
635.545589
 20
601.743543
 42
-0.042577
  0
VERTEX
  8
0
 10
631.128202
 20
591.846088
 42
-0.040543
  0
VERTEX
  8
0
 10
625.035606
 20
582.666027
 42
-0.039718
  0
VERTEX
  8
0
 10
617.408024
 20
574.418480
 42
-0.037377
  0
VERTEX
  8
0
 10
608.423815
 20
567.296051
 42
-0.030997
  0
VERTEX
  8
0
 10
598.846796
 20
561.637977
 42
-0.052533
  0
VERTEX
  8
0
 10
590.161315
 20
558.302310
 42
-0.033533
  0
VERTEX
  8
0
 10
578.585501
 20
556.019928
 42
-0.006207
  0
VERTEX
  8
0
 10
557.000000
 20
553.521854
 42
0.002352
  0
VERTEX
  8
0
 10
538.230210
 20
551.496133
 42
0.001626
  0
VERTEX
  8
0
 10
517.005465
 20
549.034487
 42
0.001225
  0
VERTEX
  8
0
 10
497.462136
 20
546.654878
 42
0.011084
  0
VERTEX
  8
0
 10
488.950379
 20
545.405167
 42
0.000000
  0
VERTEX
  8
0
 10
485.400759
 20
544.803349
 42
0.000000
  0
VERTEX
  8
0
 10
487.625714
 20
558.151675
 42
0.001241
  0
VERTEX
  8
0
 10
488.833062
 20
565.507486
 42
0.000281
  0
VERTEX
  8
0
 10
490.845651
 20
578.007054
 42
0.000291
  0
VERTEX
  8
0
 10
493.151009
 20
592.429883
 42
0.000282
  0
VERTEX
  8
0
 10
495.462798
 20
607.000000
 42
-0.000404
  0
VERTEX
  8
0
 10
497.970000
 20
622.776910
 42
-0.000268
  0
VERTEX
  8
0
 10
500.872494
 20
640.884375
 42
-0.000269
  0
VERTEX
  8
0
 10
503.710806
 20
658.470595
 42
-0.000524
  0
VERTEX
  8
0
 10
505.997922
 20
672.500000
 42
0.001286
  0
VERTEX
  8
0
 10
508.246936
 20
686.429307
 42
0.000685
  0
VERTEX
  8
0
 10
510.961686
 20
703.675000
 42
0.000682
  0
VERTEX
  8
0
 10
513.686865
 20
721.300532
 42
0.001062
  0
VERTEX
  8
0
 10
515.982699
 20
736.500000
 42
-0.000501
  0
VERTEX
  8
0
 10
519.799626
 20
761.963066
 42
-0.003485
  0
VERTEX
  8
0
 10
521.766502
 20
774.406759
 42
-0.001481
  0
VERTEX
  8
0
 10
523.137515
 20
782.555055
 42
-0.365351
  0
VERTEX
  8
0
 10
523.665163
 20
783.000000
 42
0.033795
  0
VERTEX
  8
0
 10
525.005675
 20
783.090709
 42
0.000026
  0
VERTEX
  8
0
 10
558.667506
 20
787.669087
 42
0.000147
  0
VERTEX
  8
0
 10
589.942248
 20
791.933867
 42
0.005547
  0
VERTEX
  8
0
 10
597.000000
 20
792.978301
 42
-0.022706
  0
VERTEX
  8
0
 10
599.875581
 20
793.303486
 42
-0.006872
  0
VERTEX
  8
0
 10
604.262500
 20
793.538221
 42
-0.006869
  0
VERTEX
  8
0
 10
609.193769
 20
793.666338
 42
-0.007426
  0
VERTEX
  8
0
 10
614.000000
 20
793.653766
 42
-0.006986
  0
VERTEX
  8
0
 10
620.594686
 20
793.446358
 42
-0.029769
  0
VERTEX
  8
0
 10
624.512995
 20
793.033680
 42
-0.042152
  0
VERTEX
  8
0
 10
627.655514
 20
792.235587
 42
-0.025493
  0
SEQEND
  0
POLYLINE
  8
0
 66
1
 70
1
  0
VERTEX
  8
0
 10
457.864910
 20
753.962888
 42
0.000114
  0
VERTEX
  8
0
 10
458.495805
 20
746.063207
 42
0.000027
  0
VERTEX
  8
0
 10
459.552411
 20
732.879723
 42
0.000028
  0
VERTEX
  8
0
 10
460.768573
 20
717.726181
 42
0.000027
  0
VERTEX
  8
0
 10
461.992248
 20
702.500000
 42
-0.000613
  0
VERTEX
  8
0
 10
464.387364
 20
672.254214
 42
-0.000166
  0
VERTEX
  8
0
 10
468.101571
 20
624.403693
 42
-0.000154
  0
VERTEX
  8
0
 10
471.755823
 20
576.931657
 42
-0.000820
  0
VERTEX
  8
0
 10
473.701713
 20
550.992693
 42
0.000000
  0
VERTEX
  8
0
 10
474.252517
 20
543.485386
 42
0.000000
  0
VERTEX
  8
0
 10
451.455103
 20
540.747181
 42
-0.001151
  0
VERTEX
  8
0
 10
442.695972
 20
539.715575
 42
-0.001893
  0
VERTEX
  8
0
 10
435.279867
 20
538.887888
 42
-0.000184
  0
VERTEX
  8
0
 10
428.650213
 20
538.175834
 42
-0.226778
  0
VERTEX
  8
0
 10
428.403858
 20
538.262809
 42
-0.187243
  0
VERTEX
  8
0
 10
428.295081
 20
538.509567
 42
-0.000175
  0
VERTEX
  8
0
 10
428.011358
 20
544.859939
 42
-0.001721
  0
VERTEX
  8
0
 10
427.720714
 20
551.969728
 42
-0.001051
  0
VERTEX
  8
0
 10
427.424134
 20
560.364678
 42
0.000000
  0
VERTEX
  8
0
 10
426.698242
 20
582.212716
 42
0.000000
  0
VERTEX
  8
0
 10
423.099121
 20
581.606744
 42
-0.006223
  0
VERTEX
  8
0
 10
420.711993
 20
581.235321
 42
-0.000428
  0
VERTEX
  8
0
 10
413.947867
 20
580.274833
 42
-0.000610
  0
VERTEX
  8
0
 10
405.880334
 20
579.146350
 42
-0.000458
  0
VERTEX
  8
0
 10
397.000000
 20
577.923521
 42
0.002361
  0
VERTEX
  8
0
 10
388.325277
 20
576.695348
 42
0.003741
  0
VERTEX
  8
0
 10
380.906598
 20
575.552479
 42
0.000941
  0
VERTEX
  8
0
 10
374.446170
 20
574.495205
 42
0.153362
  0
VERTEX
  8
0
 10
373.809694
 20
574.173135
 42
0.111168
  0
VERTEX
  8
0
 10
373.413678
 20
573.564132
 42
0.000796
  0
VERTEX
  8
0
 10
371.287695
 20
567.803446
 42
0.002993
  0
VERTEX
  8
0
 10
368.898124
 20
561.174302
 42
0.001906
  0
VERTEX
  8
0
 10
366.193534
 20
553.434342
 42
-0.001576
  0
VERTEX
  8
0
 10
363.462152
 20
545.601073
 42
-0.002257
  0
VERTEX
  8
0
 10
360.987247
 20
538.674569
 42
-0.001216
  0
VERTEX
  8
0
 10
358.852838
 20
532.829435
 42
-0.034726
  0
VERTEX
  8
0
 10
358.195670
 20
531.365613
 42
-0.184414
  0
VERTEX
  8
0
 10
356.796257
 20
530.151368
 42
-0.036999
  0
VERTEX
  8
0
 10
353.563037
 20
529.235710
 42
-0.017416
  0
VERTEX
  8
0
 10
347.724997
 20
528.250493
 42
-0.002170
  0
VERTEX
  8
0
 10
334.967984
 20
526.608451
 42
-0.002072
  0
VERTEX
  8
0
 10
326.441899
 20
525.584458
 42
-0.003366
  0
VERTEX
  8
0
 10
319.190463
 20
524.793448
 42
-0.000578
  0
VERTEX
  8
0
 10
312.791627
 20
524.146469
 42
-0.224935
  0
VERTEX
  8
0
 10
312.369500
 20
524.297167
 42
-0.263870
  0
VERTEX
  8
0
 10
312.268271
 20
524.663762
 42
-0.008610
  0
VERTEX
  8
0
 10
312.680544
 20
526.190279
 42
-0.014442
  0
VERTEX
  8
0
 10
313.268327
 20
528.025964
 42
-0.009292
  0
VERTEX
  8
0
 10
314.050188
 20
530.119987
 42
0.004180
  0
VERTEX
  8
0
 10
318.383615
 20
541.373591
 42
0.000054
  0
VERTEX
  8
0
 10
345.122337
 20
612.604886
 42
0.000180
  0
VERTEX
  8
0
 10
371.486011
 20
682.936988
 42
0.000327
  0
VERTEX
  8
0
 10
392.996712
 20
740.500000
 42
-0.001232
  0
VERTEX
  8
0
 10
398.739252
 20
755.782676
 42
-0.012793
  0
VERTEX
  8
0
 10
401.277253
 20
762.001522
 42
-0.026271
  0
VERTEX
  8
0
 10
402.924138
 20
765.279302
 42
-0.257210
  0
VERTEX
  8
0
 10
404.198973
 20
766.059443
 42
0.019145
  0
VERTEX
  8
0
 10
405.191755
 20
766.142976
 42
0.000180
  0
VERTEX
  8
0
 10
412.461573
 20
767.038651
 42
0.000606
  0
VERTEX
  8
0
 10
420.824034
 20
768.082280
 42
0.000392
  0
VERTEX
  8
0
 10
430.500000
 20
769.309443
 42
-0.001066
  0
VERTEX
  8
0
 10
447.098170
 20
771.391772
 42
-0.019416
  0
VERTEX
  8
0
 10
452.412932
 20
771.838421
 42
-0.075139
  0
VERTEX
  8
0
 10
454.960721
 20
771.569963
 42
-0.262388
  0
VERTEX
  8
0
 10
456.106582
 20
770.462888
 42
-0.043274
  0
VERTEX
  8
0
 10
456.393697
 20
769.067382
 42
-0.002563
  0
VERTEX
  8
0
 10
456.873306
 20
764.775704
 42
-0.003848
  0
VERTEX
  8
0
 10
457.379542
 20
759.651256
 42
-0.002827
  0
SEQEND
  0
POLYLINE
  8
0
 66
1
 70
1
  0
VERTEX
  8
0
 10
273.318610
 20
734.750000
 42
-0.001317
  0
VERTEX
  8
0
 10
268.918944
 20
708.731631
 42
-0.000142
  0
VERTEX
  8
0
 10
258.559719
 20
648.538907
 42
-0.000087
  0
VERTEX
  8
0
 10
247.779491
 20
586.071202
 42
-0.002707
  0
VERTEX
  8
0
 10
245.016750
 20
570.579263
 42
0.002892
  0
VERTEX
  8
0
 10
244.267934
 20
566.371339
 42
0.004668
  0
VERTEX
  8
0
 10
243.684709
 20
562.779953
 42
0.001061
  0
VERTEX
  8
0
 10
243.211627
 20
559.639809
 42
0.237523
  0
VERTEX
  8
0
 10
243.302746
 20
559.363921
 42
0.229051
  0
VERTEX
  8
0
 10
243.589614
 20
559.264035
 42
0.000128
  0
VERTEX
  8
0
 10
252.853656
 20
560.339053
 42
0.001585
  0
VERTEX
  8
0
 10
263.186712
 20
561.574028
 42
0.000962
  0
VERTEX
  8
0
 10
275.402778
 20
563.097222
 42
-0.001173
  0
VERTEX
  8
0
 10
287.623289
 20
564.615739
 42
-0.001928
  0
VERTEX
  8
0
 10
297.970871
 20
565.836421
 42
-0.000190
  0
VERTEX
  8
0
 10
307.219030
 20
566.887720
 42
-0.228404
  0
VERTEX
  8
0
 10
307.567390
 20
566.765943
 42
-0.245837
  0
VERTEX
  8
0
 10
307.962856
 20
565.502232
 42
-0.000500
  0
VERTEX
  8
0
 10
304.124191
 20
544.386274
 42
-0.000461
  0
VERTEX
  8
0
 10
300.235655
 20
523.226975
 42
-0.282801
  0
VERTEX
  8
0
 10
299.447808
 20
522.353456
 42
-0.039370
  0
VERTEX
  8
0
 10
298.696487
 20
522.195665
 42
-0.000219
  0
VERTEX
  8
0
 10
291.434669
 20
521.261978
 42
-0.000945
  0
VERTEX
  8
0
 10
283.151336
 20
520.216544
 42
-0.000600
  0
VERTEX
  8
0
 10
273.500000
 20
519.028752
 42
0.000692
  0
VERTEX
  8
0
 10
261.959052
 20
517.606255
 42
0.000378
  0
VERTEX
  8
0
 10
247.810292
 20
515.831573
 42
0.000377
  0
VERTEX
  8
0
 10
233.438841
 20
514.006907
 42
0.000601
  0
VERTEX
  8
0
 10
221.152058
 20
512.422507
 42
-0.001669
  0
VERTEX
  8
0
 10
210.635295
 20
511.089186
 42
-0.002726
  0
VERTEX
  8
0
 10
201.708762
 20
510.037100
 42
-0.000378
  0
VERTEX
  8
0
 10
193.786828
 20
509.153232
 42
-0.227759
  0
VERTEX
  8
0
 10
193.365607
 20
509.301060
 42
-0.241640
  0
VERTEX
  8
0
 10
193.229798
 20
509.723274
 42
-0.000254
  0
VERTEX
  8
0
 10
194.853005
 20
519.563070
 42
-0.002276
  0
VERTEX
  8
0
 10
196.730791
 20
530.598135
 42
-0.001386
  0
VERTEX
  8
0
 10
199.044868
 20
543.619784
 42
0.000172
  0
VERTEX
  8
0
 10
201.881011
 20
559.357288
 42
0.000091
  0
VERTEX
  8
0
 10
205.384578
 20
578.857062
 42
0.000091
  0
VERTEX
  8
0
 10
208.959389
 20
598.795056
 42
0.000141
  0
VERTEX
  8
0
 10
212.035947
 20
616.000000
 42
-0.000560
  0
VERTEX
  8
0
 10
215.065197
 20
632.858817
 42
-0.000401
  0
VERTEX
  8
0
 10
218.489734
 20
651.709375
 42
-0.000405
  0
VERTEX
  8
0
 10
221.781354
 20
669.663812
 42
-0.000869
  0
VERTEX
  8
0
 10
224.354408
 20
683.500000
 42
0.000474
  0
VERTEX
  8
0
 10
226.643275
 20
695.754138
 42
0.000412
  0
VERTEX
  8
0
 10
229.017900
 20
708.593427
 42
0.000415
  0
VERTEX
  8
0
 10
231.147132
 20
720.213337
 42
0.001225
  0
VERTEX
  8
0
 10
232.583741
 20
728.201028
 42
0.000000
  0
VERTEX
  8
0
 10
235.367921
 20
743.902056
 42
0.000000
  0
VERTEX
  8
0
 10
240.933961
 20
744.585249
 42
0.002926
  0
VERTEX
  8
0
 10
243.860426
 20
744.961850
 42
0.000839
  0
VERTEX
  8
0
 10
248.389976
 20
745.579455
 42
0.000844
  0
VERTEX
  8
0
 10
253.497510
 20
746.293386
 42
0.000897
  0
VERTEX
  8
0
 10
258.500000
 20
747.010402
 42
-0.001894
  0
VERTEX
  8
0
 10
263.284968
 20
747.686508
 42
-0.002358
  0
VERTEX
  8
0
 10
267.737233
 20
748.277033
 42
-0.001914
  0
VERTEX
  8
0
 10
271.478599
 20
748.740770
 42
-0.017954
  0
VERTEX
  8
0
 10
273.094835
 20
748.876181
 42
0.000000
  0
VERTEX
  8
0
 10
275.689671
 20
749.000000
 42
0.000000
  0
SEQEND
  0
POLYLINE
  8
0
 66
1
 70
1
  0
VERTEX
  8
0
 10
846.812500
 20
869.316886
 42
0.051402
  0
VERTEX
  8
0
 10
847.359369
 20
869.160852
 42
0.054150
  0
VERTEX
  8
0
 10
847.916927
 20
869.123424
 42
0.060344
  0
VERTEX
  8
0
 10
848.402231
 20
869.202593
 42
0.126455
  0
VERTEX
  8
0
 10
848.729167
 20
869.395833
 42
0.296942
  0
VERTEX
  8
0
 10
848.775380
 20
869.614691
 42
0.208169
  0
VERTEX
  8
0
 10
848.592839
 20
869.799335
 42
0.077125
  0
VERTEX
  8
0
 10
848.112848
 20
869.910055
 42
0.028489
  0
VERTEX
  8
0
 10
847.416667
 20
869.921053
 42
0.018894
  0
VERTEX
  8
0
 10
846.670344
 20
869.862007
 42
0.168741
  0
VERTEX
  8
0
 10
846.378580
 20
869.720685
 42
0.470617
  0
VERTEX
  8
0
 10
846.395823
 20
869.538436
 42
0.054073
  0
SEQEND
  0
POLYLINE
  8
0
 66
1
 70
1
  0
VERTEX
  8
0
 10
838.750000
 20
868.337719
 42
0.057986
  0
VERTEX
  8
0
 10
839.320008
 20
868.181385
 42
0.037979
  0
VERTEX
  8
0
 10
840.000000
 20
868.129660
 42
0.037979
  0
VERTEX
  8
0
 10
840.679992
 20
868.181385
 42
0.057986
  0
VERTEX
  8
0
 10
841.250000
 20
868.337719
 42
0.174857
  0
VERTEX
  8
0
 10
841.459382
 20
868.525001
 42
0.447206
  0
VERTEX
  8
0
 10
841.398438
 20
868.693942
 42
0.078554
  0
VERTEX
  8
0
 10
840.891440
 20
868.810911
 42
0.017491
  0
VERTEX
  8
0
 10
840.000000
 20
868.842105
 42
0.017491
  0
VERTEX
  8
0
 10
839.108560
 20
868.810911
 42
0.078554
  0
VERTEX
  8
0
 10
838.601562
 20
868.693942
 42
0.447206
  0
VERTEX
  8
0
 10
838.540618
 20
868.525001
 42
0.174857
  0
SEQEND
  0
POLYLINE
  8
0
 66
1
 70
1
  0
VERTEX
  8
0
 10
697.812500
 20
849.316886
 42
0.051402
  0
VERTEX
  8
0
 10
698.359369
 20
849.160852
 42
0.054150
  0
VERTEX
  8
0
 10
698.916927
 20
849.123424
 42
0.060344
  0
VERTEX
  8
0
 10
699.402231
 20
849.202593
 42
0.126455
  0
VERTEX
  8
0
 10
699.729167
 20
849.395833
 42
0.296942
  0
VERTEX
  8
0
 10
699.775380
 20
849.614691
 42
0.208169
  0
VERTEX
  8
0
 10
699.592839
 20
849.799335
 42
0.077125
  0
VERTEX
  8
0
 10
699.112848
 20
849.910055
 42
0.028489
  0
VERTEX
  8
0
 10
698.416667
 20
849.921053
 42
0.018894
  0
VERTEX
  8
0
 10
697.670344
 20
849.862007
 42
0.168741
  0
VERTEX
  8
0
 10
697.378580
 20
849.720685
 42
0.470617
  0
VERTEX
  8
0
 10
697.395823
 20
849.538436
 42
0.054073
  0
SEQEND
  0
POLYLINE
  8
0
 66
1
 70
1
  0
VERTEX
  8
0
 10
630.812500
 20
840.316886
 42
0.051402
  0
VERTEX
  8
0
 10
631.359369
 20
840.160852
 42
0.054150
  0
VERTEX
  8
0
 10
631.916927
 20
840.123424
 42
0.060344
  0
VERTEX
  8
0
 10
632.402231
 20
840.202593
 42
0.126455
  0
VERTEX
  8
0
 10
632.729167
 20
840.395833
 42
0.296942
  0
VERTEX
  8
0
 10
632.775380
 20
840.614691
 42
0.208169
  0
VERTEX
  8
0
 10
632.592839
 20
840.799335
 42
0.077125
  0
VERTEX
  8
0
 10
632.112848
 20
840.910055
 42
0.028489
  0
VERTEX
  8
0
 10
631.416667
 20
840.921053
 42
0.018894
  0
VERTEX
  8
0
 10
630.670344
 20
840.862007
 42
0.168741
  0
VERTEX
  8
0
 10
630.378580
 20
840.720685
 42
0.470617
  0
VERTEX
  8
0
 10
630.395823
 20
840.538436
 42
0.054073
  0
SEQEND
  0
POLYLINE
  8
0
 66
1
 70
1
  0
VERTEX
  8
0
 10
613.812500
 20
838.316886
 42
0.051402
  0
VERTEX
  8
0
 10
614.359369
 20
838.160852
 42
0.054150
  0
VERTEX
  8
0
 10
614.916927
 20
838.123424
 42
0.060344
  0
VERTEX
  8
0
 10
615.402231
 20
838.202593
 42
0.126455
  0
VERTEX
  8
0
 10
615.729167
 20
838.395833
 42
0.296942
  0
VERTEX
  8
0
 10
615.775380
 20
838.614691
 42
0.208169
  0
VERTEX
  8
0
 10
615.592839
 20
838.799335
 42
0.077125
  0
VERTEX
  8
0
 10
615.112848
 20
838.910055
 42
0.028489
  0
VERTEX
  8
0
 10
614.416667
 20
838.921053
 42
0.018894
  0
VERTEX
  8
0
 10
613.670344
 20
838.862007
 42
0.168741
  0
VERTEX
  8
0
 10
613.378580
 20
838.720685
 42
0.470617
  0
VERTEX
  8
0
 10
613.395823
 20
838.538436
 42
0.054073
  0
SEQEND
  0
POLYLINE
  8
0
 66
1
 70
1
  0
VERTEX
  8
0
 10
896.078947
 20
836.416667
 42
0.018894
  0
VERTEX
  8
0
 10
896.137993
 20
835.670344
 42
0.168741
  0
VERTEX
  8
0
 10
896.279315
 20
835.378580
 42
0.470617
  0
VERTEX
  8
0
 10
896.461564
 20
835.395823
 42
0.054073
  0
VERTEX
  8
0
 10
896.683114
 20
835.812500
 42
0.051402
  0
VERTEX
  8
0
 10
896.839148
 20
836.359369
 42
0.054150
  0
VERTEX
  8
0
 10
896.876576
 20
836.916927
 42
0.060344
  0
VERTEX
  8
0
 10
896.797407
 20
837.402231
 42
0.126455
  0
VERTEX
  8
0
 10
896.604167
 20
837.729167
 42
0.296942
  0
VERTEX
  8
0
 10
896.385309
 20
837.775380
 42
0.208169
  0
VERTEX
  8
0
 10
896.200665
 20
837.592839
 42
0.077125
  0
VERTEX
  8
0
 10
896.089945
 20
837.112848
 42
0.028489
  0
SEQEND
  0
POLYLINE
  8
0
 66
1
 70
1
  0
VERTEX
  8
0
 10
589.750000
 20
835.337719
 42
0.057986
  0
VERTEX
  8
0
 10
590.320008
 20
835.181385
 42
0.037979
  0
VERTEX
  8
0
 10
591.000000
 20
835.129660
 42
0.037979
  0
VERTEX
  8
0
 10
591.679992
 20
835.181385
 42
0.057986
  0
VERTEX
  8
0
 10
592.250000
 20
835.337719
 42
0.174857
  0
VERTEX
  8
0
 10
592.459382
 20
835.525001
 42
0.447206
  0
VERTEX
  8
0
 10
592.398438
 20
835.693942
 42
0.078554
  0
VERTEX
  8
0
 10
591.891440
 20
835.810911
 42
0.017491
  0
VERTEX
  8
0
 10
591.000000
 20
835.842105
 42
0.017491
  0
VERTEX
  8
0
 10
590.108560
 20
835.810911
 42
0.078554
  0
VERTEX
  8
0
 10
589.601562
 20
835.693942
 42
0.447206
  0
VERTEX
  8
0
 10
589.540618
 20
835.525001
 42
0.174857
  0
SEQEND
  0
POLYLINE
  8
0
 66
1
 70
1
  0
VERTEX
  8
0
 10
514.812500
 20
825.316886
 42
0.051402
  0
VERTEX
  8
0
 10
515.359369
 20
825.160852
 42
0.054150
  0
VERTEX
  8
0
 10
515.916927
 20
825.123424
 42
0.060344
  0
VERTEX
  8
0
 10
516.402231
 20
825.202593
 42
0.126455
  0
VERTEX
  8
0
 10
516.729167
 20
825.395833
 42
0.296942
  0
VERTEX
  8
0
 10
516.775380
 20
825.614691
 42
0.208169
  0
VERTEX
  8
0
 10
516.592839
 20
825.799335
 42
0.077125
  0
VERTEX
  8
0
 10
516.112848
 20
825.910055
 42
0.028489
  0
VERTEX
  8
0
 10
515.416667
 20
825.921053
 42
0.018894
  0
VERTEX
  8
0
 10
514.670344
 20
825.862007
 42
0.168741
  0
VERTEX
  8
0
 10
514.378580
 20
825.720685
 42
0.470617
  0
VERTEX
  8
0
 10
514.395823
 20
825.538436
 42
0.054073
  0
SEQEND
  0
POLYLINE
  8
0
 66
1
 70
1
  0
VERTEX
  8
0
 10
486.812500
 20
821.316886
 42
0.051402
  0
VERTEX
  8
0
 10
487.359369
 20
821.160852
 42
0.054150
  0
VERTEX
  8
0
 10
487.916927
 20
821.123424
 42
0.060344
  0
VERTEX
  8
0
 10
488.402231
 20
821.202593
 42
0.126455
  0
VERTEX
  8
0
 10
488.729167
 20
821.395833
 42
0.296942
  0
VERTEX
  8
0
 10
488.775380
 20
821.614691
 42
0.208169
  0
VERTEX
  8
0
 10
488.592839
 20
821.799335
 42
0.077125
  0
VERTEX
  8
0
 10
488.112848
 20
821.910055
 42
0.028489
  0
VERTEX
  8
0
 10
487.416667
 20
821.921053
 42
0.018894
  0
VERTEX
  8
0
 10
486.670344
 20
821.862007
 42
0.168741
  0
VERTEX
  8
0
 10
486.378580
 20
821.720685
 42
0.470617
  0
VERTEX
  8
0
 10
486.395823
 20
821.538436
 42
0.054073
  0
SEQEND
  0
POLYLINE
  8
0
 66
1
 70
1
  0
VERTEX
  8
0
 10
464.269032
 20
818.307009
 42
0.037336
  0
VERTEX
  8
0
 10
465.036634
 20
818.167106
 42
0.029507
  0
VERTEX
  8
0
 10
465.880008
 20
818.127736
 42
0.030339
  0
VERTEX
  8
0
 10
466.671085
 20
818.185595
 42
0.062780
  0
VERTEX
  8
0
 10
467.269032
 20
818.344063
 42
0.313180
  0
VERTEX
  8
0
 10
467.386009
 20
818.522870
 42
0.333666
  0
VERTEX
  8
0
 10
467.257153
 20
818.684921
 42
0.052471
  0
VERTEX
  8
0
 10
466.580113
 20
818.787295
 42
0.014395
  0
VERTEX
  8
0
 10
465.500000
 20
818.805051
 42
0.012823
  0
VERTEX
  8
0
 10
464.431793
 20
818.764444
 42
0.080377
  0
VERTEX
  8
0
 10
463.900903
 20
818.643467
 42
0.597527
  0
VERTEX
  8
0
 10
463.883358
 20
818.483340
 42
0.087174
  0
SEQEND
  0
POLYLINE
  8
0
 66
1
 70
1
  0
VERTEX
  8
0
 10
360.812500
 20
804.316886
 42
0.051402
  0
VERTEX
  8
0
 10
361.359369
 20
804.160852
 42
0.054150
  0
VERTEX
  8
0
 10
361.916927
 20
804.123424
 42
0.060344
  0
VERTEX
  8
0
 10
362.402231
 20
804.202593
 42
0.126455
  0
VERTEX
  8
0
 10
362.729167
 20
804.395833
 42
0.296942
  0
VERTEX
  8
0
 10
362.775380
 20
804.614691
 42
0.208169
  0
VERTEX
  8
0
 10
362.592839
 20
804.799335
 42
0.077125
  0
VERTEX
  8
0
 10
362.112848
 20
804.910055
 42
0.028489
  0
VERTEX
  8
0
 10
361.416667
 20
804.921053
 42
0.018894
  0
VERTEX
  8
0
 10
360.670344
 20
804.862007
 42
0.168741
  0
VERTEX
  8
0
 10
360.378580
 20
804.720685
 42
0.470617
  0
VERTEX
  8
0
 10
360.395823
 20
804.538436
 42
0.054073
  0
SEQEND
  0
POLYLINE
  8
0
 66
1
 70
1
  0
VERTEX
  8
0
 10
352.750000
 20
803.337719
 42
0.057986
  0
VERTEX
  8
0
 10
353.320008
 20
803.181385
 42
0.037979
  0
VERTEX
  8
0
 10
354.000000
 20
803.129660
 42
0.037979
  0
VERTEX
  8
0
 10
354.679992
 20
803.181385
 42
0.057986
  0
VERTEX
  8
0
 10
355.250000
 20
803.337719
 42
0.174857
  0
VERTEX
  8
0
 10
355.459382
 20
803.525001
 42
0.447206
  0
VERTEX
  8
0
 10
355.398438
 20
803.693942
 42
0.078554
  0
VERTEX
  8
0
 10
354.891440
 20
803.810911
 42
0.017491
  0
VERTEX
  8
0
 10
354.000000
 20
803.842105
 42
0.017491
  0
VERTEX
  8
0
 10
353.108560
 20
803.810911
 42
0.078554
  0
VERTEX
  8
0
 10
352.601562
 20
803.693942
 42
0.447206
  0
VERTEX
  8
0
 10
352.540618
 20
803.525001
 42
0.174857
  0
SEQEND
  0
POLYLINE
  8
0
 66
1
 70
1
  0
VERTEX
  8
0
 10
337.812500
 20
801.316886
 42
0.051402
  0
VERTEX
  8
0
 10
338.359369
 20
801.160852
 42
0.054150
  0
VERTEX
  8
0
 10
338.916927
 20
801.123424
 42
0.060344
  0
VERTEX
  8
0
 10
339.402231
 20
801.202593
 42
0.126455
  0
VERTEX
  8
0
 10
339.729167
 20
801.395833
 42
0.296942
  0
VERTEX
  8
0
 10
339.775380
 20
801.614691
 42
0.208169
  0
VERTEX
  8
0
 10
339.592839
 20
801.799335
 42
0.077125
  0
VERTEX
  8
0
 10
339.112848
 20
801.910055
 42
0.028489
  0
VERTEX
  8
0
 10
338.416667
 20
801.921053
 42
0.018894
  0
VERTEX
  8
0
 10
337.670344
 20
801.862007
 42
0.168741
  0
VERTEX
  8
0
 10
337.378580
 20
801.720685
 42
0.470617
  0
VERTEX
  8
0
 10
337.395823
 20
801.538436
 42
0.054073
  0
SEQEND
  0
POLYLINE
  8
0
 66
1
 70
1
  0
VERTEX
  8
0
 10
309.812500
 20
797.316886
 42
0.051402
  0
VERTEX
  8
0
 10
310.359369
 20
797.160852
 42
0.054150
  0
VERTEX
  8
0
 10
310.916927
 20
797.123424
 42
0.060344
  0
VERTEX
  8
0
 10
311.402231
 20
797.202593
 42
0.126455
  0
VERTEX
  8
0
 10
311.729167
 20
797.395833
 42
0.296942
  0
VERTEX
  8
0
 10
311.775380
 20
797.614691
 42
0.208169
  0
VERTEX
  8
0
 10
311.592839
 20
797.799335
 42
0.077125
  0
VERTEX
  8
0
 10
311.112848
 20
797.910055
 42
0.028489
  0
VERTEX
  8
0
 10
310.416667
 20
797.921053
 42
0.018894
  0
VERTEX
  8
0
 10
309.670344
 20
797.862007
 42
0.168741
  0
VERTEX
  8
0
 10
309.378580
 20
797.720685
 42
0.470617
  0
VERTEX
  8
0
 10
309.395823
 20
797.538436
 42
0.054073
  0
SEQEND
  0
POLYLINE
  8
0
 66
1
 70
1
  0
VERTEX
  8
0
 10
281.269032
 20
793.307009
 42
0.037336
  0
VERTEX
  8
0
 10
282.036634
 20
793.167106
 42
0.029507
  0
VERTEX
  8
0
 10
282.880008
 20
793.127736
 42
0.030339
  0
VERTEX
  8
0
 10
283.671085
 20
793.185595
 42
0.062780
  0
VERTEX
  8
0
 10
284.269032
 20
793.344063
 42
0.313180
  0
VERTEX
  8
0
 10
284.386009
 20
793.522870
 42
0.333666
  0
VERTEX
  8
0
 10
284.257153
 20
793.684921
 42
0.052471
  0
VERTEX
  8
0
 10
283.580113
 20
793.787295
 42
0.014395
  0
VERTEX
  8
0
 10
282.500000
 20
793.805051
 42
0.012823
  0
VERTEX
  8
0
 10
281.431793
 20
793.764444
 42
0.080377
  0
VERTEX
  8
0
 10
280.900903
 20
793.643467
 42
0.597527
  0
VERTEX
  8
0
 10
280.883358
 20
793.483340
 42
0.087174
  0
SEQEND
  0
POLYLINE
  8
0
 66
1
 70
1
  0
VERTEX
  8
0
 10
888.078947
 20
787.416667
 42
0.018894
  0
VERTEX
  8
0
 10
888.137993
 20
786.670344
 42
0.168741
  0
VERTEX
  8
0
 10
888.279315
 20
786.378580
 42
0.470617
  0
VERTEX
  8
0
 10
888.461564
 20
786.395823
 42
0.054073
  0
VERTEX
  8
0
 10
888.683114
 20
786.812500
 42
0.051402
  0
VERTEX
  8
0
 10
888.839148
 20
787.359369
 42
0.054150
  0
VERTEX
  8
0
 10
888.876576
 20
787.916927
 42
0.060344
  0
VERTEX
  8
0
 10
888.797407
 20
788.402231
 42
0.126455
  0
VERTEX
  8
0
 10
888.604167
 20
788.729167
 42
0.296942
  0
VERTEX
  8
0
 10
888.385309
 20
788.775380
 42
0.208169
  0
VERTEX
  8
0
 10
888.200665
 20
788.592839
 42
0.077125
  0
VERTEX
  8
0
 10
888.089945
 20
788.112848
 42
0.028489
  0
SEQEND
  0
POLYLINE
  8
0
 66
1
 70
1
  0
VERTEX
  8
0
 10
196.078947
 20
768.416667
 42
0.018894
  0
VERTEX
  8
0
 10
196.137993
 20
767.670344
 42
0.168741
  0
VERTEX
  8
0
 10
196.279315
 20
767.378580
 42
0.470617
  0
VERTEX
  8
0
 10
196.461564
 20
767.395823
 42
0.054073
  0
VERTEX
  8
0
 10
196.683114
 20
767.812500
 42
0.051402
  0
VERTEX
  8
0
 10
196.839148
 20
768.359369
 42
0.054150
  0
VERTEX
  8
0
 10
196.876576
 20
768.916927
 42
0.060344
  0
VERTEX
  8
0
 10
196.797407
 20
769.402231
 42
0.126455
  0
VERTEX
  8
0
 10
196.604167
 20
769.729167
 42
0.296942
  0
VERTEX
  8
0
 10
196.385309
 20
769.775380
 42
0.208169
  0
VERTEX
  8
0
 10
196.200665
 20
769.592839
 42
0.077125
  0
VERTEX
  8
0
 10
196.089945
 20
769.112848
 42
0.028489
  0
SEQEND
  0
POLYLINE
  8
0
 66
1
 70
1
  0
VERTEX
  8
0
 10
880.078947
 20
738.416667
 42
0.018894
  0
VERTEX
  8
0
 10
880.137993
 20
737.670344
 42
0.168741
  0
VERTEX
  8
0
 10
880.279315
 20
737.378580
 42
0.470617
  0
VERTEX
  8
0
 10
880.461564
 20
737.395823
 42
0.054073
  0
VERTEX
  8
0
 10
880.683114
 20
737.812500
 42
0.051402
  0
VERTEX
  8
0
 10
880.839148
 20
738.359369
 42
0.054150
  0
VERTEX
  8
0
 10
880.876576
 20
738.916927
 42
0.060344
  0
VERTEX
  8
0
 10
880.797407
 20
739.402231
 42
0.126455
  0
VERTEX
  8
0
 10
880.604167
 20
739.729167
 42
0.296942
  0
VERTEX
  8
0
 10
880.385309
 20
739.775380
 42
0.208169
  0
VERTEX
  8
0
 10
880.200665
 20
739.592839
 42
0.077125
  0
VERTEX
  8
0
 10
880.089945
 20
739.112848
 42
0.028489
  0
SEQEND
  0
POLYLINE
  8
0
 66
1
 70
1
  0
VERTEX
  8
0
 10
180.078947
 20
677.416667
 42
0.018894
  0
VERTEX
  8
0
 10
180.137993
 20
676.670344
 42
0.168741
  0
VERTEX
  8
0
 10
180.279315
 20
676.378580
 42
0.470617
  0
VERTEX
  8
0
 10
180.461564
 20
676.395823
 42
0.054073
  0
VERTEX
  8
0
 10
180.683114
 20
676.812500
 42
0.051402
  0
VERTEX
  8
0
 10
180.839148
 20
677.359369
 42
0.054150
  0
VERTEX
  8
0
 10
180.876576
 20
677.916927
 42
0.060344
  0
VERTEX
  8
0
 10
180.797407
 20
678.402231
 42
0.126455
  0
VERTEX
  8
0
 10
180.604167
 20
678.729167
 42
0.296942
  0
VERTEX
  8
0
 10
180.385309
 20
678.775380
 42
0.208169
  0
VERTEX
  8
0
 10
180.200665
 20
678.592839
 42
0.077125
  0
VERTEX
  8
0
 10
180.089945
 20
678.112848
 42
0.028489
  0
SEQEND
  0
POLYLINE
  8
0
 66
1
 70
1
  0
VERTEX
  8
0
 10
176.078947
 20
652.416667
 42
0.018894
  0
VERTEX
  8
0
 10
176.137993
 20
651.670344
 42
0.168741
  0
VERTEX
  8
0
 10
176.279315
 20
651.378580
 42
0.470617
  0
VERTEX
  8
0
 10
176.461564
 20
651.395823
 42
0.054073
  0
VERTEX
  8
0
 10
176.683114
 20
651.812500
 42
0.051402
  0
VERTEX
  8
0
 10
176.839148
 20
652.359369
 42
0.054150
  0
VERTEX
  8
0
 10
176.876576
 20
652.916927
 42
0.060344
  0
VERTEX
  8
0
 10
176.797407
 20
653.402231
 42
0.126455
  0
VERTEX
  8
0
 10
176.604167
 20
653.729167
 42
0.296942
  0
VERTEX
  8
0
 10
176.385309
 20
653.775380
 42
0.208169
  0
VERTEX
  8
0
 10
176.200665
 20
653.592839
 42
0.077125
  0
VERTEX
  8
0
 10
176.089945
 20
653.112848
 42
0.028489
  0
SEQEND
  0
POLYLINE
  8
0
 66
1
 70
1
  0
VERTEX
  8
0
 10
864.194949
 20
639.500000
 42
0.012823
  0
VERTEX
  8
0
 10
864.235556
 20
638.431793
 42
0.080377
  0
VERTEX
  8
0
 10
864.356533
 20
637.900903
 42
0.597527
  0
VERTEX
  8
0
 10
864.516660
 20
637.883358
 42
0.087174
  0
VERTEX
  8
0
 10
864.692991
 20
638.269032
 42
0.037336
  0
VERTEX
  8
0
 10
864.832894
 20
639.036634
 42
0.029507
  0
VERTEX
  8
0
 10
864.872264
 20
639.880008
 42
0.030339
  0
VERTEX
  8
0
 10
864.814405
 20
640.671085
 42
0.062780
  0
VERTEX
  8
0
 10
864.655937
 20
641.269032
 42
0.313180
  0
VERTEX
  8
0
 10
864.477130
 20
641.386009
 42
0.333666
  0
VERTEX
  8
0
 10
864.315079
 20
641.257153
 42
0.052471
  0
VERTEX
  8
0
 10
864.212705
 20
640.580113
 42
0.014395
  0
SEQEND
  0
POLYLINE
  8
0
 66
1
 70
1
  0
VERTEX
  8
0
 10
164.078947
 20
581.416667
 42
0.018894
  0
VERTEX
  8
0
 10
164.137993
 20
580.670344
 42
0.168741
  0
VERTEX
  8
0
 10
164.279315
 20
580.378580
 42
0.470617
  0
VERTEX
  8
0
 10
164.461564
 20
580.395823
 42
0.054073
  0
VERTEX
  8
0
 10
164.683114
 20
580.812500
 42
0.051402
  0
VERTEX
  8
0
 10
164.839148
 20
581.359369
 42
0.054150
  0
VERTEX
  8
0
 10
164.876576
 20
581.916927
 42
0.060344
  0
VERTEX
  8
0
 10
164.797407
 20
582.402231
 42
0.126455
  0
VERTEX
  8
0
 10
164.604167
 20
582.729167
 42
0.296942
  0
VERTEX
  8
0
 10
164.385309
 20
582.775380
 42
0.208169
  0
VERTEX
  8
0
 10
164.200665
 20
582.592839
 42
0.077125
  0
VERTEX
  8
0
 10
164.089945
 20
582.112848
 42
0.028489
  0
SEQEND
  0
POLYLINE
  8
0
 66
1
 70
1
  0
VERTEX
  8
0
 10
851.157895
 20
562.000000
 42
0.017491
  0
VERTEX
  8
0
 10
851.189089
 20
561.108560
 42
0.078554
  0
VERTEX
  8
0
 10
851.306058
 20
560.601562
 42
0.447206
  0
VERTEX
  8
0
 10
851.474999
 20
560.540618
 42
0.174857
  0
VERTEX
  8
0
 10
851.662281
 20
560.750000
 42
0.057986
  0
VERTEX
  8
0
 10
851.818615
 20
561.320008
 42
0.037979
  0
VERTEX
  8
0
 10
851.870340
 20
562.000000
 42
0.037979
  0
VERTEX
  8
0
 10
851.818615
 20
562.679992
 42
0.057986
  0
VERTEX
  8
0
 10
851.662281
 20
563.250000
 42
0.174857
  0
VERTEX
  8
0
 10
851.474999
 20
563.459382
 42
0.447206
  0
VERTEX
  8
0
 10
851.306058
 20
563.398438
 42
0.078554
  0
VERTEX
  8
0
 10
851.189089
 20
562.891440
 42
0.017491
  0
SEQEND
  0
POLYLINE
  8
0
 66
1
 70
1
  0
VERTEX
  8
0
 10
828.812500
 20
539.316886
 42
0.051402
  0
VERTEX
  8
0
 10
829.359369
 20
539.160852
 42
0.054150
  0
VERTEX
  8
0
 10
829.916927
 20
539.123424
 42
0.060344
  0
VERTEX
  8
0
 10
830.402231
 20
539.202593
 42
0.126455
  0
VERTEX
  8
0
 10
830.729167
 20
539.395833
 42
0.296942
  0
VERTEX
  8
0
 10
830.775380
 20
539.614691
 42
0.208169
  0
VERTEX
  8
0
 10
830.592839
 20
539.799335
 42
0.077125
  0
VERTEX
  8
0
 10
830.112848
 20
539.910055
 42
0.028489
  0
VERTEX
  8
0
 10
829.416667
 20
539.921053
 42
0.018894
  0
VERTEX
  8
0
 10
828.670344
 20
539.862007
 42
0.168741
  0
VERTEX
  8
0
 10
828.378580
 20
539.720685
 42
0.470617
  0
VERTEX
  8
0
 10
828.395823
 20
539.538436
 42
0.054073
  0
SEQEND
  0
POLYLINE
  8
0
 66
1
 70
1
  0
VERTEX
  8
0
 10
780.750000
 20
533.337719
 42
0.057986
  0
VERTEX
  8
0
 10
781.320008
 20
533.181385
 42
0.037979
  0
VERTEX
  8
0
 10
782.000000
 20
533.129660
 42
0.037979
  0
VERTEX
  8
0
 10
782.679992
 20
533.181385
 42
0.057986
  0
VERTEX
  8
0
 10
783.250000
 20
533.337719
 42
0.174857
  0
VERTEX
  8
0
 10
783.459382
 20
533.525001
 42
0.447206
  0
VERTEX
  8
0
 10
783.398438
 20
533.693942
 42
0.078554
  0
VERTEX
  8
0
 10
782.891440
 20
533.810911
 42
0.017491
  0
VERTEX
  8
0
 10
782.000000
 20
533.842105
 42
0.017491
  0
VERTEX
  8
0
 10
781.108560
 20
533.810911
 42
0.078554
  0
VERTEX
  8
0
 10
780.601562
 20
533.693942
 42
0.447206
  0
VERTEX
  8
0
 10
780.540618
 20
533.525001
 42
0.174857
  0
SEQEND
  0
POLYLINE
  8
0
 66
1
 70
1
  0
VERTEX
  8
0
 10
741.269032
 20
528.307009
 42
0.037336
  0
VERTEX
  8
0
 10
742.036634
 20
528.167106
 42
0.029507
  0
VERTEX
  8
0
 10
742.880008
 20
528.127736
 42
0.030339
  0
VERTEX
  8
0
 10
743.671085
 20
528.185595
 42
0.062780
  0
VERTEX
  8
0
 10
744.269032
 20
528.344063
 42
0.313180
  0
VERTEX
  8
0
 10
744.386009
 20
528.522870
 42
0.333666
  0
VERTEX
  8
0
 10
744.257153
 20
528.684921
 42
0.052471
  0
VERTEX
  8
0
 10
743.580113
 20
528.787295
 42
0.014395
  0
VERTEX
  8
0
 10
742.500000
 20
528.805051
 42
0.012823
  0
VERTEX
  8
0
 10
741.431793
 20
528.764444
 42
0.080377
  0
VERTEX
  8
0
 10
740.900903
 20
528.643467
 42
0.597527
  0
VERTEX
  8
0
 10
740.883358
 20
528.483340
 42
0.087174
  0
SEQEND
  0
POLYLINE
  8
0
 66
1
 70
1
  0
VERTEX
  8
0
 10
154.078947
 20
523.416667
 42
0.018894
  0
VERTEX
  8
0
 10
154.137993
 20
522.670344
 42
0.168741
  0
VERTEX
  8
0
 10
154.279315
 20
522.378580
 42
0.470617
  0
VERTEX
  8
0
 10
154.461564
 20
522.395823
 42
0.054073
  0
VERTEX
  8
0
 10
154.683114
 20
522.812500
 42
0.051402
  0
VERTEX
  8
0
 10
154.839148
 20
523.359369
 42
0.054150
  0
VERTEX
  8
0
 10
154.876576
 20
523.916927
 42
0.060344
  0
VERTEX
  8
0
 10
154.797407
 20
524.402231
 42
0.126455
  0
VERTEX
  8
0
 10
154.604167
 20
524.729167
 42
0.296942
  0
VERTEX
  8
0
 10
154.385309
 20
524.775380
 42
0.208169
  0
VERTEX
  8
0
 10
154.200665
 20
524.592839
 42
0.077125
  0
VERTEX
  8
0
 10
154.089945
 20
524.112848
 42
0.028489
  0
SEQEND
  0
POLYLINE
  8
0
 66
1
 70
1
  0
VERTEX
  8
0
 10
702.750000
 20
523.337719
 42
0.057986
  0
VERTEX
  8
0
 10
703.320008
 20
523.181385
 42
0.037979
  0
VERTEX
  8
0
 10
704.000000
 20
523.129660
 42
0.037979
  0
VERTEX
  8
0
 10
704.679992
 20
523.181385
 42
0.057986
  0
VERTEX
  8
0
 10
705.250000
 20
523.337719
 42
0.174857
  0
VERTEX
  8
0
 10
705.459382
 20
523.525001
 42
0.447206
  0
VERTEX
  8
0
 10
705.398438
 20
523.693942
 42
0.078554
  0
VERTEX
  8
0
 10
704.891440
 20
523.810911
 42
0.017491
  0
VERTEX
  8
0
 10
704.000000
 20
523.842105
 42
0.017491
  0
VERTEX
  8
0
 10
703.108560
 20
523.810911
 42
0.078554
  0
VERTEX
  8
0
 10
702.601562
 20
523.693942
 42
0.447206
  0
VERTEX
  8
0
 10
702.540618
 20
523.525001
 42
0.174857
  0
SEQEND
  0
POLYLINE
  8
0
 66
1
 70
1
  0
VERTEX
  8
0
 10
674.812500
 20
519.316886
 42
0.051402
  0
VERTEX
  8
0
 10
675.359369
 20
519.160852
 42
0.054150
  0
VERTEX
  8
0
 10
675.916927
 20
519.123424
 42
0.060344
  0
VERTEX
  8
0
 10
676.402231
 20
519.202593
 42
0.126455
  0
VERTEX
  8
0
 10
676.729167
 20
519.395833
 42
0.296942
  0
VERTEX
  8
0
 10
676.775380
 20
519.614691
 42
0.208169
  0
VERTEX
  8
0
 10
676.592839
 20
519.799335
 42
0.077125
  0
VERTEX
  8
0
 10
676.112848
 20
519.910055
 42
0.028489
  0
VERTEX
  8
0
 10
675.416667
 20
519.921053
 42
0.018894
  0
VERTEX
  8
0
 10
674.670344
 20
519.862007
 42
0.168741
  0
VERTEX
  8
0
 10
674.378580
 20
519.720685
 42
0.470617
  0
VERTEX
  8
0
 10
674.395823
 20
519.538436
 42
0.054073
  0
SEQEND
  0
POLYLINE
  8
0
 66
1
 70
1
  0
VERTEX
  8
0
 10
632.812500
 20
514.316886
 42
0.051402
  0
VERTEX
  8
0
 10
633.359369
 20
514.160852
 42
0.054150
  0
VERTEX
  8
0
 10
633.916927
 20
514.123424
 42
0.060344
  0
VERTEX
  8
0
 10
634.402231
 20
514.202593
 42
0.126455
  0
VERTEX
  8
0
 10
634.729167
 20
514.395833
 42
0.296942
  0
VERTEX
  8
0
 10
634.775380
 20
514.614691
 42
0.208169
  0
VERTEX
  8
0
 10
634.592839
 20
514.799335
 42
0.077125
  0
VERTEX
  8
0
 10
634.112848
 20
514.910055
 42
0.028489
  0
VERTEX
  8
0
 10
633.416667
 20
514.921053
 42
0.018894
  0
VERTEX
  8
0
 10
632.670344
 20
514.862007
 42
0.168741
  0
VERTEX
  8
0
 10
632.378580
 20
514.720685
 42
0.470617
  0
VERTEX
  8
0
 10
632.395823
 20
514.538436
 42
0.054073
  0
SEQEND
  0
POLYLINE
  8
0
 66
1
 70
1
  0
VERTEX
  8
0
 10
609.750000
 20
511.337719
 42
0.057986
  0
VERTEX
  8
0
 10
610.320008
 20
511.181385
 42
0.037979
  0
VERTEX
  8
0
 10
611.000000
 20
511.129660
 42
0.037979
  0
VERTEX
  8
0
 10
611.679992
 20
511.181385
 42
0.057986
  0
VERTEX
  8
0
 10
612.250000
 20
511.337719
 42
0.174857
  0
VERTEX
  8
0
 10
612.459382
 20
511.525001
 42
0.447206
  0
VERTEX
  8
0
 10
612.398438
 20
511.693942
 42
0.078554
  0
VERTEX
  8
0
 10
611.891440
 20
511.810911
 42
0.017491
  0
VERTEX
  8
0
 10
611.000000
 20
511.842105
 42
0.017491
  0
VERTEX
  8
0
 10
610.108560
 20
511.810911
 42
0.078554
  0
VERTEX
  8
0
 10
609.601562
 20
511.693942
 42
0.447206
  0
VERTEX
  8
0
 10
609.540618
 20
511.525001
 42
0.174857
  0
SEQEND
  0
POLYLINE
  8
0
 66
1
 70
1
  0
VERTEX
  8
0
 10
815.500000
 20
508.836978
 42
0.001890
  0
VERTEX
  8
0
 10
811.721349
 20
508.332631
 42
0.000474
  0
VERTEX
  8
0
 10
805.562500
 20
507.480942
 42
0.000484
  0
VERTEX
  8
0
 10
798.521875
 20
506.493566
 42
0.000487
  0
VERTEX
  8
0
 10
791.500000
 20
505.494905
 42
-0.002591
  0
VERTEX
  8
0
 10
783.171950
 20
504.346196
 42
-0.001062
  0
VERTEX
  8
0
 10
771.856250
 20
502.869537
 42
-0.001050
  0
VERTEX
  8
0
 10
759.699142
 20
501.335273
 42
-0.001345
  0
VERTEX
  8
0
 10
748.500000
 20
499.976385
 42
0.001052
  0
VERTEX
  8
0
 10
726.502882
 20
497.320360
 42
0.000655
  0
VERTEX
  8
0
 10
700.721763
 20
494.118067
 42
0.000641
  0
VERTEX
  8
0
 10
673.986104
 20
490.726777
 42
0.000785
  0
VERTEX
  8
0
 10
649.000000
 20
487.484967
 42
-0.001439
  0
VERTEX
  8
0
 10
632.994889
 20
485.429683
 42
-0.000765
  0
VERTEX
  8
0
 10
613.164847
 20
482.972015
 42
-0.000688
  0
VERTEX
  8
0
 10
594.345835
 20
480.695149
 42
-0.003218
  0
VERTEX
  8
0
 10
583.500000
 20
479.468823
 42
0.003785
  0
VERTEX
  8
0
 10
579.671939
 20
479.031588
 42
0.000346
  0
VERTEX
  8
0
 10
570.156250
 20
477.865003
 42
0.000447
  0
VERTEX
  8
0
 10
558.810198
 20
476.455749
 42
0.000350
  0
VERTEX
  8
0
 10
546.500000
 20
474.906796
 42
-0.000293
  0
VERTEX
  8
0
 10
532.284994
 20
473.116513
 42
-0.000166
  0
VERTEX
  8
0
 10
515.059375
 20
470.963118
 42
-0.000165
  0
VERTEX
  8
0
 10
497.691229
 20
468.803593
 42
-0.000272
  0
VERTEX
  8
0
 10
483.000000
 20
466.989972
 42
0.000494
  0
VERTEX
  8
0
 10
469.164467
 20
465.275768
 42
0.000411
  0
VERTEX
  8
0
 10
454.465625
 20
463.427577
 42
0.000415
  0
VERTEX
  8
0
 10
441.015734
 20
461.713832
 42
0.001131
  0
VERTEX
  8
0
 10
431.500000
 20
460.471447
 42
-0.000702
  0
VERTEX
  8
0
 10
409.471420
 20
457.576146
 42
-0.001457
  0
VERTEX
  8
0
 10
392.269348
 20
455.390736
 42
-0.001646
  0
VERTEX
  8
0
 10
376.463891
 20
453.482358
 42
-0.001224
  0
VERTEX
  8
0
 10
359.000000
 20
451.475384
 42
0.000815
  0
VERTEX
  8
0
 10
334.668122
 20
448.699308
 42
0.000982
  0
VERTEX
  8
0
 10
311.813952
 20
446.008598
 42
0.000861
  0
VERTEX
  8
0
 10
286.669351
 20
442.954233
 42
0.000435
  0
VERTEX
  8
0
 10
255.000000
 20
439.023957
 42
0.000320
  0
VERTEX
  8
0
 10
196.228316
 20
431.640027
 42
0.001975
  0
VERTEX
  8
0
 10
166.020804
 20
427.703902
 42
0.001391
  0
VERTEX
  8
0
 10
146.428078
 20
425.016649
 42
0.072693
  0
VERTEX
  8
0
 10
142.775916
 20
423.949758
 42
0.067903
  0
VERTEX
  8
0
 10
141.516852
 20
423.151688
 42
0.049518
  0
VERTEX
  8
0
 10
140.360573
 20
421.962334
 42
0.044442
  0
VERTEX
  8
0
 10
139.347855
 20
420.428400
 42
0.034223
  0
VERTEX
  8
0
 10
138.518131
 20
418.601293
 42
0.043603
  0
VERTEX
  8
0
 10
137.677519
 20
415.572241
 42
0.001215
  0
VERTEX
  8
0
 10
135.227228
 20
402.192255
 42
0.002483
  0
VERTEX
  8
0
 10
132.459789
 20
386.423108
 42
0.001702
  0
VERTEX
  8
0
 10
129.468765
 20
368.500000
 42
-0.000198
  0
VERTEX
  8
0
 10
126.081255
 20
347.817935
 42
-0.000123
  0
VERTEX
  8
0
 10
122.097804
 20
323.594933
 42
-0.000124
  0
VERTEX
  8
0
 10
118.160432
 20
299.725854
 42
-0.000225
  0
VERTEX
  8
0
 10
114.930041
 20
280.227431
 42
0.001136
  0
VERTEX
  8
0
 10
110.899882
 20
255.623975
 42
0.008714
  0
VERTEX
  8
0
 10
109.236487
 20
244.043687
 42
0.018203
  0
VERTEX
  8
0
 10
108.617667
 20
237.095992
 42
0.058875
  0
VERTEX
  8
0
 10
108.918928
 20
232.480736
 42
0.045373
  0
VERTEX
  8
0
 10
111.256651
 20
224.146873
 42
0.003983
  0
VERTEX
  8
0
 10
119.235674
 20
203.704435
 42
0.003785
  0
VERTEX
  8
0
 10
127.561959
 20
183.313407
 42
0.049503
  0
VERTEX
  8
0
 10
131.433816
 20
176.126623
 42
0.026530
  0
VERTEX
  8
0
 10
132.855509
 20
174.241397
 42
0.020434
  0
VERTEX
  8
0
 10
134.593164
 20
172.338517
 42
0.020836
  0
VERTEX
  8
0
 10
136.368563
 20
170.690439
 42
0.045474
  0
VERTEX
  8
0
 10
137.883337
 20
169.618891
 42
0.073703
  0
VERTEX
  8
0
 10
140.586523
 20
168.546566
 42
0.064590
  0
VERTEX
  8
0
 10
143.612018
 20
168.238390
 42
0.021614
  0
VERTEX
  8
0
 10
148.737656
 20
168.601438
 42
0.001440
  0
VERTEX
  8
0
 10
163.383337
 20
170.320068
 42
-0.000580
  0
VERTEX
  8
0
 10
174.040232
 20
171.589216
 42
-0.000257
  0
VERTEX
  8
0
 10
188.109480
 20
173.240879
 42
-0.000254
  0
VERTEX
  8
0
 10
203.013852
 20
174.975139
 42
-0.000343
  0
VERTEX
  8
0
 10
216.500000
 20
176.528052
 42
0.000388
  0
VERTEX
  8
0
 10
230.438738
 20
178.134364
 42
0.000243
  0
VERTEX
  8
0
 10
246.765625
 20
180.036768
 42
0.000243
  0
VERTEX
  8
0
 10
262.855102
 20
181.927356
 42
0.000443
  0
VERTEX
  8
0
 10
276.000000
 20
183.490225
 42
-0.001004
  0
VERTEX
  8
0
 10
289.830939
 20
185.118906
 42
-0.000430
  0
VERTEX
  8
0
 10
308.318750
 20
187.242215
 42
-0.000425
  0
VERTEX
  8
0
 10
328.025754
 20
189.471395
 42
-0.000561
  0
VERTEX
  8
0
 10
346.000000
 20
191.468680
 42
0.000355
  0
VERTEX
  8
0
 10
374.510008
 20
194.624823
 42
0.001088
  0
VERTEX
  8
0
 10
393.827668
 20
196.819792
 42
0.001519
  0
VERTEX
  8
0
 10
409.140061
 20
198.640566
 42
0.001658
  0
VERTEX
  8
0
 10
424.000000
 20
200.503356
 42
-0.002122
  0
VERTEX
  8
0
 10
442.408094
 20
202.793587
 42
-0.001097
  0
VERTEX
  8
0
 10
465.440546
 20
205.508715
 42
-0.001095
  0
VERTEX
  8
0
 10
488.285208
 20
208.100223
 42
-0.002319
  0
VERTEX
  8
0
 10
506.000000
 20
209.987395
 42
0.001924
  0
VERTEX
  8
0
 10
528.298915
 20
212.345132
 42
0.000567
  0
VERTEX
  8
0
 10
562.466639
 20
216.130034
 42
0.000513
  0
VERTEX
  8
0
 10
604.492452
 20
220.877302
 42
0.000334
  0
VERTEX
  8
0
 10
653.000000
 20
226.439982
 42
-0.000111
  0
VERTEX
  8
0
 10
673.128607
 20
228.757355
 42
-0.000095
  0
VERTEX
  8
0
 10
694.331250
 20
231.189509
 42
-0.000096
  0
VERTEX
  8
0
 10
713.601241
 20
233.392507
 42
-0.000274
  0
VERTEX
  8
0
 10
727.000000
 20
234.914241
 42
0.000229
  0
VERTEX
  8
0
 10
756.636296
 20
238.277393
 42
0.000223
  0
VERTEX
  8
0
 10
786.537546
 20
241.697978
 42
0.000153
  0
VERTEX
  8
0
 10
812.947993
 20
244.739368
 42
0.001989
  0
VERTEX
  8
0
 10
822.784122
 20
245.914815
 42
0.024680
  0
VERTEX
  8
0
 10
828.160871
 20
246.850322
 42
0.063864
  0
VERTEX
  8
0
 10
831.852471
 20
248.194397
 42
0.083571
  0
VERTEX
  8
0
 10
834.482431
 20
250.166791
 42
0.070946
  0
VERTEX
  8
0
 10
836.498938
 20
252.997947
 42
0.061635
  0
VERTEX
  8
0
 10
838.084068
 20
257.285299
 42
0.010154
  0
VERTEX
  8
0
 10
839.933641
 20
265.932646
 42
0.004692
  0
VERTEX
  8
0
 10
842.784491
 20
281.508718
 42
0.000424
  0
VERTEX
  8
0
 10
849.509404
 20
320.500000
 42
-0.000193
  0
VERTEX
  8
0
 10
853.167520
 20
341.768624
 42
-0.000162
  0
VERTEX
  8
0
 10
857.064694
 20
364.331250
 42
-0.000163
  0
VERTEX
  8
0
 10
860.640409
 20
384.952878
 42
-0.000448
  0
VERTEX
  8
0
 10
863.181160
 20
399.500000
 42
0.005687
  0
VERTEX
  8
0
 10
867.561470
 20
426.228946
 42
0.050564
  0
VERTEX
  8
0
 10
868.157104
 20
438.127284
 42
0.064038
  0
VERTEX
  8
0
 10
866.214498
 20
448.868286
 42
0.011900
  0
VERTEX
  8
0
 10
859.689116
 20
467.880377
 42
0.003203
  0
VERTEX
  8
0
 10
856.192280
 20
477.147204
 42
0.004073
  0
VERTEX
  8
0
 10
852.840950
 20
485.651683
 42
0.003205
  0
VERTEX
  8
0
 10
849.929714
 20
492.735307
 42
0.033448
  0
VERTEX
  8
0
 10
848.525663
 20
495.546421
 42
0.048306
  0
VERTEX
  8
0
 10
845.470650
 20
499.766266
 42
0.040913
  0
VERTEX
  8
0
 10
841.500107
 20
503.584536
 42
0.041715
  0
VERTEX
  8
0
 10
837.061343
 20
506.625750
 42
0.057221
  0
VERTEX
  8
0
 10
832.612179
 20
508.522530
 42
0.022038
  0
VERTEX
  8
0
 10
828.862616
 20
509.458429
 42
0.045572
  0
VERTEX
  8
0
 10
825.863649
 20
509.787997
 42
0.031083
  0
VERTEX
  8
0
 10
822.203258
 20
509.627670
 42
0.005748
  0
SEQEND
  0
POLYLINE
  8
0
 66
1
 70
1
  0
VERTEX
  8
0
 10
806.997054
 20
456.377069
 42
-0.025208
  0
VERTEX
  8
0
 10
811.372644
 20
454.120606
 42
-0.048921
  0
VERTEX
  8
0
 10
814.560874
 20
451.823771
 42
-0.053114
  0
VERTEX
  8
0
 10
817.072837
 20
449.087088
 42
-0.035706
  0
VERTEX
  8
0
 10
819.347318
 20
445.500000
 42
-0.045304
  0
VERTEX
  8
0
 10
820.499720
 20
442.798224
 42
-0.046858
  0
VERTEX
  8
0
 10
821.130607
 20
439.963365
 42
-0.026606
  0
VERTEX
  8
0
 10
821.421910
 20
435.931848
 42
-0.004941
  0
VERTEX
  8
0
 10
821.489162
 20
428.500000
 42
-0.032809
  0
VERTEX
  8
0
 10
820.345360
 20
411.306772
 42
-0.059263
  0
VERTEX
  8
0
 10
816.852659
 20
397.651664
 42
-0.071478
  0
VERTEX
  8
0
 10
810.876656
 20
387.005815
 42
-0.078644
  0
VERTEX
  8
0
 10
802.306984
 20
378.867202
 42
0.000000
  0
VERTEX
  8
0
 10
797.924198
 20
375.851766
 42
0.000000
  0
VERTEX
  8
0
 10
801.188303
 20
373.652086
 42
-0.112377
  0
VERTEX
  8
0
 10
806.931160
 20
367.536622
 42
-0.093421
  0
VERTEX
  8
0
 10
809.946034
 20
359.117444
 42
-0.064459
  0
VERTEX
  8
0
 10
810.280263
 20
347.526478
 42
-0.024731
  0
VERTEX
  8
0
 10
807.876827
 20
331.555219
 42
-0.050093
  0
VERTEX
  8
0
 10
802.639572
 20
314.559528
 42
-0.061445
  0
VERTEX
  8
0
 10
794.365940
 20
300.168021
 42
-0.068023
  0
VERTEX
  8
0
 10
783.704478
 20
289.397918
 42
-0.088998
  0
VERTEX
  8
0
 10
771.421614
 20
283.048504
 42
-0.020121
  0
VERTEX
  8
0
 10
764.235542
 20
281.141958
 42
-0.013303
  0
VERTEX
  8
0
 10
755.850759
 20
279.507694
 42
-0.013382
  0
VERTEX
  8
0
 10
747.689930
 20
278.364923
 42
-0.027970
  0
VERTEX
  8
0
 10
741.287513
 20
278.003195
 42
-0.061387
  0
VERTEX
  8
0
 10
732.483525
 20
279.083585
 42
-0.066772
  0
VERTEX
  8
0
 10
724.470942
 20
282.266009
 42
-0.070203
  0
VERTEX
  8
0
 10
717.912902
 20
287.267972
 42
-0.080821
  0
VERTEX
  8
0
 10
713.359172
 20
293.677189
 42
-0.019983
  0
VERTEX
  8
0
 10
711.797796
 20
297.206825
 42
-0.048284
  0
VERTEX
  8
0
 10
711.009981
 20
299.946230
 42
-0.040810
  0
VERTEX
  8
0
 10
710.692579
 20
303.048396
 42
-0.010993
  0
VERTEX
  8
0
 10
710.700492
 20
308.000000
 42
-0.011948
  0
VERTEX
  8
0
 10
710.872446
 20
311.619090
 42
-0.009869
  0
VERTEX
  8
0
 10
711.223820
 20
315.465020
 42
-0.009998
  0
VERTEX
  8
0
 10
711.686584
 20
318.981592
 42
-0.026150
  0
VERTEX
  8
0
 10
712.200492
 20
321.476664
 42
0.000000
  0
VERTEX
  8
0
 10
713.500000
 20
326.453327
 42
0.000000
  0
VERTEX
  8
0
 10
727.946702
 20
329.196629
 42
-0.001846
  0
VERTEX
  8
0
 10
733.503431
 20
330.230558
 42
-0.003017
  0
VERTEX
  8
0
 10
738.222546
 20
331.061224
 42
-0.000444
  0
VERTEX
  8
0
 10
742.404756
 20
331.767573
 42
-0.242552
  0
VERTEX
  8
0
 10
742.641443
 20
331.691890
 42
-0.234934
  0
VERTEX
  8
0
 10
742.713856
 20
331.476197
 42
-0.005128
  0
VERTEX
  8
0
 10
742.546111
 20
330.349959
 42
-0.010603
  0
VERTEX
  8
0
 10
742.303624
 20
329.012209
 42
-0.006825
  0
VERTEX
  8
0
 10
741.968598
 20
327.471925
 42
0.029380
  0
VERTEX
  8
0
 10
741.160792
 20
322.739916
 42
0.046185
  0
VERTEX
  8
0
 10
741.086476
 20
318.619576
 42
0.055621
  0
VERTEX
  8
0
 10
741.725379
 20
315.213014
 42
0.092763
  0
VERTEX
  8
0
 10
743.072580
 20
312.634859
 42
0.049041
  0
VERTEX
  8
0
 10
744.426119
 20
311.223588
 42
0.095820
  0
VERTEX
  8
0
 10
745.775715
 20
310.455841
 42
0.066905
  0
VERTEX
  8
0
 10
747.624177
 20
310.095457
 42
0.014735
  0
VERTEX
  8
0
 10
750.862481
 20
310.000000
 42
0.034383
  0
VERTEX
  8
0
 10
756.291967
 20
310.373802
 42
0.025099
  0
VERTEX
  8
0
 10
762.234267
 20
311.502231
 42
0.025063
  0
VERTEX
  8
0
 10
767.597208
 20
313.090727
 42
0.073382
  0
VERTEX
  8
0
 10
771.000000
 20
314.882124
 42
0.035419
  0
VERTEX
  8
0
 10
772.086735
 20
315.800989
 42
0.019284
  0
VERTEX
  8
0
 10
773.290651
 20
317.068852
 42
0.019128
  0
VERTEX
  8
0
 10
774.420988
 20
318.458893
 42
0.028671
  0
VERTEX
  8
0
 10
775.287322
 20
319.760820
 42
0.070149
  0
VERTEX
  8
0
 10
777.064635
 20
324.087725
 42
0.018390
  0
VERTEX
  8
0
 10
778.653159
 20
331.435978
 42
0.019379
  0
VERTEX
  8
0
 10
779.713388
 20
339.105315
 42
0.045371
  0
VERTEX
  8
0
 10
779.759313
 20
344.888825
 42
0.020599
  0
VERTEX
  8
0
 10
779.386705
 20
347.879979
 42
0.061879
  0
VERTEX
  8
0
 10
778.801776
 20
349.849273
 42
0.071986
  0
VERTEX
  8
0
 10
777.808458
 20
351.447636
 42
0.035467
  0
VERTEX
  8
0
 10
776.138020
 20
353.167987
 42
0.034117
  0
VERTEX
  8
0
 10
774.210929
 20
354.666718
 42
0.071945
  0
VERTEX
  8
0
 10
772.508180
 20
355.487469
 42
0.059770
  0
VERTEX
  8
0
 10
770.446766
 20
355.875624
 42
0.017722
  0
VERTEX
  8
0
 10
767.234223
 20
355.976143
 42
0.013269
  0
VERTEX
  8
0
 10
764.748172
 20
355.899807
 42
0.009950
  0
VERTEX
  8
0
 10
762.017675
 20
355.688785
 42
0.010075
  0
VERTEX
  8
0
 10
759.454051
 20
355.386999
 42
0.022627
  0
VERTEX
  8
0
 10
757.528075
 20
355.031402
 42
-0.011332
  0
VERTEX
  8
0
 10
755.976238
 20
354.708482
 42
-0.016766
  0
VERTEX
  8
0
 10
754.601734
 20
354.502196
 42
-0.011990
  0
VERTEX
  8
0
 10
753.474631
 20
354.398822
 42
-0.216511
  0
VERTEX
  8
0
 10
753.143660
 20
354.523006
 42
-0.231031
  0
VERTEX
  8
0
 10
753.011011
 20
354.908635
 42
-0.001174
  0
VERTEX
  8
0
 10
753.531872
 20
359.049097
 42
-0.004875
  0
VERTEX
  8
0
 10
754.187366
 20
363.795343
 42
-0.003030
  0
VERTEX
  8
0
 10
755.044471
 20
369.351735
 42
0.000000
  0
VERTEX
  8
0
 10
757.357771
 20
383.767975
 42
0.000000
  0
VERTEX
  8
0
 10
765.520994
 20
384.196435
 42
0.064553
  0
VERTEX
  8
0
 10
775.322671
 20
385.993879
 42
0.124758
  0
VERTEX
  8
0
 10
782.040705
 20
390.191977
 42
0.107346
  0
VERTEX
  8
0
 10
786.569782
 20
397.576396
 42
0.040252
  0
VERTEX
  8
0
 10
789.659450
 20
409.388891
 42
0.004690
  0
VERTEX
  8
0
 10
790.681797
 20
415.491445
 42
0.040803
  0
VERTEX
  8
0
 10
790.887871
 20
418.232311
 42
0.079158
  0
VERTEX
  8
0
 10
790.558500
 20
420.216417
 42
0.042903
  0
VERTEX
  8
0
 10
789.574054
 20
422.492349
 42
0.077849
  0
VERTEX
  8
0
 10
787.515845
 20
425.203258
 42
0.091898
  0
VERTEX
  8
0
 10
784.830585
 20
426.973117
 42
0.082874
  0
VERTEX
  8
0
 10
781.460920
 20
427.776671
 42
0.051280
  0
VERTEX
  8
0
 10
777.382892
 20
427.639003
 42
0.057722
  0
VERTEX
  8
0
 10
769.711836
 20
425.667731
 42
0.093560
  0
VERTEX
  8
0
 10
764.000985
 20
422.139395
 42
0.095115
  0
VERTEX
  8
0
 10
760.030653
 20
416.819402
 42
0.061382
  0
VERTEX
  8
0
 10
757.539819
 20
409.520329
 42
-0.004731
  0
VERTEX
  8
0
 10
756.968426
 20
406.912702
 42
-0.007035
  0
VERTEX
  8
0
 10
756.414619
 20
404.642227
 42
-0.003471
  0
VERTEX
  8
0
 10
755.906379
 20
402.733674
 42
-0.130280
  0
VERTEX
  8
0
 10
755.683688
 20
402.350354
 42
-0.178962
  0
VERTEX
  8
0
 10
755.264756
 20
402.157602
 42
-0.001206
  0
VERTEX
  8
0
 10
751.218961
 20
401.855075
 42
-0.004521
  0
VERTEX
  8
0
 10
746.560643
 20
401.560358
 42
-0.002850
  0
VERTEX
  8
0
 10
741.116762
 20
401.296440
 42
-0.005014
  0
VERTEX
  8
0
 10
729.987598
 20
400.932231
 42
-0.208421
  0
VERTEX
  8
0
 10
727.815539
 20
401.820687
 42
-0.238492
  0
VERTEX
  8
0
 10
727.143281
 20
403.968592
 42
-0.006641
  0
VERTEX
  8
0
 10
728.920291
 20
413.835156
 42
-0.038847
  0
VERTEX
  8
0
 10
732.065008
 20
425.236396
 42
-0.055199
  0
VERTEX
  8
0
 10
736.701304
 20
434.663450
 42
-0.057928
  0
VERTEX
  8
0
 10
743.088386
 20
442.512147
 42
-0.049000
  0
VERTEX
  8
0
 10
751.452956
 20
449.194508
 42
-0.066041
  0
VERTEX
  8
0
 10
764.227410
 20
455.274943
 42
-0.045973
  0
VERTEX
  8
0
 10
779.832954
 20
458.772511
 42
-0.047016
  0
VERTEX
  8
0
 10
795.166678
 20
459.303815
 42
-0.091855
  0
SEQEND
  0
POLYLINE
  8
0
 66
1
 70
1
  0
VERTEX
  8
0
 10
665.055603
 20
438.480382
 42
-0.067443
  0
VERTEX
  8
0
 10
671.884203
 20
434.978391
 42
-0.082939
  0
VERTEX
  8
0
 10
676.999076
 20
429.978307
 42
-0.081028
  0
VERTEX
  8
0
 10
680.292582
 20
423.487268
 42
-0.061014
  0
VERTEX
  8
0
 10
681.774652
 20
415.609731
 42
-0.042598
  0
VERTEX
  8
0
 10
681.611849
 20
407.879051
 42
-0.008287
  0
VERTEX
  8
0
 10
679.902146
 20
394.023524
 42
-0.009233
  0
VERTEX
  8
0
 10
677.654480
 20
379.899470
 42
-0.024901
  0
VERTEX
  8
0
 10
675.377564
 20
370.000000
 42
-0.046977
  0
VERTEX
  8
0
 10
671.438996
 20
359.837901
 42
-0.048751
  0
VERTEX
  8
0
 10
665.711776
 20
350.724300
 42
-0.050957
  0
VERTEX
  8
0
 10
658.612046
 20
343.259096
 42
-0.063026
  0
VERTEX
  8
0
 10
650.605800
 20
337.981850
 42
-0.042139
  0
VERTEX
  8
0
 10
644.768871
 20
335.700032
 42
-0.016548
  0
VERTEX
  8
0
 10
636.403111
 20
333.516250
 42
-0.015797
  0
VERTEX
  8
0
 10
626.872463
 20
331.676835
 42
-0.015714
  0
VERTEX
  8
0
 10
617.227809
 20
330.439067
 42
0.009642
  0
VERTEX
  8
0
 10
614.405150
 20
330.111597
 42
0.014246
  0
VERTEX
  8
0
 10
611.945349
 20
329.706375
 42
0.009381
  0
VERTEX
  8
0
 10
609.940506
 20
329.277963
 42
0.199573
  0
VERTEX
  8
0
 10
609.456977
 20
328.930388
 42
0.096478
  0
VERTEX
  8
0
 10
609.197777
 20
328.244292
 42
0.000355
  0
VERTEX
  8
0
 10
607.755927
 20
319.750236
 42
0.001850
  0
VERTEX
  8
0
 10
606.162653
 20
310.106535
 42
0.001160
  0
VERTEX
  8
0
 10
604.366385
 20
298.811785
 42
-0.000649
  0
VERTEX
  8
0
 10
602.587625
 20
287.553035
 42
-0.001065
  0
VERTEX
  8
0
 10
601.049210
 20
278.027576
 42
-0.000084
  0
VERTEX
  8
0
 10
599.649140
 20
269.483562
 42
-0.142890
  0
VERTEX
  8
0
 10
599.522145
 20
269.218261
 42
-0.178392
  0
VERTEX
  8
0
 10
599.274181
 20
269.086821
 42
-0.000519
  0
VERTEX
  8
0
 10
595.559018
 20
268.588589
 42
-0.002928
  0
VERTEX
  8
0
 10
591.342820
 20
268.052726
 42
-0.001814
  0
VERTEX
  8
0
 10
586.384928
 20
267.470329
 42
0.001996
  0
VERTEX
  8
0
 10
581.276533
 20
266.868369
 42
0.002568
  0
VERTEX
  8
0
 10
576.585777
 20
266.272156
 42
0.001963
  0
VERTEX
  8
0
 10
572.659639
 20
265.736927
 42
0.022300
  0
VERTEX
  8
0
 10
571.119844
 20
265.450349
 42
-0.024096
  0
VERTEX
  8
0
 10
569.783670
 20
265.206628
 42
-0.231873
  0
VERTEX
  8
0
 10
569.251298
 20
265.385095
 42
-0.241285
  0
VERTEX
  8
0
 10
569.078787
 20
265.908948
 42
-0.025949
  0
VERTEX
  8
0
 10
569.349928
 20
267.198281
 42
0.023268
  0
VERTEX
  8
0
 10
569.733231
 20
268.973677
 42
0.000232
  0
VERTEX
  8
0
 10
571.868894
 20
281.748870
 42
0.000760
  0
VERTEX
  8
0
 10
574.299771
 20
296.469633
 42
0.000493
  0
VERTEX
  8
0
 10
577.068198
 20
313.500000
 42
0.000002
  0
VERTEX
  8
0
 10
580.242059
 20
333.147342
 42
0.000001
  0
VERTEX
  8
0
 10
583.914864
 20
355.884375
 42
0.000001
  0
VERTEX
  8
0
 10
587.503289
 20
378.099857
 42
0.000003
  0
VERTEX
  8
0
 10
590.394512
 20
396.000000
 42
0.000000
  0
VERTEX
  8
0
 10
596.612799
 20
434.500000
 42
0.000000
  0
VERTEX
  8
0
 10
603.056400
 20
435.328044
 42
-0.004475
  0
VERTEX
  8
0
 10
628.828400
 20
438.405717
 42
-0.014777
  0
VERTEX
  8
0
 10
645.876211
 20
439.778531
 42
-0.021293
  0
VERTEX
  8
0
 10
657.673000
 20
439.875510
 42
-0.076354
  0
SEQEND
  0
POLYLINE
  8
0
 66
1
 70
1
  0
VERTEX
  8
0
 10
573.408689
 20
400.750000
 42
0.000781
  0
VERTEX
  8
0
 10
571.053522
 20
386.369969
 42
0.000435
  0
VERTEX
  8
0
 10
568.226049
 20
368.839063
 42
0.000433
  0
VERTEX
  8
0
 10
565.395679
 20
351.094254
 42
0.000702
  0
VERTEX
  8
0
 10
563.023227
 20
336.000000
 42
-0.004694
  0
VERTEX
  8
0
 10
559.083951
 20
312.178698
 42
-0.020535
  0
VERTEX
  8
0
 10
556.048030
 20
298.232099
 42
-0.034510
  0
VERTEX
  8
0
 10
552.827832
 20
288.655991
 42
-0.048188
  0
VERTEX
  8
0
 10
548.580947
 20
280.687914
 42
-0.068413
  0
VERTEX
  8
0
 10
539.392146
 20
270.266005
 42
-0.064670
  0
VERTEX
  8
0
 10
527.565609
 20
262.476625
 42
-0.061344
  0
VERTEX
  8
0
 10
513.552358
 20
257.665344
 42
-0.051587
  0
VERTEX
  8
0
 10
497.931501
 20
256.017364
 42
-0.025782
  0
VERTEX
  8
0
 10
490.582531
 20
256.381624
 42
-0.044993
  0
VERTEX
  8
0
 10
484.599133
 20
257.538579
 42
-0.052320
  0
VERTEX
  8
0
 10
479.581818
 20
259.574471
 42
-0.054536
  0
VERTEX
  8
0
 10
475.171828
 20
262.584917
 42
-0.094285
  0
VERTEX
  8
0
 10
469.137992
 20
270.125737
 42
-0.098030
  0
VERTEX
  8
0
 10
466.400433
 20
279.253251
 42
-0.052857
  0
VERTEX
  8
0
 10
466.532631
 20
292.931115
 42
-0.010193
  0
VERTEX
  8
0
 10
469.886401
 20
317.500000
 42
0.000110
  0
VERTEX
  8
0
 10
471.874422
 20
330.154174
 42
0.000047
  0
VERTEX
  8
0
 10
474.539993
 20
347.155921
 42
0.000046
  0
VERTEX
  8
0
 10
477.384869
 20
365.323336
 42
0.000060
  0
VERTEX
  8
0
 10
479.984184
 20
381.945689
 42
-0.001544
  0
VERTEX
  8
0
 10
482.341550
 20
396.733132
 42
-0.002499
  0
VERTEX
  8
0
 10
484.448343
 20
409.294540
 42
-0.000395
  0
VERTEX
  8
0
 10
486.377091
 20
420.399969
 42
-0.169689
  0
VERTEX
  8
0
 10
486.745689
 20
421.060598
 42
-0.150929
  0
VERTEX
  8
0
 10
488.041208
 20
421.648644
 42
-0.000881
  0
VERTEX
  8
0
 10
501.314900
 20
423.313057
 42
-0.000638
  0
VERTEX
  8
0
 10
514.768530
 20
424.958519
 42
-0.230408
  0
VERTEX
  8
0
 10
515.694587
 20
424.638747
 42
-0.237575
  0
VERTEX
  8
0
 10
515.793098
 20
424.340377
 42
-0.000145
  0
VERTEX
  8
0
 10
514.430315
 20
415.193243
 42
-0.001709
  0
VERTEX
  8
0
 10
512.870436
 20
404.983160
 42
-0.001037
  0
VERTEX
  8
0
 10
510.958894
 20
392.915630
 42
0.000832
  0
VERTEX
  8
0
 10
508.844810
 20
379.604869
 42
0.000713
  0
VERTEX
  8
0
 10
506.662915
 20
365.587716
 42
0.000718
  0
VERTEX
  8
0
 10
504.717567
 20
352.850367
 42
0.002063
  0
VERTEX
  8
0
 10
503.416197
 20
344.000000
 42
-0.002582
  0
VERTEX
  8
0
 10
502.279857
 20
336.327335
 42
-0.001830
  0
VERTEX
  8
0
 10
500.928775
 20
327.728882
 42
-0.001847
  0
VERTEX
  8
0
 10
499.577948
 20
319.525841
 42
-0.003913
  0
VERTEX
  8
0
 10
498.458339
 20
313.183428
 42
0.004641
  0
VERTEX
  8
0
 10
496.767958
 20
303.525537
 42
0.024635
  0
VERTEX
  8
0
 10
496.153948
 20
298.197255
 42
0.046261
  0
VERTEX
  8
0
 10
496.249714
 20
294.649331
 42
0.077174
  0
VERTEX
  8
0
 10
497.054954
 20
291.778734
 42
0.094039
  0
VERTEX
  8
0
 10
498.733476
 20
289.402794
 42
0.050189
  0
VERTEX
  8
0
 10
501.567469
 20
287.167120
 42
0.050131
  0
VERTEX
  8
0
 10
504.798198
 20
285.536374
 42
0.092077
  0
VERTEX
  8
0
 10
507.686153
 20
285.000000
 42
0.057426
  0
VERTEX
  8
0
 10
511.122343
 20
285.395961
 42
0.030753
  0
VERTEX
  8
0
 10
515.220005
 20
286.622947
 42
0.030735
  0
VERTEX
  8
0
 10
519.058127
 20
288.308827
 42
0.069829
  0
VERTEX
  8
0
 10
521.640710
 20
290.132190
 42
0.135124
  0
VERTEX
  8
0
 10
525.543669
 20
296.526933
 42
0.020477
  0
VERTEX
  8
0
 10
529.114665
 20
311.219895
 42
0.010058
  0
VERTEX
  8
0
 10
533.843490
 20
337.602737
 42
0.001059
  0
VERTEX
  8
0
 10
543.522885
 20
399.500000
 42
-0.000836
  0
VERTEX
  8
0
 10
544.549186
 20
406.082152
 42
-0.000848
  0
VERTEX
  8
0
 10
545.592519
 20
412.628607
 42
-0.000824
  0
VERTEX
  8
0
 10
546.519168
 20
418.320380
 42
-0.003487
  0
VERTEX
  8
0
 10
547.103644
 20
421.725046
 42
-0.036141
  0
VERTEX
  8
0
 10
548.228752
 20
426.145393
 42
-0.204842
  0
VERTEX
  8
0
 10
549.805695
 20
427.923252
 42
-0.078000
  0
VERTEX
  8
0
 10
552.932530
 20
428.840827
 42
-0.002732
  0
VERTEX
  8
0
 10
565.500000
 20
430.410934
 42
0.000116
  0
VERTEX
  8
0
 10
569.790106
 20
430.924134
 42
0.000169
  0
VERTEX
  8
0
 10
573.573803
 20
431.378942
 42
0.000083
  0
VERTEX
  8
0
 10
576.789978
 20
431.767174
 42
0.002929
  0
VERTEX
  8
0
 10
577.538477
 20
431.862105
 42
-0.492113
  0
VERTEX
  8
0
 10
577.919090
 20
431.483600
 42
-0.001376
  0
VERTEX
  8
0
 10
576.854056
 20
423.287194
 42
-0.005384
  0
VERTEX
  8
0
 10
575.431872
 20
413.391140
 42
-0.002600
  0
SEQEND
  0
POLYLINE
  8
0
 66
1
 70
1
  0
VERTEX
  8
0
 10
441.870766
 20
416.951160
 42
-0.029420
  0
VERTEX
  8
0
 10
447.361751
 20
415.725100
 42
-0.047296
  0
VERTEX
  8
0
 10
451.824976
 20
413.978420
 42
-0.050850
  0
VERTEX
  8
0
 10
455.648536
 20
411.532157
 42
-0.041351
  0
VERTEX
  8
0
 10
459.197524
 20
408.203125
 42
-0.046299
  0
VERTEX
  8
0
 10
462.195666
 20
404.194581
 42
-0.060196
  0
VERTEX
  8
0
 10
464.103091
 20
400.028954
 42
-0.053735
  0
VERTEX
  8
0
 10
465.097883
 20
395.166136
 42
-0.028330
  0
VERTEX
  8
0
 10
465.330917
 20
389.000000
 42
-0.032937
  0
VERTEX
  8
0
 10
464.304514
 20
376.913951
 42
-0.001555
  0
VERTEX
  8
0
 10
458.052231
 20
336.551378
 42
-0.001453
  0
VERTEX
  8
0
 10
451.521486
 20
296.004701
 42
-0.036085
  0
VERTEX
  8
0
 10
448.889731
 20
285.000000
 42
-0.054632
  0
VERTEX
  8
0
 10
442.713661
 20
271.021396
 42
-0.069130
  0
VERTEX
  8
0
 10
434.025074
 20
259.900593
 42
-0.070310
  0
VERTEX
  8
0
 10
422.764375
 20
251.705086
 42
-0.059140
  0
VERTEX
  8
0
 10
409.000000
 20
246.356760
 42
-0.041391
  0
VERTEX
  8
0
 10
401.654346
 20
245.097872
 42
-0.017998
  0
VERTEX
  8
0
 10
391.755813
 20
244.592587
 42
-0.016676
  0
VERTEX
  8
0
 10
382.183617
 20
244.768160
 42
-0.072084
  0
VERTEX
  8
0
 10
376.619292
 20
245.870690
 42
-0.063422
  0
VERTEX
  8
0
 10
372.548736
 20
247.918984
 42
-0.042447
  0
VERTEX
  8
0
 10
368.482268
 20
251.192070
 42
-0.041544
  0
VERTEX
  8
0
 10
364.920139
 20
255.211172
 42
-0.051428
  0
VERTEX
  8
0
 10
362.352849
 20
259.500000
 42
-0.081843
  0
VERTEX
  8
0
 10
360.395815
 20
266.481543
 42
-0.039743
  0
VERTEX
  8
0
 10
360.112115
 20
275.769507
 42
-0.022331
  0
VERTEX
  8
0
 10
361.421731
 20
289.725758
 42
-0.004746
  0
VERTEX
  8
0
 10
365.014007
 20
313.868218
 42
-0.000338
  0
VERTEX
  8
0
 10
370.581834
 20
348.840885
 42
-0.003423
  0
VERTEX
  8
0
 10
373.007955
 20
363.374847
 42
-0.008183
  0
VERTEX
  8
0
 10
374.606339
 20
371.748489
 42
-0.023270
  0
VERTEX
  8
0
 10
376.084203
 20
377.500000
 42
-0.033955
  0
VERTEX
  8
0
 10
378.228244
 20
383.095313
 42
-0.023282
  0
VERTEX
  8
0
 10
381.371479
 20
389.127510
 42
-0.023330
  0
VERTEX
  8
0
 10
385.048528
 20
394.819356
 42
-0.035007
  0
VERTEX
  8
0
 10
388.812623
 20
399.378094
 42
-0.055143
  0
VERTEX
  8
0
 10
396.248779
 20
405.646921
 42
-0.041054
  0
VERTEX
  8
0
 10
405.633799
 20
410.874258
 42
-0.039124
  0
VERTEX
  8
0
 10
416.270813
 20
414.732033
 42
-0.038369
  0
VERTEX
  8
0
 10
427.448411
 20
416.916635
 42
0.000832
  0
VERTEX
  8
0
 10
430.186918
 20
417.241216
 42
0.001249
  0
VERTEX
  8
0
 10
432.575471
 20
417.534401
 42
0.000496
  0
VERTEX
  8
0
 10
434.624652
 20
417.793190
 42
0.028270
  0
VERTEX
  8
0
 10
435.000000
 20
417.862710
 42
-0.091265
  0
VERTEX
  8
0
 10
435.371274
 20
417.884134
 42
-0.001879
  0
VERTEX
  8
0
 10
437.224537
 20
417.645342
 42
-0.004341
  0
VERTEX
  8
0
 10
439.393196
 20
417.338444
 42
-0.002899
  0
SEQEND
  0
POLYLINE
  8
0
 66
1
 70
1
  0
VERTEX
  8
0
 10
346.563865
 20
401.538144
 42
-0.120617
  0
VERTEX
  8
0
 10
354.410377
 20
395.747501
 42
-0.104920
  0
VERTEX
  8
0
 10
359.190863
 20
386.695328
 42
-0.076752
  0
VERTEX
  8
0
 10
360.765855
 20
374.017335
 42
-0.035346
  0
VERTEX
  8
0
 10
359.096457
 20
357.423907
 42
-0.025867
  0
VERTEX
  8
0
 10
355.592796
 20
341.948864
 42
-0.048638
  0
VERTEX
  8
0
 10
350.943666
 20
330.018133
 42
-0.059329
  0
VERTEX
  8
0
 10
344.870711
 20
320.894698
 42
-0.068816
  0
VERTEX
  8
0
 10
337.086463
 20
313.962451
 42
0.011854
  0
VERTEX
  8
0
 10
334.121992
 20
311.873449
 42
0.076271
  0
VERTEX
  8
0
 10
332.835259
 20
310.575303
 42
0.132348
  0
VERTEX
  8
0
 10
332.339837
 20
309.281012
 42
0.064557
  0
VERTEX
  8
0
 10
332.387101
 20
307.500000
 42
0.007053
  0
VERTEX
  8
0
 10
333.164086
 20
302.961946
 42
0.000094
  0
VERTEX
  8
0
 10
338.372443
 20
274.954839
 42
0.000094
  0
VERTEX
  8
0
 10
343.591032
 20
246.951295
 42
0.007046
  0
VERTEX
  8
0
 10
344.499862
 20
242.433586
 42
-0.263225
  0
VERTEX
  8
0
 10
344.121247
 20
241.218928
 42
-0.127004
  0
VERTEX
  8
0
 10
342.644853
 20
240.410057
 42
-0.031552
  0
VERTEX
  8
0
 10
339.142305
 20
239.752895
 42
-0.002299
  0
VERTEX
  8
0
 10
329.390926
 20
238.598968
 42
-0.002150
  0
VERTEX
  8
0
 10
323.409946
 20
237.945119
 42
-0.003516
  0
VERTEX
  8
0
 10
318.335233
 20
237.448469
 42
-0.000569
  0
VERTEX
  8
0
 10
313.854737
 20
237.046900
 42
-0.266157
  0
VERTEX
  8
0
 10
313.597752
 20
237.165383
 42
-0.122449
  0
VERTEX
  8
0
 10
313.479664
 20
237.465509
 42
-0.000083
  0
VERTEX
  8
0
 10
312.326938
 20
246.214206
 42
-0.000988
  0
VERTEX
  8
0
 10
311.062296
 20
255.973707
 42
-0.000603
  0
VERTEX
  8
0
 10
309.606000
 20
267.500000
 42
0.000773
  0
VERTEX
  8
0
 10
308.128929
 20
279.158942
 42
0.001154
  0
VERTEX
  8
0
 10
306.798265
 20
289.347295
 42
0.000478
  0
VERTEX
  8
0
 10
305.629888
 20
298.071322
 42
0.024796
  0
VERTEX
  8
0
 10
305.318768
 20
299.746109
 42
0.080413
  0
VERTEX
  8
0
 10
304.805310
 20
300.982080
 42
0.192685
  0
VERTEX
  8
0
 10
304.020790
 20
301.561175
 42
0.083730
  0
VERTEX
  8
0
 10
302.590243
 20
301.687533
 42
0.008274
  0
VERTEX
  8
0
 10
299.142569
 20
301.357211
 42
0.003374
  0
VERTEX
  8
0
 10
296.958649
 20
301.096499
 42
0.005174
  0
VERTEX
  8
0
 10
295.070764
 20
300.838319
 42
0.001951
  0
VERTEX
  8
0
 10
293.455676
 20
300.593951
 42
0.132733
  0
VERTEX
  8
0
 10
293.204713
 20
300.482482
 42
0.184380
  0
VERTEX
  8
0
 10
293.060941
 20
300.233818
 42
0.000131
  0
VERTEX
  8
0
 10
291.829171
 20
292.566586
 42
0.001477
  0
VERTEX
  8
0
 10
290.481122
 20
283.999732
 42
0.000900
  0
VERTEX
  8
0
 10
288.936674
 20
273.871380
 42
-0.000039
  0
VERTEX
  8
0
 10
287.336332
 20
263.253864
 42
-0.000046
  0
VERTEX
  8
0
 10
285.813122
 20
253.159698
 42
-0.000040
  0
VERTEX
  8
0
 10
284.522680
 20
244.618022
 42
-0.000274
  0
VERTEX
  8
0
 10
283.882066
 20
240.395679
 42
0.000000
  0
VERTEX
  8
0
 10
282.800211
 20
233.291357
 42
0.000000
  0
VERTEX
  8
0
 10
268.346779
 20
231.532339
 42
-0.002600
  0
VERTEX
  8
0
 10
262.779665
 20
230.884164
 42
-0.004195
  0
VERTEX
  8
0
 10
258.032671
 20
230.396763
 42
-0.000896
  0
VERTEX
  8
0
 10
253.873248
 20
230.012446
 42
-0.222946
  0
VERTEX
  8
0
 10
253.531234
 20
230.136660
 42
-0.228734
  0
VERTEX
  8
0
 10
253.417546
 20
230.464319
 42
-0.002805
  0
VERTEX
  8
0
 10
253.695506
 20
232.743269
 42
-0.007633
  0
VERTEX
  8
0
 10
254.077018
 20
235.407240
 42
-0.004838
  0
VERTEX
  8
0
 10
254.598954
 20
238.500000
 42
0.005092
  0
VERTEX
  8
0
 10
256.236508
 20
248.233506
 42
0.000069
  0
VERTEX
  8
0
 10
265.639351
 20
307.880210
 42
0.000167
  0
VERTEX
  8
0
 10
274.424839
 20
363.782269
 42
0.001583
  0
VERTEX
  8
0
 10
278.099747
 20
387.711364
 42
-0.005400
  0
VERTEX
  8
0
 10
278.619706
 20
390.932958
 42
-0.007410
  0
VERTEX
  8
0
 10
279.161503
 20
393.817932
 42
-0.005022
  0
VERTEX
  8
0
 10
279.673913
 20
396.216114
 42
-0.083450
  0
VERTEX
  8
0
 10
279.980737
 20
396.968832
 42
-0.227449
  0
VERTEX
  8
0
 10
281.923756
 20
398.214063
 42
-0.001193
  0
VERTEX
  8
0
 10
304.991138
 20
401.001578
 42
-0.004325
  0
VERTEX
  8
0
 10
326.165590
 20
403.323586
 42
-0.038202
  0
VERTEX
  8
0
 10
335.563865
 20
403.551151
 42
-0.017537
  0
VERTEX
  8
0
 10
338.556934
 20
403.289410
 42
-0.014676
  0
VERTEX
  8
0
 10
341.708960
 20
402.807714
 42
-0.014929
  0
VERTEX
  8
0
 10
344.566191
 20
402.196169
 42
-0.038767
  0
SEQEND
  0
POLYLINE
  8
0
 66
1
 70
1
  0
VERTEX
  8
0
 10
239.068499
 20
391.388301
 42
-0.081171
  0
VERTEX
  8
0
 10
248.841631
 20
386.662014
 42
-0.116576
  0
VERTEX
  8
0
 10
255.202307
 20
379.500792
 42
-0.102541
  0
VERTEX
  8
0
 10
258.179519
 20
369.516337
 42
-0.052449
  0
VERTEX
  8
0
 10
257.925065
 20
356.387169
 42
-0.005606
  0
VERTEX
  8
0
 10
257.438278
 20
352.813771
 42
-0.007734
  0
VERTEX
  8
0
 10
256.915741
 20
349.617953
 42
-0.005188
  0
VERTEX
  8
0
 10
256.410471
 20
346.960863
 42
-0.089055
  0
VERTEX
  8
0
 10
256.086382
 20
346.139769
 42
-0.193369
  0
VERTEX
  8
0
 10
255.399667
 20
345.633586
 42
-0.008025
  0
VERTEX
  8
0
 10
252.376772
 20
344.903034
 42
-0.012906
  0
VERTEX
  8
0
 10
248.686425
 20
344.173135
 42
-0.008702
  0
VERTEX
  8
0
 10
244.442590
 20
343.522832
 42
0.000938
  0
VERTEX
  8
0
 10
240.060731
 20
342.920854
 42
0.001130
  0
VERTEX
  8
0
 10
235.944302
 20
342.337982
 42
0.000962
  0
VERTEX
  8
0
 10
232.479129
 20
341.832525
 42
0.007615
  0
VERTEX
  8
0
 10
230.878439
 20
341.570920
 42
0.000000
  0
VERTEX
  8
0
 10
228.256878
 20
341.101376
 42
0.000000
  0
VERTEX
  8
0
 10
228.739926
 20
349.800688
 42
0.007072
  0
VERTEX
  8
0
 10
228.953648
 20
354.969291
 42
0.045301
  0
VERTEX
  8
0
 10
228.787940
 20
357.581206
 42
0.079744
  0
VERTEX
  8
0
 10
228.186402
 20
359.439558
 42
0.049742
  0
VERTEX
  8
0
 10
226.945403
 20
361.368871
 42
0.043054
  0
VERTEX
  8
0
 10
225.356547
 20
363.050432
 42
0.122886
  0
VERTEX
  8
0
 10
223.941431
 20
363.792808
 42
0.067287
  0
VERTEX
  8
0
 10
221.880331
 20
364.008395
 42
0.006918
  0
VERTEX
  8
0
 10
216.979957
 20
363.792698
 42
0.032463
  0
VERTEX
  8
0
 10
210.699769
 20
363.018052
 42
0.060990
  0
VERTEX
  8
0
 10
205.836998
 20
361.463272
 42
0.070740
  0
VERTEX
  8
0
 10
201.981021
 20
358.977913
 42
0.061804
  0
VERTEX
  8
0
 10
198.765878
 20
355.410941
 42
0.078539
  0
VERTEX
  8
0
 10
196.671704
 20
351.112635
 42
0.025108
  0
VERTEX
  8
0
 10
194.932444
 20
344.197442
 42
0.008202
  0
VERTEX
  8
0
 10
192.552479
 20
331.103248
 42
0.000490
  0
VERTEX
  8
0
 10
186.063312
 20
291.500000
 42
0.001805
  0
VERTEX
  8
0
 10
183.396275
 20
274.741301
 42
0.009866
  0
VERTEX
  8
0
 10
182.165969
 20
265.647810
 42
0.016506
  0
VERTEX
  8
0
 10
181.699510
 20
259.953886
 42
0.079954
  0
VERTEX
  8
0
 10
182.057132
 20
256.740544
 42
0.076047
  0
VERTEX
  8
0
 10
183.629698
 20
253.239902
 42
0.134200
  0
VERTEX
  8
0
 10
185.974629
 20
251.141457
 42
0.103267
  0
VERTEX
  8
0
 10
189.526185
 20
250.206656
 42
0.033815
  0
VERTEX
  8
0
 10
194.965615
 20
250.293898
 42
0.066311
  0
VERTEX
  8
0
 10
204.120243
 20
252.303302
 42
0.147123
  0
VERTEX
  8
0
 10
209.791755
 20
256.531709
 42
0.099431
  0
VERTEX
  8
0
 10
213.496844
 20
264.406164
 42
0.020993
  0
VERTEX
  8
0
 10
216.523934
 20
279.370333
 42
0.004516
  0
VERTEX
  8
0
 10
217.094832
 20
283.184270
 42
0.007138
  0
VERTEX
  8
0
 10
217.508008
 20
286.465099
 42
0.002491
  0
VERTEX
  8
0
 10
217.807492
 20
289.279267
 42
0.225310
  0
VERTEX
  8
0
 10
217.671074
 20
289.662260
 42
0.216663
  0
VERTEX
  8
0
 10
217.306132
 20
289.799070
 42
0.005464
  0
VERTEX
  8
0
 10
215.500744
 20
289.656163
 42
0.010738
  0
VERTEX
  8
0
 10
213.348376
 20
289.415404
 42
0.006998
  0
VERTEX
  8
0
 10
210.874740
 20
289.049480
 42
-0.011084
  0
VERTEX
  8
0
 10
203.903650
 20
288.076398
 42
-0.296347
  0
VERTEX
  8
0
 10
202.301075
 20
288.869750
 42
-0.171201
  0
VERTEX
  8
0
 10
201.884257
 20
290.971275
 42
-0.003670
  0
VERTEX
  8
0
 10
203.485591
 20
301.519813
 42
-0.005334
  0
VERTEX
  8
0
 10
204.378435
 20
306.763155
 42
-0.007980
  0
VERTEX
  8
0
 10
205.280120
 20
311.321449
 42
-0.003961
  0
VERTEX
  8
0
 10
206.132174
 20
315.146607
 42
-0.150170
  0
VERTEX
  8
0
 10
206.569813
 20
315.901815
 42
-0.156204
  0
VERTEX
  8
0
 10
208.352415
 20
316.735754
 42
-0.000709
  0
VERTEX
  8
0
 10
229.166541
 20
319.377626
 42
-0.000604
  0
VERTEX
  8
0
 10
250.118745
 20
321.981115
 42
-0.190919
  0
VERTEX
  8
0
 10
251.710629
 20
321.566352
 42
-0.283992
  0
VERTEX
  8
0
 10
252.068846
 20
320.682869
 42
-0.000177
  0
VERTEX
  8
0
 10
247.345726
 20
292.928970
 42
-0.000971
  0
VERTEX
  8
0
 10
242.893975
 20
267.128107
 42
-0.037594
  0
VERTEX
  8
0
 10
241.461678
 20
261.470521
 42
-0.028489
  0
VERTEX
  8
0
 10
238.821884
 20
254.862659
 42
-0.029763
  0
VERTEX
  8
0
 10
235.481280
 20
248.697111
 42
-0.029251
  0
VERTEX
  8
0
 10
231.374373
 20
242.877392
 42
-0.025654
  0
VERTEX
  8
0
 10
226.442843
 20
237.303366
 42
-0.035191
  0
VERTEX
  8
0
 10
219.690246
 20
231.322918
 42
-0.045753
  0
VERTEX
  8
0
 10
212.706350
 20
226.914765
 42
-0.044046
  0
VERTEX
  8
0
 10
204.824265
 20
223.733988
 42
-0.029353
  0
VERTEX
  8
0
 10
195.351539
 20
221.447616
 42
-0.046463
  0
VERTEX
  8
0
 10
181.048545
 20
220.224799
 42
-0.082963
  0
VERTEX
  8
0
 10
169.450614
 20
222.252932
 42
-0.101263
  0
VERTEX
  8
0
 10
160.705811
 20
227.500822
 42
-0.102517
  0
VERTEX
  8
0
 10
154.771070
 20
235.741590
 42
-0.070805
  0
VERTEX
  8
0
 10
152.683783
 20
243.043257
 42
-0.044559
  0
VERTEX
  8
0
 10
152.257310
 20
251.920515
 42
-0.024704
  0
VERTEX
  8
0
 10
153.443840
 20
265.002418
 42
-0.005036
  0
VERTEX
  8
0
 10
156.917756
 20
288.000000
 42
0.000054
  0
VERTEX
  8
0
 10
159.016311
 20
301.013281
 42
0.000054
  0
VERTEX
  8
0
 10
161.118270
 20
314.065625
 42
0.000053
  0
VERTEX
  8
0
 10
162.954827
 20
325.485414
 42
0.000209
  0
VERTEX
  8
0
 10
164.079159
 20
332.500000
 42
-0.014180
  0
VERTEX
  8
0
 10
166.237596
 20
343.915570
 42
-0.026519
  0
VERTEX
  8
0
 10
168.728923
 20
352.978892
 42
-0.031692
  0
VERTEX
  8
0
 10
171.782141
 20
360.521309
 42
-0.036676
  0
VERTEX
  8
0
 10
175.641148
 20
367.240523
 42
-0.051044
  0
VERTEX
  8
0
 10
183.090512
 20
376.145190
 42
-0.056427
  0
VERTEX
  8
0
 10
191.961667
 20
383.021885
 42
-0.052914
  0
VERTEX
  8
0
 10
202.642560
 20
388.062730
 42
-0.037134
  0
VERTEX
  8
0
 10
215.500000
 20
391.496771
 42
-0.019514
  0
VERTEX
  8
0
 10
222.378988
 20
392.520506
 42
-0.028336
  0
VERTEX
  8
0
 10
228.506943
 20
392.839789
 42
-0.031771
  0
VERTEX
  8
0
 10
234.026659
 20
392.463190
 42
-0.039223
  0
SEQEND
  0
POLYLINE
  8
0
 66
1
 70
1
  0
VERTEX
  8
0
 10
567.812500
 20
506.316886
 42
0.051402
  0
VERTEX
  8
0
 10
568.359369
 20
506.160852
 42
0.054150
  0
VERTEX
  8
0
 10
568.916927
 20
506.123424
 42
0.060344
  0
VERTEX
  8
0
 10
569.402231
 20
506.202593
 42
0.126455
  0
VERTEX
  8
0
 10
569.729167
 20
506.395833
 42
0.296942
  0
VERTEX
  8
0
 10
569.775380
 20
506.614691
 42
0.208169
  0
VERTEX
  8
0
 10
569.592839
 20
506.799335
 42
0.077125
  0
VERTEX
  8
0
 10
569.112848
 20
506.910055
 42
0.028489
  0
VERTEX
  8
0
 10
568.416667
 20
506.921053
 42
0.018894
  0
VERTEX
  8
0
 10
567.670344
 20
506.862007
 42
0.168741
  0
VERTEX
  8
0
 10
567.378580
 20
506.720685
 42
0.470617
  0
VERTEX
  8
0
 10
567.395823
 20
506.538436
 42
0.054073
  0
SEQEND
  0
POLYLINE
  8
0
 66
1
 70
1
  0
VERTEX
  8
0
 10
550.812500
 20
504.316886
 42
0.051402
  0
VERTEX
  8
0
 10
551.359369
 20
504.160852
 42
0.054150
  0
VERTEX
  8
0
 10
551.916927
 20
504.123424
 42
0.060344
  0
VERTEX
  8
0
 10
552.402231
 20
504.202593
 42
0.126455
  0
VERTEX
  8
0
 10
552.729167
 20
504.395833
 42
0.296942
  0
VERTEX
  8
0
 10
552.775380
 20
504.614691
 42
0.208169
  0
VERTEX
  8
0
 10
552.592839
 20
504.799335
 42
0.077125
  0
VERTEX
  8
0
 10
552.112848
 20
504.910055
 42
0.028489
  0
VERTEX
  8
0
 10
551.416667
 20
504.921053
 42
0.018894
  0
VERTEX
  8
0
 10
550.670344
 20
504.862007
 42
0.168741
  0
VERTEX
  8
0
 10
550.378580
 20
504.720685
 42
0.470617
  0
VERTEX
  8
0
 10
550.395823
 20
504.538436
 42
0.054073
  0
SEQEND
  0
POLYLINE
  8
0
 66
1
 70
1
  0
VERTEX
  8
0
 10
760.812500
 20
503.316886
 42
0.051402
  0
VERTEX
  8
0
 10
761.359369
 20
503.160852
 42
0.054150
  0
VERTEX
  8
0
 10
761.916927
 20
503.123424
 42
0.060344
  0
VERTEX
  8
0
 10
762.402231
 20
503.202593
 42
0.126455
  0
VERTEX
  8
0
 10
762.729167
 20
503.395833
 42
0.296942
  0
VERTEX
  8
0
 10
762.775380
 20
503.614691
 42
0.208169
  0
VERTEX
  8
0
 10
762.592839
 20
503.799335
 42
0.077125
  0
VERTEX
  8
0
 10
762.112848
 20
503.910055
 42
0.028489
  0
VERTEX
  8
0
 10
761.416667
 20
503.921053
 42
0.018894
  0
VERTEX
  8
0
 10
760.670344
 20
503.862007
 42
0.168741
  0
VERTEX
  8
0
 10
760.378580
 20
503.720685
 42
0.470617
  0
VERTEX
  8
0
 10
760.395823
 20
503.538436
 42
0.054073
  0
SEQEND
  0
POLYLINE
  8
0
 66
1
 70
1
  0
VERTEX
  8
0
 10
526.750000
 20
501.337719
 42
0.057986
  0
VERTEX
  8
0
 10
527.320008
 20
501.181385
 42
0.037979
  0
VERTEX
  8
0
 10
528.000000
 20
501.129660
 42
0.037979
  0
VERTEX
  8
0
 10
528.679992
 20
501.181385
 42
0.057986
  0
VERTEX
  8
0
 10
529.250000
 20
501.337719
 42
0.174857
  0
VERTEX
  8
0
 10
529.459382
 20
501.525001
 42
0.447206
  0
VERTEX
  8
0
 10
529.398438
 20
501.693942
 42
0.078554
  0
VERTEX
  8
0
 10
528.891440
 20
501.810911
 42
0.017491
  0
VERTEX
  8
0
 10
528.000000
 20
501.842105
 42
0.017491
  0
VERTEX
  8
0
 10
527.108560
 20
501.810911
 42
0.078554
  0
VERTEX
  8
0
 10
526.601562
 20
501.693942
 42
0.447206
  0
VERTEX
  8
0
 10
526.540618
 20
501.525001
 42
0.174857
  0
SEQEND
  0
POLYLINE
  8
0
 66
1
 70
1
  0
VERTEX
  8
0
 10
712.812500
 20
497.316886
 42
0.051402
  0
VERTEX
  8
0
 10
713.359369
 20
497.160852
 42
0.054150
  0
VERTEX
  8
0
 10
713.916927
 20
497.123424
 42
0.060344
  0
VERTEX
  8
0
 10
714.402231
 20
497.202593
 42
0.126455
  0
VERTEX
  8
0
 10
714.729167
 20
497.395833
 42
0.296942
  0
VERTEX
  8
0
 10
714.775380
 20
497.614691
 42
0.208169
  0
VERTEX
  8
0
 10
714.592839
 20
497.799335
 42
0.077125
  0
VERTEX
  8
0
 10
714.112848
 20
497.910055
 42
0.028489
  0
VERTEX
  8
0
 10
713.416667
 20
497.921053
 42
0.018894
  0
VERTEX
  8
0
 10
712.670344
 20
497.862007
 42
0.168741
  0
VERTEX
  8
0
 10
712.378580
 20
497.720685
 42
0.470617
  0
VERTEX
  8
0
 10
712.395823
 20
497.538436
 42
0.054073
  0
SEQEND
  0
POLYLINE
  8
0
 66
1
 70
1
  0
VERTEX
  8
0
 10
149.157895
 20
494.000000
 42
0.017491
  0
VERTEX
  8
0
 10
149.189089
 20
493.108560
 42
0.078554
  0
VERTEX
  8
0
 10
149.306058
 20
492.601562
 42
0.447206
  0
VERTEX
  8
0
 10
149.474999
 20
492.540618
 42
0.174857
  0
VERTEX
  8
0
 10
149.662281
 20
492.750000
 42
0.057986
  0
VERTEX
  8
0
 10
149.818615
 20
493.320008
 42
0.037979
  0
VERTEX
  8
0
 10
149.870340
 20
494.000000
 42
0.037979
  0
VERTEX
  8
0
 10
149.818615
 20
494.679992
 42
0.057986
  0
VERTEX
  8
0
 10
149.662281
 20
495.250000
 42
0.174857
  0
VERTEX
  8
0
 10
149.474999
 20
495.459382
 42
0.447206
  0
VERTEX
  8
0
 10
149.306058
 20
495.398438
 42
0.078554
  0
VERTEX
  8
0
 10
149.189089
 20
494.891440
 42
0.017491
  0
SEQEND
  0
POLYLINE
  8
0
 66
1
 70
1
  0
VERTEX
  8
0
 10
696.812500
 20
495.316886
 42
0.051402
  0
VERTEX
  8
0
 10
697.359369
 20
495.160852
 42
0.054150
  0
VERTEX
  8
0
 10
697.916927
 20
495.123424
 42
0.060344
  0
VERTEX
  8
0
 10
698.402231
 20
495.202593
 42
0.126455
  0
VERTEX
  8
0
 10
698.729167
 20
495.395833
 42
0.296942
  0
VERTEX
  8
0
 10
698.775380
 20
495.614691
 42
0.208169
  0
VERTEX
  8
0
 10
698.592839
 20
495.799335
 42
0.077125
  0
VERTEX
  8
0
 10
698.112848
 20
495.910055
 42
0.028489
  0
VERTEX
  8
0
 10
697.416667
 20
495.921053
 42
0.018894
  0
VERTEX
  8
0
 10
696.670344
 20
495.862007
 42
0.168741
  0
VERTEX
  8
0
 10
696.378580
 20
495.720685
 42
0.470617
  0
VERTEX
  8
0
 10
696.395823
 20
495.538436
 42
0.054073
  0
SEQEND
  0
POLYLINE
  8
0
 66
1
 70
1
  0
VERTEX
  8
0
 10
469.812500
 20
494.316886
 42
0.051402
  0
VERTEX
  8
0
 10
470.359369
 20
494.160852
 42
0.054150
  0
VERTEX
  8
0
 10
470.916927
 20
494.123424
 42
0.060344
  0
VERTEX
  8
0
 10
471.402231
 20
494.202593
 42
0.126455
  0
VERTEX
  8
0
 10
471.729167
 20
494.395833
 42
0.296942
  0
VERTEX
  8
0
 10
471.775380
 20
494.614691
 42
0.208169
  0
VERTEX
  8
0
 10
471.592839
 20
494.799335
 42
0.077125
  0
VERTEX
  8
0
 10
471.112848
 20
494.910055
 42
0.028489
  0
VERTEX
  8
0
 10
470.416667
 20
494.921053
 42
0.018894
  0
VERTEX
  8
0
 10
469.670344
 20
494.862007
 42
0.168741
  0
VERTEX
  8
0
 10
469.378580
 20
494.720685
 42
0.470617
  0
VERTEX
  8
0
 10
469.395823
 20
494.538436
 42
0.054073
  0
SEQEND
  0
POLYLINE
  8
0
 66
1
 70
1
  0
VERTEX
  8
0
 10
663.750000
 20
491.337719
 42
0.057986
  0
VERTEX
  8
0
 10
664.320008
 20
491.181385
 42
0.037979
  0
VERTEX
  8
0
 10
665.000000
 20
491.129660
 42
0.037979
  0
VERTEX
  8
0
 10
665.679992
 20
491.181385
 42
0.057986
  0
VERTEX
  8
0
 10
666.250000
 20
491.337719
 42
0.174857
  0
VERTEX
  8
0
 10
666.459382
 20
491.525001
 42
0.447206
  0
VERTEX
  8
0
 10
666.398438
 20
491.693942
 42
0.078554
  0
VERTEX
  8
0
 10
665.891440
 20
491.810911
 42
0.017491
  0
VERTEX
  8
0
 10
665.000000
 20
491.842105
 42
0.017491
  0
VERTEX
  8
0
 10
664.108560
 20
491.810911
 42
0.078554
  0
VERTEX
  8
0
 10
663.601562
 20
491.693942
 42
0.447206
  0
VERTEX
  8
0
 10
663.540618
 20
491.525001
 42
0.174857
  0
SEQEND
  0
POLYLINE
  8
0
 66
1
 70
1
  0
VERTEX
  8
0
 10
419.750000
 20
488.337719
 42
0.057986
  0
VERTEX
  8
0
 10
420.320008
 20
488.181385
 42
0.037979
  0
VERTEX
  8
0
 10
421.000000
 20
488.129660
 42
0.037979
  0
VERTEX
  8
0
 10
421.679992
 20
488.181385
 42
0.057986
  0
VERTEX
  8
0
 10
422.250000
 20
488.337719
 42
0.174857
  0
VERTEX
  8
0
 10
422.459382
 20
488.525001
 42
0.447206
  0
VERTEX
  8
0
 10
422.398438
 20
488.693942
 42
0.078554
  0
VERTEX
  8
0
 10
421.891440
 20
488.810911
 42
0.017491
  0
VERTEX
  8
0
 10
421.000000
 20
488.842105
 42
0.017491
  0
VERTEX
  8
0
 10
420.108560
 20
488.810911
 42
0.078554
  0
VERTEX
  8
0
 10
419.601562
 20
488.693942
 42
0.447206
  0
VERTEX
  8
0
 10
419.540618
 20
488.525001
 42
0.174857
  0
SEQEND
  0
POLYLINE
  8
0
 66
1
 70
1
  0
VERTEX
  8
0
 10
403.812500
 20
486.316886
 42
0.051402
  0
VERTEX
  8
0
 10
404.359369
 20
486.160852
 42
0.054150
  0
VERTEX
  8
0
 10
404.916927
 20
486.123424
 42
0.060344
  0
VERTEX
  8
0
 10
405.402231
 20
486.202593
 42
0.126455
  0
VERTEX
  8
0
 10
405.729167
 20
486.395833
 42
0.296942
  0
VERTEX
  8
0
 10
405.775380
 20
486.614691
 42
0.208169
  0
VERTEX
  8
0
 10
405.592839
 20
486.799335
 42
0.077125
  0
VERTEX
  8
0
 10
405.112848
 20
486.910055
 42
0.028489
  0
VERTEX
  8
0
 10
404.416667
 20
486.921053
 42
0.018894
  0
VERTEX
  8
0
 10
403.670344
 20
486.862007
 42
0.168741
  0
VERTEX
  8
0
 10
403.378580
 20
486.720685
 42
0.470617
  0
VERTEX
  8
0
 10
403.395823
 20
486.538436
 42
0.054073
  0
SEQEND
  0
POLYLINE
  8
0
 66
1
 70
1
  0
VERTEX
  8
0
 10
602.812500
 20
483.316886
 42
0.051402
  0
VERTEX
  8
0
 10
603.359369
 20
483.160852
 42
0.054150
  0
VERTEX
  8
0
 10
603.916927
 20
483.123424
 42
0.060344
  0
VERTEX
  8
0
 10
604.402231
 20
483.202593
 42
0.126455
  0
VERTEX
  8
0
 10
604.729167
 20
483.395833
 42
0.296942
  0
VERTEX
  8
0
 10
604.775380
 20
483.614691
 42
0.208169
  0
VERTEX
  8
0
 10
604.592839
 20
483.799335
 42
0.077125
  0
VERTEX
  8
0
 10
604.112848
 20
483.910055
 42
0.028489
  0
VERTEX
  8
0
 10
603.416667
 20
483.921053
 42
0.018894
  0
VERTEX
  8
0
 10
602.670344
 20
483.862007
 42
0.168741
  0
VERTEX
  8
0
 10
602.378580
 20
483.720685
 42
0.470617
  0
VERTEX
  8
0
 10
602.395823
 20
483.538436
 42
0.054073
  0
SEQEND
  0
POLYLINE
  8
0
 66
1
 70
1
  0
VERTEX
  8
0
 10
583.750000
 20
481.337719
 42
0.057986
  0
VERTEX
  8
0
 10
584.320008
 20
481.181385
 42
0.037979
  0
VERTEX
  8
0
 10
585.000000
 20
481.129660
 42
0.037979
  0
VERTEX
  8
0
 10
585.679992
 20
481.181385
 42
0.057986
  0
VERTEX
  8
0
 10
586.250000
 20
481.337719
 42
0.174857
  0
VERTEX
  8
0
 10
586.459382
 20
481.525001
 42
0.447206
  0
VERTEX
  8
0
 10
586.398438
 20
481.693942
 42
0.078554
  0
VERTEX
  8
0
 10
585.891440
 20
481.810911
 42
0.017491
  0
VERTEX
  8
0
 10
585.000000
 20
481.842105
 42
0.017491
  0
VERTEX
  8
0
 10
584.108560
 20
481.810911
 42
0.078554
  0
VERTEX
  8
0
 10
583.601562
 20
481.693942
 42
0.447206
  0
VERTEX
  8
0
 10
583.540618
 20
481.525001
 42
0.174857
  0
SEQEND
  0
POLYLINE
  8
0
 66
1
 70
1
  0
VERTEX
  8
0
 10
353.812500
 20
480.316886
 42
0.051402
  0
VERTEX
  8
0
 10
354.359369
 20
480.160852
 42
0.054150
  0
VERTEX
  8
0
 10
354.916927
 20
480.123424
 42
0.060344
  0
VERTEX
  8
0
 10
355.402231
 20
480.202593
 42
0.126455
  0
VERTEX
  8
0
 10
355.729167
 20
480.395833
 42
0.296942
  0
VERTEX
  8
0
 10
355.775380
 20
480.614691
 42
0.208169
  0
VERTEX
  8
0
 10
355.592839
 20
480.799335
 42
0.077125
  0
VERTEX
  8
0
 10
355.112848
 20
480.910055
 42
0.028489
  0
VERTEX
  8
0
 10
354.416667
 20
480.921053
 42
0.018894
  0
VERTEX
  8
0
 10
353.670344
 20
480.862007
 42
0.168741
  0
VERTEX
  8
0
 10
353.378580
 20
480.720685
 42
0.470617
  0
VERTEX
  8
0
 10
353.395823
 20
480.538436
 42
0.054073
  0
SEQEND
  0
POLYLINE
  8
0
 66
1
 70
1
  0
VERTEX
  8
0
 10
566.812500
 20
479.316886
 42
0.051402
  0
VERTEX
  8
0
 10
567.359369
 20
479.160852
 42
0.054150
  0
VERTEX
  8
0
 10
567.916927
 20
479.123424
 42
0.060344
  0
VERTEX
  8
0
 10
568.402231
 20
479.202593
 42
0.126455
  0
VERTEX
  8
0
 10
568.729167
 20
479.395833
 42
0.296942
  0
VERTEX
  8
0
 10
568.775380
 20
479.614691
 42
0.208169
  0
VERTEX
  8
0
 10
568.592839
 20
479.799335
 42
0.077125
  0
VERTEX
  8
0
 10
568.112848
 20
479.910055
 42
0.028489
  0
VERTEX
  8
0
 10
567.416667
 20
479.921053
 42
0.018894
  0
VERTEX
  8
0
 10
566.670344
 20
479.862007
 42
0.168741
  0
VERTEX
  8
0
 10
566.378580
 20
479.720685
 42
0.470617
  0
VERTEX
  8
0
 10
566.395823
 20
479.538436
 42
0.054073
  0
SEQEND
  0
POLYLINE
  8
0
 66
1
 70
1
  0
VERTEX
  8
0
 10
481.812500
 20
468.316886
 42
0.051402
  0
VERTEX
  8
0
 10
482.359369
 20
468.160852
 42
0.054150
  0
VERTEX
  8
0
 10
482.916927
 20
468.123424
 42
0.060344
  0
VERTEX
  8
0
 10
483.402231
 20
468.202593
 42
0.126455
  0
VERTEX
  8
0
 10
483.729167
 20
468.395833
 42
0.296942
  0
VERTEX
  8
0
 10
483.775380
 20
468.614691
 42
0.208169
  0
VERTEX
  8
0
 10
483.592839
 20
468.799335
 42
0.077125
  0
VERTEX
  8
0
 10
483.112848
 20
468.910055
 42
0.028489
  0
VERTEX
  8
0
 10
482.416667
 20
468.921053
 42
0.018894
  0
VERTEX
  8
0
 10
481.670344
 20
468.862007
 42
0.168741
  0
VERTEX
  8
0
 10
481.378580
 20
468.720685
 42
0.470617
  0
VERTEX
  8
0
 10
481.395823
 20
468.538436
 42
0.054073
  0
SEQEND
  0
POLYLINE
  8
0
 66
1
 70
1
  0
VERTEX
  8
0
 10
456.812500
 20
465.316886
 42
0.051402
  0
VERTEX
  8
0
 10
457.359369
 20
465.160852
 42
0.054150
  0
VERTEX
  8
0
 10
457.916927
 20
465.123424
 42
0.060344
  0
VERTEX
  8
0
 10
458.402231
 20
465.202593
 42
0.126455
  0
VERTEX
  8
0
 10
458.729167
 20
465.395833
 42
0.296942
  0
VERTEX
  8
0
 10
458.775380
 20
465.614691
 42
0.208169
  0
VERTEX
  8
0
 10
458.592839
 20
465.799335
 42
0.077125
  0
VERTEX
  8
0
 10
458.112848
 20
465.910055
 42
0.028489
  0
VERTEX
  8
0
 10
457.416667
 20
465.921053
 42
0.018894
  0
VERTEX
  8
0
 10
456.670344
 20
465.862007
 42
0.168741
  0
VERTEX
  8
0
 10
456.378580
 20
465.720685
 42
0.470617
  0
VERTEX
  8
0
 10
456.395823
 20
465.538436
 42
0.054073
  0
SEQEND
  0
POLYLINE
  8
0
 66
1
 70
1
  0
VERTEX
  8
0
 10
144.078947
 20
463.416667
 42
0.018894
  0
VERTEX
  8
0
 10
144.137993
 20
462.670344
 42
0.168741
  0
VERTEX
  8
0
 10
144.279315
 20
462.378580
 42
0.470617
  0
VERTEX
  8
0
 10
144.461564
 20
462.395823
 42
0.054073
  0
VERTEX
  8
0
 10
144.683114
 20
462.812500
 42
0.051402
  0
VERTEX
  8
0
 10
144.839148
 20
463.359369
 42
0.054150
  0
VERTEX
  8
0
 10
144.876576
 20
463.916927
 42
0.060344
  0
VERTEX
  8
0
 10
144.797407
 20
464.402231
 42
0.126455
  0
VERTEX
  8
0
 10
144.604167
 20
464.729167
 42
0.296942
  0
VERTEX
  8
0
 10
144.385309
 20
464.775380
 42
0.208169
  0
VERTEX
  8
0
 10
144.200665
 20
464.592839
 42
0.077125
  0
VERTEX
  8
0
 10
144.089945
 20
464.112848
 42
0.028489
  0
SEQEND
  0
POLYLINE
  8
0
 66
1
 70
1
  0
VERTEX
  8
0
 10
216.812500
 20
463.316886
 42
0.051402
  0
VERTEX
  8
0
 10
217.359369
 20
463.160852
 42
0.054150
  0
VERTEX
  8
0
 10
217.916927
 20
463.123424
 42
0.060344
  0
VERTEX
  8
0
 10
218.402231
 20
463.202593
 42
0.126455
  0
VERTEX
  8
0
 10
218.729167
 20
463.395833
 42
0.296942
  0
VERTEX
  8
0
 10
218.775380
 20
463.614691
 42
0.208169
  0
VERTEX
  8
0
 10
218.592839
 20
463.799335
 42
0.077125
  0
VERTEX
  8
0
 10
218.112848
 20
463.910055
 42
0.028489
  0
VERTEX
  8
0
 10
217.416667
 20
463.921053
 42
0.018894
  0
VERTEX
  8
0
 10
216.670344
 20
463.862007
 42
0.168741
  0
VERTEX
  8
0
 10
216.378580
 20
463.720685
 42
0.470617
  0
VERTEX
  8
0
 10
216.395823
 20
463.538436
 42
0.054073
  0
SEQEND
  0
POLYLINE
  8
0
 66
1
 70
1
  0
VERTEX
  8
0
 10
193.812500
 20
460.316886
 42
0.051402
  0
VERTEX
  8
0
 10
194.359369
 20
460.160852
 42
0.054150
  0
VERTEX
  8
0
 10
194.916927
 20
460.123424
 42
0.060344
  0
VERTEX
  8
0
 10
195.402231
 20
460.202593
 42
0.126455
  0
VERTEX
  8
0
 10
195.729167
 20
460.395833
 42
0.296942
  0
VERTEX
  8
0
 10
195.775380
 20
460.614691
 42
0.208169
  0
VERTEX
  8
0
 10
195.592839
 20
460.799335
 42
0.077125
  0
VERTEX
  8
0
 10
195.112848
 20
460.910055
 42
0.028489
  0
VERTEX
  8
0
 10
194.416667
 20
460.921053
 42
0.018894
  0
VERTEX
  8
0
 10
193.670344
 20
460.862007
 42
0.168741
  0
VERTEX
  8
0
 10
193.378580
 20
460.720685
 42
0.470617
  0
VERTEX
  8
0
 10
193.395823
 20
460.538436
 42
0.054073
  0
SEQEND
  0
POLYLINE
  8
0
 66
1
 70
1
  0
VERTEX
  8
0
 10
163.750000
 20
456.337719
 42
0.057986
  0
VERTEX
  8
0
 10
164.320008
 20
456.181385
 42
0.037979
  0
VERTEX
  8
0
 10
165.000000
 20
456.129660
 42
0.037979
  0
VERTEX
  8
0
 10
165.679992
 20
456.181385
 42
0.057986
  0
VERTEX
  8
0
 10
166.250000
 20
456.337719
 42
0.174857
  0
VERTEX
  8
0
 10
166.459382
 20
456.525001
 42
0.447206
  0
VERTEX
  8
0
 10
166.398438
 20
456.693942
 42
0.078554
  0
VERTEX
  8
0
 10
165.891440
 20
456.810911
 42
0.017491
  0
VERTEX
  8
0
 10
165.000000
 20
456.842105
 42
0.017491
  0
VERTEX
  8
0
 10
164.108560
 20
456.810911
 42
0.078554
  0
VERTEX
  8
0
 10
163.601562
 20
456.693942
 42
0.447206
  0
VERTEX
  8
0
 10
163.540618
 20
456.525001
 42
0.174857
  0
SEQEND
  0
POLYLINE
  8
0
 66
1
 70
1
  0
VERTEX
  8
0
 10
149.812500
 20
455.316886
 42
0.051402
  0
VERTEX
  8
0
 10
150.359369
 20
455.160852
 42
0.054150
  0
VERTEX
  8
0
 10
150.916927
 20
455.123424
 42
0.060344
  0
VERTEX
  8
0
 10
151.402231
 20
455.202593
 42
0.126455
  0
VERTEX
  8
0
 10
151.729167
 20
455.395833
 42
0.296942
  0
VERTEX
  8
0
 10
151.775380
 20
455.614691
 42
0.208169
  0
VERTEX
  8
0
 10
151.592839
 20
455.799335
 42
0.077125
  0
VERTEX
  8
0
 10
151.112848
 20
455.910055
 42
0.028489
  0
VERTEX
  8
0
 10
150.416667
 20
455.921053
 42
0.018894
  0
VERTEX
  8
0
 10
149.670344
 20
455.862007
 42
0.168741
  0
VERTEX
  8
0
 10
149.378580
 20
455.720685
 42
0.470617
  0
VERTEX
  8
0
 10
149.395823
 20
455.538436
 42
0.054073
  0
SEQEND
  0
POLYLINE
  8
0
 66
1
 70
1
  0
VERTEX
  8
0
 10
155.750000
 20
455.337719
 42
0.057986
  0
VERTEX
  8
0
 10
156.320008
 20
455.181385
 42
0.037979
  0
VERTEX
  8
0
 10
157.000000
 20
455.129660
 42
0.037979
  0
VERTEX
  8
0
 10
157.679992
 20
455.181385
 42
0.057986
  0
VERTEX
  8
0
 10
158.250000
 20
455.337719
 42
0.174857
  0
VERTEX
  8
0
 10
158.459382
 20
455.525001
 42
0.447206
  0
VERTEX
  8
0
 10
158.398438
 20
455.693942
 42
0.078554
  0
VERTEX
  8
0
 10
157.891440
 20
455.810911
 42
0.017491
  0
VERTEX
  8
0
 10
157.000000
 20
455.842105
 42
0.017491
  0
VERTEX
  8
0
 10
156.108560
 20
455.810911
 42
0.078554
  0
VERTEX
  8
0
 10
155.601562
 20
455.693942
 42
0.447206
  0
VERTEX
  8
0
 10
155.540618
 20
455.525001
 42
0.174857
  0
SEQEND
  0
POLYLINE
  8
0
 66
1
 70
1
  0
VERTEX
  8
0
 10
376.750000
 20
455.337719
 42
0.057986
  0
VERTEX
  8
0
 10
377.320008
 20
455.181385
 42
0.037979
  0
VERTEX
  8
0
 10
378.000000
 20
455.129660
 42
0.037979
  0
VERTEX
  8
0
 10
378.679992
 20
455.181385
 42
0.057986
  0
VERTEX
  8
0
 10
379.250000
 20
455.337719
 42
0.174857
  0
VERTEX
  8
0
 10
379.459382
 20
455.525001
 42
0.447206
  0
VERTEX
  8
0
 10
379.398438
 20
455.693942
 42
0.078554
  0
VERTEX
  8
0
 10
378.891440
 20
455.810911
 42
0.017491
  0
VERTEX
  8
0
 10
378.000000
 20
455.842105
 42
0.017491
  0
VERTEX
  8
0
 10
377.108560
 20
455.810911
 42
0.078554
  0
VERTEX
  8
0
 10
376.601562
 20
455.693942
 42
0.447206
  0
VERTEX
  8
0
 10
376.540618
 20
455.525001
 42
0.174857
  0
SEQEND
  0
POLYLINE
  8
0
 66
1
 70
1
  0
VERTEX
  8
0
 10
351.812500
 20
452.316886
 42
0.051402
  0
VERTEX
  8
0
 10
352.359369
 20
452.160852
 42
0.054150
  0
VERTEX
  8
0
 10
352.916927
 20
452.123424
 42
0.060344
  0
VERTEX
  8
0
 10
353.402231
 20
452.202593
 42
0.126455
  0
VERTEX
  8
0
 10
353.729167
 20
452.395833
 42
0.296942
  0
VERTEX
  8
0
 10
353.775380
 20
452.614691
 42
0.208169
  0
VERTEX
  8
0
 10
353.592839
 20
452.799335
 42
0.077125
  0
VERTEX
  8
0
 10
353.112848
 20
452.910055
 42
0.028489
  0
VERTEX
  8
0
 10
352.416667
 20
452.921053
 42
0.018894
  0
VERTEX
  8
0
 10
351.670344
 20
452.862007
 42
0.168741
  0
VERTEX
  8
0
 10
351.378580
 20
452.720685
 42
0.470617
  0
VERTEX
  8
0
 10
351.395823
 20
452.538436
 42
0.054073
  0
SEQEND
  0
POLYLINE
  8
0
 66
1
 70
1
  0
VERTEX
  8
0
 10
333.750000
 20
450.337719
 42
0.057986
  0
VERTEX
  8
0
 10
334.320008
 20
450.181385
 42
0.037979
  0
VERTEX
  8
0
 10
335.000000
 20
450.129660
 42
0.037979
  0
VERTEX
  8
0
 10
335.679992
 20
450.181385
 42
0.057986
  0
VERTEX
  8
0
 10
336.250000
 20
450.337719
 42
0.174857
  0
VERTEX
  8
0
 10
336.459382
 20
450.525001
 42
0.447206
  0
VERTEX
  8
0
 10
336.398438
 20
450.693942
 42
0.078554
  0
VERTEX
  8
0
 10
335.891440
 20
450.810911
 42
0.017491
  0
VERTEX
  8
0
 10
335.000000
 20
450.842105
 42
0.017491
  0
VERTEX
  8
0
 10
334.108560
 20
450.810911
 42
0.078554
  0
VERTEX
  8
0
 10
333.601562
 20
450.693942
 42
0.447206
  0
VERTEX
  8
0
 10
333.540618
 20
450.525001
 42
0.174857
  0
SEQEND
  0
POLYLINE
  8
0
 66
1
 70
1
  0
VERTEX
  8
0
 10
323.812500
 20
449.316886
 42
0.051402
  0
VERTEX
  8
0
 10
324.359369
 20
449.160852
 42
0.054150
  0
VERTEX
  8
0
 10
324.916927
 20
449.123424
 42
0.060344
  0
VERTEX
  8
0
 10
325.402231
 20
449.202593
 42
0.126455
  0
VERTEX
  8
0
 10
325.729167
 20
449.395833
 42
0.296942
  0
VERTEX
  8
0
 10
325.775380
 20
449.614691
 42
0.208169
  0
VERTEX
  8
0
 10
325.592839
 20
449.799335
 42
0.077125
  0
VERTEX
  8
0
 10
325.112848
 20
449.910055
 42
0.028489
  0
VERTEX
  8
0
 10
324.416667
 20
449.921053
 42
0.018894
  0
VERTEX
  8
0
 10
323.670344
 20
449.862007
 42
0.168741
  0
VERTEX
  8
0
 10
323.378580
 20
449.720685
 42
0.470617
  0
VERTEX
  8
0
 10
323.395823
 20
449.538436
 42
0.054073
  0
SEQEND
  0
POLYLINE
  8
0
 66
1
 70
1
  0
VERTEX
  8
0
 10
299.812500
 20
446.316886
 42
0.051402
  0
VERTEX
  8
0
 10
300.359369
 20
446.160852
 42
0.054150
  0
VERTEX
  8
0
 10
300.916927
 20
446.123424
 42
0.060344
  0
VERTEX
  8
0
 10
301.402231
 20
446.202593
 42
0.126455
  0
VERTEX
  8
0
 10
301.729167
 20
446.395833
 42
0.296942
  0
VERTEX
  8
0
 10
301.775380
 20
446.614691
 42
0.208169
  0
VERTEX
  8
0
 10
301.592839
 20
446.799335
 42
0.077125
  0
VERTEX
  8
0
 10
301.112848
 20
446.910055
 42
0.028489
  0
VERTEX
  8
0
 10
300.416667
 20
446.921053
 42
0.018894
  0
VERTEX
  8
0
 10
299.670344
 20
446.862007
 42
0.168741
  0
VERTEX
  8
0
 10
299.378580
 20
446.720685
 42
0.470617
  0
VERTEX
  8
0
 10
299.395823
 20
446.538436
 42
0.054073
  0
SEQEND
  0
POLYLINE
  8
0
 66
1
 70
1
  0
VERTEX
  8
0
 10
275.269032
 20
443.307009
 42
0.037336
  0
VERTEX
  8
0
 10
276.036634
 20
443.167106
 42
0.029507
  0
VERTEX
  8
0
 10
276.880008
 20
443.127736
 42
0.030339
  0
VERTEX
  8
0
 10
277.671085
 20
443.185595
 42
0.062780
  0
VERTEX
  8
0
 10
278.269032
 20
443.344063
 42
0.313180
  0
VERTEX
  8
0
 10
278.386009
 20
443.522870
 42
0.333666
  0
VERTEX
  8
0
 10
278.257153
 20
443.684921
 42
0.052471
  0
VERTEX
  8
0
 10
277.580113
 20
443.787295
 42
0.014395
  0
VERTEX
  8
0
 10
276.500000
 20
443.805051
 42
0.012823
  0
VERTEX
  8
0
 10
275.431793
 20
443.764444
 42
0.080377
  0
VERTEX
  8
0
 10
274.900903
 20
443.643467
 42
0.597527
  0
VERTEX
  8
0
 10
274.883358
 20
443.483340
 42
0.087174
  0
SEQEND
  0
POLYLINE
  8
0
 66
1
 70
1
  0
VERTEX
  8
0
 10
251.812500
 20
440.316886
 42
0.051402
  0
VERTEX
  8
0
 10
252.359369
 20
440.160852
 42
0.054150
  0
VERTEX
  8
0
 10
252.916927
 20
440.123424
 42
0.060344
  0
VERTEX
  8
0
 10
253.402231
 20
440.202593
 42
0.126455
  0
VERTEX
  8
0
 10
253.729167
 20
440.395833
 42
0.296942
  0
VERTEX
  8
0
 10
253.775380
 20
440.614691
 42
0.208169
  0
VERTEX
  8
0
 10
253.592839
 20
440.799335
 42
0.077125
  0
VERTEX
  8
0
 10
253.112848
 20
440.910055
 42
0.028489
  0
VERTEX
  8
0
 10
252.416667
 20
440.921053
 42
0.018894
  0
VERTEX
  8
0
 10
251.670344
 20
440.862007
 42
0.168741
  0
VERTEX
  8
0
 10
251.378580
 20
440.720685
 42
0.470617
  0
VERTEX
  8
0
 10
251.395823
 20
440.538436
 42
0.054073
  0
SEQEND
  0
POLYLINE
  8
0
 66
1
 70
1
  0
VERTEX
  8
0
 10
235.750000
 20
438.337719
 42
0.057986
  0
VERTEX
  8
0
 10
236.320008
 20
438.181385
 42
0.037979
  0
VERTEX
  8
0
 10
237.000000
 20
438.129660
 42
0.037979
  0
VERTEX
  8
0
 10
237.679992
 20
438.181385
 42
0.057986
  0
VERTEX
  8
0
 10
238.250000
 20
438.337719
 42
0.174857
  0
VERTEX
  8
0
 10
238.459382
 20
438.525001
 42
0.447206
  0
VERTEX
  8
0
 10
238.398438
 20
438.693942
 42
0.078554
  0
VERTEX
  8
0
 10
237.891440
 20
438.810911
 42
0.017491
  0
VERTEX
  8
0
 10
237.000000
 20
438.842105
 42
0.017491
  0
VERTEX
  8
0
 10
236.108560
 20
438.810911
 42
0.078554
  0
VERTEX
  8
0
 10
235.601562
 20
438.693942
 42
0.447206
  0
VERTEX
  8
0
 10
235.540618
 20
438.525001
 42
0.174857
  0
SEQEND
  0
POLYLINE
  8
0
 66
1
 70
1
  0
VERTEX
  8
0
 10
171.812500
 20
430.316886
 42
0.051402
  0
VERTEX
  8
0
 10
172.359369
 20
430.160852
 42
0.054150
  0
VERTEX
  8
0
 10
172.916927
 20
430.123424
 42
0.060344
  0
VERTEX
  8
0
 10
173.402231
 20
430.202593
 42
0.126455
  0
VERTEX
  8
0
 10
173.729167
 20
430.395833
 42
0.296942
  0
VERTEX
  8
0
 10
173.775380
 20
430.614691
 42
0.208169
  0
VERTEX
  8
0
 10
173.592839
 20
430.799335
 42
0.077125
  0
VERTEX
  8
0
 10
173.112848
 20
430.910055
 42
0.028489
  0
VERTEX
  8
0
 10
172.416667
 20
430.921053
 42
0.018894
  0
VERTEX
  8
0
 10
171.670344
 20
430.862007
 42
0.168741
  0
VERTEX
  8
0
 10
171.378580
 20
430.720685
 42
0.470617
  0
VERTEX
  8
0
 10
171.395823
 20
430.538436
 42
0.054073
  0
SEQEND
  0
POLYLINE
  8
0
 66
1
 70
1
  0
VERTEX
  8
0
 10
867.078947
 20
414.416667
 42
0.018894
  0
VERTEX
  8
0
 10
867.137993
 20
413.670344
 42
0.168741
  0
VERTEX
  8
0
 10
867.279315
 20
413.378580
 42
0.470617
  0
VERTEX
  8
0
 10
867.461564
 20
413.395823
 42
0.054073
  0
VERTEX
  8
0
 10
867.683114
 20
413.812500
 42
0.051402
  0
VERTEX
  8
0
 10
867.839148
 20
414.359369
 42
0.054150
  0
VERTEX
  8
0
 10
867.876576
 20
414.916927
 42
0.060344
  0
VERTEX
  8
0
 10
867.797407
 20
415.402231
 42
0.126455
  0
VERTEX
  8
0
 10
867.604167
 20
415.729167
 42
0.296942
  0
VERTEX
  8
0
 10
867.385309
 20
415.775380
 42
0.208169
  0
VERTEX
  8
0
 10
867.200665
 20
415.592839
 42
0.077125
  0
VERTEX
  8
0
 10
867.089945
 20
415.112848
 42
0.028489
  0
SEQEND
  0
POLYLINE
  8
0
 66
1
 70
1
  0
VERTEX
  8
0
 10
864.157895
 20
396.000000
 42
0.017491
  0
VERTEX
  8
0
 10
864.189089
 20
395.108560
 42
0.078554
  0
VERTEX
  8
0
 10
864.306058
 20
394.601562
 42
0.447206
  0
VERTEX
  8
0
 10
864.474999
 20
394.540618
 42
0.174857
  0
VERTEX
  8
0
 10
864.662281
 20
394.750000
 42
0.057986
  0
VERTEX
  8
0
 10
864.818615
 20
395.320008
 42
0.037979
  0
VERTEX
  8
0
 10
864.870340
 20
396.000000
 42
0.037979
  0
VERTEX
  8
0
 10
864.818615
 20
396.679992
 42
0.057986
  0
VERTEX
  8
0
 10
864.662281
 20
397.250000
 42
0.174857
  0
VERTEX
  8
0
 10
864.474999
 20
397.459382
 42
0.447206
  0
VERTEX
  8
0
 10
864.306058
 20
397.398438
 42
0.078554
  0
VERTEX
  8
0
 10
864.189089
 20
396.891440
 42
0.017491
  0
SEQEND
  0
POLYLINE
  8
0
 66
1
 70
1
  0
VERTEX
  8
0
 10
126.078947
 20
361.416667
 42
0.018894
  0
VERTEX
  8
0
 10
126.137993
 20
360.670344
 42
0.168741
  0
VERTEX
  8
0
 10
126.279315
 20
360.378580
 42
0.470617
  0
VERTEX
  8
0
 10
126.461564
 20
360.395823
 42
0.054073
  0
VERTEX
  8
0
 10
126.683114
 20
360.812500
 42
0.051402
  0
VERTEX
  8
0
 10
126.839148
 20
361.359369
 42
0.054150
  0
VERTEX
  8
0
 10
126.876576
 20
361.916927
 42
0.060344
  0
VERTEX
  8
0
 10
126.797407
 20
362.402231
 42
0.126455
  0
VERTEX
  8
0
 10
126.604167
 20
362.729167
 42
0.296942
  0
VERTEX
  8
0
 10
126.385309
 20
362.775380
 42
0.208169
  0
VERTEX
  8
0
 10
126.200665
 20
362.592839
 42
0.077125
  0
VERTEX
  8
0
 10
126.089945
 20
362.112848
 42
0.028489
  0
SEQEND
  0
POLYLINE
  8
0
 66
1
 70
1
  0
VERTEX
  8
0
 10
856.157895
 20
350.000000
 42
0.017491
  0
VERTEX
  8
0
 10
856.189089
 20
349.108560
 42
0.078554
  0
VERTEX
  8
0
 10
856.306058
 20
348.601562
 42
0.447206
  0
VERTEX
  8
0
 10
856.474999
 20
348.540618
 42
0.174857
  0
VERTEX
  8
0
 10
856.662281
 20
348.750000
 42
0.057986
  0
VERTEX
  8
0
 10
856.818615
 20
349.320008
 42
0.037979
  0
VERTEX
  8
0
 10
856.870340
 20
350.000000
 42
0.037979
  0
VERTEX
  8
0
 10
856.818615
 20
350.679992
 42
0.057986
  0
VERTEX
  8
0
 10
856.662281
 20
351.250000
 42
0.174857
  0
VERTEX
  8
0
 10
856.474999
 20
351.459382
 42
0.447206
  0
VERTEX
  8
0
 10
856.306058
 20
351.398438
 42
0.078554
  0
VERTEX
  8
0
 10
856.189089
 20
350.891440
 42
0.017491
  0
SEQEND
  0
POLYLINE
  8
0
 66
1
 70
1
  0
VERTEX
  8
0
 10
852.157895
 20
327.000000
 42
0.017491
  0
VERTEX
  8
0
 10
852.189089
 20
326.108560
 42
0.078554
  0
VERTEX
  8
0
 10
852.306058
 20
325.601562
 42
0.447206
  0
VERTEX
  8
0
 10
852.474999
 20
325.540618
 42
0.174857
  0
VERTEX
  8
0
 10
852.662281
 20
325.750000
 42
0.057986
  0
VERTEX
  8
0
 10
852.818615
 20
326.320008
 42
0.037979
  0
VERTEX
  8
0
 10
852.870340
 20
327.000000
 42
0.037979
  0
VERTEX
  8
0
 10
852.818615
 20
327.679992
 42
0.057986
  0
VERTEX
  8
0
 10
852.662281
 20
328.250000
 42
0.174857
  0
VERTEX
  8
0
 10
852.474999
 20
328.459382
 42
0.447206
  0
VERTEX
  8
0
 10
852.306058
 20
328.398438
 42
0.078554
  0
VERTEX
  8
0
 10
852.189089
 20
327.891440
 42
0.017491
  0
SEQEND
  0
POLYLINE
  8
0
 66
1
 70
1
  0
VERTEX
  8
0
 10
114.078947
 20
288.416667
 42
0.018894
  0
VERTEX
  8
0
 10
114.137993
 20
287.670344
 42
0.168741
  0
VERTEX
  8
0
 10
114.279315
 20
287.378580
 42
0.470617
  0
VERTEX
  8
0
 10
114.461564
 20
287.395823
 42
0.054073
  0
VERTEX
  8
0
 10
114.683114
 20
287.812500
 42
0.051402
  0
VERTEX
  8
0
 10
114.839148
 20
288.359369
 42
0.054150
  0
VERTEX
  8
0
 10
114.876576
 20
288.916927
 42
0.060344
  0
VERTEX
  8
0
 10
114.797407
 20
289.402231
 42
0.126455
  0
VERTEX
  8
0
 10
114.604167
 20
289.729167
 42
0.296942
  0
VERTEX
  8
0
 10
114.385309
 20
289.775380
 42
0.208169
  0
VERTEX
  8
0
 10
114.200665
 20
289.592839
 42
0.077125
  0
VERTEX
  8
0
 10
114.089945
 20
289.112848
 42
0.028489
  0
SEQEND
  0
POLYLINE
  8
0
 66
1
 70
1
  0
VERTEX
  8
0
 10
107.078947
 20
246.416667
 42
0.018894
  0
VERTEX
  8
0
 10
107.137993
 20
245.670344
 42
0.168741
  0
VERTEX
  8
0
 10
107.279315
 20
245.378580
 42
0.470617
  0
VERTEX
  8
0
 10
107.461564
 20
245.395823
 42
0.054073
  0
VERTEX
  8
0
 10
107.683114
 20
245.812500
 42
0.051402
  0
VERTEX
  8
0
 10
107.839148
 20
246.359369
 42
0.054150
  0
VERTEX
  8
0
 10
107.876576
 20
246.916927
 42
0.060344
  0
VERTEX
  8
0
 10
107.797407
 20
247.402231
 42
0.126455
  0
VERTEX
  8
0
 10
107.604167
 20
247.729167
 42
0.296942
  0
VERTEX
  8
0
 10
107.385309
 20
247.775380
 42
0.208169
  0
VERTEX
  8
0
 10
107.200665
 20
247.592839
 42
0.077125
  0
VERTEX
  8
0
 10
107.089945
 20
247.112848
 42
0.028489
  0
SEQEND
  0
POLYLINE
  8
0
 66
1
 70
1
  0
VERTEX
  8
0
 10
825.812500
 20
244.316886
 42
0.051402
  0
VERTEX
  8
0
 10
826.359369
 20
244.160852
 42
0.054150
  0
VERTEX
  8
0
 10
826.916927
 20
244.123424
 42
0.060344
  0
VERTEX
  8
0
 10
827.402231
 20
244.202593
 42
0.126455
  0
VERTEX
  8
0
 10
827.729167
 20
244.395833
 42
0.296942
  0
VERTEX
  8
0
 10
827.775380
 20
244.614691
 42
0.208169
  0
VERTEX
  8
0
 10
827.592839
 20
244.799335
 42
0.077125
  0
VERTEX
  8
0
 10
827.112848
 20
244.910055
 42
0.028489
  0
VERTEX
  8
0
 10
826.416667
 20
244.921053
 42
0.018894
  0
VERTEX
  8
0
 10
825.670344
 20
244.862007
 42
0.168741
  0
VERTEX
  8
0
 10
825.378580
 20
244.720685
 42
0.470617
  0
VERTEX
  8
0
 10
825.395823
 20
244.538436
 42
0.054073
  0
SEQEND
  0
POLYLINE
  8
0
 66
1
 70
1
  0
VERTEX
  8
0
 10
730.812500
 20
233.316886
 42
0.051402
  0
VERTEX
  8
0
 10
731.359369
 20
233.160852
 42
0.054150
  0
VERTEX
  8
0
 10
731.916927
 20
233.123424
 42
0.060344
  0
VERTEX
  8
0
 10
732.402231
 20
233.202593
 42
0.126455
  0
VERTEX
  8
0
 10
732.729167
 20
233.395833
 42
0.296942
  0
VERTEX
  8
0
 10
732.775380
 20
233.614691
 42
0.208169
  0
VERTEX
  8
0
 10
732.592839
 20
233.799335
 42
0.077125
  0
VERTEX
  8
0
 10
732.112848
 20
233.910055
 42
0.028489
  0
VERTEX
  8
0
 10
731.416667
 20
233.921053
 42
0.018894
  0
VERTEX
  8
0
 10
730.670344
 20
233.862007
 42
0.168741
  0
VERTEX
  8
0
 10
730.378580
 20
233.720685
 42
0.470617
  0
VERTEX
  8
0
 10
730.395823
 20
233.538436
 42
0.054073
  0
SEQEND
  0
POLYLINE
  8
0
 66
1
 70
1
  0
VERTEX
  8
0
 10
632.812500
 20
222.316886
 42
0.051402
  0
VERTEX
  8
0
 10
633.359369
 20
222.160852
 42
0.054150
  0
VERTEX
  8
0
 10
633.916927
 20
222.123424
 42
0.060344
  0
VERTEX
  8
0
 10
634.402231
 20
222.202593
 42
0.126455
  0
VERTEX
  8
0
 10
634.729167
 20
222.395833
 42
0.296942
  0
VERTEX
  8
0
 10
634.775380
 20
222.614691
 42
0.208169
  0
VERTEX
  8
0
 10
634.592839
 20
222.799335
 42
0.077125
  0
VERTEX
  8
0
 10
634.112848
 20
222.910055
 42
0.028489
  0
VERTEX
  8
0
 10
633.416667
 20
222.921053
 42
0.018894
  0
VERTEX
  8
0
 10
632.670344
 20
222.862007
 42
0.168741
  0
VERTEX
  8
0
 10
632.378580
 20
222.720685
 42
0.470617
  0
VERTEX
  8
0
 10
632.395823
 20
222.538436
 42
0.054073
  0
SEQEND
  0
POLYLINE
  8
0
 66
1
 70
1
  0
VERTEX
  8
0
 10
553.750000
 20
213.337719
 42
0.057986
  0
VERTEX
  8
0
 10
554.320008
 20
213.181385
 42
0.037979
  0
VERTEX
  8
0
 10
555.000000
 20
213.129660
 42
0.037979
  0
VERTEX
  8
0
 10
555.679992
 20
213.181385
 42
0.057986
  0
VERTEX
  8
0
 10
556.250000
 20
213.337719
 42
0.174857
  0
VERTEX
  8
0
 10
556.459382
 20
213.525001
 42
0.447206
  0
VERTEX
  8
0
 10
556.398438
 20
213.693942
 42
0.078554
  0
VERTEX
  8
0
 10
555.891440
 20
213.810911
 42
0.017491
  0
VERTEX
  8
0
 10
555.000000
 20
213.842105
 42
0.017491
  0
VERTEX
  8
0
 10
554.108560
 20
213.810911
 42
0.078554
  0
VERTEX
  8
0
 10
553.601562
 20
213.693942
 42
0.447206
  0
VERTEX
  8
0
 10
553.540618
 20
213.525001
 42
0.174857
  0
SEQEND
  0
POLYLINE
  8
0
 66
1
 70
1
  0
VERTEX
  8
0
 10
547.812500
 20
212.316886
 42
0.051402
  0
VERTEX
  8
0
 10
548.359369
 20
212.160852
 42
0.054150
  0
VERTEX
  8
0
 10
548.916927
 20
212.123424
 42
0.060344
  0
VERTEX
  8
0
 10
549.402231
 20
212.202593
 42
0.126455
  0
VERTEX
  8
0
 10
549.729167
 20
212.395833
 42
0.296942
  0
VERTEX
  8
0
 10
549.775380
 20
212.614691
 42
0.208169
  0
VERTEX
  8
0
 10
549.592839
 20
212.799335
 42
0.077125
  0
VERTEX
  8
0
 10
549.112848
 20
212.910055
 42
0.028489
  0
VERTEX
  8
0
 10
548.416667
 20
212.921053
 42
0.018894
  0
VERTEX
  8
0
 10
547.670344
 20
212.862007
 42
0.168741
  0
VERTEX
  8
0
 10
547.378580
 20
212.720685
 42
0.470617
  0
VERTEX
  8
0
 10
547.395823
 20
212.538436
 42
0.054073
  0
SEQEND
  0
POLYLINE
  8
0
 66
1
 70
1
  0
VERTEX
  8
0
 10
525.812500
 20
210.316886
 42
0.051402
  0
VERTEX
  8
0
 10
526.359369
 20
210.160852
 42
0.054150
  0
VERTEX
  8
0
 10
526.916927
 20
210.123424
 42
0.060344
  0
VERTEX
  8
0
 10
527.402231
 20
210.202593
 42
0.126455
  0
VERTEX
  8
0
 10
527.729167
 20
210.395833
 42
0.296942
  0
VERTEX
  8
0
 10
527.775380
 20
210.614691
 42
0.208169
  0
VERTEX
  8
0
 10
527.592839
 20
210.799335
 42
0.077125
  0
VERTEX
  8
0
 10
527.112848
 20
210.910055
 42
0.028489
  0
VERTEX
  8
0
 10
526.416667
 20
210.921053
 42
0.018894
  0
VERTEX
  8
0
 10
525.670344
 20
210.862007
 42
0.168741
  0
VERTEX
  8
0
 10
525.378580
 20
210.720685
 42
0.470617
  0
VERTEX
  8
0
 10
525.395823
 20
210.538436
 42
0.054073
  0
SEQEND
  0
POLYLINE
  8
0
 66
1
 70
1
  0
VERTEX
  8
0
 10
506.812500
 20
208.316886
 42
0.051402
  0
VERTEX
  8
0
 10
507.359369
 20
208.160852
 42
0.054150
  0
VERTEX
  8
0
 10
507.916927
 20
208.123424
 42
0.060344
  0
VERTEX
  8
0
 10
508.402231
 20
208.202593
 42
0.126455
  0
VERTEX
  8
0
 10
508.729167
 20
208.395833
 42
0.296942
  0
VERTEX
  8
0
 10
508.775380
 20
208.614691
 42
0.208169
  0
VERTEX
  8
0
 10
508.592839
 20
208.799335
 42
0.077125
  0
VERTEX
  8
0
 10
508.112848
 20
208.910055
 42
0.028489
  0
VERTEX
  8
0
 10
507.416667
 20
208.921053
 42
0.018894
  0
VERTEX
  8
0
 10
506.670344
 20
208.862007
 42
0.168741
  0
VERTEX
  8
0
 10
506.378580
 20
208.720685
 42
0.470617
  0
VERTEX
  8
0
 10
506.395823
 20
208.538436
 42
0.054073
  0
SEQEND
  0
POLYLINE
  8
0
 66
1
 70
1
  0
VERTEX
  8
0
 10
497.812500
 20
207.316886
 42
0.051402
  0
VERTEX
  8
0
 10
498.359369
 20
207.160852
 42
0.054150
  0
VERTEX
  8
0
 10
498.916927
 20
207.123424
 42
0.060344
  0
VERTEX
  8
0
 10
499.402231
 20
207.202593
 42
0.126455
  0
VERTEX
  8
0
 10
499.729167
 20
207.395833
 42
0.296942
  0
VERTEX
  8
0
 10
499.775380
 20
207.614691
 42
0.208169
  0
VERTEX
  8
0
 10
499.592839
 20
207.799335
 42
0.077125
  0
VERTEX
  8
0
 10
499.112848
 20
207.910055
 42
0.028489
  0
VERTEX
  8
0
 10
498.416667
 20
207.921053
 42
0.018894
  0
VERTEX
  8
0
 10
497.670344
 20
207.862007
 42
0.168741
  0
VERTEX
  8
0
 10
497.378580
 20
207.720685
 42
0.470617
  0
VERTEX
  8
0
 10
497.395823
 20
207.538436
 42
0.054073
  0
SEQEND
  0
POLYLINE
  8
0
 66
1
 70
1
  0
VERTEX
  8
0
 10
487.812500
 20
206.316886
 42
0.051402
  0
VERTEX
  8
0
 10
488.359369
 20
206.160852
 42
0.054150
  0
VERTEX
  8
0
 10
488.916927
 20
206.123424
 42
0.060344
  0
VERTEX
  8
0
 10
489.402231
 20
206.202593
 42
0.126455
  0
VERTEX
  8
0
 10
489.729167
 20
206.395833
 42
0.296942
  0
VERTEX
  8
0
 10
489.775380
 20
206.614691
 42
0.208169
  0
VERTEX
  8
0
 10
489.592839
 20
206.799335
 42
0.077125
  0
VERTEX
  8
0
 10
489.112848
 20
206.910055
 42
0.028489
  0
VERTEX
  8
0
 10
488.416667
 20
206.921053
 42
0.018894
  0
VERTEX
  8
0
 10
487.670344
 20
206.862007
 42
0.168741
  0
VERTEX
  8
0
 10
487.378580
 20
206.720685
 42
0.470617
  0
VERTEX
  8
0
 10
487.395823
 20
206.538436
 42
0.054073
  0
SEQEND
  0
POLYLINE
  8
0
 66
1
 70
1
  0
VERTEX
  8
0
 10
480.812500
 20
205.316886
 42
0.051402
  0
VERTEX
  8
0
 10
481.359369
 20
205.160852
 42
0.054150
  0
VERTEX
  8
0
 10
481.916927
 20
205.123424
 42
0.060344
  0
VERTEX
  8
0
 10
482.402231
 20
205.202593
 42
0.126455
  0
VERTEX
  8
0
 10
482.729167
 20
205.395833
 42
0.296942
  0
VERTEX
  8
0
 10
482.775380
 20
205.614691
 42
0.208169
  0
VERTEX
  8
0
 10
482.592839
 20
205.799335
 42
0.077125
  0
VERTEX
  8
0
 10
482.112848
 20
205.910055
 42
0.028489
  0
VERTEX
  8
0
 10
481.416667
 20
205.921053
 42
0.018894
  0
VERTEX
  8
0
 10
480.670344
 20
205.862007
 42
0.168741
  0
VERTEX
  8
0
 10
480.378580
 20
205.720685
 42
0.470617
  0
VERTEX
  8
0
 10
480.395823
 20
205.538436
 42
0.054073
  0
SEQEND
  0
POLYLINE
  8
0
 66
1
 70
1
  0
VERTEX
  8
0
 10
420.812500
 20
198.316886
 42
0.051402
  0
VERTEX
  8
0
 10
421.359369
 20
198.160852
 42
0.054150
  0
VERTEX
  8
0
 10
421.916927
 20
198.123424
 42
0.060344
  0
VERTEX
  8
0
 10
422.402231
 20
198.202593
 42
0.126455
  0
VERTEX
  8
0
 10
422.729167
 20
198.395833
 42
0.296942
  0
VERTEX
  8
0
 10
422.775380
 20
198.614691
 42
0.208169
  0
VERTEX
  8
0
 10
422.592839
 20
198.799335
 42
0.077125
  0
VERTEX
  8
0
 10
422.112848
 20
198.910055
 42
0.028489
  0
VERTEX
  8
0
 10
421.416667
 20
198.921053
 42
0.018894
  0
VERTEX
  8
0
 10
420.670344
 20
198.862007
 42
0.168741
  0
VERTEX
  8
0
 10
420.378580
 20
198.720685
 42
0.470617
  0
VERTEX
  8
0
 10
420.395823
 20
198.538436
 42
0.054073
  0
SEQEND
  0
POLYLINE
  8
0
 66
1
 70
1
  0
VERTEX
  8
0
 10
412.812500
 20
197.316886
 42
0.051402
  0
VERTEX
  8
0
 10
413.359369
 20
197.160852
 42
0.054150
  0
VERTEX
  8
0
 10
413.916927
 20
197.123424
 42
0.060344
  0
VERTEX
  8
0
 10
414.402231
 20
197.202593
 42
0.126455
  0
VERTEX
  8
0
 10
414.729167
 20
197.395833
 42
0.296942
  0
VERTEX
  8
0
 10
414.775380
 20
197.614691
 42
0.208169
  0
VERTEX
  8
0
 10
414.592839
 20
197.799335
 42
0.077125
  0
VERTEX
  8
0
 10
414.112848
 20
197.910055
 42
0.028489
  0
VERTEX
  8
0
 10
413.416667
 20
197.921053
 42
0.018894
  0
VERTEX
  8
0
 10
412.670344
 20
197.862007
 42
0.168741
  0
VERTEX
  8
0
 10
412.378580
 20
197.720685
 42
0.470617
  0
VERTEX
  8
0
 10
412.395823
 20
197.538436
 42
0.054073
  0
SEQEND
  0
POLYLINE
  8
0
 66
1
 70
1
  0
VERTEX
  8
0
 10
353.812500
 20
190.316886
 42
0.051402
  0
VERTEX
  8
0
 10
354.359369
 20
190.160852
 42
0.054150
  0
VERTEX
  8
0
 10
354.916927
 20
190.123424
 42
0.060344
  0
VERTEX
  8
0
 10
355.402231
 20
190.202593
 42
0.126455
  0
VERTEX
  8
0
 10
355.729167
 20
190.395833
 42
0.296942
  0
VERTEX
  8
0
 10
355.775380
 20
190.614691
 42
0.208169
  0
VERTEX
  8
0
 10
355.592839
 20
190.799335
 42
0.077125
  0
VERTEX
  8
0
 10
355.112848
 20
190.910055
 42
0.028489
  0
VERTEX
  8
0
 10
354.416667
 20
190.921053
 42
0.018894
  0
VERTEX
  8
0
 10
353.670344
 20
190.862007
 42
0.168741
  0
VERTEX
  8
0
 10
353.378580
 20
190.720685
 42
0.470617
  0
VERTEX
  8
0
 10
353.395823
 20
190.538436
 42
0.054073
  0
SEQEND
  0
POLYLINE
  8
0
 66
1
 70
1
  0
VERTEX
  8
0
 10
297.812500
 20
184.316886
 42
0.051402
  0
VERTEX
  8
0
 10
298.359369
 20
184.160852
 42
0.054150
  0
VERTEX
  8
0
 10
298.916927
 20
184.123424
 42
0.060344
  0
VERTEX
  8
0
 10
299.402231
 20
184.202593
 42
0.126455
  0
VERTEX
  8
0
 10
299.729167
 20
184.395833
 42
0.296942
  0
VERTEX
  8
0
 10
299.775380
 20
184.614691
 42
0.208169
  0
VERTEX
  8
0
 10
299.592839
 20
184.799335
 42
0.077125
  0
VERTEX
  8
0
 10
299.112848
 20
184.910055
 42
0.028489
  0
VERTEX
  8
0
 10
298.416667
 20
184.921053
 42
0.018894
  0
VERTEX
  8
0
 10
297.670344
 20
184.862007
 42
0.168741
  0
VERTEX
  8
0
 10
297.378580
 20
184.720685
 42
0.470617
  0
VERTEX
  8
0
 10
297.395823
 20
184.538436
 42
0.054073
  0
SEQEND
  0
POLYLINE
  8
0
 66
1
 70
1
  0
VERTEX
  8
0
 10
290.812500
 20
183.316886
 42
0.051402
  0
VERTEX
  8
0
 10
291.359369
 20
183.160852
 42
0.054150
  0
VERTEX
  8
0
 10
291.916927
 20
183.123424
 42
0.060344
  0
VERTEX
  8
0
 10
292.402231
 20
183.202593
 42
0.126455
  0
VERTEX
  8
0
 10
292.729167
 20
183.395833
 42
0.296942
  0
VERTEX
  8
0
 10
292.775380
 20
183.614691
 42
0.208169
  0
VERTEX
  8
0
 10
292.592839
 20
183.799335
 42
0.077125
  0
VERTEX
  8
0
 10
292.112848
 20
183.910055
 42
0.028489
  0
VERTEX
  8
0
 10
291.416667
 20
183.921053
 42
0.018894
  0
VERTEX
  8
0
 10
290.670344
 20
183.862007
 42
0.168741
  0
VERTEX
  8
0
 10
290.378580
 20
183.720685
 42
0.470617
  0
VERTEX
  8
0
 10
290.395823
 20
183.538436
 42
0.054073
  0
SEQEND
  0
POLYLINE
  8
0
 66
1
 70
1
  0
VERTEX
  8
0
 10
281.812500
 20
182.316886
 42
0.051402
  0
VERTEX
  8
0
 10
282.359369
 20
182.160852
 42
0.054150
  0
VERTEX
  8
0
 10
282.916927
 20
182.123424
 42
0.060344
  0
VERTEX
  8
0
 10
283.402231
 20
182.202593
 42
0.126455
  0
VERTEX
  8
0
 10
283.729167
 20
182.395833
 42
0.296942
  0
VERTEX
  8
0
 10
283.775380
 20
182.614691
 42
0.208169
  0
VERTEX
  8
0
 10
283.592839
 20
182.799335
 42
0.077125
  0
VERTEX
  8
0
 10
283.112848
 20
182.910055
 42
0.028489
  0
VERTEX
  8
0
 10
282.416667
 20
182.921053
 42
0.018894
  0
VERTEX
  8
0
 10
281.670344
 20
182.862007
 42
0.168741
  0
VERTEX
  8
0
 10
281.378580
 20
182.720685
 42
0.470617
  0
VERTEX
  8
0
 10
281.395823
 20
182.538436
 42
0.054073
  0
SEQEND
  0
POLYLINE
  8
0
 66
1
 70
1
  0
VERTEX
  8
0
 10
273.269032
 20
181.307009
 42
0.037336
  0
VERTEX
  8
0
 10
274.036634
 20
181.167106
 42
0.029507
  0
VERTEX
  8
0
 10
274.880008
 20
181.127736
 42
0.030339
  0
VERTEX
  8
0
 10
275.671085
 20
181.185595
 42
0.062780
  0
VERTEX
  8
0
 10
276.269032
 20
181.344063
 42
0.313180
  0
VERTEX
  8
0
 10
276.386009
 20
181.522870
 42
0.333666
  0
VERTEX
  8
0
 10
276.257153
 20
181.684921
 42
0.052471
  0
VERTEX
  8
0
 10
275.580113
 20
181.787295
 42
0.014395
  0
VERTEX
  8
0
 10
274.500000
 20
181.805051
 42
0.012823
  0
VERTEX
  8
0
 10
273.431793
 20
181.764444
 42
0.080377
  0
VERTEX
  8
0
 10
272.900903
 20
181.643467
 42
0.597527
  0
VERTEX
  8
0
 10
272.883358
 20
181.483340
 42
0.087174
  0
SEQEND
  0
POLYLINE
  8
0
 66
1
 70
1
  0
VERTEX
  8
0
 10
264.750000
 20
180.337719
 42
0.057986
  0
VERTEX
  8
0
 10
265.320008
 20
180.181385
 42
0.037979
  0
VERTEX
  8
0
 10
266.000000
 20
180.129660
 42
0.037979
  0
VERTEX
  8
0
 10
266.679992
 20
180.181385
 42
0.057986
  0
VERTEX
  8
0
 10
267.250000
 20
180.337719
 42
0.174857
  0
VERTEX
  8
0
 10
267.459382
 20
180.525001
 42
0.447206
  0
VERTEX
  8
0
 10
267.398438
 20
180.693942
 42
0.078554
  0
VERTEX
  8
0
 10
266.891440
 20
180.810911
 42
0.017491
  0
VERTEX
  8
0
 10
266.000000
 20
180.842105
 42
0.017491
  0
VERTEX
  8
0
 10
265.108560
 20
180.810911
 42
0.078554
  0
VERTEX
  8
0
 10
264.601562
 20
180.693942
 42
0.447206
  0
VERTEX
  8
0
 10
264.540618
 20
180.525001
 42
0.174857
  0
SEQEND
  0
POLYLINE
  8
0
 66
1
 70
1
  0
VERTEX
  8
0
 10
160.750000
 20
168.337719
 42
0.057986
  0
VERTEX
  8
0
 10
161.320008
 20
168.181385
 42
0.037979
  0
VERTEX
  8
0
 10
162.000000
 20
168.129660
 42
0.037979
  0
VERTEX
  8
0
 10
162.679992
 20
168.181385
 42
0.057986
  0
VERTEX
  8
0
 10
163.250000
 20
168.337719
 42
0.174857
  0
VERTEX
  8
0
 10
163.459382
 20
168.525001
 42
0.447206
  0
VERTEX
  8
0
 10
163.398438
 20
168.693942
 42
0.078554
  0
VERTEX
  8
0
 10
162.891440
 20
168.810911
 42
0.017491
  0
VERTEX
  8
0
 10
162.000000
 20
168.842105
 42
0.017491
  0
VERTEX
  8
0
 10
161.108560
 20
168.810911
 42
0.078554
  0
VERTEX
  8
0
 10
160.601562
 20
168.693942
 42
0.447206
  0
VERTEX
  8
0
 10
160.540618
 20
168.525001
 42
0.174857
  0
SEQEND
  0
POLYLINE
  8
0
 66
1
 70
1
  0
VERTEX
  8
0
 10
146.750000
 20
166.337719
 42
0.057986
  0
VERTEX
  8
0
 10
147.320008
 20
166.181385
 42
0.037979
  0
VERTEX
  8
0
 10
148.000000
 20
166.129660
 42
0.037979
  0
VERTEX
  8
0
 10
148.679992
 20
166.181385
 42
0.057986
  0
VERTEX
  8
0
 10
149.250000
 20
166.337719
 42
0.174857
  0
VERTEX
  8
0
 10
149.459382
 20
166.525001
 42
0.447206
  0
VERTEX
  8
0
 10
149.398438
 20
166.693942
 42
0.078554
  0
VERTEX
  8
0
 10
148.891440
 20
166.810911
 42
0.017491
  0
VERTEX
  8
0
 10
148.000000
 20
166.842105
 42
0.017491
  0
VERTEX
  8
0
 10
147.108560
 20
166.810911
 42
0.078554
  0
VERTEX
  8
0
 10
146.601562
 20
166.693942
 42
0.447206
  0
VERTEX
  8
0
 10
146.540618
 20
166.525001
 42
0.174857
  0
SEQEND
  0
POLYLINE
  8
0
 66
1
 70
1
  0
VERTEX
  8
0
 10
575.563134
 20
746.635890
 42
0.000000
  0
VERTEX
  8
0
 10
559.626269
 20
744.500000
 42
0.000000
  0
VERTEX
  8
0
 10
558.851166
 20
741.500000
 42
0.023891
  0
VERTEX
  8
0
 10
557.827522
 20
736.578370
 42
0.000713
  0
VERTEX
  8
0
 10
554.563513
 20
715.807057
 42
0.000475
  0
VERTEX
  8
0
 10
551.257440
 20
694.436966
 42
0.038153
  0
VERTEX
  8
0
 10
551.000000
 20
691.068111
 42
0.283533
  0
VERTEX
  8
0
 10
551.553689
 20
690.170196
 42
0.127624
  0
VERTEX
  8
0
 10
552.962152
 20
689.867352
 42
0.030562
  0
VERTEX
  8
0
 10
556.070976
 20
690.189288
 42
0.002210
  0
VERTEX
  8
0
 10
564.590048
 20
691.640357
 42
0.004253
  0
VERTEX
  8
0
 10
578.570332
 20
694.208035
 42
0.018438
  0
VERTEX
  8
0
 10
586.787276
 20
696.106155
 42
0.031115
  0
VERTEX
  8
0
 10
592.350651
 20
697.987544
 42
0.050251
  0
VERTEX
  8
0
 10
596.760600
 20
700.332565
 42
0.070444
  0
VERTEX
  8
0
 10
600.975241
 20
704.102817
 42
0.061007
  0
VERTEX
  8
0
 10
604.221277
 20
709.073834
 42
0.048567
  0
VERTEX
  8
0
 10
606.707107
 20
715.686907
 42
0.023706
  0
VERTEX
  8
0
 10
608.632550
 20
724.500000
 42
0.018278
  0
VERTEX
  8
0
 10
609.701659
 20
732.605642
 42
0.060187
  0
VERTEX
  8
0
 10
609.563622
 20
737.988106
 42
0.086960
  0
VERTEX
  8
0
 10
608.222464
 20
742.043994
 42
0.073272
  0
VERTEX
  8
0
 10
605.521131
 20
745.678869
 42
0.026094
  0
VERTEX
  8
0
 10
603.472357
 20
747.524277
 42
0.081882
  0
VERTEX
  8
0
 10
601.868000
 20
748.437865
 42
0.074707
  0
VERTEX
  8
0
 10
599.974656
 20
748.831751
 42
0.019328
  0
VERTEX
  8
0
 10
596.850000
 20
748.885890
 42
0.017578
  0
VERTEX
  8
0
 10
593.826737
 20
748.714960
 42
0.003419
  0
VERTEX
  8
0
 10
588.390108
 20
748.177882
 42
0.003630
  0
VERTEX
  8
0
 10
582.056895
 20
747.461942
 42
0.003350
  0
SEQEND
  0
POLYLINE
  8
0
 66
1
 70
1
  0
VERTEX
  8
0
 10
574.500000
 20
655.325481
 42
0.002629
  0
VERTEX
  8
0
 10
567.326281
 20
654.390776
 42
0.001364
  0
VERTEX
  8
0
 10
558.378635
 20
653.152182
 42
0.000802
  0
VERTEX
  8
0
 10
549.710910
 20
651.914040
 42
0.013746
  0
VERTEX
  8
0
 10
546.881744
 20
651.425540
 42
0.072833
  0
VERTEX
  8
0
 10
545.426796
 20
650.904512
 42
0.150589
  0
VERTEX
  8
0
 10
544.583669
 20
650.056615
 42
0.081014
  0
VERTEX
  8
0
 10
544.068552
 20
648.512402
 42
0.011599
  0
VERTEX
  8
0
 10
543.611485
 20
645.199481
 42
-0.006239
  0
VERTEX
  8
0
 10
543.169868
 20
641.723737
 42
-0.000774
  0
VERTEX
  8
0
 10
542.102905
 20
634.174630
 42
-0.000914
  0
VERTEX
  8
0
 10
540.805406
 20
625.212824
 42
-0.000756
  0
VERTEX
  8
0
 10
539.391474
 20
615.671600
 42
0.002329
  0
VERTEX
  8
0
 10
538.061537
 20
606.498237
 42
0.003777
  0
VERTEX
  8
0
 10
537.026440
 20
598.687922
 42
0.000713
  0
VERTEX
  8
0
 10
536.178397
 20
591.815683
 42
0.230653
  0
VERTEX
  8
0
 10
536.350687
 20
591.315979
 42
0.235423
  0
VERTEX
  8
0
 10
537.759461
 20
590.844473
 42
0.000733
  0
VERTEX
  8
0
 10
556.981194
 20
593.571235
 42
0.002643
  0
VERTEX
  8
0
 10
574.724642
 20
596.210617
 42
0.046591
  0
VERTEX
  8
0
 10
580.349949
 20
597.623469
 42
0.053977
  0
VERTEX
  8
0
 10
584.239604
 20
599.488181
 42
0.031293
  0
VERTEX
  8
0
 10
588.470331
 20
602.492276
 42
0.031271
  0
VERTEX
  8
0
 10
592.300614
 20
606.007534
 42
0.053090
  0
VERTEX
  8
0
 10
594.963887
 20
609.441568
 42
0.077884
  0
VERTEX
  8
0
 10
597.123829
 20
614.577217
 42
0.011429
  0
VERTEX
  8
0
 10
599.593159
 20
625.629761
 42
0.012498
  0
VERTEX
  8
0
 10
601.535822
 20
636.815618
 42
0.059402
  0
VERTEX
  8
0
 10
601.719263
 20
643.296752
 42
0.129960
  0
VERTEX
  8
0
 10
599.390598
 20
649.699200
 42
0.137703
  0
VERTEX
  8
0
 10
594.242060
 20
653.946741
 42
0.095658
  0
VERTEX
  8
0
 10
585.981802
 20
655.840592
 42
0.039758
  0
SEQEND
  0
POLYLINE
  8
0
 66
1
 70
1
  0
VERTEX
  8
0
 10
413.077670
 20
694.000000
 42
0.000302
  0
VERTEX
  8
0
 10
402.180814
 20
660.718192
 42
0.000814
  0
VERTEX
  8
0
 10
394.489893
 20
637.049686
 42
0.000041
  0
VERTEX
  8
0
 10
388.232473
 20
617.680135
 42
0.281552
  0
VERTEX
  8
0
 10
388.310571
 20
617.356095
 42
0.235323
  0
VERTEX
  8
0
 10
388.953334
 20
617.140832
 42
0.000182
  0
VERTEX
  8
0
 10
406.524526
 20
619.606904
 42
0.000241
  0
VERTEX
  8
0
 10
423.981314
 20
622.071987
 42
0.162568
  0
VERTEX
  8
0
 10
424.828130
 20
622.494796
 42
0.209688
  0
VERTEX
  8
0
 10
425.239791
 20
623.549851
 42
0.000085
  0
VERTEX
  8
0
 10
423.553774
 20
664.109964
 42
0.000717
  0
VERTEX
  8
0
 10
421.952478
 20
701.197285
 42
0.019363
  0
VERTEX
  8
0
 10
421.133971
 20
711.000000
 42
0.000000
  0
VERTEX
  8
0
 10
420.459479
 20
716.500000
 42
0.000000
  0
SEQEND
  0
POLYLINE
  8
0
 66
1
 70
1
  0
VERTEX
  8
0
 10
628.600638
 20
409.895363
 42
0.003762
  0
VERTEX
  8
0
 10
626.319074
 20
409.544916
 42
0.005788
  0
VERTEX
  8
0
 10
624.350739
 20
409.203981
 42
0.002203
  0
VERTEX
  8
0
 10
622.670654
 20
408.885239
 42
0.149474
  0
VERTEX
  8
0
 10
622.417107
 20
408.750440
 42
0.155456
  0
VERTEX
  8
0
 10
622.275441
 20
408.476292
 42
0.000149
  0
VERTEX
  8
0
 10
621.079050
 20
401.431262
 42
0.001471
  0
VERTEX
  8
0
 10
619.766004
 20
393.544628
 42
0.000900
  0
VERTEX
  8
0
 10
618.261066
 20
384.233135
 42
0.001693
  0
VERTEX
  8
0
 10
616.102975
 20
370.426209
 42
0.014360
  0
VERTEX
  8
0
 10
615.332665
 20
364.192392
 42
0.027308
  0
VERTEX
  8
0
 10
615.196688
 20
360.762635
 42
0.409834
  0
VERTEX
  8
0
 10
615.970832
 20
360.000000
 42
0.024242
  0
VERTEX
  8
0
 10
616.986567
 20
360.049275
 42
0.002080
  0
VERTEX
  8
0
 10
619.575853
 20
360.311968
 42
0.002744
  0
VERTEX
  8
0
 10
622.663009
 20
360.655293
 42
0.002124
  0
VERTEX
  8
0
 10
626.022221
 20
361.062017
 42
0.021485
  0
VERTEX
  8
0
 10
633.570484
 20
362.339871
 42
0.056079
  0
VERTEX
  8
0
 10
638.782931
 20
364.082874
 42
0.078191
  0
VERTEX
  8
0
 10
642.396835
 20
366.506810
 42
0.088274
  0
VERTEX
  8
0
 10
644.916310
 20
369.835953
 42
0.062123
  0
VERTEX
  8
0
 10
646.955904
 20
375.464350
 42
0.009352
  0
VERTEX
  8
0
 10
649.402339
 20
387.238367
 42
0.007961
  0
VERTEX
  8
0
 10
651.454366
 20
399.175138
 42
0.088157
  0
VERTEX
  8
0
 10
651.350495
 20
403.997526
 42
0.144800
  0
VERTEX
  8
0
 10
649.254619
 20
407.974680
 42
0.136981
  0
VERTEX
  8
0
 10
645.288812
 20
410.276686
 42
0.077687
  0
VERTEX
  8
0
 10
638.764628
 20
410.922068
 42
0.022109
  0
SEQEND
  0
POLYLINE
  8
0
 66
1
 70
1
  0
VERTEX
  8
0
 10
416.247668
 20
387.177424
 42
0.064965
  0
VERTEX
  8
0
 10
410.000879
 20
383.988003
 42
0.125034
  0
VERTEX
  8
0
 10
406.318174
 20
379.790858
 42
0.071214
  0
VERTEX
  8
0
 10
403.917082
 20
372.763477
 42
0.011103
  0
VERTEX
  8
0
 10
401.503191
 20
358.253308
 42
-0.000788
  0
VERTEX
  8
0
 10
400.300634
 20
349.972862
 42
-0.000308
  0
VERTEX
  8
0
 10
398.614615
 20
338.539602
 42
-0.000305
  0
VERTEX
  8
0
 10
396.774846
 20
326.168690
 42
-0.000379
  0
VERTEX
  8
0
 10
395.048539
 20
314.668741
 42
0.004680
  0
VERTEX
  8
0
 10
391.275025
 20
287.968559
 42
0.072367
  0
VERTEX
  8
0
 10
391.399322
 20
278.722289
 42
0.251613
  0
VERTEX
  8
0
 10
394.585874
 20
274.538546
 42
0.107129
  0
VERTEX
  8
0
 10
401.684276
 20
273.000000
 42
0.070916
  0
VERTEX
  8
0
 10
410.390075
 20
274.241003
 42
0.130533
  0
VERTEX
  8
0
 10
416.476017
 20
277.912198
 42
0.108780
  0
VERTEX
  8
0
 10
420.630114
 20
284.661863
 42
0.040295
  0
VERTEX
  8
0
 10
423.455040
 20
295.523253
 42
0.003061
  0
VERTEX
  8
0
 10
424.964841
 20
304.437120
 42
0.000791
  0
VERTEX
  8
0
 10
427.287942
 20
318.825009
 42
0.000707
  0
VERTEX
  8
0
 10
430.175279
 20
337.054309
 42
0.000408
  0
VERTEX
  8
0
 10
433.601116
 20
359.000000
 42
0.007457
  0
VERTEX
  8
0
 10
435.272999
 20
370.939408
 42
0.034619
  0
VERTEX
  8
0
 10
435.655514
 20
377.887019
 42
0.063130
  0
VERTEX
  8
0
 10
435.005306
 20
382.490932
 42
0.105313
  0
VERTEX
  8
0
 10
433.218073
 20
385.955567
 42
0.142996
  0
VERTEX
  8
0
 10
430.565971
 20
387.772421
 42
0.061248
  0
VERTEX
  8
0
 10
426.311832
 20
388.609204
 42
0.054104
  0
VERTEX
  8
0
 10
421.280793
 20
388.426865
 42
0.049538
  0
SEQEND
  0
POLYLINE
  8
0
 66
1
 70
1
  0
VERTEX
  8
0
 10
311.430120
 20
373.791645
 42
0.000000
  0
VERTEX
  8
0
 10
304.360240
 20
372.851430
 42
0.000000
  0
VERTEX
  8
0
 10
301.052936
 20
351.886233
 42
0.002556
  0
VERTEX
  8
0
 10
299.821501
 20
343.812151
 42
0.004136
  0
VERTEX
  8
0
 10
298.866021
 20
336.930693
 42
0.000849
  0
VERTEX
  8
0
 10
298.088890
 20
330.892371
 42
0.231955
  0
VERTEX
  8
0
 10
298.252419
 20
330.414248
 42
0.235479
  0
VERTEX
  8
0
 10
299.870772
 20
329.872788
 42
0.006031
  0
VERTEX
  8
0
 10
307.687177
 20
331.067920
 42
0.011622
  0
VERTEX
  8
0
 10
315.145369
 20
332.479326
 42
0.066593
  0
VERTEX
  8
0
 10
318.927812
 20
333.831225
 42
0.037446
  0
VERTEX
  8
0
 10
320.454625
 20
334.769657
 42
0.023625
  0
VERTEX
  8
0
 10
322.090981
 20
336.074635
 42
0.023688
  0
VERTEX
  8
0
 10
323.586528
 20
337.518499
 42
0.039671
  0
VERTEX
  8
0
 10
324.679783
 20
338.880675
 42
0.068335
  0
VERTEX
  8
0
 10
326.532957
 20
342.615861
 42
0.020148
  0
VERTEX
  8
0
 10
328.326712
 20
348.765582
 42
0.019801
  0
VERTEX
  8
0
 10
329.807331
 20
355.925490
 42
0.019985
  0
VERTEX
  8
0
 10
330.711429
 20
363.158120
 42
0.009925
  0
VERTEX
  8
0
 10
330.972078
 20
367.190816
 42
0.065240
  0
VERTEX
  8
0
 10
330.799357
 20
369.203670
 42
0.101807
  0
VERTEX
  8
0
 10
330.134728
 20
370.696726
 42
0.040941
  0
VERTEX
  8
0
 10
328.682789
 20
372.408120
 42
0.085666
  0
VERTEX
  8
0
 10
326.336025
 20
374.064030
 42
0.091138
  0
VERTEX
  8
0
 10
323.619903
 20
374.791801
 42
0.045817
  0
VERTEX
  8
0
 10
319.486954
 20
374.744065
 42
0.007273
  0
SEQEND
  0
ENDSEC
  0
EOF
