**ABCDEFGHIJKLMNOPQRSTUVWXYZabcdefghijklmnopqrstuvwxyz**************************
**PARASOLID !"#$%&'()*+,-./:;<=>?@[\]^_`{|}~0123456789**************************
**PART1;
MC=AMD64;
MC_MODEL=Intel64 Family 6 Model 186 Stepping 2, GenuineIntel;
MC_ID=unknown;
OS=Windows_NT;
OS_RELEASE=unknown;
FRU=CAD Exchanger 3.23.0 (cadexchanger.com);
APPL=unknown;
SITE=unknown;
USER=unknown;
FORMAT=text;
GUISE=transmit;
KEY=FP-WP7113SURC-MFG_CMP-00682-00869413-1;
FILE=FP-WP7113SURC-MFG_CMP-00682-00869413-1.x_t;
DATE=Wed May  7 16:22:11 2025;
**PART2;
SCH=SCH_1200000_12103;
USFLD_SIZE=0;
**PART3;
**END_OF_HEADER*****************************************************************
T51 : TRANSMIT FILE created by modeller version 120000017 SCH_1200000_121030 74
 3 1 3 0 2 300 569 12 2 153 0 3 0 0 0 0 1000.0 1.0e-08 0 0 0 1 0 1 1 12 14 29 26
 9 27 25 70 3 0 2 0 0 4 1 20 0 4 4 1 T74 20 4 1 0 5 0 0 0 0 0 0 0 0 0 0 0 0 0 0
 0 0 0 0 0 81 1 5 7 6 13 0 0 81 0 8 80 1 6 0 7 8001 0 0 0 0 3 5 0 0 0 FFFFTFTFFF
FFFF2 79 15 7 SDL/TYSA_COLOUR83 3 8 1.0 0.0 0.0 19 9 1 0 2 11 0 10 V13 10 2 0 2
 0 0 0 0 9 13 19 11 3 0 2 0 9 12 S13 12 4 0 2 0 13 0 0 11 0 14 13 5 5 1.0e-08 80
 0 23 12 14 +0 0 80 0 10 124 14 6 0 13 63 0 15 +17 0 141 15 41 16 16 14 141 16 7
2 15 15 14 126 17 FT2 2 3 9 1 1 2 7 TFT1 4 18 19 20 21 22 45 108 18 5.1421650463
68899e-04 -1.259467192944615e-19 7.5e-04 1.0 3.636059774267888e-04 -5.3441963468
01271e-04 5.30330085889911e-04 0.707106781186548 0.00127 -7.557834953631104e-04
 7.5e-04 1.0 0.001432445246787 -5.344196346801273e-04 5.30330085889911e-04 0.707
106781186548 0.002025783495363 -4.96173854672394e-19 7.5e-04 1.0 0.0014324452467
87 5.344196346801267e-04 5.30330085889911e-04 0.707106781186548 0.00127 7.557834
953631096e-04 7.5e-04 1.0 3.636059774267891e-04 5.34419634680127e-04 5.303300858
89911e-04 0.707106781186548 5.142165046368899e-04 -1.259467192944615e-19 7.5e-04
 1.0 3.636059774267889e-04 -8.905777928131235e-20 -1.623667605441553e-20 0.70710
6781186548 2.571082523184449e-04 -3.778917476815551e-04 -1.148106374200645e-20 0
.5 8.980256121069159e-04 -5.344196346801272e-04 0.0 0.707106781186548 0.00101289
1747682 -3.778917476815552e-04 1.148106374200645e-20 0.5 0.001432445246787 -3.50
8478972863186e-19 1.623667605441553e-20 0.707106781186548 0.001012891747682 3.77
8917476815547e-04 1.148106374200645e-20 0.5 8.980256121069161e-04 5.344196346801
268e-04 0.0 0.707106781186548 2.571082523184451e-04 3.778917476815549e-04 -1.148
106374200645e-20 0.5 3.636059774267889e-04 -8.905777928131235e-20 -1.62366760544
1553e-20 0.707106781186548 0.001264216504637 -3.096437391665645e-19 0.0 1.0 8.93
9360633167e-04 -4.089548790216462e-06 0.0 0.707106781186548 0.00127 -5.783495363
110601e-06 0.0 1.0 9.021151608971319e-04 -4.089548790216464e-06 0.0 0.7071067811
86548 0.001275783495363 -3.12476834800291e-19 0.0 1.0 9.021151608971319e-04 4.08
9548790216022e-06 0.0 0.707106781186548 0.00127 5.783495363109978e-06 0.0 1.0 8.
939360633167e-04 4.089548790216024e-06 0.0 0.707106781186548 0.001264216504637 -
3.096437391665645e-19 0.0 1.0 127 2 19 3 3 127 7 20 1 2 2 2 2 2 1 128 2 21 0.0 1
.5707963267949 128 7 22 -4.71238898038468 -3.14159265358979 -1.5707963267949 0.0
 1.5707963267949 3.14159265358979 4.71238898038468 15 23 8 0 24 13 0 17 24 0 23
 49 56 25 28 27 40 56 -18 25 9 0 28 0 50 26 9.274082247703223e-08 2 29 26 10 0 2
5 51 0 0.001264216504637 -3.089354652581328e-19 0.0 16 27 11 0 9.274082247703223
e-08 28 0 52 0 0 0 2 17 28 0 105 28 28 25 24 27 29 24 +133 29 12 0 28 30 0 0 +30
 0.001264216504637 -3.105111009045528e-19 0.0 0.001264216504637 -3.1051110090455
28e-19 0.0 3.141592653589793 9.424777960769379 137 30 13 0 2 40 29 31 +32 34 0 0
.0 141 31 29 31 31 30 50 32 42 0 102 107 63 33 +0.00127 -3.110602869834277e-19 0
.0 0.0 0.0 -1.0 -1.0 2.449293598294707e-16 0.0 141 33 30 33 33 32 134 34 0 0 0 0
 0 0 +35 39 136 35 6 35 2 11 1 TTF1 36 37 38 45 70 36 5.78349536311018e-06 -8.67
3617379884036e-22 5.783495363110203e-06 7.570577727007343e-07 5.664577006257146e
-06 1.51411554540146e-06 5.426738508318846e-06 2.247828689597986e-06 5.076102183
331185e-06 2.934819444024515e-06 4.173636766754476e-06 4.173636766754461e-06 2.9
34819444024514e-06 5.07610218333121e-06 2.247828689597997e-06 5.426738508318785e
-06 1.514115545401466e-06 5.664577006257205e-06 4.430128859632587e-22 5.90241371
9963149e-06 -1.514115545401465e-06 5.664577006257214e-06 -2.247828689597993e-06
 5.426738508318778e-06 -2.934819444024514e-06 5.076102183331212e-06 -4.173636766
754464e-06 4.173636766754461e-06 -5.076102183331201e-06 2.934819444024517e-06 -5
.426738508318794e-06 2.247828689597997e-06 -5.664577006257201e-06 1.514115545401
467e-06 -5.902413719963162e-06 1.919608658191545e-21 -5.664577006257199e-06 -1.5
14115545401463e-06 -5.426738508318798e-06 -2.247828689597994e-06 -5.076102183331
205e-06 -2.934819444024515e-06 -4.173636766754465e-06 -4.173636766754465e-06 -2.
934819444024518e-06 -5.076102183331201e-06 -2.247828689597995e-06 -5.42673850831
8803e-06 -1.514115545401468e-06 -5.664577006257188e-06 -2.953244087398967e-22 -5
.90241371996317e-06 1.514115545401458e-06 -5.664577006257193e-06 2.2478286895980
09e-06 -5.426738508318801e-06 2.934819444024504e-06 -5.076102183331199e-06 4.173
636766754473e-06 -4.173636766754476e-06 5.076102183331188e-06 -2.934819444024512
e-06 5.426738508318827e-06 -2.247828689598008e-06 5.664577006257181e-06 -1.51411
5545401455e-06 5.783495363110181e-06 -7.57057772700739e-07 5.78349536311018e-06
 -8.673617379884036e-22 127 11 37 1 6 4 4 4 4 4 4 4 6 1 128 11 38 2.356194490192
344 3.141592653589793 3.926990816987241 4.71238898038469 5.497787143782138 6.283
185307179586 7.068583470577035 7.853981633974483 8.63937979737193 9.424777960769
379 10.210176124166829 135 39 1 0 133 40 14 0 24 41 30 0 +41 0.001264216504637 -
2.703335933271816e-19 0.0 0.001264216504637 -3.02706654606673e-19 5.076550518928
07e-35 9.424777960769379 3.141592653589793 137 41 15 0 2 53 40 42 -14 43 0 0.0 1
41 42 40 42 42 41 134 43 0 0 0 0 0 0 +44 48 136 44 1 2 2 2 1 FFF1 45 46 47 45 4
 45 1.5707963267949 3.141592653589789 1.5707963267949 -3.141592653589798 127 2 4
6 2 2 128 2 47 3.141592653589793 9.424777960769379 135 48 1 0 17 49 0 23 57 24 5
0 56 52 0 57 +18 50 16 0 59 25 85 51 1.055884296861749e-06 2 29 51 17 0 50 86 26
 5.142165046368899e-04 -2.185035031389447e-19 7.5e-04 16 52 18 0 ?49 27 58 53 0
 0 2 133 53 19 0 52 54 41 0 +54 0.001264216504637 -3.103520130749961e-19 0.0 5.1
42165046368901e-04 -2.185035031389444e-19 7.499999999999998e-04 4.71238898038469
 6.283185307179586 31 54 20 0 2 60 53 55 +0.001264216504637 -3.103520130749961e-
19 7.5e-04 1.224646799147356e-16 1.0 0.0 -1.0 1.224646799147356e-16 0.0 7.5e-04
 141 55 53 55 55 54 17 56 0 23 24 57 25 49 52 0 0 -17 57 0 23 56 49 50 59 58 71
 91 -16 58 21 0 1.055884296861749e-06 59 52 87 0 0 0 2 17 59 0 83 84 91 50 57 58
 60 49 +133 60 22 0 59 61 54 0 +61 5.142165046368901e-04 -2.185035031389446e-19
 7.5e-04 5.142165046368901e-04 -3.338993544997839e-20 7.5e-04 3.141592653589793
 9.424777960769379 137 61 23 0 2 71 60 62 +63 65 0 0.0 141 62 60 62 62 61 51 63
 27 0 80 32 14 64 +0.00127 -3.110602869834277e-19 0.001 0.0 0.0 1.0 7.5578349536
311e-04 1.0 -2.449293598294707e-16 0.0 141 64 61 64 64 63 134 65 0 0 0 0 0 0 +66
 70 136 66 1 2 2 2 1 FFF1 67 68 69 45 4 67 -3.141592653589793 -2.5e-04 3.1415926
53589793 -2.5e-04 127 2 68 2 2 128 2 69 3.141592653589793 9.424777960769379 135
 70 1 0 133 71 24 0 57 72 61 0 +72 5.142165046368898e-04 -4.819417092346465e-19
 7.500000000000003e-04 5.142165046368899e-04 -1.259467192944615e-19 7.5e-04 9.42
4777960769379 3.141592653589793 137 72 25 0 2 88 71 73 -14 74 0 0.0 141 73 71 73
 73 72 134 74 0 0 0 0 0 0 +75 79 136 75 3 25 2 23 1 FFF1 76 77 78 45 50 76 0.0 -
3.14159265358979 0.0 -3.036131210426519 0.0 -2.836578914728306 0.0 -2.5586768801
92748 0.0 -2.28900379357162 0.0 -2.016154537551933 0.0 -1.730960070040092 0.0 -1
.410638332078842 0.0 -1.125409373392192 0.0 -0.852698082071735 0.0 -0.5825076278
28486 0.0 -0.306537099082168 0.0 -8.881784197001252e-16 0.0 0.306537099082168 0.
0 0.582507627828485 0.0 0.852698082071735 0.0 1.125409373392191 0.0 1.4106383320
78842 0.0 1.730960070040093 0.0 2.016154537551933 0.0 2.289003793571619 0.0 2.55
8676880192748 0.0 2.836578914728306 0.0 3.036131210426517 0.0 3.14159265358979 1
27 23 77 4 1 1 1 1 1 1 1 1 1 1 1 1 1 1 1 1 1 1 1 1 1 4 128 23 78 3.1415926535897
93 3.42719198573432 3.712791317878847 3.998390650023373 4.2839899821679 4.569589
314312426 4.855188646456953 5.140787978601479 5.426387310746007 5.71198664289053
3 5.99758597503506 6.283185307179586 6.568784639324113 6.854383971468639 7.13998
3303613166 7.425582635757693 7.71118196790222 7.996781300046746 8.28238063219127
3 8.5679799643358 8.853579296480326 9.139178628624853 9.424777960769379 135 79 1
 0 14 80 26 81 1.0e-08 102 13 83 12 63 +0 0 102 13 10 81 1 81 28 6 80 0 0 103 5
 82 83 3 82 1.0 0.0 0.0 15 83 29 0 59 80 0 17 84 0 83 92 59 85 91 87 0 97 +18 85
 30 0 84 50 93 86 ?2 29 86 31 0 85 94 51 5.142165046368899e-04 -2.18503503138944
7e-19 0.001 16 87 32 0 ?84 58 95 88 0 0 2 133 88 33 0 87 89 72 0 +89 5.142165046
368899e-04 -2.185035031389447e-19 7.5e-04 5.142165046368899e-04 -2.1850350313894
47e-19 0.001 -2.5e-04 0.0 30 89 34 0 2 96 88 90 +5.142165046368899e-04 -2.185035
031389447e-19 0.001 0.0 0.0 1.0 141 90 88 90 90 89 17 91 0 83 59 98 50 84 87 0 0
 -17 92 0 83 98 84 93 97 95 0 101 -18 93 35 0 92 85 120 94 ?2 29 94 36 0 93 121
 86 0.002025783495363 -4.96173854672394e-19 0.001 16 95 37 0 ?97 87 99 96 0 0 2
 31 96 38 0 95 100 89 0 +0.00127 -3.110602869834277e-19 0.001 0.0 0.0 1.0 1.0 -2
.449293598294707e-16 0.0 7.5578349536311e-04 17 97 0 261 101 101 85 92 95 0 98 +
17 98 0 83 91 92 85 101 99 0 0 -16 99 39 0 ?101 95 122 100 0 0 2 31 100 40 0 99
 123 96 0 +0.00127 -3.110602869834277e-19 0.001 0.0 0.0 1.0 1.0 -2.4492935982947
07e-16 0.0 7.5578349536311e-04 17 101 0 261 97 97 93 98 99 0 0 +14 102 41 103 1.
0e-08 106 80 105 12 32 +0 0 106 80 10 81 1 103 43 6 102 0 0 116 81 104 83 3 104
 1.0 0.0 0.0 15 105 44 0 28 102 0 14 106 45 116 1.0e-08 175 102 118 12 107 -0 0
 175 102 10 124 107 46 0 106 167 32 108 +110 0 141 108 124 109 109 107 141 109 1
55 108 108 107 126 110 FT2 2 3 9 1 1 2 7 TFT1 4 111 112 113 114 115 45 108 111 -
5.142165046368899e-04 1.259467192944615e-19 7.5e-04 1.0 -3.636059774267891e-04 -
5.34419634680127e-04 5.30330085889911e-04 0.707106781186548 -0.00127 -7.55783495
3631096e-04 7.5e-04 1.0 -0.001432445246787 -5.344196346801267e-04 5.303300858899
11e-04 0.707106781186548 -0.002025783495363 4.96173854672394e-19 7.5e-04 1.0 -0.
001432445246787 5.344196346801273e-04 5.30330085889911e-04 0.707106781186548 -0.
00127 7.557834953631104e-04 7.5e-04 1.0 -3.636059774267888e-04 5.344196346801271
e-04 5.30330085889911e-04 0.707106781186548 -5.142165046368899e-04 1.25946719294
4615e-19 7.5e-04 1.0 -3.636059774267889e-04 8.905777928131235e-20 -1.62366760544
1553e-20 0.707106781186548 -2.571082523184451e-04 -3.778917476815549e-04 -1.1481
06374200645e-20 0.5 -8.980256121069161e-04 -5.344196346801268e-04 0.0 0.70710678
1186548 -0.001012891747682 -3.778917476815547e-04 1.148106374200645e-20 0.5 -0.0
01432445246787 3.508478972863186e-19 1.623667605441553e-20 0.707106781186548 -0.
001012891747682 3.778917476815552e-04 1.148106374200645e-20 0.5 -8.9802561210691
59e-04 5.344196346801272e-04 0.0 0.707106781186548 -2.571082523184449e-04 3.7789
17476815551e-04 -1.148106374200645e-20 0.5 -3.636059774267889e-04 8.905777928131
235e-20 -1.623667605441553e-20 0.707106781186548 -0.001264216504637 3.0964373916
65645e-19 0.0 1.0 -8.939360633167e-04 -4.089548790216024e-06 0.0 0.7071067811865
48 -0.00127 -5.783495363109978e-06 0.0 1.0 -9.021151608971319e-04 -4.08954879021
6022e-06 0.0 0.707106781186548 -0.001275783495363 3.12476834800291e-19 0.0 1.0 -
9.021151608971319e-04 4.089548790216464e-06 0.0 0.707106781186548 -0.00127 5.783
495363110601e-06 0.0 1.0 -8.939360633167e-04 4.089548790216462e-06 0.0 0.7071067
81186548 -0.001264216504637 3.096437391665645e-19 0.0 1.0 127 2 112 3 3 127 7 11
3 1 2 2 2 2 2 1 128 2 114 0.0 1.5707963267949 128 7 115 -4.71238898038468 -3.141
59265358979 -1.5707963267949 0.0 1.5707963267949 3.14159265358979 4.712388980384
68 81 1 116 47 6 106 0 0 176 103 117 83 3 117 1.0 0.0 0.0 15 118 48 0 119 106 0
 17 119 0 118 144 151 120 132 122 123 132 +18 120 49 0 151 93 145 121 9.27408224
7716507e-08 2 29 121 50 0 120 146 94 -0.001264216504637 3.103520130749961e-19 0.
0 16 122 51 0 9.274082247716507e-08 119 99 147 0 0 0 2 133 123 52 0 119 124 100
 0 +124 -0.001264216504637 3.119561006865283e-19 5.076550518928068e-35 -0.001264
216504637 3.4432916196602e-19 0.0 3.141592653589793 9.424777960769379 137 124 53
 0 2 133 123 125 +107 126 0 0.0 141 125 123 125 125 124 134 126 0 0 0 0 0 0 +127
 131 136 127 1 2 2 2 1 FFF1 128 129 130 45 4 128 1.5707963267949 3.1415926535897
9 1.5707963267949 -3.141592653589797 127 2 129 2 2 128 2 130 3.141592653589793 9
.424777960769379 135 131 1 0 17 132 0 200 132 132 120 119 122 133 0 -133 133 54
 0 132 134 124 0 +134 -0.001264216504637 3.08776377428576e-19 0.0 -0.00126421650
4637 3.08776377428576e-19 0.0 9.424777960769379 3.141592653589793 137 134 55 0 2
 148 133 135 -136 138 0 0.0 141 135 133 135 135 134 50 136 82 0 197 202 167 137
 +-0.00127 3.110602869834277e-19 0.0 0.0 0.0 1.0 1.0 -2.449293598294707e-16 0.0
 141 137 134 137 137 136 134 138 0 0 0 0 0 0 +139 143 136 139 6 35 2 11 1 TTF1 1
40 141 142 45 70 140 5.78349536311018e-06 -8.673617379884036e-22 5.7834953631102
03e-06 7.570577727007343e-07 5.664577006257146e-06 1.51411554540146e-06 5.426738
508318846e-06 2.247828689597986e-06 5.076102183331185e-06 2.934819444024515e-06
 4.173636766754476e-06 4.173636766754461e-06 2.934819444024514e-06 5.07610218333
121e-06 2.247828689597997e-06 5.426738508318785e-06 1.514115545401466e-06 5.6645
77006257205e-06 4.430128859632587e-22 5.902413719963149e-06 -1.514115545401465e-
06 5.664577006257214e-06 -2.247828689597993e-06 5.426738508318778e-06 -2.9348194
44024514e-06 5.076102183331212e-06 -4.173636766754464e-06 4.173636766754461e-06
 -5.076102183331201e-06 2.934819444024517e-06 -5.426738508318794e-06 2.247828689
597997e-06 -5.664577006257201e-06 1.514115545401467e-06 -5.902413719963162e-06 1
.919608658191545e-21 -5.664577006257199e-06 -1.514115545401463e-06 -5.4267385083
18798e-06 -2.247828689597994e-06 -5.076102183331205e-06 -2.934819444024515e-06 -
4.173636766754465e-06 -4.173636766754465e-06 -2.934819444024518e-06 -5.076102183
331201e-06 -2.247828689597995e-06 -5.426738508318803e-06 -1.514115545401468e-06
 -5.664577006257188e-06 -2.953244087398967e-22 -5.90241371996317e-06 1.514115545
401458e-06 -5.664577006257193e-06 2.247828689598009e-06 -5.426738508318801e-06 2
.934819444024504e-06 -5.076102183331199e-06 4.173636766754473e-06 -4.17363676675
4476e-06 5.076102183331188e-06 -2.934819444024512e-06 5.426738508318827e-06 -2.2
47828689598008e-06 5.664577006257181e-06 -1.514115545401455e-06 5.78349536311018
1e-06 -7.57057772700739e-07 5.78349536311018e-06 -8.673617379884036e-22 127 11 1
41 1 6 4 4 4 4 4 4 4 6 1 128 11 142 2.356194490192344 3.141592653589793 3.926990
816987241 4.71238898038469 5.497787143782138 6.283185307179586 7.068583470577035
 7.853981633974483 8.63937979737193 9.424777960769379 10.210176124166829 135 143
 1 0 17 144 0 118 152 119 145 151 147 0 152 +18 145 56 0 144 120 180 146 1.05588
4296861666e-06 2 29 146 57 0 145 181 121 -5.142165046368899e-04 3.33899354499782
8e-20 7.5e-04 16 147 58 0 ?144 122 153 148 0 0 2 133 148 59 0 147 149 134 0 +149
 -0.001264216504637 3.089354652581329e-19 0.0 -5.142165046368901e-04 3.338993544
997858e-20 7.499999999999998e-04 4.71238898038469 6.283185307179586 31 149 60 0
 2 154 148 150 +-0.001264216504637 3.089354652581328e-19 7.5e-04 -3.673940397442
057e-16 -1.0 0.0 1.0 -3.673940397442057e-16 0.0 7.5e-04 141 150 148 150 150 149
 17 151 0 118 119 152 120 144 147 0 119 -17 152 0 118 151 144 145 163 153 154 18
6 +16 153 61 0 1.055884296861666e-06 152 147 182 0 0 0 2 133 154 62 0 152 155 14
9 0 +155 -5.142165046368899e-04 1.259467192944615e-19 7.5e-04 -5.142165046368899
e-04 1.259467192944615e-19 7.5e-04 3.141592653589793 9.424777960769379 137 155 6
3 0 2 164 154 156 +107 157 0 0.0 141 156 154 156 156 155 134 157 0 0 0 0 0 0 +15
8 162 136 158 3 25 2 23 1 FFF1 159 160 161 45 50 159 0.0 -3.14159265358979 0.0 -
3.036131210426519 0.0 -2.836578914728306 0.0 -2.558676880192748 0.0 -2.289003793
57162 0.0 -2.016154537551933 0.0 -1.730960070040092 0.0 -1.410638332078842 0.0 -
1.125409373392192 0.0 -0.852698082071735 0.0 -0.582507627828486 0.0 -0.306537099
082168 0.0 -7.251156969878767e-16 0.0 0.306537099082168 0.0 0.582507627828485 0.
0 0.852698082071735 0.0 1.125409373392191 0.0 1.410638332078843 0.0 1.7309600700
40093 0.0 2.016154537551932 0.0 2.289003793571619 0.0 2.558676880192749 0.0 2.83
6578914728306 0.0 3.036131210426518 0.0 3.14159265358979 127 23 160 4 1 1 1 1 1
 1 1 1 1 1 1 1 1 1 1 1 1 1 1 1 1 4 128 23 161 3.141592653589793 3.42719198573432
 3.712791317878847 3.998390650023373 4.2839899821679 4.569589314312426 4.8551886
46456953 5.140787978601479 5.426387310746007 5.711986642890533 5.99758597503506
 6.283185307179586 6.568784639324113 6.854383971468639 7.139983303613166 7.42558
2635757693 7.71118196790222 7.996781300046746 8.282380632191273 8.5679799643358
 8.853579296480326 9.139178628624853 9.424777960769379 135 162 1 0 17 163 0 178
 179 186 145 152 153 164 0 -133 164 64 0 163 165 155 0 +165 -5.142165046368901e-
04 2.185035031389446e-19 7.5e-04 -5.142165046368901e-04 3.338993544997839e-20 7.
5e-04 9.424777960769379 3.141592653589793 137 165 65 0 2 183 164 166 -167 169 0
 0.0 141 166 164 166 166 165 51 167 67 0 175 136 107 168 +-0.00127 3.11060286983
4277e-19 0.001 0.0 0.0 -1.0 7.5578349536311e-04 -1.0 2.449293598294707e-16 0.0 1
41 168 165 168 168 167 134 169 0 0 0 0 0 0 +170 174 136 170 1 2 2 2 1 FFF1 171 1
72 173 45 4 171 -3.141592653589793 2.5e-04 3.141592653589793 2.5e-04 127 2 172 2
 2 128 2 173 3.141592653589793 9.424777960769379 135 174 1 0 14 175 66 176 1.0e-
08 197 106 178 12 167 +0 0 197 106 10 81 1 176 68 6 175 0 0 198 116 177 83 3 177
 1.0 0.0 0.0 15 178 69 0 163 175 0 17 179 0 178 187 163 180 186 182 0 193 +18 18
0 70 0 179 145 188 181 ?2 29 181 71 0 180 189 146 -5.142165046368899e-04 3.33899
3544997828e-20 0.001 16 182 72 0 ?179 153 190 183 0 0 2 133 183 73 0 182 184 165
 0 +184 -5.142165046368899e-04 3.338993544997828e-20 7.5e-04 -5.142165046368899e
-04 3.338993544997828e-20 0.001 -2.5e-04 0.0 30 184 74 0 2 191 183 185 +-5.14216
5046368899e-04 3.338993544997828e-20 0.001 0.0 0.0 1.0 141 185 183 185 185 184 1
7 186 0 178 163 193 145 179 182 0 163 -17 187 0 178 193 179 188 192 190 0 0 -18
 188 75 0 196 180 207 189 ?2 29 189 76 0 188 208 181 -0.002025783495363 4.961738
54672394e-19 0.001 16 190 77 0 ?192 182 194 191 0 0 2 31 191 78 0 190 195 184 0
 +-0.00127 3.110602869834277e-19 0.001 0.0 0.0 1.0 -1.0 2.449293598294707e-16 0.
0 7.5578349536311e-04 17 192 0 262 196 196 180 187 190 0 0 +17 193 0 178 186 187
 180 196 194 0 192 -16 194 79 0 ?196 190 209 195 0 0 2 31 195 80 0 194 210 191 0
 +-0.00127 3.110602869834277e-19 0.001 0.0 0.0 1.0 -1.0 2.449293598294707e-16 0.
0 7.5578349536311e-04 17 196 0 262 192 192 188 193 194 0 187 +14 197 81 198 1.0e
-08 201 175 200 12 136 -0 0 201 175 10 81 1 198 83 6 197 0 0 203 176 199 83 3 19
9 1.0 0.0 0.0 15 200 84 0 132 197 0 14 201 85 203 1.0e-08 230 197 205 12 202 -0
 0 230 197 10 50 202 86 0 201 231 136 0 +-0.002503045606029 0.006240612290284 0.
00225 1.0 -1.372084594908576e-16 0.0 -1.372084594908576e-16 -1.0 0.0 81 1 203 87
 6 201 0 0 232 198 204 83 3 204 1.0 0.0 0.0 15 205 88 0 206 201 0 17 206 0 205 2
14 226 207 211 209 0 219 -18 207 89 0 206 188 212 208 ?2 29 208 90 0 207 213 189
 -0.002503045606029 0.001561173499051 0.001 16 209 91 0 ?211 194 217 210 0 0 2 3
0 210 92 0 209 218 195 0 +-0.002503045606029 0.001561173499051 0.001625 0.0 0.0
 1.0 17 211 0 267 238 260 212 206 209 0 226 +18 212 93 0 211 207 215 213 ?2 29 2
13 94 0 212 216 208 -0.002503045606029 0.001561173499051 0.00225 17 214 0 205 22
0 206 215 219 217 0 257 -18 215 95 0 214 212 221 216 ?2 29 216 96 0 215 222 213
 -0.002503045606029 -0.001561173499051 0.001 16 217 97 0 ?219 209 223 218 0 0 2
 30 218 98 0 217 224 210 0 +-0.002503045606029 0.003120306145142 0.001 1.3720845
94908576e-16 1.0 0.0 17 219 0 256 257 257 207 214 217 0 260 +17 220 0 205 226 21
4 221 225 223 0 238 -18 221 99 0 229 215 241 222 ?2 29 222 100 0 221 242 216 -0.
002503045606029 -0.001561173499051 0.00225 16 223 101 0 ?225 217 227 224 0 0 2 3
0 224 102 0 223 228 218 0 +-0.002503045606029 -0.001561173499051 0.001625 0.0 0.
0 -1.0 17 225 0 267 260 238 215 220 223 0 0 +17 226 0 205 206 220 212 229 227 0
 235 -16 227 103 0 ?229 223 236 228 0 0 2 30 228 104 0 227 237 224 0 +-0.0025030
45606029 0.003120306145142 0.00225 -1.372084594908576e-16 -1.0 0.0 17 229 0 234
 235 235 221 226 227 0 220 +14 230 105 232 1.0e-08 252 201 234 12 231 +0 0 252 2
01 10 50 231 106 0 230 253 202 0 +0.0025 -6.123233995736766e-19 0.00225 0.0 0.0
 1.0 1.0 -2.449293598294707e-16 0.0 81 1 232 107 6 230 0 0 254 203 233 83 3 233
 1.0 0.0 0.0 15 234 108 0 229 230 239 17 235 0 234 229 229 212 238 236 0 0 +16 2
36 109 0 ?235 227 243 237 0 0 2 31 237 110 0 236 244 228 0 +0.0 0.0 0.00225 0.0
 0.0 1.0 1.0 -2.449293598294707e-16 0.0 0.00295 17 238 0 267 225 211 221 235 236
 0 0 -15 239 111 0 240 230 0 17 240 0 239 248 248 241 245 243 0 0 -18 241 112 0
 251 221 246 242 ?2 29 242 113 0 241 247 222 0.0025 -6.123233995736766e-19 0.002
25 16 243 114 0 ?245 236 249 244 0 0 2 31 244 115 0 243 250 237 0 +0.0 0.0 0.002
25 0.0 0.0 1.0 1.0 -2.449293598294707e-16 0.0 0.0025 17 245 0 272 288 251 246 24
0 243 0 0 +18 246 116 0 248 241 274 247 ?2 29 247 117 0 246 275 242 -0.0025 3.06
1616997868386e-19 0.00225 17 248 0 239 240 240 246 251 249 0 285 -16 249 118 0 ?
251 243 258 250 0 0 2 31 250 119 0 249 259 244 0 +0.0 0.0 0.00225 0.0 0.0 1.0 1.
0 -2.449293598294707e-16 0.0 0.0025 17 251 0 272 245 285 241 248 249 0 240 +14 2
52 120 254 1.0e-08 263 230 256 12 253 +0 0 263 230 10 50 253 121 0 252 264 231 0
 +0.00295 -7.225416114969384e-19 0.001 0.0 0.0 -1.0 -1.0 2.449293598294707e-16 0
.0 81 1 254 122 6 252 0 0 265 232 255 83 3 255 1.0 0.0 0.0 15 256 123 0 219 252
 261 17 257 0 256 219 219 215 260 258 0 225 -16 258 124 0 ?260 249 276 259 0 0 2
 31 259 125 0 258 277 250 0 +0.0 0.0 0.001 0.0 0.0 1.0 1.0 -2.449293598294707e-1
6 0.0 0.00295 17 260 0 267 211 225 207 257 258 0 0 +15 261 126 0 97 252 262 15 2
62 127 0 192 252 0 14 263 128 265 1.0e-08 268 252 267 12 264 +0 0 268 252 10 51
 264 129 0 263 269 253 0 +0.0 0.0 0.001625 0.0 0.0 1.0 0.00295 1.0 -2.4492935982
94707e-16 0.0 81 1 265 130 6 263 0 0 270 254 266 83 3 266 1.0 0.0 0.0 15 267 131
 0 211 263 0 14 268 132 270 1.0e-08 289 263 272 12 269 +0 0 289 263 10 51 269 13
3 0 268 290 264 0 +0.0 0.0 0.0048 0.0 0.0 1.0 0.0025 1.0 -2.449293598294707e-16
 0.0 81 1 270 134 6 268 0 0 291 265 271 83 3 271 1.0 0.0 0.0 15 272 135 0 273 26
8 0 17 273 0 272 281 288 274 278 276 0 0 -18 274 136 0 284 246 279 275 ?2 29 275
 137 0 274 280 247 0.0025 -6.123233995736766e-19 0.00735 16 276 138 0 ?278 258 2
82 277 0 0 2 31 277 139 0 276 283 259 0 +0.0 0.0 0.00735 0.0 0.0 1.0 1.0 -2.4492
93598294707e-16 0.0 0.0025 17 278 0 293 294 284 279 273 276 0 288 +18 279 140 0
 281 274 295 280 ?2 29 280 141 0 279 296 275 -0.0025 3.061616997868386e-19 0.007
35 17 281 0 272 285 273 279 284 282 0 299 -16 282 142 0 ?284 276 286 283 0 0 2 3
1 283 143 0 282 287 277 0 +0.0 0.0 0.00735 0.0 0.0 1.0 1.0 -2.449293598294707e-1
6 0.0 0.0025 17 284 0 293 278 299 274 281 282 0 273 +17 285 0 272 251 281 246 28
8 286 0 245 +16 286 144 0 ?285 282 297 287 0 0 2 30 287 145 0 286 298 283 0 +-0.
0025 3.061616997868386e-19 0.0048 0.0 0.0 -1.0 17 288 0 272 273 245 279 285 286
 0 0 -14 289 146 291 1.0e-08 0 268 293 12 290 +0 0 0 268 10 53 290 147 0 289 0 2
69 0 +0.0 0.0 0.00735 0.0025 6.123233995736769e-17 -1.499759782661859e-32 1.0 1.
0 -2.449293598294707e-16 -6.123233995736769e-17 81 1 291 148 6 289 0 0 0 270 292
 83 3 292 1.0 0.0 0.0 15 293 149 0 278 289 0 17 294 0 293 299 278 295 299 297 0
 0 -18 295 150 0 294 279 0 296 ?2 29 296 151 0 295 0 280 -1.53080849893419e-19 1
.874699728327321e-35 0.00985 16 297 152 0 ?299 286 0 298 0 0 2 31 298 153 0 297
 0 287 0 +0.0 0.0 0.00735 -1.224646799147356e-16 -1.0 0.0 -1.0 1.224646799147356
e-16 0.0 0.0025 17 299 0 293 284 294 279 294 297 0 278 +12 300 180 0 301 0 0 0 0
 1000.0 1.0e-08 0 0 0 1 0 1 1 308 310 316 314 305 315 313 70 301 0 300 0 0 4 1 2
0 0 302 302 1 T74 20 302 1 0 303 0 0 0 0 0 0 0 0 0 0 0 0 0 0 0 0 0 0 0 81 1 303
 7 6 309 0 0 386 0 304 83 3 304 0.831372559070587 0.831372559070587 0.8313725590
70587 19 305 1 0 300 307 0 306 V13 306 2 0 300 0 0 0 0 305 309 19 307 3 0 300 0
 305 308 S13 308 4 0 300 0 309 0 0 307 0 14 309 5 303 1.0e-08 384 0 311 308 310
 +0 0 384 0 306 50 310 6 0 309 385 0 0 +-0.00127 -2.499999999999997e-04 -0.00116
7738182374 -2.449293598294707e-16 -1.0 0.0 0.0 0.0 -1.0 15 311 8 0 312 309 0 17
 312 0 311 320 380 313 317 315 0 325 +18 313 9 0 312 0 318 314 ?300 29 314 10 0
 313 319 0 -0.00102 -2.499999999999997e-04 0.001664523635252 16 315 11 0 ?312 0
 323 316 0 0 300 30 316 12 0 315 324 0 0 +-0.00102 -2.499999999999997e-04 0.004
 0.0 0.0 1.0 17 317 0 559 554 394 318 312 315 0 380 -18 318 13 0 317 313 321 319
 ?300 29 319 14 0 318 322 314 -0.00102 -2.499999999999997e-04 -0.001571048099475
 17 320 0 311 326 312 321 325 323 0 331 +18 321 15 0 320 318 327 322 ?300 29 322
 16 0 321 328 319 -0.00152 -2.499999999999996e-04 0.001664523635252 16 323 17 0
 ?320 315 329 324 0 0 300 30 324 18 0 323 330 316 0 +-0.002049579904816 -2.49999
9999999995e-04 0.001664523635252 -1.0 2.449293598294707e-16 0.0 17 325 0 388 389
 401 313 320 323 0 394 -17 326 0 311 332 320 327 331 329 0 337 +18 327 19 0 326
 321 333 328 ?300 29 328 20 0 327 334 322 -0.00152 -2.499999999999996e-04 -0.001
571048099475 16 329 21 0 ?326 323 335 330 0 0 300 30 330 22 0 329 336 324 0 +-0.
00152 -2.499999999999996e-04 -0.004 0.0 0.0 -1.0 17 331 0 409 404 416 321 326 32
9 0 401 -17 332 0 311 338 326 333 337 335 0 343 +18 333 23 0 332 327 339 334 ?30
0 29 334 24 0 333 340 328 -0.00162 -2.499999999999996e-04 -0.001571048099475 16
 335 25 0 ?332 329 341 336 0 0 300 30 336 26 0 335 342 330 0 +-0.00162 -2.499999
999999996e-04 -0.001571048099475 -1.0 2.449293598294707e-16 0.0 17 337 0 424 419
 431 327 332 335 0 416 -17 338 0 311 344 332 339 343 341 0 349 +18 339 27 0 338
 333 345 340 ?300 29 340 28 0 339 346 334 -0.00162 -2.499999999999996e-04 -0.002
847048220212 16 341 29 0 ?338 335 347 342 0 0 300 30 342 30 0 341 348 336 0 +-0.
00162 -2.499999999999996e-04 -0.002847048220212 0.0 0.0 -1.0 17 343 0 439 434 44
6 333 338 341 0 431 -17 344 0 311 350 338 345 349 347 0 355 +18 345 31 0 344 339
 351 346 ?300 29 346 32 0 345 352 340 -0.00152 -2.499999999999996e-04 -0.0028470
48220212 16 347 33 0 ?344 341 353 348 0 0 300 30 348 34 0 347 354 342 0 +-9.2000
00000000001e-04 -2.499999999999998e-04 -0.002847048220212 1.0 -2.449293598294707
e-16 0.0 17 349 0 454 449 461 339 344 347 0 446 -17 350 0 311 356 344 351 355 35
3 0 361 +18 351 35 0 350 345 357 352 ?300 29 352 36 0 351 358 346 -0.00152 -2.49
9999999999996e-04 -0.004 16 353 37 0 ?350 347 359 354 0 0 300 30 354 38 0 353 36
0 348 0 +-0.00152 -2.499999999999996e-04 -0.004 0.0 0.0 -1.0 17 355 0 469 464 47
6 345 350 353 0 461 -17 356 0 311 362 350 357 361 359 0 367 +18 357 39 0 356 351
 363 358 ?300 29 358 40 0 357 364 352 -0.00102 -2.499999999999997e-04 -0.004 16
 359 41 0 ?356 353 365 360 0 0 300 30 360 42 0 359 366 354 0 +0.00127 -2.5000000
00000003e-04 -0.004 1.0 -2.449293598294707e-16 0.0 17 361 0 484 479 491 351 356
 359 0 476 -17 362 0 311 368 356 363 367 365 0 373 +18 363 43 0 362 357 369 364
 ?300 29 364 44 0 363 370 358 -0.00102 -2.499999999999997e-04 -0.002847048220212
 16 365 45 0 ?362 359 371 366 0 0 300 30 366 46 0 365 372 360 0 +-0.00102 -2.499
999999999997e-04 0.004 0.0 0.0 1.0 17 367 0 499 494 506 357 362 365 0 491 -17 36
8 0 311 374 362 369 373 371 0 379 +18 369 47 0 368 363 375 370 ?300 29 370 48 0
 369 376 364 -9.200000000000001e-04 -2.499999999999998e-04 -0.002847048220212 16
 371 49 0 ?368 365 377 372 0 0 300 30 372 50 0 371 378 366 0 +-9.200000000000001
e-04 -2.499999999999998e-04 -0.002847048220212 1.0 -2.449293598294707e-16 0.0 17
 373 0 514 509 521 363 368 371 0 506 -17 374 0 311 380 368 375 379 377 0 383 +18
 375 51 0 374 369 390 376 ?300 29 376 52 0 375 391 370 -9.200000000000001e-04 -2
.499999999999998e-04 -0.001571048099475 16 377 53 0 ?374 371 381 378 0 0 300 30
 378 54 0 377 382 372 0 +-9.200000000000001e-04 -2.499999999999998e-04 -0.001571
048099475 0.0 0.0 1.0 17 379 0 529 524 536 369 374 377 0 521 -17 380 0 311 312 3
74 318 383 381 0 551 +16 381 55 0 ?380 377 392 382 0 0 300 30 382 56 0 381 393 3
78 0 +-0.00162 -2.499999999999996e-04 -0.001571048099475 -1.0 2.449293598294707e
-16 0.0 17 383 0 544 539 551 375 380 381 0 536 -14 384 57 386 1.0e-08 405 309 38
8 308 385 +0 0 405 309 306 50 385 58 0 384 406 310 0 +-0.00152 3.722926269407954
e-19 0.001664523635252 0.0 0.0 1.0 1.0 -2.449293598294707e-16 0.0 81 1 386 59 6
 384 0 0 407 303 387 83 3 387 0.831372559070587 0.831372559070587 0.831372559070
587 15 388 60 0 389 384 0 17 389 0 388 395 325 390 394 392 0 560 -18 390 61 0 40
0 375 396 391 ?300 29 391 62 0 390 397 376 -0.00102 2.500000000000003e-04 0.0016
64523635252 16 392 63 0 ?394 381 398 393 0 0 300 30 393 64 0 392 399 382 0 +-0.0
0102 2.498279470260601e-19 0.001664523635252 -2.449293598294707e-16 -1.0 0.0 17
 394 0 559 317 560 313 389 392 0 0 +17 395 0 388 401 389 396 400 398 0 404 -18 3
96 65 0 395 390 411 397 ?300 29 397 66 0 396 412 391 -0.00152 2.500000000000004e
-04 0.001664523635252 16 398 67 0 ?400 392 402 399 0 0 300 30 399 68 0 398 403 3
93 0 +-0.002049579904816 2.500000000000005e-04 0.001664523635252 1.0 -2.44929359
8294707e-16 0.0 17 400 0 568 563 415 390 395 398 0 389 +17 401 0 388 325 395 321
 404 402 0 0 -16 402 69 0 ?404 398 413 403 0 0 300 30 403 70 0 402 414 399 0 +-0
.00152 3.722926269407954e-19 0.001664523635252 2.449293598294707e-16 1.0 0.0 17
 404 0 409 410 331 396 401 402 0 415 +14 405 71 407 1.0e-08 420 384 409 308 406
 +0 0 420 384 306 50 406 72 0 405 421 385 0 +-0.00152 3.722926269407954e-19 -0.0
01571048099475 -1.0 2.449293598294707e-16 0.0 0.0 0.0 1.0 81 1 407 73 6 405 0 0
 422 386 408 83 3 408 0.831372559070587 0.831372559070587 0.831372559070587 15 4
09 74 0 404 405 0 17 410 0 409 416 404 411 415 413 0 419 -18 411 75 0 430 396 42
6 412 ?300 29 412 76 0 411 427 397 -0.00152 2.500000000000004e-04 -0.00157104809
9475 16 413 77 0 ?415 402 417 414 0 0 300 30 414 78 0 413 418 403 0 +-0.00152 2.
500000000000004e-04 -0.004 0.0 0.0 1.0 17 415 0 568 400 430 396 410 413 0 0 +17
 416 0 409 331 410 327 419 417 0 0 -16 417 79 0 ?419 413 428 418 0 0 300 30 418
 80 0 417 429 414 0 +-0.00152 3.722926269407954e-19 -0.001571048099475 2.4492935
98294707e-16 1.0 0.0 17 419 0 424 425 337 411 416 417 0 0 +14 420 81 422 1.0e-08
 435 405 424 308 421 +0 0 435 405 306 50 421 82 0 420 436 406 0 +-0.00162 3.9678
55629237425e-19 -0.001571048099475 0.0 0.0 1.0 1.0 -2.449293598294707e-16 0.0 81
 1 422 83 6 420 0 0 437 407 423 83 3 423 0.831372559070587 0.831372559070587 0.8
31372559070587 15 424 84 0 419 420 0 17 425 0 424 431 419 426 430 428 0 445 -18
 426 85 0 434 411 441 427 ?300 29 427 86 0 426 442 412 -0.00162 2.50000000000000
4e-04 -0.001571048099475 16 428 87 0 ?430 417 432 429 0 0 300 30 429 88 0 428 43
3 418 0 +-0.00162 2.500000000000004e-04 -0.001571048099475 1.0 -2.44929359829470
7e-16 0.0 17 430 0 568 415 445 411 425 428 0 410 +17 431 0 424 337 425 333 434 4
32 0 0 -16 432 89 0 ?434 428 443 433 0 0 300 30 433 90 0 432 444 429 0 +-0.00162
 3.967855629237425e-19 -0.001571048099475 2.449293598294707e-16 1.0 0.0 17 434 0
 439 440 343 426 431 432 0 425 +14 435 91 437 1.0e-08 450 420 439 308 436 +0 0 4
50 420 306 50 436 92 0 435 451 421 0 +-0.00162 3.967855629237425e-19 -0.00284704
8220212 -1.0 2.449293598294707e-16 0.0 0.0 0.0 1.0 81 1 437 93 6 435 0 0 452 422
 438 83 3 438 0.831372559070587 0.831372559070587 0.831372559070587 15 439 94 0
 434 435 0 17 440 0 439 446 434 441 445 443 0 449 -18 441 95 0 440 426 456 442 ?
300 29 442 96 0 441 457 427 -0.00162 2.500000000000004e-04 -0.002847048220212 16
 443 97 0 ?445 432 447 444 0 0 300 30 444 98 0 443 448 433 0 +-0.00162 2.5000000
00000004e-04 -0.002847048220212 0.0 0.0 1.0 17 445 0 568 430 460 426 440 443 0 0
 +17 446 0 439 343 440 339 449 447 0 0 -16 447 99 0 ?449 443 458 448 0 0 300 30
 448 100 0 447 459 444 0 +-0.00162 3.967855629237425e-19 -0.002847048220212 2.44
9293598294707e-16 1.0 0.0 17 449 0 454 455 349 441 446 447 0 460 +14 450 101 452
 1.0e-08 465 435 454 308 451 +0 0 465 435 306 50 451 102 0 450 466 436 0 +-0.001
52 3.722926269407954e-19 -0.002847048220212 0.0 0.0 -1.0 -1.0 2.449293598294707e
-16 0.0 81 1 452 103 6 450 0 0 467 437 453 83 3 453 0.831372559070587 0.83137255
9070587 0.831372559070587 15 454 104 0 449 450 0 17 455 0 454 461 449 456 460 45
8 0 0 -18 456 105 0 464 441 471 457 ?300 29 457 106 0 456 472 442 -0.00152 2.500
000000000004e-04 -0.002847048220212 16 458 107 0 ?460 447 462 459 0 0 300 30 459
 108 0 458 463 448 0 +-9.199999999999999e-04 2.500000000000002e-04 -0.0028470482
20212 -1.0 2.449293598294707e-16 0.0 17 460 0 568 445 475 441 455 458 0 0 +17 46
1 0 454 349 455 345 464 462 0 0 -16 462 109 0 ?464 458 473 463 0 0 300 30 463 11
0 0 462 474 459 0 +-0.00152 3.722926269407954e-19 -0.002847048220212 2.449293598
294707e-16 1.0 0.0 17 464 0 469 470 355 456 461 462 0 475 +14 465 111 467 1.0e-0
8 480 450 469 308 466 +0 0 480 450 306 50 466 112 0 465 481 451 0 +-0.00152 3.72
2926269407954e-19 -0.004 -1.0 2.449293598294707e-16 0.0 0.0 0.0 1.0 81 1 467 113
 6 465 0 0 482 452 468 83 3 468 0.831372559070587 0.831372559070587 0.8313725590
70587 15 469 114 0 464 465 0 17 470 0 469 476 464 471 475 473 0 0 -18 471 115 0
 479 456 486 472 ?300 29 472 116 0 471 487 457 -0.00152 2.500000000000004e-04 -0
.004 16 473 117 0 ?475 462 477 474 0 0 300 30 474 118 0 473 478 463 0 +-0.00152
 2.500000000000004e-04 -0.004 0.0 0.0 1.0 17 475 0 568 460 490 456 470 473 0 455
 +17 476 0 469 355 470 351 479 477 0 0 -16 477 119 0 ?479 473 488 478 0 0 300 30
 478 120 0 477 489 474 0 +-0.00152 3.722926269407954e-19 -0.004 2.44929359829470
7e-16 1.0 0.0 17 479 0 484 485 361 471 476 477 0 490 +14 480 121 482 1.0e-08 495
 465 484 308 481 +0 0 495 465 306 50 481 122 0 480 496 466 0 +-0.00102 2.4982794
70260601e-19 -0.004 0.0 0.0 -1.0 -1.0 2.449293598294707e-16 0.0 81 1 482 123 6 4
80 0 0 497 467 483 83 3 483 0.831372559070587 0.831372559070587 0.83137255907058
7 15 484 124 0 479 480 0 17 485 0 484 491 479 486 490 488 0 494 -18 486 125 0 50
5 471 501 487 ?300 29 487 126 0 486 502 472 -0.00102 2.500000000000003e-04 -0.00
4 16 488 127 0 ?490 477 492 489 0 0 300 30 489 128 0 488 493 478 0 +0.00127 2.49
9999999999997e-04 -0.004 -1.0 2.449293598294707e-16 0.0 17 490 0 568 475 505 471
 485 488 0 470 +17 491 0 484 361 485 357 494 492 0 0 -16 492 129 0 ?494 488 503
 493 0 0 300 30 493 130 0 492 504 489 0 +-0.00102 2.498279470260601e-19 -0.004 2
.449293598294707e-16 1.0 0.0 17 494 0 499 500 367 486 491 492 0 0 +14 495 131 49
7 1.0e-08 510 480 499 308 496 +0 0 510 480 306 50 496 132 0 495 511 481 0 +-0.00
102 2.498279470260601e-19 -0.002847048220212 1.0 -2.449293598294707e-16 0.0 0.0
 0.0 -1.0 81 1 497 133 6 495 0 0 512 482 498 83 3 498 0.831372559070587 0.831372
559070587 0.831372559070587 15 499 134 0 494 495 0 17 500 0 499 506 494 501 505
 503 0 520 -18 501 135 0 500 486 516 502 ?300 29 502 136 0 501 517 487 -0.00102
 2.500000000000003e-04 -0.002847048220212 16 503 137 0 ?505 492 507 504 0 0 300
 30 504 138 0 503 508 493 0 +-0.00102 2.500000000000003e-04 0.004 0.0 0.0 -1.0 1
7 505 0 568 490 520 486 500 503 0 485 +17 506 0 499 367 500 363 509 507 0 0 -16
 507 139 0 ?509 503 518 508 0 0 300 30 508 140 0 507 519 504 0 +-0.00102 2.49827
9470260601e-19 -0.002847048220212 2.449293598294707e-16 1.0 0.0 17 509 0 514 515
 373 501 506 507 0 0 +14 510 141 512 1.0e-08 525 495 514 308 511 +0 0 525 495 30
6 50 511 142 0 510 526 496 0 +-9.200000000000001e-04 2.25335011043113e-19 -0.002
847048220212 0.0 0.0 -1.0 -1.0 2.449293598294707e-16 0.0 81 1 512 143 6 510 0 0
 527 497 513 83 3 513 0.831372559070587 0.831372559070587 0.831372559070587 15 5
14 144 0 509 510 0 17 515 0 514 521 509 516 520 518 0 524 -18 516 145 0 535 501
 531 517 ?300 29 517 146 0 516 532 502 -9.199999999999999e-04 2.500000000000002e
-04 -0.002847048220212 16 518 147 0 ?520 507 522 519 0 0 300 30 519 148 0 518 52
3 508 0 +-9.199999999999999e-04 2.500000000000002e-04 -0.002847048220212 -1.0 2.
449293598294707e-16 0.0 17 520 0 568 505 535 501 515 518 0 509 +17 521 0 514 373
 515 369 524 522 0 0 -16 522 149 0 ?524 518 533 523 0 0 300 30 523 150 0 522 534
 519 0 +-9.200000000000001e-04 2.25335011043113e-19 -0.002847048220212 2.4492935
98294707e-16 1.0 0.0 17 524 0 529 530 379 516 521 522 0 0 +14 525 151 527 1.0e-0
8 540 510 529 308 526 +0 0 540 510 306 50 526 152 0 525 541 511 0 +-9.2000000000
00001e-04 2.25335011043113e-19 -0.001571048099475 1.0 -2.449293598294707e-16 0.0
 0.0 0.0 -1.0 81 1 527 153 6 525 0 0 542 512 528 83 3 528 0.831372559070587 0.83
1372559070587 0.831372559070587 15 529 154 0 524 525 0 17 530 0 529 536 524 531
 535 533 0 550 -18 531 155 0 530 516 546 532 ?300 29 532 156 0 531 547 517 -9.19
9999999999999e-04 2.500000000000002e-04 -0.001571048099475 16 533 157 0 ?535 522
 537 534 0 0 300 30 534 158 0 533 538 523 0 +-9.199999999999999e-04 2.5000000000
00002e-04 -0.001571048099475 0.0 0.0 -1.0 17 535 0 568 520 550 516 530 533 0 515
 +17 536 0 529 379 530 375 539 537 0 0 -16 537 159 0 ?539 533 548 538 0 0 300 30
 538 160 0 537 549 534 0 +-9.200000000000001e-04 2.25335011043113e-19 -0.0015710
48099475 2.449293598294707e-16 1.0 0.0 17 539 0 544 545 383 531 536 537 0 0 +14
 540 161 542 1.0e-08 555 525 544 308 541 +0 0 555 525 306 50 541 162 0 540 556 5
26 0 +-0.00102 2.498279470260601e-19 -0.001571048099475 0.0 0.0 1.0 1.0 -2.44929
3598294707e-16 0.0 81 1 542 163 6 540 0 0 557 527 543 83 3 543 0.831372559070587
 0.831372559070587 0.831372559070587 15 544 164 0 539 540 0 17 545 0 544 551 539
 546 550 548 0 554 -18 546 165 0 545 531 0 547 ?300 29 547 166 0 546 0 532 -0.00
102 2.500000000000003e-04 -0.001571048099475 16 548 167 0 ?550 537 552 549 0 0 3
00 30 549 168 0 548 553 538 0 +-0.00162 2.500000000000004e-04 -0.001571048099475
 1.0 -2.449293598294707e-16 0.0 17 550 0 568 535 563 531 545 548 0 539 +17 551 0
 544 383 545 318 554 552 0 0 -16 552 169 0 ?554 548 561 553 0 0 300 30 553 170 0
 552 562 549 0 +-0.00102 2.498279470260601e-19 -0.001571048099475 2.449293598294
707e-16 1.0 0.0 17 554 0 559 560 317 546 551 552 0 563 +14 555 171 557 1.0e-08 5
64 540 559 308 556 +0 0 564 540 306 50 556 172 0 555 565 541 0 +-0.00102 2.49827
9470260601e-19 0.001664523635252 1.0 -2.449293598294707e-16 0.0 0.0 0.0 -1.0 81
 1 557 173 6 555 0 0 566 542 558 83 3 558 0.831372559070587 0.831372559070587 0.
831372559070587 15 559 174 0 554 555 0 17 560 0 559 394 554 390 563 561 0 0 -16
 561 175 0 ?563 552 0 562 0 0 300 30 562 176 0 561 0 553 0 +-0.00102 2.500000000
000003e-04 0.004 0.0 0.0 -1.0 17 563 0 568 550 400 546 560 561 0 0 +14 564 177 5
66 1.0e-08 0 555 568 308 565 +0 0 0 555 306 50 565 178 0 564 0 556 0 +-0.00127 2
.500000000000003e-04 -0.001167738182374 2.449293598294707e-16 1.0 0.0 0.0 0.0 1.
0 81 1 566 179 6 564 0 0 0 557 567 83 3 567 0.831372559070587 0.831372559070587
 0.831372559070587 15 568 180 0 563 564 0 12 569 180 0 570 0 0 0 0 1000.0 1.0e-0
8 0 0 0 1 0 1 1 577 579 585 583 574 584 582 70 570 0 569 0 0 4 1 20 0 571 571 1
 T74 20 571 1 0 572 0 0 0 0 0 0 0 0 0 0 0 0 0 0 0 0 0 0 0 81 1 572 7 6 578 0 0 6
55 0 573 83 3 573 0.831372559070587 0.831372559070587 0.831372559070587 19 574 1
 0 569 576 0 575 V13 575 2 0 569 0 0 0 0 574 578 19 576 3 0 569 0 574 577 S13 57
7 4 0 569 0 578 0 0 576 0 14 578 5 572 1.0e-08 653 0 580 577 579 -0 0 653 0 575
 50 579 6 0 578 654 0 0 +0.00127 -2.500000000000003e-04 -0.001167738182374 2.449
293598294707e-16 1.0 0.0 0.0 0.0 -1.0 15 580 8 0 581 578 0 17 581 0 580 589 649
 582 586 584 0 594 -18 582 9 0 581 0 587 583 ?569 29 583 10 0 582 588 0 0.00102
 -2.500000000000003e-04 -0.001571048099475 16 584 11 0 ?586 0 592 585 0 0 569 30
 585 12 0 584 593 0 0 +0.00102 -2.500000000000003e-04 0.004 0.0 0.0 1.0 17 586 0
 828 661 819 587 581 584 0 649 +18 587 13 0 586 582 590 588 ?569 29 588 14 0 587
 591 583 0.00102 -2.500000000000003e-04 0.001664523635252 17 589 0 580 595 581 5
90 594 592 0 600 -18 590 15 0 589 587 596 591 ?569 29 591 16 0 590 597 588 9.199
999999999999e-04 -2.500000000000002e-04 -0.001571048099475 16 592 17 0 ?594 584
 598 593 0 0 569 30 593 18 0 592 599 585 0 +0.00162 -2.500000000000004e-04 -0.00
1571048099475 1.0 -2.449293598294707e-16 0.0 17 594 0 813 814 804 582 589 592 0
 819 +17 595 0 580 601 589 596 600 598 0 789 -18 596 19 0 595 590 602 597 ?569 2
9 597 20 0 596 603 591 9.199999999999999e-04 -2.500000000000002e-04 -0.002847048
220212 16 598 21 0 ?600 592 604 599 0 0 569 30 599 22 0 598 605 593 0 +9.1999999
99999999e-04 -2.500000000000002e-04 -0.001571048099475 0.0 0.0 1.0 17 600 0 798
 799 789 590 595 598 0 804 +17 601 0 580 607 595 602 606 604 0 0 -18 602 23 0 77
4 596 608 603 ?569 29 603 24 0 602 609 597 0.00102 -2.500000000000003e-04 -0.002
847048220212 16 604 25 0 ?606 598 610 605 0 0 569 30 605 26 0 604 611 599 0 +9.1
99999999999999e-04 -2.500000000000002e-04 -0.002847048220212 -1.0 2.449293598294
707e-16 0.0 17 606 0 783 784 774 596 601 604 0 0 +17 607 0 580 613 601 608 612 6
10 0 618 -18 608 27 0 607 602 614 609 ?569 29 609 28 0 608 615 603 0.00102 -2.50
0000000000003e-04 -0.004 16 610 29 0 ?612 604 616 611 0 0 569 30 611 30 0 610 61
7 605 0 +0.00102 -2.500000000000003e-04 0.004 0.0 0.0 1.0 17 612 0 768 769 759 6
02 607 610 0 601 +17 613 0 580 619 607 614 618 616 0 624 -18 614 31 0 613 608 62
0 615 ?569 29 615 32 0 614 621 609 0.00152 -2.500000000000004e-04 -0.004 16 616
 33 0 ?618 610 622 617 0 0 569 30 617 34 0 616 623 611 0 +-0.00127 -2.4999999999
99997e-04 -0.004 -1.0 2.449293598294707e-16 0.0 17 618 0 753 754 744 608 613 616
 0 759 +17 619 0 580 625 613 620 624 622 0 630 -18 620 35 0 619 614 626 621 ?569
 29 621 36 0 620 627 615 0.00152 -2.500000000000004e-04 -0.002847048220212 16 62
2 37 0 ?624 616 628 623 0 0 569 30 623 38 0 622 629 617 0 +0.00152 -2.5000000000
00004e-04 -0.004 0.0 0.0 -1.0 17 624 0 738 739 729 614 619 622 0 744 +17 625 0 5
80 631 619 626 630 628 0 636 -18 626 39 0 714 620 632 627 ?569 29 627 40 0 626 6
33 621 0.00162 -2.500000000000004e-04 -0.002847048220212 16 628 41 0 ?630 622 63
4 629 0 0 569 30 629 42 0 628 635 623 0 +9.199999999999999e-04 -2.50000000000000
2e-04 -0.002847048220212 -1.0 2.449293598294707e-16 0.0 17 630 0 723 724 714 620
 625 628 0 729 +17 631 0 580 637 625 632 636 634 0 0 -18 632 43 0 642 626 638 63
3 ?569 29 633 44 0 632 639 627 0.00162 -2.500000000000004e-04 -0.001571048099475
 16 634 45 0 ?636 628 640 635 0 0 569 30 635 46 0 634 641 629 0 +0.00162 -2.5000
00000000004e-04 -0.002847048220212 0.0 0.0 -1.0 17 636 0 708 709 699 626 631 634
 0 0 +17 637 0 580 643 631 638 642 640 0 648 -18 638 47 0 637 632 644 639 ?569 2
9 639 48 0 638 645 633 0.00152 -2.500000000000004e-04 -0.001571048099475 16 640
 49 0 ?642 634 646 641 0 0 569 30 641 50 0 640 647 635 0 +0.00162 -2.50000000000
0004e-04 -0.001571048099475 1.0 -2.449293598294707e-16 0.0 17 642 0 693 694 684
 632 637 640 0 699 +17 643 0 580 649 637 644 648 646 0 652 -18 644 51 0 643 638
 662 645 ?569 29 645 52 0 644 663 639 0.00152 -2.500000000000004e-04 0.001664523
635252 16 646 53 0 ?648 640 650 647 0 0 569 30 647 54 0 646 651 641 0 +0.00152 -
2.500000000000004e-04 -0.004 0.0 0.0 -1.0 17 648 0 678 679 669 638 643 646 0 684
 +17 649 0 580 581 643 587 652 650 0 658 -16 650 55 0 ?652 646 659 651 0 0 569 3
0 651 56 0 650 660 647 0 +0.002049579904816 -2.500000000000005e-04 0.00166452363
5252 1.0 -2.449293598294707e-16 0.0 17 652 0 657 664 658 644 649 650 0 669 +14 6
53 57 655 1.0e-08 674 578 657 577 654 -0 0 674 578 575 50 654 58 0 653 675 579 0
 +0.00152 -3.722926269407954e-19 0.001664523635252 0.0 0.0 -1.0 -1.0 2.449293598
294707e-16 0.0 81 1 655 59 6 653 0 0 676 572 656 83 3 656 0.831372559070587 0.83
1372559070587 0.831372559070587 15 657 60 0 658 653 0 17 658 0 657 652 670 587 6
61 659 0 0 +16 659 61 0 ?658 650 667 660 0 0 569 30 660 62 0 659 668 651 0 +0.00
102 -2.498279470260601e-19 0.001664523635252 -2.449293598294707e-16 -1.0 0.0 17
 661 0 828 829 586 662 658 659 0 670 -18 662 63 0 661 644 665 663 ?569 29 663 64
 0 662 666 645 0.00102 2.499999999999997e-04 0.001664523635252 17 664 0 657 670
 652 665 669 667 0 673 +18 665 65 0 664 662 680 666 ?569 29 666 66 0 665 681 663
 0.00152 2.499999999999996e-04 0.001664523635252 16 667 67 0 ?664 659 671 668 0
 0 569 30 668 68 0 667 672 660 0 +0.00152 -3.722926269407954e-19 0.0016645236352
52 2.449293598294707e-16 1.0 0.0 17 669 0 678 648 685 644 664 667 0 0 -17 670 0
 657 658 664 662 673 671 0 832 +16 671 69 0 ?670 667 682 672 0 0 569 30 672 70 0
 671 683 668 0 +0.002049579904816 2.499999999999995e-04 0.001664523635252 -1.0 2
.449293598294707e-16 0.0 17 673 0 837 688 832 665 670 671 0 685 -14 674 71 676 1
.0e-08 689 653 678 577 675 -0 0 689 653 575 50 675 72 0 674 690 654 0 +0.00152 -
3.722926269407954e-19 -0.001571048099475 -1.0 2.449293598294707e-16 0.0 0.0 0.0
 1.0 81 1 676 73 6 674 0 0 691 655 677 83 3 677 0.831372559070587 0.831372559070
587 0.831372559070587 15 678 74 0 669 674 0 17 679 0 678 685 648 680 684 682 0 6
88 +18 680 75 0 700 665 695 681 ?569 29 681 76 0 680 696 666 0.00152 2.499999999
999996e-04 -0.001571048099475 16 682 77 0 ?679 671 686 683 0 0 569 30 683 78 0 6
82 687 672 0 +0.00152 -3.722926269407954e-19 -0.001571048099475 2.44929359829470
7e-16 1.0 0.0 17 684 0 693 642 700 638 679 682 0 0 -17 685 0 678 669 679 665 688
 686 0 0 +16 686 79 0 ?685 682 697 687 0 0 569 30 687 80 0 686 698 683 0 +0.0015
2 2.499999999999996e-04 -0.004 0.0 0.0 1.0 17 688 0 837 703 673 680 685 686 0 0
 -14 689 81 691 1.0e-08 704 674 693 577 690 -0 0 704 674 575 50 690 82 0 689 705
 675 0 +0.00162 -3.967855629237425e-19 -0.001571048099475 0.0 0.0 -1.0 -1.0 2.44
9293598294707e-16 0.0 81 1 691 83 6 689 0 0 706 676 692 83 3 692 0.8313725590705
87 0.831372559070587 0.831372559070587 15 693 84 0 684 689 0 17 694 0 693 700 64
2 695 699 697 0 715 +18 695 85 0 703 680 710 696 ?569 29 696 86 0 695 711 681 0.
00162 2.499999999999996e-04 -0.001571048099475 16 697 87 0 ?694 686 701 698 0 0
 569 30 698 88 0 697 702 687 0 +0.00162 -3.967855629237425e-19 -0.00157104809947
5 2.449293598294707e-16 1.0 0.0 17 699 0 708 636 715 632 694 697 0 631 -17 700 0
 693 684 694 680 703 701 0 679 +16 701 89 0 ?700 697 712 702 0 0 569 30 702 90 0
 701 713 698 0 +0.00162 2.499999999999996e-04 -0.001571048099475 -1.0 2.44929359
8294707e-16 0.0 17 703 0 837 718 688 695 700 701 0 694 -14 704 91 706 1.0e-08 71
9 689 708 577 705 -0 0 719 689 575 50 705 92 0 704 720 690 0 +0.00162 -3.9678556
29237425e-19 -0.002847048220212 -1.0 2.449293598294707e-16 0.0 0.0 0.0 1.0 81 1
 706 93 6 704 0 0 721 691 707 83 3 707 0.831372559070587 0.831372559070587 0.831
372559070587 15 708 94 0 699 704 0 17 709 0 708 715 636 710 714 712 0 730 +18 71
0 95 0 709 695 725 711 ?569 29 711 96 0 710 726 696 0.00162 2.499999999999996e-0
4 -0.002847048220212 16 712 97 0 ?709 701 716 713 0 0 569 30 713 98 0 712 717 70
2 0 +0.00162 -3.967855629237425e-19 -0.002847048220212 2.449293598294707e-16 1.0
 0.0 17 714 0 723 630 730 626 709 712 0 625 -17 715 0 708 699 709 695 718 716 0
 0 +16 716 99 0 ?715 712 727 717 0 0 569 30 717 100 0 716 728 713 0 +0.00162 2.4
99999999999996e-04 -0.002847048220212 0.0 0.0 1.0 17 718 0 837 733 703 710 715 7
16 0 0 -14 719 101 721 1.0e-08 734 704 723 577 720 -0 0 734 704 575 50 720 102 0
 719 735 705 0 +0.00152 -3.722926269407954e-19 -0.002847048220212 0.0 0.0 1.0 1.
0 -2.449293598294707e-16 0.0 81 1 721 103 6 719 0 0 736 706 722 83 3 722 0.83137
2559070587 0.831372559070587 0.831372559070587 15 723 104 0 714 719 0 17 724 0 7
23 730 630 725 729 727 0 0 +18 725 105 0 733 710 740 726 ?569 29 726 106 0 725 7
41 711 0.00152 2.499999999999996e-04 -0.002847048220212 16 727 107 0 ?724 716 73
1 728 0 0 569 30 728 108 0 727 732 717 0 +0.00152 -3.722926269407954e-19 -0.0028
47048220212 2.449293598294707e-16 1.0 0.0 17 729 0 738 624 745 620 724 727 0 0 -
17 730 0 723 714 724 710 733 731 0 718 +16 731 109 0 ?730 727 742 732 0 0 569 30
 732 110 0 731 743 728 0 +9.200000000000001e-04 2.499999999999998e-04 -0.0028470
48220212 1.0 -2.449293598294707e-16 0.0 17 733 0 837 748 718 725 730 731 0 745 -
14 734 111 736 1.0e-08 749 719 738 577 735 -0 0 749 719 575 50 735 112 0 734 750
 720 0 +0.00152 -3.722926269407954e-19 -0.004 -1.0 2.449293598294707e-16 0.0 0.0
 0.0 1.0 81 1 736 113 6 734 0 0 751 721 737 83 3 737 0.831372559070587 0.8313725
59070587 0.831372559070587 15 738 114 0 729 734 0 17 739 0 738 745 624 740 744 7
42 0 748 +18 740 115 0 739 725 755 741 ?569 29 741 116 0 740 756 726 0.00152 2.4
99999999999996e-04 -0.004 16 742 117 0 ?739 731 746 743 0 0 569 30 743 118 0 742
 747 732 0 +0.00152 -3.722926269407954e-19 -0.004 2.449293598294707e-16 1.0 0.0
 17 744 0 753 618 760 614 739 742 0 0 -17 745 0 738 729 739 725 748 746 0 724 +1
6 746 119 0 ?745 742 757 747 0 0 569 30 747 120 0 746 758 743 0 +0.00152 2.49999
9999999996e-04 -0.004 0.0 0.0 1.0 17 748 0 837 763 733 740 745 746 0 760 -14 749
 121 751 1.0e-08 764 734 753 577 750 -0 0 764 734 575 50 750 122 0 749 765 735 0
 +0.00102 -2.498279470260601e-19 -0.004 0.0 0.0 1.0 1.0 -2.449293598294707e-16 0
.0 81 1 751 123 6 749 0 0 766 736 752 83 3 752 0.831372559070587 0.8313725590705
87 0.831372559070587 15 753 124 0 744 749 0 17 754 0 753 760 618 755 759 757 0 7
63 +18 755 125 0 775 740 770 756 ?569 29 756 126 0 755 771 741 0.00102 2.4999999
99999997e-04 -0.004 16 757 127 0 ?754 746 761 758 0 0 569 30 758 128 0 757 762 7
47 0 +0.00102 -2.498279470260601e-19 -0.004 2.449293598294707e-16 1.0 0.0 17 759
 0 768 612 775 608 754 757 0 0 -17 760 0 753 744 754 740 763 761 0 0 +16 761 129
 0 ?760 757 772 762 0 0 569 30 762 130 0 761 773 758 0 +-0.00127 2.5000000000000
03e-04 -0.004 1.0 -2.449293598294707e-16 0.0 17 763 0 837 778 748 755 760 761 0
 0 -14 764 131 766 1.0e-08 779 749 768 577 765 -0 0 779 749 575 50 765 132 0 764
 780 750 0 +0.00102 -2.498279470260601e-19 -0.002847048220212 1.0 -2.44929359829
4707e-16 0.0 0.0 0.0 -1.0 81 1 766 133 6 764 0 0 781 751 767 83 3 767 0.83137255
9070587 0.831372559070587 0.831372559070587 15 768 134 0 759 764 0 17 769 0 768
 775 612 770 774 772 0 778 +18 770 135 0 769 755 785 771 ?569 29 771 136 0 770 7
86 756 0.00102 2.499999999999997e-04 -0.002847048220212 16 772 137 0 ?769 761 77
6 773 0 0 569 30 773 138 0 772 777 762 0 +0.00102 -2.498279470260601e-19 -0.0028
47048220212 2.449293598294707e-16 1.0 0.0 17 774 0 783 606 790 602 769 772 0 612
 -17 775 0 768 759 769 755 778 776 0 754 +16 776 139 0 ?775 772 787 777 0 0 569
 30 777 140 0 776 788 773 0 +0.00102 2.499999999999997e-04 0.004 0.0 0.0 -1.0 17
 778 0 837 793 763 770 775 776 0 790 -14 779 141 781 1.0e-08 794 764 783 577 780
 -0 0 794 764 575 50 780 142 0 779 795 765 0 +9.200000000000001e-04 -2.253350110
43113e-19 -0.002847048220212 0.0 0.0 1.0 1.0 -2.449293598294707e-16 0.0 81 1 781
 143 6 779 0 0 796 766 782 83 3 782 0.831372559070587 0.831372559070587 0.831372
559070587 15 783 144 0 774 779 0 17 784 0 783 790 606 785 789 787 0 793 +18 785
 145 0 784 770 800 786 ?569 29 786 146 0 785 801 771 9.200000000000001e-04 2.499
999999999998e-04 -0.002847048220212 16 787 147 0 ?784 776 791 788 0 0 569 30 788
 148 0 787 792 777 0 +9.200000000000001e-04 -2.25335011043113e-19 -0.00284704822
0212 2.449293598294707e-16 1.0 0.0 17 789 0 798 600 805 596 784 787 0 606 -17 79
0 0 783 774 784 770 793 791 0 0 +16 791 149 0 ?790 787 802 792 0 0 569 30 792 15
0 0 791 803 788 0 +9.200000000000001e-04 2.499999999999998e-04 -0.00284704822021
2 1.0 -2.449293598294707e-16 0.0 17 793 0 837 808 778 785 790 791 0 805 -14 794
 151 796 1.0e-08 809 779 798 577 795 -0 0 809 779 575 50 795 152 0 794 810 780 0
 +9.200000000000001e-04 -2.25335011043113e-19 -0.001571048099475 1.0 -2.44929359
8294707e-16 0.0 0.0 0.0 -1.0 81 1 796 153 6 794 0 0 811 781 797 83 3 797 0.83137
2559070587 0.831372559070587 0.831372559070587 15 798 154 0 789 794 0 17 799 0 7
98 805 600 800 804 802 0 808 +18 800 155 0 799 785 815 801 ?569 29 801 156 0 800
 816 786 9.200000000000001e-04 2.499999999999998e-04 -0.001571048099475 16 802 1
57 0 ?799 791 806 803 0 0 569 30 803 158 0 802 807 792 0 +9.200000000000001e-04
 -2.25335011043113e-19 -0.001571048099475 2.449293598294707e-16 1.0 0.0 17 804 0
 813 594 820 590 799 802 0 0 -17 805 0 798 789 799 785 808 806 0 0 +16 806 159 0
 ?805 802 817 807 0 0 569 30 807 160 0 806 818 803 0 +9.200000000000001e-04 2.49
9999999999998e-04 -0.001571048099475 0.0 0.0 -1.0 17 808 0 837 823 793 800 805 8
06 0 820 -14 809 161 811 1.0e-08 824 794 813 577 810 -0 0 824 794 575 50 810 162
 0 809 825 795 0 +0.00102 -2.498279470260601e-19 -0.001571048099475 0.0 0.0 -1.0
 -1.0 2.449293598294707e-16 0.0 81 1 811 163 6 809 0 0 826 796 812 83 3 812 0.83
1372559070587 0.831372559070587 0.831372559070587 15 813 164 0 804 809 0 17 814
 0 813 820 594 815 819 817 0 823 +18 815 165 0 814 800 0 816 ?569 29 816 166 0 8
15 0 801 0.00102 2.499999999999997e-04 -0.001571048099475 16 817 167 0 ?814 806
 821 818 0 0 569 30 818 168 0 817 822 807 0 +0.00102 -2.498279470260601e-19 -0.0
01571048099475 2.449293598294707e-16 1.0 0.0 17 819 0 828 586 829 582 814 817 0
 0 -17 820 0 813 804 814 800 823 821 0 0 +16 821 169 0 ?820 817 830 822 0 0 569
 30 822 170 0 821 831 818 0 +0.00162 2.499999999999996e-04 -0.001571048099475 -1
.0 2.449293598294707e-16 0.0 17 823 0 837 832 808 815 820 821 0 829 -14 824 171
 826 1.0e-08 833 809 828 577 825 -0 0 833 809 575 50 825 172 0 824 834 810 0 +0.
00102 -2.498279470260601e-19 0.001664523635252 1.0 -2.449293598294707e-16 0.0 0.
0 0.0 -1.0 81 1 826 173 6 824 0 0 835 811 827 83 3 827 0.831372559070587 0.83137
2559070587 0.831372559070587 15 828 174 0 819 824 0 17 829 0 828 819 661 815 832
 830 0 0 +16 830 175 0 ?829 821 0 831 0 0 569 30 831 176 0 830 0 822 0 +0.00102
 2.499999999999997e-04 0.004 0.0 0.0 -1.0 17 832 0 837 673 823 662 829 830 0 0 -
14 833 177 835 1.0e-08 0 824 837 577 834 -0 0 0 824 575 50 834 178 0 833 0 825 0
 +0.00127 2.499999999999997e-04 -0.001167738182374 -2.449293598294707e-16 -1.0 0
.0 0.0 0.0 1.0 81 1 835 179 6 833 0 0 0 826 836 83 3 836 0.831372559070587 0.831
372559070587 0.831372559070587 15 837 180 0 832 833 0 1 0 
