**ABCDEFGHIJKLMNOPQRSTUVWXYZabcdefghijklmnopqrstuvwxyz**************************
**PARASOLID !"#$%&'()*+,-./:;<=>?@[\]^_`{|}~0123456789**************************
**PART1;
MC=AMD64;
MC_MODEL=Intel64 Family 6 Model 186 Stepping 2, GenuineIntel;
MC_ID=unknown;
OS=Windows_NT;
OS_RELEASE=unknown;
FRU=CAD Exchanger 3.23.0 (cadexchanger.com);
APPL=unknown;
SITE=unknown;
USER=unknown;
FORMAT=text;
GUISE=transmit;
KEY=TOSH-SOT-23F_V_CMP-2100-03686-1;
FILE=TOSH-SOT-23F_V_CMP-2100-03686-1.x_t;
DATE=Wed May  7 16:22:10 2025;
**PART2;
SCH=SCH_1200000_12103;
USFLD_SIZE=0;
**PART3;
**END_OF_HEADER*****************************************************************
T51 : TRANSMIT FILE created by modeller version 120000017 SCH_1200000_121030 74
 5 1 5 0 2 20 424 525 626 12 2 10 0 3 0 0 0 0 1000.0 1.0e-08 0 0 0 1 0 3 1 10 12
 18 16 9 17 15 70 3 0 2 0 0 4 1 20 0 4 4 1 T74 20 4 1 0 5 0 0 0 0 0 0 0 0 0 0 0
 0 0 0 0 0 0 0 0 81 1 5 5 6 11 0 0 0 0 8 80 1 6 0 7 8001 0 0 0 0 3 5 0 0 0 FFFFT
FTFFFFFFF2 79 15 7 SDL/TYSA_COLOUR83 3 8 1.0 1.0 1.0 19 9 1 0 2 0 0 10 V13 10 2
 0 2 0 11 0 0 9 11 14 11 3 5 1.0e-08 0 0 13 10 12 +0 0 0 0 10 50 12 4 0 11 0 0 0
 +-5.145833333329996e-04 0.001233333333333 8.369999999999999e-04 0.0 0.0 -1.0 -1
.0 2.449293598294707e-16 0.0 15 13 6 0 14 11 0 17 14 0 13 14 14 15 19 17 0 0 -18
 15 7 0 19 0 0 16 ?2 29 16 8 0 15 0 0 -5.145833333329996e-04 0.001233333333333 8
.369999999999999e-04 16 17 9 0 ?19 0 0 18 0 0 2 31 18 10 0 17 0 0 0 +-6.33333333
3329996e-04 0.001233333333333 8.369999999999999e-04 0.0 0.0 1.0 1.0 -2.449293598
294707e-16 0.0 1.1875e-04 17 19 0 0 0 0 15 14 17 0 14 +12 20 271 0 21 0 0 0 0 10
00.0 1.0e-08 0 0 0 1 0 1 1 28 30 36 34 25 35 33 70 21 0 20 0 0 4 1 20 0 22 22 1
 T74 20 22 1 0 23 0 0 0 0 0 0 0 0 0 0 0 0 0 0 0 0 0 0 0 81 1 23 7 6 29 0 0 58 0
 24 83 3 24 0.200000002980232 0.200000002980232 0.200000002980232 19 25 1 0 20 2
7 0 26 V13 26 2 0 20 0 0 0 0 25 29 19 27 3 0 20 0 25 28 S13 28 4 0 20 0 29 0 0 2
7 0 14 29 5 23 1.0e-08 56 0 31 28 30 +0 0 56 0 26 50 30 6 0 29 57 0 0 +-9.500000
000000004e-04 -0.00155 0.0 -0.994521895368234 2.435876111689334e-16 0.1045284632
68025 2.449293598294707e-16 1.0 0.0 15 31 8 0 32 29 0 17 32 0 31 40 52 33 37 35
 0 45 -18 33 9 0 32 0 38 34 ?20 29 34 10 0 33 39 0 -9.476781876107815e-04 0.0015
27787749703 2.209056926535e-05 16 35 11 0 ?37 0 43 36 0 0 20 30 36 12 0 35 44 0
 0 +-9.502149780027899e-04 0.001530324540095 -2.045379068189e-06 0.1039620511839
96 -0.103962051183996 0.98913284437796 17 37 0 60 61 73 38 32 35 0 52 +18 38 13
 0 37 33 41 39 ?20 29 39 14 0 38 42 34 -8.593906299876096e-04 0.00143950019208 8
.62090569265e-04 17 40 0 31 46 32 41 45 43 0 51 -18 41 15 0 40 38 47 42 ?20 29 4
2 16 0 41 48 39 -9.476781876107822e-04 -0.001527787749703 2.209056926535e-05 16
 43 17 0 ?45 35 49 44 0 0 20 30 44 18 0 43 50 36 0 +-9.476781876107822e-04 -0.00
155 2.209056926535e-05 2.449293598294707e-16 1.0 0.0 17 45 0 81 82 94 33 40 43 0
 73 +17 46 0 31 52 40 47 51 49 0 55 +18 47 19 0 46 41 62 48 ?20 29 48 20 0 47 63
 42 -8.593906299876103e-04 -0.00143950019208 8.62090569265e-04 16 49 21 0 ?46 43
 53 50 0 0 20 30 50 22 0 49 54 44 0 +-9.502149780027906e-04 -0.001530324540095 -
2.045379068189e-06 0.103962051183996 0.103962051183996 0.98913284437796 17 51 0
 123 124 136 41 46 49 0 94 -17 52 0 31 32 46 38 55 53 0 66 +16 53 23 0 ?52 49 64
 54 0 0 20 30 54 24 0 53 65 50 0 +-8.593906299876103e-04 -0.001457508272966 8.62
090569265e-04 2.449293598294707e-16 1.0 0.0 17 55 0 102 103 115 47 52 53 0 108 -
14 56 25 58 1.0e-08 77 29 60 28 57 +0 0 77 29 26 51 57 26 0 56 78 30 0 +-9.30324
5400954195e-04 0.001530324540095 -4.135948333542e-06 0.103962051183996 -0.103962
051183996 0.98913284437796 2.0e-05 -0.994521895368326 9.187862050616777e-14 0.10
4528463267153 81 1 58 27 6 56 0 0 79 23 59 83 3 59 0.200000002980232 0.200000002
980232 0.200000002980232 15 60 28 0 61 56 0 17 61 0 60 67 37 62 66 64 0 72 +18 6
2 29 0 61 47 68 63 ?20 29 63 30 0 62 69 48 -8.395001920799995e-04 0.001459390629
988 8.62090569265e-04 16 64 31 0 ?61 53 70 65 0 0 20 31 65 32 0 64 71 54 0 +-8.3
95001920799997e-04 0.00143950019208 8.6e-04 -0.103962051183996 0.103962051183996
 -0.98913284437796 -0.994521895368326 9.187862050616777e-14 0.104528463267153 2.
0e-05 17 66 0 153 118 154 38 61 64 0 115 -17 67 0 60 73 61 68 72 70 0 76 -18 68
 33 0 67 62 83 69 ?20 29 69 34 0 68 84 63 -9.277877497034195e-04 0.0015476781876
11 2.209056926535e-05 16 70 35 0 ?72 64 74 71 0 0 20 30 71 36 0 70 75 65 0 +-9.3
03245400954195e-04 0.001550214978003 -2.045379068189e-06 0.103962051183996 -0.10
3962051183996 0.98913284437796 17 72 0 162 163 175 62 67 70 0 154 +17 73 0 60 37
 67 33 76 74 0 87 -16 74 37 0 ?76 70 85 75 0 0 20 31 75 38 0 74 86 71 0 +-9.2778
77497034195e-04 0.001527787749703 2.0e-05 -0.103962051183996 0.103962051183996 -
0.98913284437796 -0.994521895368326 6.991355185334946e-14 0.104528463267151 2.0e
-05 17 76 0 144 145 87 68 73 74 0 148 +14 77 39 79 1.0e-08 98 56 81 28 78 +0 0 9
8 56 26 51 78 40 0 77 99 57 0 +-9.277877497034202e-04 -0.00155 2.0e-05 2.4492935
98294707e-16 1.0 0.0 2.0e-05 -0.994521895368234 2.435876111689334e-16 0.10452846
3268025 81 1 79 41 6 77 0 0 100 58 80 83 3 80 0.200000002980232 0.20000000298023
2 0.200000002980232 15 81 42 0 45 77 0 17 82 0 81 88 45 83 87 85 0 93 -18 83 43
 0 82 68 89 84 ?20 29 84 44 0 83 90 69 -9.277877497034195e-04 0.001527787749703
 0.0 16 85 45 0 ?87 74 91 86 0 0 20 31 86 46 0 85 92 75 0 +-9.277877497034195e-0
4 0.001527787749703 2.0e-05 -2.208183950862053e-14 1.0 6.196923215809999e-29 -1.
0 -2.208183950862053e-14 2.775557561563e-15 2.0e-05 17 87 0 144 76 145 33 82 85
 0 0 +17 88 0 81 94 82 89 93 91 0 97 -18 89 47 0 88 83 104 90 ?20 29 90 48 0 89
 105 84 -9.277877497034202e-04 -0.001527787749703 0.0 16 91 49 0 ?93 85 95 92 0
 0 20 30 92 50 0 91 96 86 0 +-9.277877497034202e-04 -0.00155 -2.117582368136e-21
 2.449293598294707e-16 1.0 0.0 17 93 0 192 193 205 83 88 91 0 145 +17 94 0 81 45
 88 41 97 95 0 129 +16 95 51 0 ?94 91 106 96 0 0 20 31 96 52 0 95 107 92 0 +-9.2
77877497034202e-04 -0.001527787749703 2.0e-05 4.193572416142707e-16 1.0 0.0 -1.0
 4.193572416142707e-16 0.0 2.0e-05 17 97 0 183 184 129 89 94 95 0 187 -14 98 53
 100 1.0e-08 119 77 102 28 99 +0 0 119 77 26 51 99 54 0 98 120 78 0 +-8.39500192
0800004e-04 -0.001457508272966 8.6e-04 2.449293598294707e-16 1.0 0.0 2.0e-05 -0.
994521895368234 2.435876111689334e-16 0.104528463268025 81 1 100 55 6 98 0 0 121
 79 101 83 3 101 0.200000002980232 0.200000002980232 0.200000002980232 15 102 56
 0 103 98 0 17 103 0 102 109 55 104 108 106 0 114 -18 104 57 0 228 89 110 105 ?2
0 29 105 58 0 104 111 90 -8.395001920800004e-04 -0.00143950019208 8.800000000000
001e-04 16 106 59 0 ?108 95 112 107 0 0 20 31 107 60 0 106 113 96 0 +-8.39500192
0800004e-04 -0.00143950019208 8.6e-04 -1.719986460934907e-16 -1.0 6.938893903906
999e-16 -1.0 1.719986460934907e-16 5.060584849502001e-32 2.0e-05 17 108 0 213 13
9 214 47 103 106 0 136 +17 109 0 102 115 103 110 114 112 0 118 +18 110 61 0 235
 104 125 111 ?20 29 111 62 0 110 126 105 -8.395001920799995e-04 0.00143950019208
 8.800000000000001e-04 16 112 63 0 ?109 106 116 113 0 0 20 30 113 64 0 112 117 1
07 0 +-8.395001920800004e-04 -0.001457508272966 8.800000000000001e-04 2.44929359
8294707e-16 1.0 0.0 17 114 0 222 223 235 104 109 112 0 214 -17 115 0 102 55 109
 38 118 116 0 0 +16 116 65 0 ?115 112 127 117 0 0 20 31 117 66 0 116 128 113 0 +
-8.395001920799997e-04 0.00143950019208 8.6e-04 2.088853479721529e-15 -1.0 2.220
44604925e-14 -1.0 -2.088853479721514e-15 6.938893903908e-16 2.0e-05 17 118 0 153
 154 66 110 115 116 0 157 -14 119 67 121 1.0e-08 140 98 123 28 120 +0 0 140 98 2
6 51 120 68 0 119 141 99 0 +-9.303245400954204e-04 -0.001530324540095 -4.1359483
33542e-06 0.103962051183996 0.103962051183996 0.98913284437796 2.0e-05 -0.994521
895368326 -9.139144528382989e-14 0.104528463267153 81 1 121 69 6 119 0 0 142 100
 122 83 3 122 0.200000002980232 0.200000002980232 0.200000002980232 15 123 70 0
 51 119 0 17 124 0 123 130 51 125 129 127 0 184 +18 125 71 0 135 110 131 126 ?20
 29 126 72 0 125 132 111 -9.277877497034202e-04 -0.001547678187611 2.20905692653
5e-05 16 127 73 0 ?124 116 133 128 0 0 20 31 128 74 0 127 134 117 0 +-9.27787749
7034202e-04 -0.001527787749703 2.0e-05 0.103962051183996 0.103962051183996 0.989
13284437796 -0.994521895368326 -9.121970765970818e-14 0.104528463267153 2.0e-05
 17 129 0 183 97 184 41 124 127 0 0 -17 130 0 123 136 124 131 135 133 0 139 +18
 131 75 0 130 125 164 132 ?20 29 132 76 0 131 165 126 -8.395001920800004e-04 -0.
001459390629988 8.62090569265e-04 16 133 77 0 ?130 127 137 134 0 0 20 30 134 78
 0 133 138 128 0 +-9.303245400954202e-04 -0.001550214978003 -2.045379068189e-06
 0.103962051183996 0.103962051183996 0.98913284437796 17 135 0 250 251 263 125 1
30 133 0 256 -17 136 0 123 51 130 47 139 137 0 0 -16 137 79 0 ?139 133 146 138 0
 0 20 31 138 80 0 137 147 134 0 +-8.395001920800004e-04 -0.00143950019208 8.6e-0
4 0.103962051183996 0.103962051183996 0.98913284437796 -0.994521895368326 -9.138
971056035391e-14 0.104528463267153 2.0e-05 17 139 0 213 214 108 131 136 137 0 26
3 +14 140 81 142 1.0e-08 149 119 144 28 141 +0 0 149 119 26 53 141 82 0 140 150
 120 0 +-9.277877497034195e-04 0.001527787749703 2.0e-05 2.0e-05 2.775557561563e
-15 -6.79815536723472e-31 1.0 -1.0 -2.208183950862053e-14 2.775557561563e-15 81
 1 142 83 6 140 0 0 151 121 143 83 3 143 0.200000002980232 0.200000002980232 0.2
00000002980232 15 144 84 0 76 140 0 17 145 0 144 87 76 83 148 146 0 198 -16 146
 85 0 ?148 137 155 147 0 0 20 31 147 86 0 146 156 138 0 +-9.277877497034195e-04
 0.001527787749703 2.0e-05 1.0 2.825191220102529e-15 -2.775557561563e-15 -2.8251
91220102529e-15 1.0 8.521296390541e-30 2.0e-05 17 148 0 271 178 198 68 145 146 0
 175 +14 149 87 151 1.0e-08 158 140 153 28 150 +0 0 158 140 26 53 150 88 0 149 1
59 141 0 +-8.395001920799997e-04 0.00143950019208 8.6e-04 2.0e-05 -6.93889390390
7053e-16 -2.22044604925e-14 -1.0 -1.0 -2.088853479721529e-15 6.938893903907518e-
16 81 1 151 89 6 149 0 0 160 142 152 83 3 152 0.200000002980232 0.20000000298023
2 0.200000002980232 15 153 90 0 118 149 0 17 154 0 153 66 118 62 157 155 0 168 +
16 155 91 0 ?154 146 166 156 0 0 20 31 156 92 0 155 167 147 0 +-8.39500192079999
7e-04 0.00143950019208 8.6e-04 -1.0 7.036022957107065e-17 6.938893903906999e-16
 7.036022957105524e-17 1.0 -2.22044604925e-14 2.0e-05 17 157 0 280 238 168 110 1
54 155 0 0 -14 158 93 160 1.0e-08 179 149 162 28 159 +0 0 179 149 26 50 159 94 0
 158 180 150 0 +-9.499999999999996e-04 0.00155 0.0 2.435876111689334e-16 0.99452
1895368234 0.104528463268025 1.0 -2.449293598294707e-16 0.0 81 1 160 95 6 158 0
 0 181 151 161 83 3 161 0.200000002980232 0.200000002980232 0.200000002980232 15
 162 96 0 72 158 0 17 163 0 162 169 72 164 168 166 0 0 +18 164 97 0 281 131 170
 165 ?20 29 165 98 0 164 171 132 8.395001920800004e-04 0.001459390629988 8.62090
569265e-04 16 166 99 0 ?163 155 172 167 0 0 20 30 167 100 0 166 173 156 0 +-8.57
5082729661995e-04 0.001459390629988 8.62090569265e-04 1.0 -2.449293598294707e-16
 0.0 17 168 0 280 157 281 62 163 166 0 0 -17 169 0 162 175 163 170 174 172 0 178
 -18 170 101 0 275 164 194 171 ?20 29 171 102 0 170 195 165 9.277877497030003e-0
4 0.001547678187611 2.209056926535e-05 16 172 103 0 ?174 166 176 173 0 0 20 30 1
73 104 0 172 177 167 0 +9.303245400950004e-04 0.001550214978003 -2.045379068189e
-06 -0.103962051183996 -0.103962051183996 0.98913284437796 17 174 0 289 290 302
 164 169 172 0 163 +17 175 0 162 72 169 68 178 176 0 0 -16 176 105 0 ?178 172 18
5 177 0 0 20 30 177 106 0 176 186 173 0 +-9.499999999999996e-04 0.00154767818761
1 2.209056926535e-05 1.0 -2.449293598294707e-16 0.0 17 178 0 271 272 148 170 175
 176 0 0 +14 179 107 181 1.0e-08 188 158 183 28 180 +0 0 188 158 26 53 180 108 0
 179 189 159 0 +-9.277877497034202e-04 -0.001527787749703 2.0e-05 2.0e-05 0.0 0.
0 1.0 -1.0 4.193572416142707e-16 0.0 81 1 181 109 6 179 0 0 190 160 182 83 3 182
 0.200000002980232 0.200000002980232 0.200000002980232 15 183 110 0 97 179 0 17
 184 0 183 129 97 125 187 185 0 0 +16 185 111 0 ?184 176 196 186 0 0 20 31 186 1
12 0 185 197 177 0 +-9.277877497034202e-04 -0.001527787749703 2.0e-05 -1.0 2.585
449766465906e-16 0.0 -2.585449766465906e-16 -1.0 0.0 2.0e-05 17 187 0 310 208 25
6 89 184 185 0 205 -14 188 113 190 1.0e-08 209 179 192 28 189 -0 0 209 179 26 50
 189 114 0 188 210 180 0 +-9.500000000000004e-04 -0.00155 0.0 0.0 0.0 1.0 1.0 -2
.449293598294707e-16 0.0 81 1 190 115 6 188 0 0 211 181 191 83 3 191 0.200000002
980232 0.200000002980232 0.200000002980232 15 192 116 0 193 188 0 17 193 0 192 1
99 93 194 198 196 0 204 +18 194 117 0 272 170 200 195 ?20 29 195 118 0 194 201 1
71 9.277877497030003e-04 0.001527787749703 0.0 16 196 119 0 ?193 185 202 197 0 0
 20 30 197 120 0 196 203 186 0 +-9.499999999999996e-04 0.001527787749703 -2.1175
82368136e-21 1.0 -2.449293598294707e-16 0.0 17 198 0 271 148 272 83 193 196 0 0
 -17 199 0 192 205 193 200 204 202 0 0 -18 200 121 0 314 194 224 201 ?20 29 201
 122 0 200 225 195 9.277877497029996e-04 -0.001527787749703 0.0 16 202 123 0 ?20
4 196 206 203 0 0 20 30 203 124 0 202 207 197 0 +9.277877497029996e-04 -0.00155
 -2.117582368136e-21 2.449293598294707e-16 1.0 0.0 17 204 0 319 326 320 194 199
 202 0 0 +17 205 0 192 93 199 89 208 206 0 0 -16 206 125 0 ?208 202 215 207 0 0
 20 30 207 126 0 206 216 203 0 +-9.500000000000004e-04 -0.001527787749703 -2.117
582368136e-21 1.0 -2.449293598294707e-16 0.0 17 208 0 310 311 187 200 205 206 0
 199 +14 209 127 211 1.0e-08 218 188 213 28 210 +0 0 218 188 26 53 210 128 0 209
 219 189 0 +-8.395001920800004e-04 -0.00143950019208 8.6e-04 2.0e-05 -1.69953884
1808558e-31 -6.938893903906999e-16 -1.0 -1.0 1.719986460934907e-16 5.06058484950
1781e-32 81 1 211 129 6 209 0 0 220 190 212 83 3 212 0.200000002980232 0.2000000
02980232 0.200000002980232 15 213 130 0 139 209 0 17 214 0 213 108 139 104 217 2
15 0 0 -16 215 131 0 ?217 206 226 216 0 0 20 31 216 132 0 215 227 207 0 +-8.3950
01920800004e-04 -0.00143950019208 8.6e-04 1.0 -2.231632430376471e-15 1.378552182
509e-30 -2.231632430376471e-15 -1.0 6.938893903906999e-16 2.0e-05 17 217 0 338 2
66 228 131 214 215 0 0 +14 218 133 220 1.0e-08 246 209 222 28 219 +0 0 246 209 2
6 50 219 134 0 218 247 210 0 +-9.500000000000004e-04 -0.00155 8.800000000000001e
-04 0.0 0.0 1.0 1.0 -2.449293598294707e-16 0.0 81 1 220 135 6 218 0 0 248 211 22
1 83 3 221 0.200000002980232 0.200000002980232 0.200000002980232 15 222 136 0 11
4 218 239 17 223 0 222 229 114 224 228 226 0 234 +18 224 137 0 223 200 230 225 ?
20 29 225 138 0 224 231 201 8.395001920799997e-04 -0.00143950019208 8.8000000000
00001e-04 16 226 139 0 ?223 215 232 227 0 0 20 30 227 140 0 226 233 216 0 +-8.57
5082729662002e-04 -0.00143950019208 8.800000000000001e-04 1.0 -2.449293598294707
e-16 0.0 17 228 0 338 217 339 104 223 226 0 103 -17 229 0 222 235 223 230 234 23
2 0 238 +18 230 141 0 229 224 241 231 ?20 29 231 142 0 230 242 225 8.39500192080
0004e-04 0.00143950019208 8.800000000000001e-04 16 232 143 0 ?229 226 236 233 0
 0 20 30 233 144 0 232 237 227 0 +8.395001920799997e-04 -0.001457508272966 8.800
000000000001e-04 2.449293598294707e-16 1.0 0.0 17 234 0 347 358 354 224 229 232
 0 339 -17 235 0 222 114 229 110 238 236 0 109 -16 236 145 0 ?238 232 243 237 0
 0 20 30 237 146 0 236 244 233 0 +-8.575082729661995e-04 0.00143950019208 8.8000
00000000001e-04 1.0 -2.449293598294707e-16 0.0 17 238 0 280 281 157 230 235 236
 0 284 +15 239 147 0 240 218 0 17 240 0 239 240 240 241 245 243 0 373 -18 241 14
8 0 245 230 252 242 ?20 29 242 149 0 241 253 231 -5.145833333329996e-04 0.001233
333333333 8.800000000000001e-04 16 243 150 0 ?245 236 254 244 0 0 20 31 244 151
 0 243 255 237 0 +-6.333333333329996e-04 0.001233333333333 8.800000000000001e-04
 0.0 0.0 1.0 1.0 -2.449293598294707e-16 0.0 1.1875e-04 17 245 0 366 376 373 241
 240 243 0 240 +14 246 152 248 1.0e-08 267 218 250 28 247 -0 0 267 218 26 50 247
 153 0 246 268 219 0 +-9.500000000000004e-04 -0.00155 0.0 2.435876111689334e-16
 0.994521895368234 -0.104528463268025 1.0 -2.449293598294707e-16 0.0 81 1 248 15
4 6 246 0 0 269 220 249 83 3 249 0.200000002980232 0.200000002980232 0.200000002
980232 15 250 155 0 251 246 0 17 251 0 250 257 135 252 256 254 0 311 +18 252 156
 0 262 241 258 253 ?20 29 253 157 0 252 259 242 9.277877497029996e-04 -0.0015476
78187611 2.209056926535e-05 16 254 158 0 ?251 243 260 255 0 0 20 30 255 159 0 25
4 261 244 0 +-9.500000000000004e-04 -0.001547678187611 2.209056926535e-05 1.0 -2
.449293598294707e-16 0.0 17 256 0 310 187 311 125 251 254 0 124 -17 257 0 250 26
3 251 258 262 260 0 342 +18 258 160 0 266 252 291 259 ?20 29 259 161 0 258 292 2
53 8.395001920799997e-04 -0.001459390629988 8.62090569265e-04 16 260 162 0 ?257
 254 264 261 0 0 20 30 261 163 0 260 265 255 0 +9.303245400949995e-04 -0.0015502
14978003 -2.045379068189e-06 -0.103962051183996 0.103962051183996 0.989132844377
96 17 262 0 381 386 382 252 257 260 0 251 -17 263 0 250 135 257 131 266 264 0 21
7 -16 264 164 0 ?266 260 273 265 0 0 20 30 265 165 0 264 274 261 0 +-8.575082729
662002e-04 -0.001459390629988 8.62090569265e-04 1.0 -2.449293598294707e-16 0.0 1
7 266 0 338 339 217 258 263 264 0 257 +14 267 166 269 1.0e-08 276 246 271 28 268
 +0 0 276 246 26 51 268 167 0 267 277 247 0 +-9.499999999999996e-04 0.0015277877
49703 2.0e-05 1.0 -2.449293598294707e-16 0.0 2.0e-05 2.435876111689334e-16 0.994
521895368234 0.104528463268025 81 1 269 168 6 267 0 0 278 248 270 83 3 270 0.200
000002980232 0.200000002980232 0.200000002980232 15 271 169 0 178 267 0 17 272 0
 271 198 178 194 275 273 0 329 -16 273 170 0 ?275 264 282 274 0 0 20 31 274 171
 0 273 283 265 0 +9.277877497030005e-04 0.001527787749703 2.0e-05 1.0 -1.1408313
79405947e-14 2.478769286324e-28 1.140831379405947e-14 1.0 -2.22044604925e-14 2.0
e-05 17 275 0 398 305 329 170 272 273 0 302 +14 276 172 278 1.0e-08 285 267 280
 28 277 +0 0 285 267 26 51 277 173 0 276 286 268 0 +-8.575082729661995e-04 0.001
43950019208 8.6e-04 1.0 -2.449293598294707e-16 0.0 2.0e-05 2.435876111689334e-16
 0.994521895368234 0.104528463268025 81 1 278 174 6 276 0 0 287 269 279 83 3 279
 0.200000002980232 0.200000002980232 0.200000002980232 15 280 175 0 157 276 0 17
 281 0 280 168 238 164 284 282 0 295 +16 282 176 0 ?281 273 293 283 0 0 20 31 28
3 177 0 282 294 274 0 +8.395001920800004e-04 0.00143950019208 8.6e-04 -1.0 2.449
293598294707e-16 0.0 2.449293598294707e-16 1.0 0.0 2.0e-05 17 284 0 403 357 295
 230 281 282 0 354 -14 285 178 287 1.0e-08 306 276 289 28 286 +0 0 306 276 26 51
 286 179 0 285 307 277 0 +9.303245400950004e-04 0.001530324540095 -4.13594833354
2e-06 -0.103962051183996 -0.103962051183996 0.98913284437796 2.0e-05 9.187862050
616777e-14 0.994521895368326 0.104528463267153 81 1 287 180 6 285 0 0 308 278 28
8 83 3 288 0.200000002980232 0.200000002980232 0.200000002980232 15 289 181 0 29
0 285 0 17 290 0 289 296 174 291 295 293 0 301 +18 291 182 0 290 258 297 292 ?20
 29 292 183 0 291 298 259 8.593906299880004e-04 0.00143950019208 8.62090569265e-
04 16 293 184 0 ?290 282 299 294 0 0 20 31 294 185 0 293 300 283 0 +8.3950019208
00004e-04 0.00143950019208 8.6e-04 0.103962051184985 0.103962051183985 -0.989132
844377857 9.188035522964377e-14 0.994521895368326 0.104528463267153 2.0e-05 17 2
95 0 403 284 357 164 290 293 0 174 -17 296 0 289 302 290 297 301 299 0 333 -18 2
97 186 0 326 291 324 298 ?20 29 298 187 0 297 325 292 9.476781876110003e-04 0.00
1527787749703 2.209056926535e-05 16 299 188 0 ?301 293 303 300 0 0 20 30 300 189
 0 299 304 294 0 +9.502149780030003e-04 0.001530324540095 -2.045379068189e-06 -0
.103962051183996 -0.103962051183996 0.98913284437796 17 301 0 408 351 333 291 29
6 299 0 348 +17 302 0 289 174 296 170 305 303 0 169 -16 303 190 0 ?305 299 312 3
04 0 0 20 31 304 191 0 303 313 300 0 +9.277877497030005e-04 0.001527787749703 2.
0e-05 0.103962051184985 0.103962051183985 -0.989132844377857 1.028611548325769e-
13 0.994521895368326 0.104528463267154 2.0e-05 17 305 0 398 329 275 297 302 303
 0 0 +14 306 192 308 1.0e-08 315 285 310 28 307 +0 0 315 285 26 51 307 193 0 306
 316 286 0 +-9.500000000000004e-04 -0.001527787749703 2.0e-05 1.0 -2.44929359829
4707e-16 0.0 2.0e-05 -2.435876111689334e-16 -0.994521895368234 0.104528463268025
 81 1 308 194 6 306 0 0 317 287 309 83 3 309 0.200000002980232 0.200000002980232
 0.200000002980232 15 310 195 0 187 306 0 17 311 0 310 256 208 252 314 312 0 389
 +16 312 196 0 ?311 303 321 313 0 0 20 31 313 197 0 312 322 304 0 +9.27787749702
9998e-04 -0.001527787749703 2.0e-05 -1.0 3.073605423153471e-15 1.110223024625e-1
4 -3.073605423153442e-15 -1.0 2.602085213965e-15 2.0e-05 17 314 0 413 323 389 20
0 311 312 0 320 -14 315 198 317 1.0e-08 334 306 319 28 316 +0 0 334 306 26 51 31
6 199 0 315 335 307 0 +9.277877497029998e-04 -0.00155 2.0e-05 2.449293598294707e
-16 1.0 0.0 2.0e-05 0.994521895368234 -2.435876111689334e-16 0.104528463268025 8
1 1 317 200 6 315 0 0 336 308 318 83 3 318 0.200000002980232 0.200000002980232 0
.200000002980232 15 319 201 0 320 315 0 17 320 0 319 204 330 200 323 321 0 208 -
16 321 202 0 ?323 312 327 322 0 0 20 31 322 203 0 321 328 313 0 +9.2778774970299
98e-04 -0.001527787749703 2.0e-05 -3.134837763111471e-15 -1.0 2.602085213965e-15
 1.0 -3.134837763111499e-15 -1.110223024625e-14 2.0e-05 17 323 0 413 389 314 324
 320 321 0 386 +18 324 204 0 330 297 352 325 ?20 29 325 205 0 324 353 298 9.4767
81876109998e-04 -0.001527787749703 2.209056926535e-05 17 326 0 319 330 204 297 3
29 327 0 296 +16 327 206 0 ?326 321 331 328 0 0 20 31 328 207 0 327 332 322 0 +9
.277877497030005e-04 0.001527787749703 2.0e-05 -1.134708145409947e-14 -1.0 2.220
44604925e-14 1.0 -1.134708145409947e-14 2.46517297559e-28 2.0e-05 17 329 0 398 2
75 305 194 326 327 0 193 -17 330 0 319 320 326 324 333 331 0 323 -16 331 208 0 ?
333 327 340 332 0 0 20 30 332 209 0 331 341 328 0 +9.476781876109998e-04 -0.0015
5 2.209056926535e-05 2.449293598294707e-16 1.0 0.0 17 333 0 408 301 393 297 330
 331 0 305 +14 334 210 336 1.0e-08 343 315 338 28 335 +0 0 343 315 26 51 335 211
 0 334 344 316 0 +-8.575082729662004e-04 -0.00143950019208 8.6e-04 1.0 -2.449293
598294707e-16 0.0 2.0e-05 -2.435876111689334e-16 -0.994521895368234 0.1045284632
68025 81 1 336 212 6 334 0 0 345 317 337 83 3 337 0.200000002980232 0.2000000029
80232 0.200000002980232 15 338 213 0 266 334 0 17 339 0 338 228 266 224 342 340
 0 361 -16 340 214 0 ?342 331 349 341 0 0 20 31 341 215 0 340 350 332 0 +8.39500
1920799997e-04 -0.00143950019208 8.6e-04 1.0 -3.937671396474471e-15 2.2204460492
5e-14 -3.93767139647464e-15 -1.0 7.632783294298e-15 2.0e-05 17 342 0 418 385 361
 258 339 340 0 382 +14 343 216 345 1.0e-08 362 334 347 28 344 +0 0 362 334 26 51
 344 217 0 343 363 335 0 +8.395001920799997e-04 -0.001457508272966 8.6e-04 2.449
293598294707e-16 1.0 0.0 2.0e-05 0.994521895368234 -2.435876111689334e-16 0.1045
28463268025 81 1 345 218 6 343 0 0 364 336 346 83 3 346 0.200000002980232 0.2000
00002980232 0.200000002980232 15 347 219 0 348 343 0 17 348 0 347 354 358 291 35
1 349 0 357 +16 349 220 0 ?348 340 355 350 0 0 20 30 350 221 0 349 356 341 0 +8.
593906299879997e-04 -0.001457508272966 8.62090569265e-04 2.449293598294707e-16 1
.0 0.0 17 351 0 408 393 301 352 348 349 0 358 -18 352 222 0 351 324 368 353 ?20
 29 353 223 0 352 369 325 8.593906299879997e-04 -0.00143950019208 8.62090569265e
-04 17 354 0 347 234 348 230 357 355 0 0 -16 355 224 0 ?357 349 359 356 0 0 20 3
1 356 225 0 355 360 350 0 +8.395001920800004e-04 0.00143950019208 8.6e-04 1.8369
70198721007e-16 1.0 0.0 1.0 -1.836970198721007e-16 0.0 2.0e-05 17 357 0 403 295
 284 291 354 355 0 0 +17 358 0 347 348 234 352 361 359 0 390 +16 359 226 0 ?358
 355 370 360 0 0 20 31 360 227 0 359 371 356 0 +8.395001920799997e-04 -0.0014395
0019208 8.6e-04 -7.325371114744529e-15 1.0 -7.632783294297998e-15 1.0 7.32537111
4744698e-15 2.22044604925e-14 2.0e-05 17 361 0 418 342 385 224 358 359 0 0 -14 3
62 228 364 1.0e-08 377 343 366 28 363 -0 0 377 343 26 51 363 229 0 362 378 344 0
 +-6.333333333329996e-04 0.001233333333333 8.359999999999999e-04 0.0 0.0 1.0 1.1
875e-04 1.0 -2.449293598294707e-16 0.0 81 1 364 230 6 362 0 0 379 345 365 83 3 3
65 0.200000002980232 0.200000002980232 0.200000002980232 15 366 231 0 367 362 0
 17 367 0 366 373 376 368 372 370 0 376 -18 368 232 0 372 352 0 369 ?20 29 369 2
33 0 368 0 353 -5.145833333329996e-04 0.001233333333333 8.359999999999999e-04 16
 370 234 0 ?372 359 374 371 0 0 20 31 371 235 0 370 375 360 0 +-6.33333333332999
6e-04 0.001233333333333 8.359999999999999e-04 0.0 0.0 1.0 1.0 -2.449293598294707
e-16 0.0 1.1875e-04 17 372 0 423 372 372 368 367 370 0 367 +17 373 0 366 245 367
 241 376 374 0 0 +16 374 236 0 ?373 370 383 375 0 0 20 30 375 237 0 374 384 371
 0 +-5.145833333329996e-04 0.001233333333333 8.359999999999999e-04 0.0 0.0 1.0 1
7 376 0 366 367 245 368 373 374 0 0 -14 377 238 379 1.0e-08 394 362 381 28 378 +
0 0 394 362 26 51 378 239 0 377 395 363 0 +9.303245400949997e-04 -0.001530324540
095 -4.135948333542e-06 -0.103962051183996 0.103962051183996 0.98913284437796 2.
0e-05 0.994521895368326 -9.187862050616777e-14 0.104528463267153 81 1 379 240 6
 377 0 0 396 364 380 83 3 380 0.200000002980232 0.200000002980232 0.200000002980
232 15 381 241 0 382 377 0 17 382 0 381 262 390 258 385 383 0 0 +16 383 242 0 ?3
82 374 387 384 0 0 20 31 384 243 0 383 388 375 0 +8.395001920799997e-04 -0.00143
950019208 8.6e-04 0.103962051184974 -0.103962051184974 -0.989132844377754 0.9945
21895368223 1.975256989641572e-14 0.104528463268136 2.0e-05 17 385 0 418 361 342
 352 382 383 0 0 -17 386 0 381 390 262 324 389 387 0 393 -16 387 244 0 ?389 383
 391 388 0 0 20 31 388 245 0 387 392 384 0 +9.277877497029998e-04 -0.00152778774
9703 2.0e-05 0.103962051184985 -0.103962051183985 -0.989132844377857 0.994521895
368223 8.941773194128261e-15 0.104528463268137 2.0e-05 17 389 0 413 314 323 252
 386 387 0 0 +17 390 0 381 382 386 352 393 391 0 385 +16 391 246 0 ?390 387 0 39
2 0 0 20 30 392 247 0 391 0 388 0 +9.502149780029997e-04 -0.001530324540095 -2.0
45379068189e-06 -0.103962051183996 0.103962051183996 0.98913284437796 17 393 0 4
08 333 351 324 390 391 0 0 -14 394 248 396 1.0e-08 399 377 398 28 395 +0 0 399 3
77 26 53 395 249 0 394 400 378 0 +9.277877497030005e-04 0.001527787749703 2.0e-0
5 2.0e-05 5.438524293786798e-30 2.22044604925e-14 1.0 1.140831379405947e-14 1.0
 -2.22044604925e-14 81 1 396 250 6 394 0 0 401 379 397 83 3 397 0.20000000298023
2 0.200000002980232 0.200000002980232 15 398 251 0 305 394 0 14 399 252 401 1.0e
-08 404 394 403 28 400 +0 0 404 394 26 53 400 253 0 399 405 395 0 +8.39500192080
0004e-04 0.00143950019208 8.6e-04 2.0e-05 0.0 0.0 -1.0 2.449293598294707e-16 1.0
 0.0 81 1 401 254 6 399 0 0 406 396 402 83 3 402 0.200000002980232 0.20000000298
0232 0.200000002980232 15 403 255 0 284 399 0 14 404 256 406 1.0e-08 409 399 408
 28 405 -0 0 409 399 26 50 405 257 0 404 410 400 0 +9.499999999999996e-04 -0.001
55 0.0 -0.994521895368234 2.435876111689334e-16 -0.104528463268025 2.44929359829
4707e-16 1.0 0.0 81 1 406 258 6 404 0 0 411 401 407 83 3 407 0.200000002980232 0
.200000002980232 0.200000002980232 15 408 259 0 351 404 0 14 409 260 411 1.0e-08
 414 404 413 28 410 +0 0 414 404 26 53 410 261 0 409 415 405 0 +9.27787749702999
8e-04 -0.001527787749703 2.0e-05 2.0e-05 1.110223024625e-14 2.602085213964997e-1
5 1.0 1.0 -3.134837763111471e-15 -1.110223024624999e-14 81 1 411 262 6 409 0 0 4
16 406 412 83 3 412 0.200000002980232 0.200000002980232 0.200000002980232 15 413
 263 0 389 409 0 14 414 264 416 1.0e-08 419 409 418 28 415 +0 0 419 409 26 53 41
5 265 0 414 420 410 0 +8.395001920799997e-04 -0.00143950019208 8.6e-04 2.0e-05 2
.22044604925e-14 -7.632783294298005e-15 -1.0 1.0 7.325371114744529e-15 2.2204460
49249994e-14 81 1 416 266 6 414 0 0 421 411 417 83 3 417 0.200000002980232 0.200
000002980232 0.200000002980232 15 418 267 0 361 414 0 14 419 268 421 1.0e-08 0 4
14 423 28 420 +0 0 0 414 26 50 420 269 0 419 0 415 0 +-6.333333333329996e-04 0.0
01233333333333 8.359999999999999e-04 0.0 0.0 1.0 1.0 -2.449293598294707e-16 0.0
 81 1 421 270 6 419 0 0 0 416 422 83 3 422 0.200000002980232 0.200000002980232 0
.200000002980232 15 423 271 0 372 419 0 12 424 68 0 425 0 0 0 0 1000.0 1.0e-08 0
 0 0 1 0 1 1 432 434 440 438 429 439 437 70 425 0 424 0 0 4 1 20 0 426 426 1 T74
 20 426 1 0 427 0 0 0 0 0 0 0 0 0 0 0 0 0 0 0 0 0 0 0 81 1 427 7 6 433 0 0 462 0
 428 83 3 428 0.800000011920929 0.800000011920929 0.800000011920929 19 429 1 0 4
24 431 0 430 V13 430 2 0 424 0 0 0 0 429 433 19 431 3 0 424 0 429 432 S13 432 4
 0 424 0 433 0 0 431 0 14 433 5 427 1.0e-08 460 0 435 432 434 -0 0 460 0 430 50
 434 6 0 433 461 0 0 +-0.0012 -0.0011675 0.0 1.0 -2.449293598294707e-16 0.0 0.0
 0.0 1.0 15 435 8 0 436 433 0 17 436 0 435 444 456 437 441 439 0 514 +18 437 9 0
 436 0 442 438 ?424 29 438 10 0 437 443 0 -0.0012 -7.324999999999998e-04 2.0e-04
 16 439 11 0 ?436 0 447 440 0 0 424 30 440 12 0 439 448 0 0 +-0.0012 -0.0011675
 2.0e-04 2.449293598294707e-16 1.0 0.0 17 441 0 524 497 514 442 436 439 0 494 -1
8 442 13 0 456 437 445 443 ?424 29 443 14 0 442 446 438 -0.0012 -0.0011675 2.0e-
04 17 444 0 435 450 436 445 449 447 0 0 -18 445 15 0 455 442 451 446 ?424 29 446
 16 0 445 452 443 -0.0012 -7.324999999999998e-04 0.0 16 447 17 0 ?449 439 453 44
8 0 0 424 30 448 18 0 447 454 440 0 +-0.0012 -7.324999999999998e-04 0.0 0.0 0.0
 1.0 17 449 0 506 511 507 437 444 447 0 0 +17 450 0 435 456 444 451 455 453 0 0
 -18 451 19 0 459 445 466 452 ?424 29 452 20 0 451 467 446 -0.0012 -0.0011675 0.
0 16 453 21 0 ?455 447 457 454 0 0 424 30 454 22 0 453 458 448 0 +-0.0012 -0.001
1675 0.0 2.449293598294707e-16 1.0 0.0 17 455 0 519 510 501 445 450 453 0 507 +1
7 456 0 435 436 450 442 459 457 0 441 +16 457 23 0 ?456 453 468 458 0 0 424 30 4
58 24 0 457 469 454 0 +-0.0012 -0.0011675 0.0 0.0 0.0 1.0 17 459 0 493 498 494 4
51 456 457 0 501 -14 460 25 462 1.0e-08 489 433 464 432 461 +0 0 489 433 430 50
 461 26 0 460 490 434 0 +-8.000000000000002e-04 -0.0011675 0.0 1.0 -2.4492935982
94707e-16 0.0 0.0 0.0 1.0 81 1 462 27 6 460 0 0 491 427 463 83 3 463 0.800000011
920929 0.800000011920929 0.800000011920929 15 464 28 0 465 460 0 17 465 0 464 47
3 485 466 470 468 0 478 -18 466 29 0 498 451 471 467 ?424 29 467 30 0 466 472 45
2 -8.000000000000002e-04 -0.0011675 0.0 16 468 31 0 ?470 457 476 469 0 0 424 30
 469 32 0 468 477 458 0 +-8.000000000000002e-04 -0.0011675 0.0 0.0 0.0 1.0 17 47
0 0 493 494 498 471 465 468 0 485 +18 471 33 0 497 466 474 472 ?424 29 472 34 0
 471 475 467 -8.000000000000002e-04 -0.0011675 2.0e-04 17 473 0 464 479 465 474
 478 476 0 484 +18 474 35 0 510 471 480 475 ?424 29 475 36 0 474 481 472 -8.0e-0
4 -7.324999999999999e-04 0.0 16 476 37 0 ?473 468 482 477 0 0 424 30 477 38 0 47
6 483 469 0 +-8.000000000000002e-04 -0.0011675 0.0 2.449293598294707e-16 1.0 0.0
 17 478 0 519 501 510 466 473 476 0 0 -17 479 0 464 485 473 480 484 482 0 0 +18
 480 39 0 488 474 0 481 ?424 29 481 40 0 480 0 475 -8.0e-04 -7.324999999999999e-
04 2.0e-04 16 482 41 0 ?479 476 486 483 0 0 424 30 483 42 0 482 487 477 0 +-8.0e
-04 -7.324999999999999e-04 0.0 0.0 0.0 1.0 17 484 0 506 507 511 474 479 482 0 0
 -17 485 0 464 465 479 471 488 486 0 0 -16 486 43 0 ?488 482 495 487 0 0 424 30
 487 44 0 486 496 483 0 +-8.000000000000002e-04 -0.0011675 2.0e-04 2.44929359829
4707e-16 1.0 0.0 17 488 0 524 514 497 480 485 486 0 511 +14 489 45 491 1.0e-08 5
02 460 493 432 490 -0 0 502 460 430 50 490 46 0 489 503 461 0 +-0.0012 -0.001167
5 0.0 2.449293598294707e-16 1.0 0.0 0.0 0.0 1.0 81 1 491 47 6 489 0 0 504 462 49
2 83 3 492 0.800000011920929 0.800000011920929 0.800000011920929 15 493 48 0 470
 489 0 17 494 0 493 459 470 442 497 495 0 0 -16 495 49 0 ?497 486 499 496 0 0 42
4 30 496 50 0 495 500 487 0 +-0.0012 -0.0011675 2.0e-04 1.0 -2.449293598294707e-
16 0.0 17 497 0 524 488 441 471 494 495 0 470 +17 498 0 493 470 459 466 501 499
 0 465 +16 499 51 0 ?498 495 508 500 0 0 424 30 500 52 0 499 509 496 0 +-0.0012
 -0.0011675 0.0 1.0 -2.449293598294707e-16 0.0 17 501 0 519 455 478 451 498 499
 0 450 -14 502 53 504 1.0e-08 515 489 506 432 503 +0 0 515 489 430 50 503 54 0 5
02 516 490 0 +-0.0012 -7.324999999999998e-04 0.0 2.449293598294707e-16 1.0 0.0 0
.0 0.0 1.0 81 1 504 55 6 502 0 0 517 491 505 83 3 505 0.800000011920929 0.800000
011920929 0.800000011920929 15 506 56 0 507 502 0 17 507 0 506 449 484 445 510 5
08 0 444 -16 508 57 0 ?510 499 512 509 0 0 424 30 509 58 0 508 513 500 0 +-0.001
2 -7.324999999999998e-04 0.0 1.0 -2.449293598294707e-16 0.0 17 510 0 519 478 455
 474 507 508 0 473 +17 511 0 506 484 449 480 514 512 0 479 +16 512 59 0 ?511 508
 0 513 0 0 424 30 513 60 0 512 0 509 0 +-0.0012 -7.324999999999998e-04 2.0e-04 1
.0 -2.449293598294707e-16 0.0 17 514 0 524 441 488 437 511 512 0 449 -14 515 61
 517 1.0e-08 520 502 519 432 516 -0 0 520 502 430 50 516 62 0 515 521 503 0 +-0.
0012 -0.0011675 0.0 0.0 0.0 1.0 1.0 -2.449293598294707e-16 0.0 81 1 517 63 6 515
 0 0 522 504 518 83 3 518 0.800000011920929 0.800000011920929 0.800000011920929
 15 519 64 0 510 515 0 14 520 65 522 1.0e-08 0 515 524 432 521 +0 0 0 515 430 50
 521 66 0 520 0 516 0 +-0.0012 -0.0011675 2.0e-04 0.0 0.0 1.0 1.0 -2.44929359829
4707e-16 0.0 81 1 522 67 6 520 0 0 0 517 523 83 3 523 0.800000011920929 0.800000
011920929 0.800000011920929 15 524 68 0 441 520 0 12 525 68 0 526 0 0 0 0 1000.0
 1.0e-08 0 0 0 1 0 1 1 533 535 541 539 530 540 538 70 526 0 525 0 0 4 1 20 0 527
 527 1 T74 20 527 1 0 528 0 0 0 0 0 0 0 0 0 0 0 0 0 0 0 0 0 0 0 81 1 528 7 6 534
 0 0 563 0 529 83 3 529 0.800000011920929 0.800000011920929 0.800000011920929 19
 530 1 0 525 532 0 531 V13 531 2 0 525 0 0 0 0 530 534 19 532 3 0 525 0 530 533
 S13 533 4 0 525 0 534 0 0 532 0 14 534 5 528 1.0e-08 561 0 536 533 535 -0 0 561
 0 531 50 535 6 0 534 562 0 0 +0.0012 2.174999999999997e-04 0.0 -1.0 3.673940397
441706e-16 0.0 0.0 0.0 1.0 15 536 8 0 537 534 0 17 537 0 536 545 557 538 542 540
 0 615 +18 538 9 0 537 0 543 539 ?525 29 539 10 0 538 544 0 0.0012 -2.1750000000
00003e-04 2.0e-04 16 540 11 0 ?537 0 548 541 0 0 525 30 541 12 0 540 549 0 0 +0.
0012 2.174999999999997e-04 2.0e-04 -3.673940397441706e-16 -1.0 0.0 17 542 0 625
 598 615 543 537 540 0 0 -18 543 13 0 595 538 546 544 ?525 29 544 14 0 543 547 5
39 0.0012 2.174999999999997e-04 2.0e-04 17 545 0 536 551 537 546 550 548 0 0 -18
 546 15 0 608 543 552 547 ?525 29 547 16 0 546 553 544 0.0012 -2.175000000000003
e-04 0.0 16 548 17 0 ?550 540 554 549 0 0 525 30 549 18 0 548 555 541 0 +0.0012
 -2.175000000000003e-04 0.0 0.0 0.0 1.0 17 550 0 607 612 608 538 545 548 0 0 +17
 551 0 536 557 545 552 556 554 0 0 -18 552 19 0 560 546 567 553 ?525 29 553 20 0
 552 568 547 0.0012 2.174999999999997e-04 0.0 16 554 21 0 ?556 548 558 555 0 0 5
25 30 555 22 0 554 559 549 0 +0.0012 2.174999999999997e-04 0.0 -3.67394039744170
6e-16 -1.0 0.0 17 556 0 620 611 602 546 551 554 0 545 +17 557 0 536 537 551 543
 560 558 0 542 +16 558 23 0 ?557 554 569 559 0 0 525 30 559 24 0 558 570 555 0 +
0.0012 2.174999999999997e-04 0.0 0.0 0.0 1.0 17 560 0 594 599 595 552 557 558 0
 602 -14 561 25 563 1.0e-08 590 534 565 533 562 +0 0 590 534 531 50 562 26 0 561
 591 535 0 +7.999999999999999e-04 2.174999999999999e-04 0.0 -1.0 3.6739403974417
06e-16 0.0 0.0 0.0 1.0 81 1 563 27 6 561 0 0 592 528 564 83 3 564 0.800000011920
929 0.800000011920929 0.800000011920929 15 565 28 0 566 561 0 17 566 0 565 574 5
86 567 571 569 0 579 -18 567 29 0 599 552 572 568 ?525 29 568 30 0 567 573 553 7
.999999999999999e-04 2.174999999999999e-04 0.0 16 569 31 0 ?571 558 577 570 0 0
 525 30 570 32 0 569 578 559 0 +7.999999999999999e-04 2.174999999999999e-04 0.0
 0.0 0.0 1.0 17 571 0 594 595 599 572 566 569 0 0 +18 572 33 0 598 567 575 573 ?
525 29 573 34 0 572 576 568 7.999999999999999e-04 2.174999999999999e-04 2.0e-04
 17 574 0 565 580 566 575 579 577 0 0 +18 575 35 0 585 572 581 576 ?525 29 576 3
6 0 575 582 573 7.999999999999998e-04 -2.175000000000001e-04 0.0 16 577 37 0 ?57
4 569 583 578 0 0 525 30 578 38 0 577 584 570 0 +7.999999999999999e-04 2.1749999
99999999e-04 0.0 -3.673940397441706e-16 -1.0 0.0 17 579 0 620 602 611 567 574 57
7 0 0 -17 580 0 565 586 574 581 585 583 0 612 +18 581 39 0 580 575 0 582 ?525 29
 582 40 0 581 0 576 7.999999999999998e-04 -2.175000000000001e-04 2.0e-04 16 583
 41 0 ?580 577 587 584 0 0 525 30 584 42 0 583 588 578 0 +7.999999999999998e-04
 -2.175000000000001e-04 0.0 0.0 0.0 1.0 17 585 0 607 608 612 575 580 583 0 611 -
17 586 0 565 566 580 572 589 587 0 571 -16 587 43 0 ?589 583 596 588 0 0 525 30
 588 44 0 587 597 584 0 +7.999999999999999e-04 2.174999999999999e-04 2.0e-04 -3.
673940397441706e-16 -1.0 0.0 17 589 0 625 615 598 581 586 587 0 0 +14 590 45 592
 1.0e-08 603 561 594 533 591 -0 0 603 561 531 50 591 46 0 590 604 562 0 +0.0012
 2.174999999999997e-04 0.0 -3.673940397441706e-16 -1.0 0.0 0.0 0.0 1.0 81 1 592
 47 6 590 0 0 605 563 593 83 3 593 0.800000011920929 0.800000011920929 0.8000000
11920929 15 594 48 0 571 590 0 17 595 0 594 560 571 543 598 596 0 557 -16 596 49
 0 ?598 587 600 597 0 0 525 30 597 50 0 596 601 588 0 +0.0012 2.174999999999997e
-04 2.0e-04 -1.0 3.673940397441706e-16 0.0 17 598 0 625 589 542 572 595 596 0 58
6 +17 599 0 594 571 560 567 602 600 0 566 +16 600 51 0 ?599 596 609 601 0 0 525
 30 601 52 0 600 610 597 0 +0.0012 2.174999999999997e-04 0.0 -1.0 3.673940397441
706e-16 0.0 17 602 0 620 556 579 552 599 600 0 551 -14 603 53 605 1.0e-08 616 59
0 607 533 604 +0 0 616 590 531 50 604 54 0 603 617 591 0 +0.0012 -2.175000000000
003e-04 0.0 -3.673940397441706e-16 -1.0 0.0 0.0 0.0 1.0 81 1 605 55 6 603 0 0 61
8 592 606 83 3 606 0.800000011920929 0.800000011920929 0.800000011920929 15 607
 56 0 608 603 0 17 608 0 607 550 585 546 611 609 0 556 -16 609 57 0 ?611 600 613
 610 0 0 525 30 610 58 0 609 614 601 0 +0.0012 -2.175000000000003e-04 0.0 -1.0 3
.673940397441706e-16 0.0 17 611 0 620 579 556 575 608 609 0 574 +17 612 0 607 58
5 550 581 615 613 0 589 +16 613 59 0 ?612 609 0 614 0 0 525 30 614 60 0 613 0 61
0 0 +0.0012 -2.175000000000003e-04 2.0e-04 -1.0 3.673940397441706e-16 0.0 17 615
 0 625 542 589 538 612 613 0 550 -14 616 61 618 1.0e-08 621 603 620 533 617 -0 0
 621 603 531 50 617 62 0 616 622 604 0 +0.0012 2.174999999999997e-04 0.0 0.0 0.0
 1.0 -1.0 3.673940397441706e-16 0.0 81 1 618 63 6 616 0 0 623 605 619 83 3 619 0
.800000011920929 0.800000011920929 0.800000011920929 15 620 64 0 611 616 0 14 62
1 65 623 1.0e-08 0 616 625 533 622 +0 0 0 616 531 50 622 66 0 621 0 617 0 +0.001
2 2.174999999999997e-04 2.0e-04 0.0 0.0 1.0 -1.0 3.673940397441706e-16 0.0 81 1
 623 67 6 621 0 0 0 618 624 83 3 624 0.800000011920929 0.800000011920929 0.80000
0011920929 15 625 68 0 542 621 0 12 626 68 0 627 0 0 0 0 1000.0 1.0e-08 0 0 0 1
 0 1 1 634 636 642 640 631 641 639 70 627 0 626 0 0 4 1 20 0 628 628 1 T74 20 62
8 1 0 629 0 0 0 0 0 0 0 0 0 0 0 0 0 0 0 0 0 0 0 81 1 629 7 6 635 0 0 664 0 630 8
3 3 630 0.800000011920929 0.800000011920929 0.800000011920929 19 631 1 0 626 633
 0 632 V13 632 2 0 626 0 0 0 0 631 635 19 633 3 0 626 0 631 634 S13 634 4 0 626
 0 635 0 0 633 0 14 635 5 629 1.0e-08 662 0 637 634 636 -0 0 662 0 632 50 636 6
 0 635 663 0 0 +-0.0012 7.325000000000004e-04 0.0 1.0 -2.449293598294707e-16 0.0
 0.0 0.0 1.0 15 637 8 0 638 635 0 17 638 0 637 646 658 639 643 641 0 716 +18 639
 9 0 651 0 644 640 ?626 29 640 10 0 639 645 0 -0.0012 0.0011675 2.0e-04 16 641 1
1 0 ?638 0 649 642 0 0 626 30 642 12 0 641 650 0 0 +-0.0012 7.325000000000004e-0
4 2.0e-04 2.449293598294707e-16 1.0 0.0 17 643 0 726 699 716 644 638 641 0 696 -
18 644 13 0 658 639 647 645 ?626 29 645 14 0 644 648 640 -0.0012 7.3250000000000
04e-04 2.0e-04 17 646 0 637 652 638 647 651 649 0 709 -18 647 15 0 657 644 653 6
48 ?626 29 648 16 0 647 654 645 -0.0012 0.0011675 0.0 16 649 17 0 ?651 641 655 6
50 0 0 626 30 650 18 0 649 656 642 0 +-0.0012 0.0011675 0.0 0.0 0.0 1.0 17 651 0
 708 713 709 639 646 649 0 638 +17 652 0 637 658 646 653 657 655 0 703 -18 653 1
9 0 661 647 668 654 ?626 29 654 20 0 653 669 648 -0.0012 7.325000000000004e-04 0
.0 16 655 21 0 ?657 649 659 656 0 0 626 30 656 22 0 655 660 650 0 +-0.0012 7.325
000000000004e-04 0.0 2.449293598294707e-16 1.0 0.0 17 657 0 721 712 703 647 652
 655 0 646 +17 658 0 637 638 652 644 661 659 0 643 +16 659 23 0 ?658 655 670 660
 0 0 626 30 660 24 0 659 671 656 0 +-0.0012 7.325000000000004e-04 0.0 0.0 0.0 1.
0 17 661 0 695 700 696 653 658 659 0 652 -14 662 25 664 1.0e-08 691 635 666 634
 663 +0 0 691 635 632 50 663 26 0 662 692 636 0 +-7.999999999999997e-04 7.325000
000000003e-04 0.0 1.0 -2.449293598294707e-16 0.0 0.0 0.0 1.0 81 1 664 27 6 662 0
 0 693 629 665 83 3 665 0.800000011920929 0.800000011920929 0.800000011920929 15
 666 28 0 667 662 0 17 667 0 666 675 687 668 672 670 0 680 -18 668 29 0 667 653
 673 669 ?626 29 669 30 0 668 674 654 -7.999999999999997e-04 7.325000000000003e-
04 0.0 16 670 31 0 ?672 659 678 671 0 0 626 30 671 32 0 670 679 660 0 +-7.999999
999999997e-04 7.325000000000003e-04 0.0 0.0 0.0 1.0 17 672 0 695 696 700 673 667
 670 0 687 +18 673 33 0 699 668 676 674 ?626 29 674 34 0 673 677 669 -7.99999999
9999997e-04 7.325000000000003e-04 2.0e-04 17 675 0 666 681 667 676 680 678 0 0 +
18 676 35 0 686 673 682 677 ?626 29 677 36 0 676 683 674 -7.999999999999997e-04
 0.0011675 0.0 16 678 37 0 ?675 670 684 679 0 0 626 30 679 38 0 678 685 671 0 +-
7.999999999999997e-04 7.325000000000003e-04 0.0 2.449293598294707e-16 1.0 0.0 17
 680 0 721 703 712 668 675 678 0 700 -17 681 0 666 687 675 682 686 684 0 713 +18
 682 39 0 681 676 0 683 ?626 29 683 40 0 682 0 677 -7.999999999999997e-04 0.0011
675 2.0e-04 16 684 41 0 ?681 678 688 685 0 0 626 30 685 42 0 684 689 679 0 +-7.9
99999999999997e-04 0.0011675 0.0 0.0 0.0 1.0 17 686 0 708 709 713 676 681 684 0
 712 -17 687 0 666 667 681 673 690 688 0 0 -16 688 43 0 ?690 684 697 689 0 0 626
 30 689 44 0 688 698 685 0 +-7.999999999999997e-04 7.325000000000003e-04 2.0e-04
 2.449293598294707e-16 1.0 0.0 17 690 0 726 716 699 682 687 688 0 0 +14 691 45 6
93 1.0e-08 704 662 695 634 692 -0 0 704 662 632 50 692 46 0 691 705 663 0 +-0.00
12 7.325000000000004e-04 0.0 2.449293598294707e-16 1.0 0.0 0.0 0.0 1.0 81 1 693
 47 6 691 0 0 706 664 694 83 3 694 0.800000011920929 0.800000011920929 0.8000000
11920929 15 695 48 0 672 691 0 17 696 0 695 661 672 644 699 697 0 0 -16 697 49 0
 ?699 688 701 698 0 0 626 30 698 50 0 697 702 689 0 +-0.0012 7.325000000000004e-
04 2.0e-04 1.0 -2.449293598294707e-16 0.0 17 699 0 726 690 643 673 696 697 0 672
 +17 700 0 695 672 661 668 703 701 0 0 +16 701 51 0 ?700 697 710 702 0 0 626 30
 702 52 0 701 711 698 0 +-0.0012 7.325000000000004e-04 0.0 1.0 -2.44929359829470
7e-16 0.0 17 703 0 721 657 680 653 700 701 0 0 -14 704 53 706 1.0e-08 717 691 70
8 634 705 +0 0 717 691 632 50 705 54 0 704 718 692 0 +-0.0012 0.0011675 0.0 2.44
9293598294707e-16 1.0 0.0 0.0 0.0 1.0 81 1 706 55 6 704 0 0 719 693 707 83 3 707
 0.800000011920929 0.800000011920929 0.800000011920929 15 708 56 0 709 704 0 17
 709 0 708 651 686 647 712 710 0 0 -16 710 57 0 ?712 701 714 711 0 0 626 30 711
 58 0 710 715 702 0 +-0.0012 0.0011675 0.0 1.0 -2.449293598294707e-16 0.0 17 712
 0 721 680 657 676 709 710 0 675 +17 713 0 708 686 651 682 716 714 0 690 +16 714
 59 0 ?713 710 0 715 0 0 626 30 715 60 0 714 0 711 0 +-0.0012 0.0011675 2.0e-04
 1.0 -2.449293598294707e-16 0.0 17 716 0 726 643 690 639 713 714 0 0 -14 717 61
 719 1.0e-08 722 704 721 634 718 -0 0 722 704 632 50 718 62 0 717 723 705 0 +-0.
0012 7.325000000000004e-04 0.0 0.0 0.0 1.0 1.0 -2.449293598294707e-16 0.0 81 1 7
19 63 6 717 0 0 724 706 720 83 3 720 0.800000011920929 0.800000011920929 0.80000
0011920929 15 721 64 0 712 717 0 14 722 65 724 1.0e-08 0 717 726 634 723 +0 0 0
 717 632 50 723 66 0 722 0 718 0 +-0.0012 7.325000000000004e-04 2.0e-04 0.0 0.0
 1.0 1.0 -2.449293598294707e-16 0.0 81 1 724 67 6 722 0 0 0 719 725 83 3 725 0.8
00000011920929 0.800000011920929 0.800000011920929 15 726 68 0 643 722 0 1 0 
